<svg width="183" height="40" viewBox="0 0 183 40" fill="none" xmlns="http://www.w3.org/2000/svg">
<path d="M31.6829 19.9999C31.6829 13.5643 26.4355 8.21777 19.9008 8.21777C13.4652 8.21777 8.21777 13.4652 8.21777 19.9999C8.21777 26.4355 13.4652 31.6829 19.9999 31.6829C22.5741 31.6829 24.9503 30.8908 26.8314 29.5048L23.5641 26.2374C22.475 26.8314 21.2868 27.2275 19.9997 27.2275C16.0394 27.2275 12.772 24.0593 12.772 19.9999C12.772 16.0396 15.9403 12.7723 19.9997 12.7723C23.2671 12.7723 26.0391 15.0495 26.9303 18.0197H15.4454L19.1087 21.7821H31.4848C31.6829 21.1879 31.6829 20.5939 31.6829 19.9999Z" fill="#002F63"/>
<path d="M29.4054 32.0788C26.8312 34.158 23.5638 35.3462 19.9997 35.3462C17.9825 35.3528 15.984 34.9603 14.1191 34.1915C12.2542 33.4226 10.5599 32.2924 9.13351 30.8661C7.70716 29.4397 6.57701 27.7453 5.80813 25.8805C5.03924 24.0156 4.64681 22.017 4.65341 19.9999C4.65341 16.4355 5.8416 13.1684 7.92077 10.5941L4.55448 7.22785C1.68325 10.6931 0 15.1486 0 20.0001C0 30.9902 8.9109 40 19.9997 40C24.8512 40 29.3065 38.3167 32.7719 35.4455L29.4054 32.0788ZM10.495 7.92077C13.0692 5.8416 16.3366 4.65341 19.9008 4.65341C21.9179 4.64681 23.9165 5.03924 25.7814 5.80813C27.6462 6.57701 29.3406 7.70715 30.767 9.1335C32.1934 10.5598 33.3235 12.2542 34.0924 14.1191C34.8614 15.984 35.2538 17.9825 35.2472 19.9997C35.2472 23.564 34.0591 26.8312 31.9799 29.4054L35.2472 32.6728C38.1185 29.2076 39.8015 24.7522 39.8015 19.9006C39.9006 8.91069 30.9898 0 19.9997 0C15.1482 0 10.6929 1.68325 7.22765 4.55448L10.495 7.92077Z" fill="#002F63"/>
<path d="M71.1815 15.8348H67.0167V30.5506H71.1815V23.0538C71.1815 20.2773 73.958 19.7218 76.4567 19.7218V15.5571C74.2355 15.5571 72.5697 16.1123 71.1815 17.5006V15.8348ZM105.333 16.6678C104.223 15.8348 102.834 15.5573 101.168 15.5573C97.0037 15.5573 93.9495 18.8893 93.9495 23.3318C93.9495 27.7743 97.2812 31.1061 101.168 31.1061C102.834 31.1061 104.223 30.5508 105.333 29.9953V30.8283H109.498V8.89355H105.333V16.6678ZM105.333 25.5528C104.5 26.9411 103.112 27.2188 101.724 27.2188C99.5025 27.2188 97.8365 25.2751 97.8365 23.0538C97.8365 20.8326 99.5025 18.8891 101.724 18.8891C103.112 18.8891 104.223 19.4443 105.333 20.5551V25.5528ZM117.272 15.8348H113.108V30.5506H117.272V15.8348ZM127.268 24.9976L123.381 15.8348H118.938L125.324 30.5506H129.212L135.598 15.8348H130.878L127.268 24.9976ZM141.429 15.8348H137.264V30.5506H141.429V15.8348ZM153.367 21.6656L150.591 21.1103C149.202 20.8326 148.925 20.2773 148.925 19.7218C148.925 19.1666 149.758 18.3336 151.146 18.3336C152.534 18.3336 153.645 18.8888 153.922 20.2771H157.81C157.532 16.1123 153.645 15.2793 151.146 15.2793C147.259 15.2793 144.76 17.2231 144.76 20.2771C144.76 23.0536 146.981 24.1643 149.202 24.7196L152.256 25.2748C153.367 25.5526 153.645 25.8301 153.645 26.3853C153.645 27.2183 152.534 27.7738 151.146 27.7738C149.48 27.7738 148.369 27.2186 148.092 25.5526H144.205C144.482 29.7173 147.814 31.1056 151.146 31.1056C155.033 31.1056 157.81 29.4396 157.81 26.1078C157.81 23.3316 155.866 22.2208 153.367 21.6656ZM164.751 15.8348H160.587V30.5506H164.751V15.8348ZM57.5765 15.5571C52.8565 15.5571 49.8022 18.8891 49.8022 23.3316C49.8022 27.7741 52.8565 31.1058 57.5765 31.1058C61.186 31.1058 63.9625 29.1623 64.518 26.3858H60.3532C59.798 26.9411 58.965 27.4966 57.8542 27.4966C56.1882 27.4966 54.8 26.6636 54.2447 24.9978H65.0732V23.0541C65.0732 18.6113 61.7415 15.5571 57.5765 15.5571ZM53.967 21.9431C54.5222 19.9996 55.9105 19.1666 57.299 19.1666C58.965 19.1666 60.3532 20.2773 60.3532 21.9431H53.967ZM84.787 15.5571C80.067 15.5571 77.0127 18.8891 77.0127 23.3316C77.0127 27.7741 80.0667 31.1058 85.0647 31.1058C88.6742 31.1058 91.1732 29.1623 92.006 26.3858H87.5635C87.0082 27.2188 86.1752 27.4966 85.0647 27.4966C83.3987 27.4966 82.0105 26.6636 81.455 24.9978H92.2837V23.0541C92.006 18.6113 88.952 15.5571 84.787 15.5571ZM81.1775 21.9431C81.7327 19.9996 83.121 19.1666 84.5095 19.1666C86.1755 19.1666 87.5635 20.2773 87.5635 21.9431H81.1775ZM182.244 23.0538C182.244 18.6113 179.19 15.5573 175.025 15.5573C170.305 15.5573 167.25 18.8893 167.25 23.3318C167.25 27.7743 170.304 31.1061 175.025 31.1061C178.634 31.1061 181.133 29.1626 181.966 26.3861H177.524C176.968 27.2191 176.135 27.4968 175.025 27.4968C173.359 27.4968 171.97 26.6638 171.415 24.9981H182.244V23.0538ZM171.415 21.9431C171.97 19.9996 173.359 19.1666 174.747 19.1666C176.413 19.1666 177.801 20.2773 177.801 21.9431H171.415Z" fill="#002F63"/>
</svg>
