<svg width="133" height="80" viewBox="0 0 133 80" fill="none" xmlns="http://www.w3.org/2000/svg">
<g clip-path="url(#clip0_796_52045)">
<path d="M75.808 9.024L80.096 10.144L80.768 7.52L76.352 6.4C73.952 5.76 72.288 6.688 71.712 8.928L69.92 15.872C69.824 16.192 69.856 16.48 70.016 16.736C70.176 16.992 70.4 17.152 70.72 17.248L72.352 17.664L73.504 13.184L78.464 14.464L79.136 11.872L74.176 10.592L74.368 9.856C74.624 8.896 74.912 8.8 75.808 9.024ZM61.92 5.216L54.784 6.656C54.464 6.72 54.208 6.88 54.048 7.136C53.888 7.392 53.824 7.68 53.888 8L55.296 15.008C55.52 16.16 56.032 16.96 56.8 17.44C57.312 17.76 57.92 17.92 58.624 17.92C58.976 17.92 59.36 17.888 59.776 17.792L64.224 16.896L63.68 14.24L59.328 15.136C58.432 15.328 58.144 15.232 57.952 14.208L57.792 13.44L62.816 12.416L62.272 9.792L57.248 10.816L56.96 8.96L62.432 7.84L61.92 5.216ZM92.16 15.136C92.288 14.72 92.384 14.112 91.712 13.6L91.264 13.28C90.592 12.768 90.048 12.992 89.664 13.248L79.488 19.808L82.144 21.312L88.64 17.12L87.52 20.896L86.528 20.16L84.832 21.376L86.944 22.944L86.464 24.64L88.8 26.784L92.16 15.136ZM37.056 13.12C45.088 6.208 55.456 2.4 66.336 2.4C77.184 2.4 87.584 6.208 95.616 13.12C96.448 13.824 97.248 14.592 98.016 15.36L99.52 13.504C98.784 12.768 97.984 12.032 97.184 11.328C88.704 4.032 77.76 0 66.336 0C54.912 0 43.968 4.032 35.52 11.328C34.72 12.032 33.92 12.768 33.184 13.504L34.688 15.36C35.456 14.592 36.224 13.824 37.056 13.12ZM66.336 22.112C74.08 22.112 81.184 25.696 85.376 30.912L86.848 29.12C82.24 23.616 74.688 19.872 66.336 19.872C57.984 19.872 50.432 23.584 45.824 29.12L47.296 30.912C51.488 25.696 58.592 22.112 66.336 22.112ZM46.848 21.024C46.304 21.472 45.664 21.696 45.088 21.632C44.384 21.536 43.936 21.248 43.232 20.384L39.136 15.36L36.928 17.152L41.376 22.624C42.336 23.776 43.392 24.416 44.672 24.512C44.832 24.512 44.96 24.544 45.12 24.544C46.336 24.544 47.488 24.128 48.608 23.232C49.856 22.208 50.528 21.056 50.688 19.648C50.848 18.368 50.432 17.184 49.504 16.032L45.056 10.56L42.848 12.352L46.944 17.376C47.648 18.24 47.84 18.72 47.776 19.456C47.744 20 47.392 20.576 46.848 21.024ZM49.504 40.8H53.632C55.904 40.8 56.768 41.984 56.768 43.552C56.768 45.152 55.904 46.304 53.632 46.304H49.504V40.8ZM57.312 59.968H63.52L58.144 50.272C60.576 48.896 62.304 46.72 62.304 43.552C62.304 38.816 58.464 35.84 53.6 35.84H44.032V59.968H49.536V51.296H52.512L57.312 59.968ZM42.176 74.08H48.192V71.168H42.176V68.544H48.704V65.632H38.944V79.744H48.864V76.832H42.176V74.08ZM56.16 74.176L57.824 69.856L59.488 74.176H56.16ZM56.096 65.664L50.368 79.776H54.016L55.04 77.088H60.544L61.568 79.776H65.216L59.52 65.664H56.096ZM117.12 50.432L119.936 43.008L122.752 50.432H117.12ZM122.88 35.84H117.024L107.232 59.968H113.472L115.232 55.392H124.672L126.432 59.968H132.672L122.88 35.84ZM71.584 74.688H75.936V75.68C75.232 76.48 74.112 77.056 72.704 77.056C70.272 77.056 68.416 75.616 68.416 72.672C68.416 69.696 70.4 68.288 72.32 68.288C74.08 68.288 75.2 69.12 75.68 70.72L78.752 69.824C78.016 67.168 75.968 65.408 72.352 65.408C68.48 65.408 65.184 68.192 65.184 72.704C65.184 77.216 68.448 80 72.384 80C75.456 80 77.344 78.784 78.88 76.896V72.192H71.52V74.688H71.584ZM89.152 74.016C89.152 75.904 88.192 77.088 86.4 77.088C84.64 77.088 83.648 75.904 83.648 74.016V65.632H80.416V74.208C80.416 78.144 83.136 80 86.368 80C89.6 80 92.32 78.112 92.32 74.208V65.632H89.088V74.016H89.152ZM97.408 74.08H103.424V71.168H97.408V68.544H103.936V65.632H94.176V79.744H104.096V76.832H97.408V74.08ZM30.752 65.664H27.552V79.776H37.472V76.864H30.752V65.664ZM40.512 35.84H35.008V50.176C35.008 53.408 33.344 55.424 30.336 55.424C27.296 55.424 25.664 53.44 25.664 50.176V35.84H20.096V50.496C20.096 57.216 24.736 60.384 30.304 60.384C35.84 60.384 40.512 57.184 40.512 50.496V35.84ZM97.024 40.8H100.672C103.104 40.8 104.096 42.08 104.096 43.84C104.096 45.6 103.136 46.88 100.672 46.88H97.024V40.8ZM91.52 59.968H97.024V51.84H100.96C105.728 51.84 109.6 49.088 109.6 43.84C109.6 38.592 105.696 35.84 100.96 35.84H91.52V59.968ZM76.576 40.256C80.032 40.256 82.752 42.72 82.752 47.904C82.752 53.056 80.032 55.552 76.576 55.552C73.12 55.552 70.4 53.088 70.4 47.904C70.4 42.72 73.12 40.256 76.576 40.256ZM76.576 60.512C83.68 60.512 88.256 55.712 88.256 47.904C88.256 40.096 83.68 35.296 76.576 35.296C69.472 35.296 64.896 40.096 64.896 47.904C64.896 55.712 69.472 60.512 76.576 60.512ZM5.504 50.272H15.776V45.312H5.504V40.8H16.672V35.84H0V59.968H16.96V55.008H5.504V50.272Z" fill="black"/>
</g>
<defs>
<clipPath id="clip0_796_52045">
<rect width="132.672" height="80" fill="white"/>
</clipPath>
</defs>
</svg>
