<svg width="141" height="40" viewBox="0 0 141 40" fill="none" xmlns="http://www.w3.org/2000/svg">
<g clip-path="url(#clip0_796_52050)">
<path d="M62.3775 24.8151V29.1476H52.3775L50.3768 26.8897C50.0421 26.5199 49.859 26.0021 49.859 25.5195V7.62945H54.3394V24.8151H62.3775ZM96.4881 24.8151V29.1476H86.4881L84.4874 26.8897C84.1527 26.5199 83.9696 26.0021 83.9696 25.5195V7.62945H88.45V24.8151H96.4881ZM99.0066 7.62945H103.487V29.1476H99.0066V7.62945ZM78.1189 13.8147L76.9319 9.14759C76.71 8.25995 75.8963 7.62945 74.9699 7.62945H69.7498L68.1577 13.8147L64.7868 27.0377C64.7128 27.3336 64.674 27.6294 64.674 27.9253V29.1476H68.6755L69.5279 25.8894L76.1957 22.7052L77.8618 29.1476H81.6025V27.1856L78.1224 13.8147H78.1189ZM70.6022 21.7048L72.6381 13.7795L73.2686 11.335L73.8991 13.7795L75.9351 21.7048H70.6022ZM137.45 13.8147L136.266 9.14759C136.044 8.25995 135.231 7.62945 134.304 7.62945H129.081L127.488 13.8147L124.082 27.0377C124.008 27.3336 123.97 27.6294 123.97 27.9253V29.1476H127.971L128.823 25.8894L135.491 22.7052L137.157 29.1476H140.898V27.1856L137.453 13.8147H137.45ZM129.894 21.7048L131.93 13.7795L132.561 11.335L133.191 13.7795L135.227 21.7048H129.894ZM122.525 21.3702V22.4445C122.525 26.2592 119.45 29.3343 115.636 29.3343H113.561C112.709 29.3343 111.895 29.1863 111.155 28.8905C108.528 27.9288 106.675 25.3716 106.675 22.448V14.5579C106.675 14.2973 106.675 14.0402 106.714 13.8182C107.009 11.187 108.749 9.00317 111.159 8.11553C111.898 7.81966 112.716 7.67172 113.565 7.67172H115.639C119.193 7.67172 122.12 10.3769 122.49 13.8182H118.119V13.3005C118.119 12.448 117.453 11.7823 116.601 11.7823H112.677C111.824 11.7823 111.159 12.448 111.159 13.3005V23.6316C111.159 24.484 111.824 25.1497 112.677 25.1497H116.601C117.453 25.1497 118.119 24.484 118.119 23.6316V20.8524H114.339V16.5939H119.524L119.598 16.6678L121.486 18.7038C122.156 19.4082 122.525 20.3698 122.525 21.3702ZM8.8234 19.1863H17.7491L4.15626 26.0761L4.04707 25.8894L1.08476 21.962C-0.32419 20.1092 -0.359413 17.5555 0.972041 15.664L12.1591 0H22.4902L8.8234 19.1863ZM20.4155 31.9267H30.8593L14.9347 40L14.8607 39.8873L11.3419 35.2589C9.93294 33.4449 9.89772 30.9264 11.2292 29.0384L31.4546 0H42.6769L20.419 31.9267H20.4155Z" fill="#FF4B44"/>
</g>
<defs>
<clipPath id="clip0_796_52050">
<rect width="140.898" height="40" fill="white"/>
</clipPath>
</defs>
</svg>
