<svg width="186" height="40" viewBox="0 0 186 40" fill="none" xmlns="http://www.w3.org/2000/svg">
<path fill-rule="evenodd" clip-rule="evenodd" d="M41.0732 25.9872L38.7002 28.8022C42.4332 33.2572 49.9112 30.7562 49.9112 24.2522V13.0802H52.5142V9.70623H43.6342V13.0792H46.2512V24.1272C46.2812 27.3852 42.9402 28.3162 41.0732 25.9872ZM52.2762 29.7632H55.7862V26.3802H52.2762V29.7632ZM84.5091 20.6672V26.3812H91.9571V22.9202H95.4231V29.7622H78.4431V26.3812H81.0451V13.0782H78.4431V9.70623H95.4231V15.7202H91.9571V13.0782H84.5091V17.4312H90.2261V20.6672H84.5091ZM136.564 15.4872C135.12 13.9082 133.555 12.8012 131.284 12.8012C127.3 12.8012 124.174 15.6312 124.174 19.7022C124.174 23.7752 127.21 26.6642 131.194 26.6642C134.185 26.6642 136.452 24.9612 137.37 22.3672H131.02V18.8602H141.427C141.434 19.1752 141.438 19.3392 141.438 19.5042C141.435 26.1202 136.572 30.2892 131.126 30.2892C124.786 30.2892 120.664 25.4792 120.664 19.5042C120.664 13.6832 125.43 9.11523 131.126 9.11523C133.236 9.11523 135.005 9.66523 136.564 10.7982V9.70623H140.095V16.8222H136.564V15.4872ZM114.873 9.70623V13.0792H112.634L117.968 26.3812H120.133V29.7632H111.922V26.3802H114.14L109.36 13.8202L104.579 26.3802H106.797V29.7622H98.5861V26.3802H100.75L106.085 13.0782H103.846V9.70623H114.873ZM154.486 30.3722C150.403 30.3722 146.323 27.2482 146.323 21.7862V13.0782H143.66V9.70623H152.353V13.0782H149.698V21.6042C149.698 24.4472 151.743 26.7512 154.486 26.7512C157.228 26.7512 159.274 24.4472 159.274 21.6042V13.0782H156.618V9.70623H165.312V13.0782H162.65V21.7862C162.65 27.3402 158.568 30.3722 154.486 30.3722ZM174.502 20.6672V26.3812H181.949V22.9202H185.415V29.7622H168.434V26.3812H171.036V13.0782H168.434V9.70623H185.415V15.7202H181.949V13.0782H174.502V17.4312H180.218V20.6672H174.502ZM68.0151 9.70623H59.2272V13.0792H61.8292V26.3802H59.2272V29.7622H75.3121V22.9182H71.8461V26.3802H65.2951V13.0792H68.0151V9.70623Z" fill="#231F20"/>
<path fill-rule="evenodd" clip-rule="evenodd" d="M13.8047 0C13.8047 0 13.8047 17.6274 13.8207 18.0981C13.4603 18.0883 0.415527 18.0872 0.415527 18.0872V22.2981C0.415527 27.0265 2.25038 31.4717 5.58155 34.8158C8.91383 38.1586 13.3435 40 18.0555 40C22.7672 40 27.197 38.1586 30.5283 34.8148C33.8605 31.4718 35.6953 27.0265 35.6953 22.2981V0.000245942L13.8047 0Z" fill="#FEFEFE"/>
<path fill-rule="evenodd" clip-rule="evenodd" d="M14.3195 0.516602V18.5381C14.2978 18.5611 14.2749 18.5819 14.2531 18.6047L0.930176 18.6038V22.2983C0.930176 31.7898 8.59728 39.4837 18.0556 39.4837C27.5128 39.4837 35.1808 31.7898 35.1808 22.2983V0.516602H14.3195Z" fill="#231F20"/>
<path fill-rule="evenodd" clip-rule="evenodd" d="M25.5142 24.4668C22.6016 24.4668 20.2402 26.8365 20.2402 29.7593C20.2402 32.6821 22.6016 35.0518 25.5142 35.0518C28.4268 35.0518 30.7882 32.6821 30.7882 29.7593C30.7882 26.8365 28.4268 24.4668 25.5142 24.4668Z" fill="#EC1D24"/>
<path fill-rule="evenodd" clip-rule="evenodd" d="M18.0553 16.9805C15.1426 16.9805 12.7812 19.35 12.7812 22.273C12.7812 25.1958 15.1426 27.5655 18.0553 27.5655C20.9678 27.5655 23.3291 25.1958 23.3291 22.273C23.3291 19.35 20.9678 16.9805 18.0553 16.9805Z" fill="#FEFEFE"/>
<path fill-rule="evenodd" clip-rule="evenodd" d="M38.7367 38.3699L39.3617 36.5769L39.5687 35.9479C39.5687 35.9479 39.5117 36.3479 39.5117 36.6309V38.3699H40.4177V34.4839H39.2397C39.2397 34.4839 38.3737 37.0029 38.3497 37.1429C38.3247 37.0029 37.4597 34.4839 37.4597 34.4839H36.2827V38.3699H37.1877V36.6299C37.1877 36.3469 37.1297 35.9479 37.1297 35.9479L37.3377 36.5769L37.9617 38.3699H38.7367ZM35.4117 34.4839V35.2979H34.2957V38.3689H33.3387V35.2979H32.2237L32.2207 34.4839H35.4117Z" fill="#231F20"/>
</svg>
