<svg width="197" height="40" viewBox="0 0 197 40" fill="none" xmlns="http://www.w3.org/2000/svg">
<path d="M0 29.0723H10.5498L17.2335 40L0 29.0723Z" fill="#1A1659"/>
<path d="M34.4841 29.0723H23.9172L17.2334 40L34.4841 29.0723Z" fill="#1A1659"/>
<path d="M10.5498 29.0722H17.2336H23.9174L17.2336 11.4263L10.5498 29.0722Z" fill="#1A1659"/>
<path d="M17.2336 40L23.9174 29.0723H10.5498L17.2336 40Z" fill="url(#paint0_linear_796_52047)"/>
<path d="M17.2335 11.426L20.1201 19.0377H16.4775L14.0033 25.6012H22.6115L23.9173 29.072H34.4843L21.993 0C18.8143 0 15.6528 0 12.4741 0L0 29.072H10.5669L17.2335 11.426Z" fill="url(#paint1_linear_796_52047)"/>
<path d="M44.6568 31.7183C44.5066 31.5681 44.3564 31.1925 44.5817 30.9671L48.0371 26.9859C48.1873 26.7606 48.4878 26.7606 48.7132 26.9108C50.7413 28.5634 53.5207 30.0657 56.8258 30.0657C60.0559 30.0657 61.8587 28.5634 61.8587 26.385C61.8587 24.5822 60.7319 23.4554 57.0512 22.9296L55.3986 22.7042C49.0888 21.8028 45.6334 18.8732 45.6334 13.4648C45.6334 7.75587 49.915 4 56.6005 4C60.6568 4 64.4878 5.20189 67.1169 7.23006C67.4174 7.3803 67.4174 7.60564 67.192 7.90611L64.4127 12.0376C64.2625 12.2629 64.0371 12.338 63.8118 12.1878C61.4831 10.6103 59.1545 9.85917 56.6005 9.85917C53.8963 9.85917 52.469 11.2864 52.469 13.2394C52.469 15.0423 53.746 16.169 57.2765 16.6197L58.9291 16.8451C65.3141 17.7465 68.6944 20.6009 68.6944 26.2347C68.6944 31.7934 64.5629 36 56.5254 36C51.7179 35.9249 47.0606 34.0469 44.6568 31.7183Z" fill="#1A1659"/>
<path d="M72.3008 4.97659C72.3008 4.67612 72.451 4.52588 72.7515 4.52588H92.5825C92.8829 4.52588 93.0332 4.67612 93.0332 4.97659V9.85922C93.0332 10.1597 92.8829 10.3099 92.5825 10.3099H79.2116C79.0613 10.3099 78.9111 10.385 78.9111 10.6104V16.77C78.9111 16.9202 78.9862 17.0705 79.2116 17.0705H90.3289C90.6294 17.0705 90.7796 17.2207 90.7796 17.5212V22.3287C90.7796 22.6291 90.6294 22.7794 90.3289 22.7794H79.2116C79.0613 22.7794 78.9111 22.8545 78.9111 23.0799V29.4648C78.9111 29.6151 78.9862 29.7653 79.2116 29.7653H92.5073C92.8078 29.7653 92.9581 29.9155 92.9581 30.216V35.0986C92.9581 35.3991 92.8078 35.5493 92.5073 35.5493H72.7515C72.451 35.5493 72.3008 35.3991 72.3008 35.0986V4.97659Z" fill="#1A1659"/>
<path d="M114.141 35.399C113.766 35.399 113.616 35.2488 113.465 34.9483L108.132 23.6056H104.001C103.85 23.6056 103.7 23.6807 103.7 23.9061V34.9483C103.7 35.2488 103.55 35.399 103.249 35.399H97.4654C97.1649 35.399 97.0146 35.2488 97.0146 34.9483V4.90139C97.0146 4.60092 97.1649 4.45068 97.4654 4.45068H109.785C116.094 4.45068 120.301 8.43189 120.301 14.0657C120.301 18.0469 118.198 21.1267 114.817 22.6291L120.902 34.7981C121.052 35.0986 120.902 35.3239 120.602 35.3239H114.141V35.399ZM113.691 14.1408C113.691 11.8122 112.038 10.3098 109.484 10.3098H104.001C103.85 10.3098 103.7 10.385 103.7 10.6103V17.7465C103.7 17.8967 103.775 18.0469 104.001 18.0469H109.484C112.038 17.9718 113.691 16.4695 113.691 14.1408Z" fill="#1A1659"/>
<path d="M124.508 4.97659C124.508 4.67612 124.658 4.52588 124.959 4.52588H130.743C131.043 4.52588 131.193 4.67612 131.193 4.97659V35.0235C131.193 35.324 131.043 35.4742 130.743 35.4742H125.034C124.733 35.4742 124.583 35.324 124.583 35.0235V4.97659H124.508Z" fill="#1A1659"/>
<path d="M136.226 4.97659C136.226 4.67612 136.376 4.52588 136.676 4.52588H156.507C156.808 4.52588 156.958 4.67612 156.958 4.97659V9.85922C156.958 10.1597 156.808 10.3099 156.507 10.3099H143.212C143.061 10.3099 142.911 10.385 142.911 10.6104V16.77C142.911 16.9202 142.986 17.0705 143.212 17.0705H154.329C154.629 17.0705 154.78 17.2207 154.78 17.5212V22.3287C154.78 22.6291 154.629 22.7794 154.329 22.7794H143.212C143.061 22.7794 142.911 22.8545 142.911 23.0799V29.4648C142.911 29.6151 142.986 29.7653 143.212 29.7653H156.507C156.808 29.7653 156.958 29.9155 156.958 30.216V35.0986C156.958 35.3991 156.808 35.5493 156.507 35.5493H136.676C136.376 35.5493 136.226 35.3991 136.226 35.0986V4.97659Z" fill="#1A1659"/>
<path d="M179.193 4.97659C179.268 4.67612 179.493 4.52588 179.794 4.52588H185.503C185.803 4.52588 186.028 4.67612 186.104 4.97659L196.545 35.0235C196.62 35.324 196.545 35.4742 196.244 35.4742H190.31C190.01 35.4742 189.784 35.324 189.709 35.0235L187.906 29.6151H177.09L175.362 35.0235C175.287 35.324 175.061 35.4742 174.761 35.4742H168.827C168.526 35.4742 168.451 35.324 168.526 35.0235L179.193 4.97659ZM186.104 23.9061L182.573 13.0893H182.423L178.892 23.9061H186.104Z" fill="#1A1659"/>
<defs>
<linearGradient id="paint0_linear_796_52047" x1="10.5567" y1="34.5292" x2="23.9178" y2="34.5292" gradientUnits="userSpaceOnUse">
<stop stop-color="#31ECFF"/>
<stop offset="0.049371" stop-color="#2DE2FF"/>
<stop offset="0.2964" stop-color="#1BB2FF"/>
<stop offset="0.5147" stop-color="#0E90FF"/>
<stop offset="0.694" stop-color="#067BFF"/>
<stop offset="0.8118" stop-color="#0373FF"/>
</linearGradient>
<linearGradient id="paint1_linear_796_52047" x1="27.1391" y1="1.87684" x2="15.2257" y2="34.6086" gradientUnits="userSpaceOnUse">
<stop stop-color="#31ECFF"/>
<stop offset="0.0488274" stop-color="#2DE2FF"/>
<stop offset="0.2932" stop-color="#1BB2FF"/>
<stop offset="0.5091" stop-color="#0E90FF"/>
<stop offset="0.6863" stop-color="#067BFF"/>
<stop offset="0.8028" stop-color="#0373FF"/>
</linearGradient>
</defs>
</svg>
