<svg width="40" height="40" viewBox="0 0 40 40" fill="none" xmlns="http://www.w3.org/2000/svg">
<path d="M20 0C8.976 0 0 8.968 0 20C0 31.024 8.976 40 20 40C31.032 40 40 31.024 40 20C40 8.968 31.032 0 20 0Z" fill="#212121"/>
<path d="M20 2C10.0784 2 2 10.0712 2 20C2 29.9216 10.0784 38 20 38C29.9288 38 38 29.9216 38 20C38 10.0712 29.9288 2 20 2Z" fill="white"/>
<path d="M20 2.80005C10.5194 2.80005 2.80005 10.5125 2.80005 20C2.80005 29.4807 10.5194 37.2001 20 37.2001C29.4876 37.2001 37.2001 29.4807 37.2001 20C37.2001 10.5125 29.4876 2.80005 20 2.80005Z" fill="#121212"/>
<g opacity="0.5">
<path fill-rule="evenodd" clip-rule="evenodd" d="M13.3565 31.6666L13.2334 16.0377L26.4103 8.33325L26.5334 23.9621L13.3565 31.6666ZM13.7842 30.902L13.6692 16.2974L25.9826 9.09784L26.0976 23.7024L13.7842 30.902ZM13.9564 26.2531L14.7512 24.8324L18.394 27.0029L17.5992 28.4236L25.7417 23.6628C24.4941 22.9195 23.2389 22.1757 21.9949 21.4345C21.1231 22.8622 19.5151 23.4544 18.3417 22.7553C17.1684 22.0562 16.8615 20.323 17.6237 18.8301C16.3795 18.0888 15.1278 17.3388 13.8804 16.5956L13.9564 26.2531ZM17.2391 28.6341L18.0723 27.1448L14.793 25.1909L13.9598 26.6802L13.9902 30.5338L17.2391 28.6341ZM14.025 16.337C15.2723 17.0802 16.5294 17.824 17.7724 18.5645C18.6443 17.1376 20.252 16.5456 21.4249 17.2445C22.5979 17.9434 22.9051 19.676 22.1435 21.1689C23.3863 21.9094 24.6392 22.6611 25.8864 23.4043L25.8104 13.7467L25.0156 15.1674L21.3728 12.9969L22.1676 11.5762L14.025 16.337ZM25.8069 13.3195L24.9737 14.8089L21.6943 12.855L22.5276 11.3656L25.7766 9.46601L25.8069 13.3195ZM17.9502 18.6705C18.7528 17.3671 20.2248 16.8279 21.2997 17.4684C22.3746 18.1088 22.6581 19.694 21.9656 21.063L20.2339 20.0312C20.2696 19.8661 20.2175 19.7029 20.0916 19.6279C19.9656 19.5528 19.8026 19.5879 19.6819 19.7023L17.9502 18.6705ZM21.8171 21.3284C21.0147 22.6325 19.5422 23.172 18.4671 22.5315C17.3921 21.8909 17.1084 20.3051 17.8017 18.9359L19.5332 19.9676C19.4971 20.133 19.549 20.2968 19.6752 20.372C19.8015 20.4472 19.9648 20.4117 20.0857 20.2968L21.8171 21.3284Z" fill="white"/>
</g>
</svg>
