<svg width="101" height="32" viewBox="0 0 101 32" fill="none" xmlns="http://www.w3.org/2000/svg">
<path d="M44.6856 6.71998H49.4792C49.7704 6.71998 50.0429 6.75358 50.2968 6.82078C50.5506 6.88798 50.7784 6.98131 50.98 7.10078C51.1816 7.22025 51.3458 7.36211 51.4728 7.52638C51.6072 7.68318 51.6893 7.85118 51.7192 8.03038H51.8648L51.764 4.47998H52.7944V13.44H51.764L51.8648 11.7824H51.7192C51.6893 11.969 51.6072 12.1594 51.4728 12.3536C51.3458 12.5477 51.1816 12.7269 50.98 12.8912C50.7784 13.048 50.5506 13.1786 50.2968 13.2832C50.0429 13.3877 49.7704 13.44 49.4792 13.44H44.6856C44.3421 13.44 44.0173 13.3765 43.7112 13.2496C43.405 13.1152 43.1362 12.936 42.9048 12.712C42.6808 12.4805 42.5016 12.2117 42.3672 11.9056C42.2402 11.5994 42.1768 11.2746 42.1768 10.9312V9.22878C42.1768 8.87785 42.2402 8.55305 42.3672 8.25438C42.5016 7.94825 42.6808 7.68318 42.9048 7.45918C43.1362 7.22771 43.405 7.04851 43.7112 6.92158C44.0173 6.78718 44.3421 6.71998 44.6856 6.71998ZM43.2072 9.57598V10.6064C43.2072 10.8752 43.252 11.1216 43.3416 11.3456C43.4386 11.5696 43.5693 11.76 43.7336 11.9168C43.8978 12.0736 44.0957 12.1968 44.3272 12.2864C44.5586 12.3685 44.8125 12.4096 45.0888 12.4096H50.2968C50.4685 12.4096 50.6402 12.361 50.812 12.264C50.9837 12.1669 51.1368 12.04 51.2712 11.8832C51.413 11.7264 51.5288 11.5472 51.6184 11.3456C51.708 11.1365 51.7565 10.9274 51.764 10.7184V9.30718C51.7565 9.02345 51.708 8.78451 51.6184 8.59038C51.5362 8.38878 51.4205 8.22825 51.2712 8.10878C51.1293 7.98185 50.965 7.89225 50.7784 7.83998C50.5917 7.78025 50.3901 7.75038 50.1736 7.75038H45.0888C44.5138 7.75038 44.0546 7.91091 43.7112 8.23198C43.3752 8.55305 43.2072 9.00105 43.2072 9.57598Z" fill="white"/>
<path d="M40.0849 9.59837C40.0849 9.03837 39.9131 8.59037 39.5697 8.25437C39.2262 7.91837 38.767 7.75037 38.1921 7.75037H34.8881C34.6342 7.75037 34.3841 7.77277 34.1377 7.81757C33.8987 7.8549 33.6747 7.92584 33.4657 8.03037C33.2566 8.12744 33.0737 8.26557 32.9169 8.44477C32.7601 8.6165 32.6406 8.83677 32.5585 9.10557V13.44H31.5281V6.71997H32.5585L32.4577 8.03037H32.6033C32.6555 7.82877 32.7489 7.64957 32.8833 7.49277C33.0251 7.3285 33.1969 7.19037 33.3985 7.07837C33.6001 6.9589 33.8278 6.8693 34.0817 6.80957C34.3355 6.74984 34.6081 6.71997 34.8993 6.71997H38.6065C38.9574 6.71997 39.2822 6.78717 39.5809 6.92157C39.887 7.0485 40.1521 7.22397 40.3761 7.44797C40.6075 7.67197 40.7867 7.93704 40.9137 8.24317C41.0481 8.5493 41.1153 8.87784 41.1153 9.22877V13.44H40.0849V9.59837Z" fill="white"/>
<path d="M21.2329 10.4048C21.2478 10.6661 21.2964 10.9237 21.3785 11.1776C21.4681 11.4314 21.5838 11.6592 21.7257 11.8608C21.875 12.0624 22.0505 12.2266 22.2521 12.3536C22.4537 12.473 22.6702 12.5328 22.9017 12.5328H27.7513C28.2889 12.5328 28.7929 12.4917 29.2633 12.4096C29.7411 12.32 30.1369 12.1408 30.4505 11.872V12.824C30.1742 13.0405 29.8419 13.1973 29.4537 13.2944C29.0729 13.3914 28.6809 13.44 28.2777 13.44H22.4985C22.1326 13.44 21.8041 13.3504 21.5129 13.1712C21.2217 12.9845 20.9753 12.7493 20.7737 12.4656C20.5721 12.1818 20.4153 11.8682 20.3033 11.5248C20.1988 11.1738 20.1465 10.8341 20.1465 10.5056V9.41917C20.1465 8.99357 20.1988 8.6165 20.3033 8.28797C20.4153 7.95197 20.5609 7.66824 20.7401 7.43677C20.9268 7.2053 21.147 7.02984 21.4009 6.91037C21.6548 6.78344 21.9273 6.71997 22.2185 6.71997H28.3785C28.5801 6.71997 28.8003 6.75357 29.0393 6.82077C29.2782 6.88797 29.5022 6.9925 29.7113 7.13437C29.9204 7.27624 30.0958 7.45544 30.2377 7.67197C30.3795 7.8885 30.4505 8.1461 30.4505 8.44477V8.91517C30.4505 9.36317 30.2899 9.7253 29.9689 10.0016C29.6478 10.2704 29.1289 10.4048 28.4121 10.4048H21.2329ZM21.2105 9.51997H28.1209C28.1731 9.51997 28.2702 9.51624 28.4121 9.50877C28.5539 9.5013 28.6958 9.47144 28.8377 9.41917C28.987 9.3669 29.1177 9.28477 29.2297 9.17277C29.3491 9.0533 29.4089 8.8853 29.4089 8.66877C29.4089 8.35517 29.2857 8.1013 29.0393 7.90717C28.8003 7.71304 28.4905 7.61597 28.1097 7.61597H22.6665C22.547 7.61597 22.4052 7.6421 22.2409 7.69437C22.0841 7.73917 21.931 7.8325 21.7817 7.97437C21.6324 8.11624 21.5017 8.31037 21.3897 8.55677C21.2852 8.80317 21.2254 9.12424 21.2105 9.51997Z" fill="white"/>
<path d="M19.0854 7.75037H15.0534C14.8444 7.75037 14.6241 7.78024 14.3926 7.83997C14.1612 7.89224 13.9409 7.9781 13.7318 8.09757C13.5302 8.20957 13.351 8.35144 13.1942 8.52317C13.0374 8.68744 12.9217 8.88157 12.847 9.10557V13.44H11.8167V6.71997H12.847L12.7462 8.16477H12.8918C12.9441 7.9781 13.0337 7.7989 13.1606 7.62717C13.295 7.44797 13.4593 7.29117 13.6534 7.15677C13.855 7.02237 14.079 6.91784 14.3254 6.84317C14.5718 6.76104 14.8406 6.71997 15.1318 6.71997H19.0854V7.75037Z" fill="white"/>
<path d="M10.752 5.37598V6.40638H5.8688V13.44H4.8384V6.40638H0V5.37598H10.752Z" fill="white"/>
<path d="M100.554 27.52H97.3381L95.0501 24.192H88.2181V27.52H85.5781V16H97.1621C97.6635 16 98.1275 16.0907 98.5541 16.272C98.9915 16.4533 99.3701 16.6933 99.6901 16.992C100.021 17.2907 100.277 17.6373 100.458 18.032C100.65 18.416 100.746 18.8107 100.746 19.216V20.896C100.746 21.2373 100.671 21.584 100.522 21.936C100.383 22.288 100.191 22.6133 99.9461 22.912C99.7115 23.2107 99.4341 23.4667 99.1141 23.68C98.8048 23.8827 98.4848 24.016 98.1541 24.08L100.554 27.52ZM98.1061 20.256V19.872C98.1061 19.5307 97.9675 19.2427 97.6901 19.008C97.4128 18.7627 97.0448 18.64 96.5861 18.64H88.2181V21.552H96.5861C97.1195 21.552 97.5035 21.4187 97.7381 21.152C97.9835 20.8747 98.1061 20.576 98.1061 20.256Z" fill="url(#paint0_linear_650_30938)"/>
<path d="M69.2563 16H83.7363V18.64H71.8964V20.448H83.3524V23.072H71.8964V24.88H83.7363V27.52H69.2563V16Z" fill="url(#paint1_linear_650_30938)"/>
<path d="M64.7712 20.352C64.7712 20.128 64.7285 19.9147 64.6432 19.712C64.5685 19.4987 64.4512 19.3173 64.2912 19.168C64.1419 19.008 63.9552 18.88 63.7312 18.784C63.5179 18.688 63.2672 18.64 62.9792 18.64H56.2912C55.7472 18.64 55.2885 18.816 54.9152 19.168C54.5525 19.52 54.3712 19.9893 54.3712 20.576V22.992C54.3712 23.2693 54.4192 23.5253 54.5152 23.76C54.6219 23.984 54.7605 24.1813 54.9312 24.352C55.1019 24.5227 55.3045 24.656 55.5392 24.752C55.7739 24.8373 56.0245 24.88 56.2912 24.88H62.9792C63.2032 24.88 63.4219 24.8373 63.6352 24.752C63.8485 24.656 64.0405 24.528 64.2112 24.368C64.3819 24.208 64.5152 24.0213 64.6112 23.808C64.7179 23.584 64.7712 23.344 64.7712 23.088H67.4112V23.408C67.4112 23.9093 67.3205 24.4053 67.1392 24.896C66.9579 25.3867 66.7019 25.8293 66.3712 26.224C66.0512 26.608 65.6619 26.9227 65.2032 27.168C64.7445 27.4027 64.2379 27.52 63.6832 27.52H55.3152C54.8245 27.52 54.3605 27.4293 53.9232 27.248C53.4859 27.056 53.1019 26.8 52.7712 26.48C52.4512 26.1493 52.1952 25.7653 52.0032 25.328C51.8219 24.8907 51.7312 24.4267 51.7312 23.936V19.584C51.7312 19.0827 51.8219 18.6187 52.0032 18.192C52.1952 17.7547 52.4512 17.376 52.7712 17.056C53.1019 16.7253 53.4859 16.4693 53.9232 16.288C54.3605 16.096 54.8245 16 55.3152 16H63.6832C64.2379 16 64.7445 16.1227 65.2032 16.368C65.6619 16.6027 66.0512 16.912 66.3712 17.296C66.7019 17.68 66.9579 18.112 67.1392 18.592C67.3205 19.072 67.4112 19.552 67.4112 20.032V20.352H64.7712Z" fill="url(#paint2_linear_650_30938)"/>
<path d="M47.2461 20.352C47.2461 20.128 47.2034 19.9147 47.1181 19.712C47.0434 19.4987 46.9261 19.3173 46.7661 19.168C46.6167 19.008 46.4301 18.88 46.2061 18.784C45.9927 18.688 45.7421 18.64 45.4541 18.64H38.7661C38.2221 18.64 37.7634 18.816 37.3901 19.168C37.0274 19.52 36.8461 19.9893 36.8461 20.576V22.992C36.8461 23.2693 36.8941 23.5253 36.9901 23.76C37.0967 23.984 37.2354 24.1813 37.4061 24.352C37.5767 24.5227 37.7794 24.656 38.0141 24.752C38.2487 24.8373 38.4994 24.88 38.7661 24.88H45.4541C45.6781 24.88 45.8967 24.8373 46.1101 24.752C46.3234 24.656 46.5154 24.528 46.6861 24.368C46.8567 24.208 46.9901 24.0213 47.0861 23.808C47.1927 23.584 47.2461 23.344 47.2461 23.088H49.8861V23.408C49.8861 23.9093 49.7954 24.4053 49.6141 24.896C49.4327 25.3867 49.1767 25.8293 48.8461 26.224C48.5261 26.608 48.1367 26.9227 47.6781 27.168C47.2194 27.4027 46.7127 27.52 46.1581 27.52H37.7901C37.2994 27.52 36.8354 27.4293 36.3981 27.248C35.9607 27.056 35.5767 26.8 35.2461 26.48C34.9261 26.1493 34.6701 25.7653 34.4781 25.328C34.2967 24.8907 34.2061 24.4267 34.2061 23.936V19.584C34.2061 19.0827 34.2967 18.6187 34.4781 18.192C34.6701 17.7547 34.9261 17.376 35.2461 17.056C35.5767 16.7253 35.9607 16.4693 36.3981 16.288C36.8354 16.096 37.2994 16 37.7901 16H46.1581C46.7127 16 47.2194 16.1227 47.6781 16.368C48.1367 16.6027 48.5261 16.912 48.8461 17.296C49.1767 17.68 49.4327 18.112 49.6141 18.592C49.7954 19.072 49.8861 19.552 49.8861 20.032V20.352H47.2461Z" fill="url(#paint3_linear_650_30938)"/>
<path d="M28.7968 27.52H20.7648C20.2741 27.52 19.8101 27.4293 19.3728 27.248C18.9461 27.056 18.5674 26.8 18.2368 26.48C17.9168 26.1493 17.6608 25.7707 17.4688 25.344C17.2874 24.9067 17.1968 24.4427 17.1968 23.952V19.568C17.1968 19.0773 17.2874 18.6187 17.4688 18.192C17.6608 17.7547 17.9168 17.376 18.2368 17.056C18.5674 16.7253 18.9461 16.4693 19.3728 16.288C19.8101 16.096 20.2741 16 20.7648 16H28.7968C29.2874 16 29.7461 16.096 30.1728 16.288C30.6101 16.4693 30.9888 16.7253 31.3088 17.056C31.6394 17.376 31.8954 17.7547 32.0768 18.192C32.2688 18.6187 32.3648 19.0773 32.3648 19.568V23.952C32.3648 24.4427 32.2688 24.9067 32.0768 25.344C31.8954 25.7707 31.6394 26.1493 31.3088 26.48C30.9888 26.8 30.6101 27.056 30.1728 27.248C29.7461 27.4293 29.2874 27.52 28.7968 27.52ZM29.7248 22.992V20.544C29.7248 20.288 29.6768 20.048 29.5808 19.824C29.4954 19.5893 29.3674 19.3867 29.1968 19.216C29.0368 19.0347 28.8448 18.896 28.6208 18.8C28.3968 18.6933 28.1461 18.64 27.8688 18.64H21.7568C21.4901 18.64 21.2394 18.688 21.0048 18.784C20.7701 18.88 20.5621 19.0133 20.3808 19.184C20.2101 19.344 20.0768 19.5413 19.9808 19.776C19.8848 20 19.8368 20.2507 19.8368 20.528V23.008C19.8368 23.264 19.8794 23.5093 19.9648 23.744C20.0608 23.968 20.1941 24.1653 20.3648 24.336C20.5354 24.496 20.7328 24.6293 20.9568 24.736C21.1914 24.832 21.4474 24.88 21.7248 24.88H27.8208C28.1088 24.88 28.3648 24.832 28.5888 24.736C28.8234 24.6293 29.0261 24.4907 29.1968 24.32C29.3674 24.1493 29.4954 23.952 29.5808 23.728C29.6768 23.4933 29.7248 23.248 29.7248 22.992Z" fill="url(#paint4_linear_650_30938)"/>
<path d="M13.04 20.032C13.04 19.8613 13.0027 19.696 12.928 19.536C12.8533 19.3653 12.7413 19.216 12.592 19.088C12.4533 18.9493 12.272 18.8427 12.048 18.768C11.824 18.6827 11.5573 18.64 11.248 18.64H3.936C3.56267 18.64 3.23733 18.736 2.96 18.928C2.69333 19.1093 2.56 19.3867 2.56 19.76C2.56 20.0267 2.68267 20.2347 2.928 20.384C3.17333 20.5227 3.52533 20.592 3.984 20.592H12.048C12.56 20.592 13.0347 20.6667 13.472 20.816C13.9093 20.9653 14.2933 21.184 14.624 21.472C14.9547 21.7493 15.2107 22.096 15.392 22.512C15.584 22.928 15.68 23.4027 15.68 23.936C15.68 24.4267 15.584 24.8907 15.392 25.328C15.2107 25.7653 14.9547 26.1493 14.624 26.48C14.304 26.8 13.9253 27.056 13.488 27.248C13.0613 27.4293 12.5973 27.52 12.096 27.52H3.728C3.17333 27.52 2.66667 27.4027 2.208 27.168C1.76 26.9227 1.37067 26.608 1.04 26.224C0.709333 25.84 0.453333 25.408 0.272 24.928C0.0906667 24.448 0 23.968 0 23.488H2.64C2.64 23.648 2.672 23.8133 2.736 23.984C2.81067 24.144 2.91733 24.2933 3.056 24.432C3.20533 24.56 3.392 24.6667 3.616 24.752C3.85067 24.8373 4.128 24.88 4.448 24.88H11.6C11.8027 24.88 11.9947 24.8533 12.176 24.8C12.3573 24.736 12.512 24.656 12.64 24.56C12.7787 24.464 12.8853 24.352 12.96 24.224C13.0453 24.0853 13.088 23.9413 13.088 23.792C13.088 23.4613 12.9547 23.248 12.688 23.152C12.4213 23.056 12.0587 23.008 11.6 23.008H3.712C3.22133 23.008 2.74667 22.9333 2.288 22.784C1.84 22.624 1.44533 22.4 1.104 22.112C0.773333 21.824 0.506667 21.4667 0.304 21.04C0.101333 20.6133 0 20.128 0 19.584C0 19.0827 0.0906667 18.6187 0.272 18.192C0.464 17.7547 0.72 17.376 1.04 17.056C1.37067 16.7253 1.75467 16.4693 2.192 16.288C2.62933 16.096 3.09333 16 3.584 16H11.952C12.5067 16 13.0133 16.1227 13.472 16.368C13.9307 16.6027 14.32 16.912 14.64 17.296C14.9707 17.68 15.2267 18.112 15.408 18.592C15.5893 19.072 15.68 19.552 15.68 20.032H13.04Z" fill="url(#paint5_linear_650_30938)"/>
<defs>
<linearGradient id="paint0_linear_650_30938" x1="85.5781" y1="21.76" x2="100.746" y2="21.76" gradientUnits="userSpaceOnUse">
<stop stop-color="#A3FF4C"/>
<stop offset="1" stop-color="#8FFF7A"/>
</linearGradient>
<linearGradient id="paint1_linear_650_30938" x1="69.2563" y1="21.76" x2="83.7363" y2="21.76" gradientUnits="userSpaceOnUse">
<stop stop-color="#A3FF4C"/>
<stop offset="1" stop-color="#8FFF7A"/>
</linearGradient>
<linearGradient id="paint2_linear_650_30938" x1="51.7312" y1="21.76" x2="67.4112" y2="21.76" gradientUnits="userSpaceOnUse">
<stop stop-color="#A3FF4C"/>
<stop offset="1" stop-color="#8FFF7A"/>
</linearGradient>
<linearGradient id="paint3_linear_650_30938" x1="34.2061" y1="21.76" x2="49.8861" y2="21.76" gradientUnits="userSpaceOnUse">
<stop stop-color="#A3FF4C"/>
<stop offset="1" stop-color="#8FFF7A"/>
</linearGradient>
<linearGradient id="paint4_linear_650_30938" x1="17.1968" y1="21.76" x2="32.3648" y2="21.76" gradientUnits="userSpaceOnUse">
<stop stop-color="#A3FF4C"/>
<stop offset="1" stop-color="#8FFF7A"/>
</linearGradient>
<linearGradient id="paint5_linear_650_30938" x1="0" y1="21.76" x2="15.68" y2="21.76" gradientUnits="userSpaceOnUse">
<stop stop-color="#A3FF4C"/>
<stop offset="1" stop-color="#8FFF7A"/>
</linearGradient>
</defs>
</svg>
