<svg width="195" height="40" viewBox="0 0 195 40" fill="none" xmlns="http://www.w3.org/2000/svg">
<path d="M0 29.0723H10.5498L17.2336 40.0001L0 29.0723Z" fill="white"/>
<path d="M34.4842 29.0723H23.9172L17.2334 40.0001L34.4842 29.0723Z" fill="white"/>
<path d="M17.2337 11.4261L20.1202 19.0378H16.4776L14.0034 25.6013H22.6117L23.9175 29.0721H34.4845L21.9931 0C18.8144 0 15.6529 0 12.4742 0L0 29.0721H10.567L17.2337 11.4261Z" fill="white"/>
<path d="M42.6744 31.7185C42.5242 31.5682 42.3739 31.1926 42.5993 30.9673L46.0547 26.9861C46.2049 26.7607 46.5054 26.7607 46.7308 26.9109C48.759 28.5635 51.5383 30.0659 54.8435 30.0659C58.0736 30.0659 59.8764 28.5635 59.8764 26.3851C59.8764 24.5823 58.7496 23.4555 55.0688 22.9297L53.4163 22.7043C47.1064 21.8029 43.6509 18.8733 43.6509 13.4648C43.6509 7.75589 47.9327 4 54.6181 4C58.6745 4 62.5055 5.2019 65.1346 7.23008C65.4351 7.38031 65.4351 7.60566 65.2097 7.90613L62.4304 12.0376C62.2802 12.263 62.0548 12.3381 61.8294 12.1878C59.5008 10.6104 57.1721 9.8592 54.6181 9.8592C51.9139 9.8592 50.4867 11.2864 50.4867 13.2395C50.4867 15.0423 51.7637 16.1691 55.2942 16.6198L56.9468 16.8451C63.3318 17.7466 66.7121 20.601 66.7121 26.2349C66.7121 31.7936 62.5806 36.0002 54.543 36.0002C49.7355 35.9251 45.0782 34.0471 42.6744 31.7185Z" fill="white"/>
<path d="M70.3174 4.97659C70.3174 4.67612 70.4676 4.52588 70.7681 4.52588H90.5992C90.8997 4.52588 91.0499 4.67612 91.0499 4.97659V9.85925C91.0499 10.1597 90.8997 10.3099 90.5992 10.3099H77.2282C77.078 10.3099 76.9277 10.3851 76.9277 10.6104V16.7701C76.9277 16.9203 77.0029 17.0705 77.2282 17.0705H88.3457C88.6461 17.0705 88.7964 17.2208 88.7964 17.5212V22.3288C88.7964 22.6293 88.6461 22.7795 88.3457 22.7795H77.2282C77.078 22.7795 76.9277 22.8546 76.9277 23.08V29.465C76.9277 29.6152 77.0029 29.7655 77.2282 29.7655H90.5241C90.8245 29.7655 90.9748 29.9157 90.9748 30.2162V35.0988C90.9748 35.3993 90.8245 35.5495 90.5241 35.5495H70.7681C70.4676 35.5495 70.3174 35.3993 70.3174 35.0988V4.97659Z" fill="white"/>
<path d="M112.158 35.3992C111.783 35.3992 111.632 35.249 111.482 34.9485L106.149 23.6057H102.017C101.867 23.6057 101.717 23.6808 101.717 23.9062V34.9485C101.717 35.249 101.567 35.3992 101.266 35.3992H95.482C95.1815 35.3992 95.0312 35.249 95.0312 34.9485V4.90139C95.0312 4.60092 95.1815 4.45068 95.482 4.45068H107.801C114.111 4.45068 118.318 8.43192 118.318 14.0658C118.318 18.047 116.214 21.1268 112.834 22.6292L118.919 34.7983C119.069 35.0987 118.919 35.3241 118.618 35.3241H112.158V35.3992ZM111.707 14.1409C111.707 11.8122 110.055 10.3099 107.501 10.3099H102.017C101.867 10.3099 101.717 10.385 101.717 10.6104V17.7465C101.717 17.8968 101.792 18.047 102.017 18.047H107.501C110.055 17.9719 111.707 16.4695 111.707 14.1409Z" fill="white"/>
<path d="M122.524 4.97659C122.524 4.67612 122.675 4.52588 122.975 4.52588H128.759C129.06 4.52588 129.21 4.67612 129.21 4.97659V35.0237C129.21 35.3242 129.06 35.4744 128.759 35.4744H123.05C122.75 35.4744 122.6 35.3242 122.6 35.0237V4.97659H122.524Z" fill="white"/>
<path d="M134.243 4.97659C134.243 4.67612 134.393 4.52588 134.694 4.52588H154.525C154.825 4.52588 154.976 4.67612 154.976 4.97659V9.85925C154.976 10.1597 154.825 10.3099 154.525 10.3099H141.229C141.079 10.3099 140.929 10.3851 140.929 10.6104V16.7701C140.929 16.9203 141.004 17.0705 141.229 17.0705H152.347C152.647 17.0705 152.797 17.2208 152.797 17.5212V22.3288C152.797 22.6293 152.647 22.7795 152.347 22.7795H141.229C141.079 22.7795 140.929 22.8546 140.929 23.08V29.465C140.929 29.6152 141.004 29.7655 141.229 29.7655H154.525C154.825 29.7655 154.976 29.9157 154.976 30.2162V35.0988C154.976 35.3993 154.825 35.5495 154.525 35.5495H134.694C134.393 35.5495 134.243 35.3993 134.243 35.0988V4.97659Z" fill="white"/>
<path d="M177.21 4.97659C177.286 4.67612 177.511 4.52588 177.811 4.52588H183.52C183.821 4.52588 184.046 4.67612 184.121 4.97659L194.563 35.0237C194.638 35.3242 194.563 35.4744 194.262 35.4744H188.328C188.027 35.4744 187.802 35.3242 187.727 35.0237L185.924 29.6152H175.107L173.379 35.0237C173.304 35.3242 173.079 35.4744 172.778 35.4744H166.844C166.544 35.4744 166.469 35.3242 166.544 35.0237L177.21 4.97659ZM184.121 23.9063L180.591 13.0893H180.44L176.91 23.9063H184.121Z" fill="white"/>
</svg>
