<svg width="211" height="40" viewBox="0 0 211 40" fill="none" xmlns="http://www.w3.org/2000/svg">
<g clip-path="url(#clip0_796_51638)">
<path d="M118.183 16.8815C120.155 19.6612 120.683 26.5934 119.274 29.1973C119.274 29.1973 118.359 28.2472 117.725 27.6139C117.443 32.6808 114.697 36.6922 112.549 37.8887C112.549 37.8887 112.197 36.5165 111.915 35.7072C107.76 39.3667 101.668 38.9442 99.3086 37.4314C100.118 33.5959 99.7312 28.4937 98.6746 26.9804C98.5338 27.473 95.5408 31.8716 93.8856 32.9624C92.6532 30.4288 92.7236 24.658 93.4984 22.6874C93.4984 22.6874 91.632 23.2153 90.47 23.5674C90.7518 21.7725 92.0897 17.6908 94.5196 15.5794C94.5196 15.5794 93.2872 15.3331 92.5475 15.3331C93.5123 13.6146 94.8123 12.1019 96.3463 10.8569C96.2026 12.1588 96.6446 13.5774 97.9044 14.1859C95.9268 10.2337 98.8655 8.12814 101.139 10.1043C100.906 9.52193 100.522 8.96284 100.037 8.58697C102.802 7.34348 105.94 6.82308 109.105 7.24534C109.708 7.41981 110.633 8.76827 110.696 8.86833C110.713 8.44158 110.688 7.86709 110.646 7.52607C112.12 7.86815 113.588 8.42148 115.013 9.21042C110.065 5.27064 103.97 5.60054 98.9096 8.12387C98.496 8.09137 98.0509 8.19763 97.5901 8.4976C97.2918 8.69173 97.0385 8.97566 96.8382 9.31583C94.0989 11.1133 91.8102 13.5492 90.399 16.2204C90.399 16.2204 90.8498 16.3107 92.0405 16.4909C90.2004 19.1406 89.1672 22.7577 89.0615 25.2915C89.0615 25.2915 90.5947 24.9157 91.8624 24.4934C91.2991 28.1178 92.0546 33.1031 93.4631 34.8627C94.3788 34.3348 97.1605 31.8012 98.1817 30.0418C98.8154 32.1532 98.217 35.9886 97.7591 38.0296C101.527 40.5632 108.147 40.3166 111.07 37.7833C111.07 37.7833 111.563 39.0501 111.739 40C113.887 38.6981 117.936 35.3551 118.57 30.3935C118.57 30.3935 119.239 31.0623 119.732 31.59C121.317 27.7193 122.127 20.6113 118.183 16.8815Z" fill="white" stroke="#F2F2F2" stroke-opacity="0.133333" stroke-width="0.211299"/>
<path d="M97.9992 7.646C101.376 5.15175 107.494 4.89091 111.214 5.99949C111.311 4.45069 112.045 1.77706 112.258 1.46747C111.523 1.92394 109.859 3.78233 109.713 4.10838C109.68 2.85314 109.468 0.000128294 109.468 0.000128294C109.386 0.0490896 106.124 3.71712 106.124 3.71712L103.791 0.000128294L102.388 4.23881L98.3417 1.33705L98.8638 5.23321C98.1134 4.54861 96.3188 3.44003 95.8457 3.26065C96.645 4.07589 97.8197 6.89618 97.9992 7.646Z" fill="white" stroke="#F2F2F2" stroke-opacity="0.133333" stroke-width="0.211299"/>
<path d="M111.095 10.9332C110.18 10.1473 107.747 8.86849 107.747 8.86849C105.534 8.75817 103.321 10.4395 102.663 11.0245C102.955 11.2986 103.339 11.5911 103.339 11.5911C102.077 12.0114 101.145 13.0717 100.815 13.4007C101.328 13.6199 102.242 13.6199 102.242 13.6199C103.193 18.4087 107.894 15.6854 110.583 16.9648C109.577 15.8682 107.912 14.3511 107.912 14.3511C106.028 14.4789 104.881 14.3844 103.522 13.291C104.785 12.3407 105.973 12.048 106.229 12.048C106.486 12.048 108.113 12.907 108.589 13.2545C108.991 12.8889 109.723 12.6695 110.125 12.5598C109.595 13.1264 109.467 13.9113 109.595 14.186C110.381 14.9177 111.387 16.0145 111.936 16.5992C113.125 16.0327 115.174 15.923 116.326 16.5992C115.393 15.4661 113.912 14.3511 113.912 14.3511C113.747 13.8576 112.814 12.6879 112.814 12.6879C113.875 13.1997 114.406 13.6564 114.406 13.6564C114.826 13.1082 115.485 12.907 115.485 12.907C115.997 13.5286 116.033 14.021 116.052 14.186C116.07 14.3511 115.594 14.5521 115.594 14.5521L116.93 16.0874C118.027 12.8523 114.113 10.6407 111.717 9.30658C111.644 9.94607 111.095 10.9332 111.095 10.9332Z" fill="white" stroke="#F2F2F2" stroke-opacity="0.133333" stroke-width="0.211299"/>
<path d="M116.746 18.0248C116.315 18.3479 115.834 18.7772 115.205 18.966V21.4134C115.931 22.0155 116.603 23.0898 116.976 23.8984C117.598 21.7803 117.524 19.6198 116.746 18.0248Z" fill="white" stroke="#F2F2F2" stroke-opacity="0.133333" stroke-width="0.211299"/>
<path d="M113.71 26.2866C113.836 27.2241 113.933 28.2656 113.966 28.7539C114.487 28.2783 114.958 27.7501 115.371 27.1777C115.912 26.3247 116.056 25.4258 116.061 25.3221C116.072 25.0705 115.824 24.4487 115.205 23.4785H113.495C113.495 23.4785 111.506 25.5088 109.891 25.5736C110.453 26.5791 110.929 27.4127 111.113 27.7123C112.128 27.5044 113.6 26.5058 113.71 26.2866Z" fill="white" stroke="#F2F2F2" stroke-opacity="0.133333" stroke-width="0.211299"/>
<path d="M113.88 21.2908V18.9672C113.334 18.819 112.7 18.4831 111.952 17.8631C110.576 17.9133 107.686 19.7978 107.144 20.3642C107.266 20.7402 108.055 22.2343 108.904 23.788C110.514 23.7981 113.152 22.3382 113.88 21.2908Z" fill="white" stroke="#F2F2F2" stroke-opacity="0.133333" stroke-width="0.211299"/>
<path d="M3.51537 12.5646H5.65865C8.09284 12.7152 8.88218 14.0946 8.90835 15.5458C8.89449 17.9105 7.25671 18.6921 5.2923 18.6762H3.51537V12.5646ZM3.51537 22.1859H5.01185C9.93534 22.2207 12.5616 19.9351 12.5638 15.431C12.5644 13.4112 11.6067 11.33 10.2457 10.3828C8.89295 9.42642 7.87242 9.03595 4.74125 8.9943H0V28.6606H3.51537V22.1859Z" fill="white" stroke="#F2F2F2" stroke-opacity="0.133333" stroke-width="0.211299"/>
<path d="M17.0469 21.7957C17.1968 19.6247 18.9648 18.4643 21.1026 19.0891V15.7726C19.0498 15.3506 17.9083 16.017 17.0257 17.7371L16.6458 15.7792H13.7861V28.6606H17.0469V21.7957Z" fill="white" stroke="#F2F2F2" stroke-opacity="0.133333" stroke-width="0.211299"/>
<path d="M27.7552 18.4078C29.3446 18.3799 30.4434 19.6584 30.7081 20.9062H24.7949C24.9725 19.6349 26.142 18.4365 27.7552 18.4078ZM28.1696 29.0317C30.983 28.8232 32.4441 27.3699 33.2116 26.5987L31.2656 24.4479C30.5856 25.1667 29.8341 25.9434 27.891 26.013C26.1621 26.0182 24.8035 24.6581 24.8013 23.2995H33.8313C33.9966 22.0826 33.8849 20.4949 33.352 19.182C32.4229 16.885 30.2045 15.4249 27.9051 15.4093C24.3091 15.4611 21.5005 18.2465 21.3965 22.3497C21.4337 26.0518 23.9686 28.9833 28.1696 29.0317Z" fill="white" stroke="#F2F2F2" stroke-opacity="0.133333" stroke-width="0.211299"/>
<path d="M38.5848 20.6471C38.6747 19.4142 39.553 18.7969 40.5658 18.7061C41.4183 18.6296 42.4443 19.2882 42.6358 20.4912V28.6489H45.8372V21.0906C45.9061 19.6572 46.7721 18.7656 47.8804 18.6814C48.7532 18.615 49.8685 19.3403 49.9569 21.019V28.6489H53.2041V20.5316C53.2755 17.8988 51.8292 15.5322 49.0345 15.3861C47.1231 15.4661 46.2318 15.9708 45.2221 17.4764C44.4312 16.3951 43.5849 15.3695 41.6528 15.3861C40.2761 15.3981 39.42 16.0391 38.5977 17.3798L38.2726 15.7381H35.3145V28.6489H38.5848V20.6471Z" fill="white" stroke="#F2F2F2" stroke-opacity="0.133333" stroke-width="0.211299"/>
<path d="M58.3317 15.7744H54.9658V28.6493H58.3317V15.7744Z" fill="white" stroke="#F2F2F2" stroke-opacity="0.133333" stroke-width="0.211299"/>
<path d="M56.7136 14.0063C57.2924 14.0063 57.7846 13.7922 58.1895 13.364C58.6044 12.9257 58.8113 12.4005 58.8113 11.7891C58.8113 11.1773 58.6044 10.6574 58.1895 10.2295C57.7846 9.79083 57.2924 9.57184 56.7136 9.57184C56.1352 9.57184 55.6383 9.79083 55.2236 10.2295C54.8188 10.6574 54.6162 11.1773 54.6162 11.7891C54.6162 12.4005 54.8188 12.9257 55.2236 13.364C55.6383 13.7922 56.1352 14.0063 56.7136 14.0063Z" fill="white" stroke="#F2F2F2" stroke-opacity="0.133333" stroke-width="0.211299"/>
<path d="M76.9297 21.7957C77.08 19.6247 78.8476 18.4643 80.9854 19.0891V15.7726C78.9326 15.3506 77.7911 16.017 76.9088 17.7371L76.5289 15.7792H73.6689V28.6606H76.9297V21.7957Z" fill="white" stroke="#F2F2F2" stroke-opacity="0.133333" stroke-width="0.211299"/>
<path d="M66.056 18.4078C67.6454 18.3799 68.7441 19.6584 69.0089 20.9062H63.0957C63.2733 19.6349 64.4428 18.4365 66.056 18.4078ZM66.4703 29.0317C69.2838 28.8232 70.7449 27.3699 71.5121 26.5987L69.5661 24.4479C68.8864 25.1667 68.1346 25.9434 66.1917 26.013C64.4628 26.0182 63.104 24.6581 63.1021 23.2995H72.1321C72.2971 22.0826 72.1856 20.4949 71.6524 19.182C70.7236 16.885 68.5053 15.4249 66.2056 15.4093C62.6099 15.4611 59.8013 18.2465 59.6973 22.3497C59.7345 26.0518 62.2694 28.9833 66.4703 29.0317Z" fill="white" stroke="#F2F2F2" stroke-opacity="0.133333" stroke-width="0.211299"/>
<path d="M132.831 9.31473H129.117V28.2681H140.686V24.7598H132.831V9.31473Z" fill="white" stroke="#F2F2F2" stroke-opacity="0.133333" stroke-width="0.211299"/>
<path d="M162.242 25.3412C161.439 25.3826 160.625 25.0991 159.935 24.547C159.165 23.8749 158.852 22.8929 158.854 21.9039C158.968 19.8211 160.236 18.6294 162.123 18.5C164.12 18.6197 165.285 20.0802 165.261 22.0439C165.241 23.7693 164.041 25.2124 162.242 25.3412ZM165.231 17.1281C164.181 15.7389 162.979 15.3221 161.57 15.3115C160.098 15.3003 158.584 15.8799 157.496 16.868C156.105 18.2293 155.307 19.9582 155.307 21.7067C155.307 23.4742 155.793 24.9754 156.764 26.2108C157.916 27.7194 159.489 28.5441 161.029 28.6128C162.726 28.6882 164.1 28.1459 165.265 26.6912L165.635 28.2679H168.601V15.4891H165.566L165.231 17.1281Z" fill="white" stroke="#F2F2F2" stroke-opacity="0.133333" stroke-width="0.211299"/>
<path d="M193.419 21.7581C193.415 22.7375 193.321 24.0191 192.486 24.6925C192.076 25.0428 191.52 25.3437 190.55 25.3119C189.936 25.2917 189.229 24.9882 188.682 24.2969C188.143 23.5743 188.223 22.5182 188.223 21.6723V15.5135H184.74V22.6277C184.74 24.6116 185.519 26.0839 186.405 26.9359C187.465 27.9554 188.657 28.5155 190.542 28.6038C192.43 28.6927 193.942 28.1192 195.051 27.1025C196.19 25.924 196.832 24.5682 196.832 22.927V15.5135H193.419V21.7581Z" fill="white" stroke="#F2F2F2" stroke-opacity="0.133333" stroke-width="0.211299"/>
<path d="M176.793 25.3415C175.99 25.3829 175.175 25.0994 174.485 24.5474C173.716 23.8752 173.402 22.8932 173.405 21.9042C173.519 19.8214 174.786 18.6297 176.674 18.5003C178.671 18.6201 179.836 20.0805 179.811 22.0442C179.792 23.7696 178.592 25.2127 176.793 25.3415ZM183.152 15.4894H180.116L179.782 17.1284C178.732 15.7393 177.53 15.3224 176.12 15.3118C174.649 15.3006 173.134 15.8802 172.046 16.8683C170.656 18.2296 169.857 19.9585 169.857 21.707C169.857 23.4745 170.343 24.9757 171.314 26.2111C172.669 27.932 174.725 29.0293 177.691 28.422C178.359 28.2229 178.978 27.8424 179.63 27.1462C180.182 30.6965 177.593 31.6326 175.201 31.2254C174.448 31.0976 173.502 30.6805 172.287 29.5639L170.4 32.3073C172.021 33.7552 174.072 34.5988 176.061 34.6168C179.28 34.6464 183.281 32.9133 183.152 27.2824V15.4894Z" fill="white" stroke="#F2F2F2" stroke-opacity="0.133333" stroke-width="0.211299"/>
<path d="M201.511 20.6087C201.69 19.3544 202.866 18.1713 204.49 18.1431C206.089 18.1151 207.195 19.3772 207.461 20.6087H201.511ZM210.12 18.9067C209.186 16.6402 206.954 15.199 204.64 15.1836C201.022 15.235 198.196 17.9838 198.092 22.0332C198.129 25.6866 200.68 28.5796 204.906 28.6274C207.738 28.4213 209.208 26.9875 209.979 26.2264L208.022 24.1038C207.338 24.8128 206.581 25.5797 204.626 25.6484C202.887 25.6535 201.519 24.3112 201.518 22.9702H210.603C210.769 21.7692 210.657 20.2025 210.12 18.9067Z" fill="white" stroke="#F2F2F2" stroke-opacity="0.133333" stroke-width="0.211299"/>
<path d="M144.889 20.6087C145.068 19.3544 146.244 18.1713 147.868 18.1431C149.467 18.1151 150.572 19.3772 150.839 20.6087H144.889ZM148.018 15.1836C144.4 15.235 141.574 17.9838 141.47 22.0332C141.507 25.6866 144.058 28.5796 148.284 28.6274C151.115 28.4213 152.585 26.9875 153.357 26.2264L151.399 24.1038C150.716 24.8128 149.959 25.5797 148.004 25.6484C146.265 25.6535 144.898 24.3112 144.895 22.9702H153.981C154.147 21.7692 154.035 20.2025 153.498 18.9067C152.564 16.6402 150.332 15.199 148.018 15.1836Z" fill="white" stroke="#F2F2F2" stroke-opacity="0.133333" stroke-width="0.211299"/>
</g>
<defs>
<clipPath id="clip0_796_51638">
<rect width="210.674" height="40" fill="white"/>
</clipPath>
</defs>
</svg>
