<svg width="151" height="41" viewBox="0 0 151 41" fill="none" xmlns="http://www.w3.org/2000/svg">
<path d="M52.15 22.9825C52.4968 23.376 59.2869 30.9799 59.2869 30.9799H53.2439C53.2439 30.9799 48.4081 25.7172 47.5077 24.7301V30.9799H43.539C42.7053 30.9799 42.1517 30.3795 42.1517 29.5925V17.3397C42.1517 16.4526 41.4246 15.6855 40.9444 15.2853C40.791 15.1519 40.7376 14.9785 40.9444 14.9785H47.5077V21.2416C48.4081 20.2545 53.2439 14.9785 53.2439 14.9785H59.2869C59.2869 14.9785 52.5035 22.589 52.15 22.9825Z" fill="white"/>
<path d="M106.657 22.9892C106.657 28.5453 110.593 31.4534 114.481 31.4534C116.829 31.4534 119.344 30.7264 121.038 29.5458L121.171 29.4591V22.2288H116.022V25.1769H117.963V27.1712C117.089 27.7382 116.029 28.0584 114.888 28.0584C112.534 28.0584 110.166 26.3308 110.166 23.0292C110.166 19.941 111.927 17.8599 114.568 17.8599C116.896 17.8599 118.817 19.0272 119.537 19.5341L119.79 19.7142L121.205 16.4659L120.964 16.3258C120.838 16.2525 117.789 14.5649 114.768 14.5649C110.739 14.5649 106.657 17.4597 106.657 22.9958" fill="white"/>
<path d="M68.9118 27.7851V14.9854H64.096C63.8959 14.9854 63.9426 15.1521 64.096 15.2855C64.5696 15.6857 65.3033 16.4594 65.3033 17.3399V29.8928C65.3033 30.5665 65.6635 30.9733 66.3905 30.9733H76.4422V27.7717H68.9184L68.9118 27.7851Z" fill="white"/>
<path d="M81.9653 27.7851V24.6435H88.0483V21.1484H81.9653V18.1936H88.8087V14.9854H77.1562C76.9561 14.9854 77.0095 15.1521 77.1562 15.2855C77.6298 15.6857 78.3568 16.4594 78.3568 17.3399V29.8928C78.3568 30.6599 78.6636 30.9733 79.444 30.9733H89.2623V27.7717H81.972L81.9653 27.7851Z" fill="white"/>
<path d="M133.497 14.9854V23.9965C133.497 26.4711 133.044 28.0185 130.389 28.0185C127.735 28.0185 126.947 26.7312 126.947 24.0766V14.9854H122.165C121.958 14.9854 122.012 15.1521 122.165 15.2855C122.639 15.6857 123.366 16.4594 123.366 17.3399V24.6102C123.366 29.1858 125.4 31.4936 130.363 31.4936C135.325 31.4936 137.066 29.3592 137.066 24.6102V14.9854H133.491H133.497Z" fill="white"/>
<path d="M96.7856 24.3499C97.0057 23.6495 98.5331 18.8671 98.6532 18.5203H99.1734C99.2935 18.8738 100.821 23.6495 101.048 24.3499H96.7856ZM101.415 14.9852H95.2048C95.0047 14.9852 95.0647 15.1519 95.2048 15.2853C95.6784 15.6855 95.8384 16.5927 95.545 17.4731L90.8359 30.9799H94.6645C94.6645 30.9799 95.605 28.0517 95.7184 27.6915H102.102C102.222 28.0517 103.155 30.9799 103.155 30.9799H106.997L101.408 14.9785L101.415 14.9852Z" fill="white"/>
<path d="M143.349 27.7851V24.6435H149.439V21.1484H143.349V18.1936H150.193V14.9854H138.534C138.333 14.9854 138.38 15.1521 138.534 15.2855C139.007 15.6857 139.734 16.4594 139.734 17.3399V29.8928C139.734 30.6599 140.041 30.9733 140.821 30.9733H150.64V27.7717H143.349V27.7851Z" fill="white"/>
<path d="M0.141022 21.3537C0.28059 21.4514 5.48645 25.1499 5.61206 25.2407C5.73767 25.3314 5.88422 25.4221 5.98889 25.1779C7.34968 22.0306 8.9547 19.316 10.4969 17.0132C12.0391 14.7103 14.9352 11.256 18.201 8.79266C18.4243 8.62517 18.4243 8.67402 18.4243 8.33906C18.4243 8.0041 18.529 1.5212 18.529 1.25602C18.529 1.05365 18.4104 0.893143 18.2359 1.08854C15.8284 3.70543 14.7607 5.23369 13.1487 7.87849C11.5367 10.5163 9.71534 14.0823 9.64556 14.2288C9.5688 14.3684 9.49203 14.4382 9.19196 14.6056C8.8919 14.7731 7.18219 15.6733 5.03984 17.1458C2.89748 18.6182 0.475984 20.7047 0.273611 20.8652C0.0712388 21.0257 -0.152069 21.1513 0.141022 21.3607" fill="#EE2529"/>
<path d="M37.887 6.28042C33.721 6.22459 28.6477 6.8666 23.4 9.36485C21.7531 10.1464 20.0922 11.1164 18.4383 12.2958C19.6944 11.6398 21.4739 10.7535 22.7161 10.3069C24.8375 9.55327 27.1962 9.19039 27.6637 9.13457C28.1313 9.07874 27.8173 9.28111 27.587 9.42068C27.3567 9.56025 24.4676 11.591 22.5486 13.3495C20.6295 15.1081 19.0804 16.5596 16.5891 19.8115C16.4565 19.9859 16.3309 20.1395 16.4914 20.5582C18.536 25.8827 20.3713 28.8554 22.5905 31.8492C22.8347 32.1771 22.7161 32.1911 22.4928 32.0655C22.2625 31.9469 22.1787 31.905 20.5667 30.928C18.9547 29.951 15.1794 27.4528 12.8836 25.115C12.5835 24.815 12.4858 24.801 12.1648 25.0941C10.797 26.3362 8.66165 28.4018 7.17526 30.5233C6.91008 30.9001 6.92404 30.593 6.93101 30.3418C6.94497 30.0836 6.99382 29.0718 7.09152 28.1855C7.23806 26.8806 7.42648 25.8966 7.55907 25.3244C7.0636 26.413 6.61699 27.5505 6.24016 28.7508C5.81447 30.1115 5.0957 32.7982 5.0957 36.5735C5.0957 37.8296 5.0957 38.5554 5.16549 38.8415C5.21434 39.0369 5.34692 38.988 5.52836 38.674C5.69584 38.3879 6.42159 37.1457 7.47533 35.6524C8.79424 33.7961 10.6016 31.5351 12.1857 30.2023C12.3672 30.0487 12.5067 29.8533 12.8068 30.1674C13.1487 30.5233 14.7189 31.9399 19.2269 34.7661C23.7279 37.5993 29.206 39.7905 33.393 40.9071C34.5235 41.2071 34.1955 40.7256 33.8815 40.4256C31.0134 37.718 27.0636 32.3027 25.2632 29.3439C22.3462 24.5498 21.453 21.7584 21.3274 21.4723C21.2088 21.1792 21.2646 21.0048 21.453 20.7605C21.6554 20.4953 23.1697 18.4646 25.633 16.0222C28.0964 13.5798 32.1718 10.3418 35.0608 8.49954C36.8822 7.34113 37.3288 6.95732 37.8591 6.63631C38.1173 6.48279 38.2081 6.45487 38.2081 6.37113C38.2081 6.27344 38.0615 6.28042 37.901 6.27344" fill="white"/>
</svg>
