<svg width="40" height="40" viewBox="0 0 40 40" fill="none" xmlns="http://www.w3.org/2000/svg">
<path d="M16.2151 15.3999L16.6362 16.6959L15.5337 15.8951L14.4312 16.6959L14.8521 15.3999L13.7498 14.5988H15.1128L15.5337 13.3024L15.9547 14.5988H17.3175L16.2151 15.3999ZM9.87049 15.3999L10.9729 14.5988H9.6103L9.18909 13.3024L8.76815 14.5988H7.405L8.50769 15.3999L8.08648 16.6959L9.18909 15.8951L10.2913 16.6959L9.87049 15.3999ZM12.7826 18.8192L12.3614 17.523L11.9404 18.8192H10.5775L11.6798 19.6203L11.2589 20.9163L12.3614 20.1154L13.4637 20.9163L13.0428 19.6203L14.1452 18.8192H12.7826ZM8.65863 10.3246L7.40857 7.47772H7.36894V11.277C7.36977 11.2902 7.36778 11.3035 7.3631 11.316C7.35842 11.3284 7.35116 11.3397 7.3418 11.3491C7.33244 11.3585 7.32119 11.3659 7.30879 11.3706C7.29639 11.3754 7.28312 11.3774 7.26986 11.3767H6.14887C6.13556 11.3775 6.12224 11.3754 6.10977 11.3707C6.09731 11.366 6.08599 11.3587 6.07655 11.3493C6.06712 11.3398 6.05978 11.3285 6.05503 11.3161C6.05028 11.3036 6.04822 11.2903 6.04899 11.277V4.72999C6.04821 4.7167 6.05027 4.70339 6.05503 4.69095C6.05979 4.67851 6.06714 4.66723 6.0766 4.65785C6.08605 4.64848 6.09739 4.64122 6.10987 4.63656C6.12235 4.6319 6.13567 4.62994 6.14896 4.63083H7.32922C7.36288 4.62732 7.39675 4.63516 7.42544 4.65311C7.45413 4.67107 7.476 4.69809 7.48756 4.7299L9.19418 8.57881H9.23435L10.9104 4.7299C10.9221 4.69805 10.9441 4.67102 10.9729 4.65306C11.0017 4.6351 11.0357 4.62724 11.0694 4.63074H12.2299C12.2432 4.62991 12.2564 4.63191 12.2688 4.6366C12.2812 4.64129 12.2924 4.64856 12.3018 4.65793C12.3111 4.66731 12.3184 4.67856 12.323 4.69096C12.3277 4.70335 12.3297 4.7166 12.3288 4.72981V11.2771C12.3297 11.2903 12.3278 11.3036 12.3231 11.3161C12.3184 11.3285 12.3112 11.3398 12.3019 11.3492C12.2925 11.3586 12.2813 11.366 12.2689 11.3707C12.2565 11.3755 12.2432 11.3775 12.2299 11.3768H11.1089C11.0956 11.3775 11.0824 11.3754 11.07 11.3707C11.0576 11.3659 11.0464 11.3586 11.037 11.3492C11.0277 11.3397 11.0204 11.3284 11.0158 11.316C11.0111 11.3036 11.0091 11.2903 11.01 11.2771V7.47781H10.9701L9.72027 10.3245C9.7071 10.3637 9.68151 10.3976 9.64736 10.421C9.61321 10.4443 9.57237 10.4559 9.53104 10.4539H8.8467C8.80556 10.4556 8.76499 10.4439 8.73107 10.4206C8.69716 10.3973 8.67174 10.3636 8.65863 10.3246ZM13.3361 11.3768H17.7309C17.7442 11.3775 17.7575 11.3754 17.7699 11.3707C17.7823 11.3659 17.7936 11.3586 17.8029 11.3492C17.8123 11.3398 17.8196 11.3285 17.8243 11.3161C17.829 11.3036 17.8311 11.2903 17.8303 11.2771V10.176C17.831 10.1628 17.829 10.1495 17.8242 10.1371C17.8195 10.1247 17.8122 10.1135 17.8028 10.1041C17.7935 10.0948 17.7822 10.0875 17.7698 10.0828C17.7574 10.0781 17.7442 10.076 17.7309 10.0768H14.7548C14.7467 10.078 14.7384 10.0773 14.7307 10.0747C14.7229 10.0721 14.7158 10.0677 14.7101 10.0619C14.7043 10.0562 14.6999 10.0491 14.6973 10.0413C14.6947 10.0336 14.694 10.0253 14.6952 10.0172V4.7299C14.696 4.71667 14.694 4.70341 14.6893 4.69101C14.6846 4.6786 14.6774 4.66734 14.668 4.65796C14.6586 4.64858 14.6474 4.6413 14.635 4.63661C14.6226 4.63191 14.6093 4.62991 14.5961 4.63074H13.3361C13.3229 4.62993 13.3097 4.63194 13.2973 4.63663C13.2849 4.64132 13.2736 4.64859 13.2643 4.65796C13.2549 4.66733 13.2476 4.67858 13.2429 4.69096C13.2382 4.70335 13.2362 4.71659 13.237 4.72981V11.2771C13.2362 11.2903 13.2382 11.3036 13.2429 11.316C13.2476 11.3285 13.2549 11.3397 13.2642 11.3492C13.2736 11.3586 13.2848 11.3659 13.2972 11.3707C13.3096 11.3754 13.3229 11.3775 13.3361 11.3768ZM21.4901 7.31893L21.1333 7.26939C20.3595 7.16049 20.0817 6.91253 20.0817 6.52551C20.0817 6.09859 20.389 5.79145 20.9844 5.79145C21.5401 5.79145 22.0357 5.96979 22.5518 6.30736C22.5628 6.31461 22.5752 6.31958 22.5882 6.32198C22.6012 6.32437 22.6146 6.32415 22.6275 6.32131C22.6404 6.31848 22.6527 6.31309 22.6635 6.30547C22.6743 6.29785 22.6835 6.28814 22.6905 6.27693L23.2957 5.37435C23.3452 5.30473 23.3354 5.26554 23.2763 5.22573C22.7104 4.78917 21.877 4.52148 20.9844 4.52148C19.5259 4.52148 18.5937 5.3448 18.5937 6.58478C18.5937 7.77521 19.3572 8.41993 20.7266 8.60853L21.0836 8.65789C21.8871 8.76714 22.1251 9.01537 22.1251 9.41221C22.1251 9.88796 21.7284 10.2157 21.024 10.2157C20.31 10.2157 19.705 9.87841 19.2583 9.52128C19.2483 9.51135 19.2363 9.50365 19.2231 9.49871C19.2099 9.49377 19.1958 9.49169 19.1817 9.49262C19.1676 9.49355 19.1539 9.49746 19.1415 9.50409C19.129 9.51073 19.1181 9.51994 19.1095 9.5311L18.3555 10.3942C18.335 10.4182 18.3247 10.4491 18.3265 10.4806C18.3283 10.512 18.3422 10.5416 18.3653 10.563C18.8911 11.0691 19.9127 11.4854 20.9647 11.4854C22.7104 11.4854 23.6137 10.5827 23.6137 9.36285C23.6137 8.14224 22.8792 7.50744 21.4902 7.31884" fill="white"/>
<path d="M37.5042 2.2855V1.51074H2.95059L2.9505 2.2855L2.94925 15.4175C2.94136 20.6169 4.63788 25.6756 7.77901 29.8189C7.82783 29.8832 7.87773 29.9465 7.927 30.0104L3.39179 34.5457L4.48752 35.6413L8.91794 31.2108C10.1816 32.6438 11.6122 33.9205 13.1791 35.0136C15.2638 36.4702 17.5689 37.5824 20.0063 38.308L20.2273 38.3738L20.4484 38.308C22.8859 37.5826 25.191 36.4703 27.2757 35.0136C29.3369 33.5759 31.1591 31.8229 32.6756 29.8189C35.8168 25.6756 37.5133 20.6169 37.5055 15.4175L37.5042 2.2855ZM9.01443 28.8836C6.07709 25.0095 4.49089 20.2792 4.49886 15.4175L4.49993 3.06027H34.8772L9.03157 28.9059L9.01443 28.8836ZM34.7611 22.6436C33.994 24.8874 32.8729 26.994 31.4403 28.8836C30.0218 30.7583 28.3172 32.3982 26.389 33.743C24.5035 35.0603 22.4249 36.0767 20.2274 36.7559C18.0299 36.0767 15.9512 35.0604 14.0657 33.743C12.5735 32.7018 11.2136 31.4827 10.0162 30.1126L35.955 4.17385L35.9559 15.4175C35.9588 17.8756 35.5551 20.3173 34.7611 22.6436Z" fill="white"/>
</svg>
