<svg width="16" height="16" viewBox="0 0 16 16" fill="none" xmlns="http://www.w3.org/2000/svg">
<g clip-path="url(#clip0_912_5215)">
<path d="M3.2383 11.6443H2.01487C1.38904 11.6443 0.896872 11.4683 0.537972 11.1165C0.179272 10.7646 -6.10352e-05 10.3079 -6.10352e-05 9.69568C-6.10352e-05 9.08525 0.177506 8.60355 0.532672 8.25088C0.888005 7.89798 1.3723 7.72168 1.98554 7.72168H3.2383V8.74871H2.0015C1.7419 8.74871 1.35527 9.05135 1.35527 9.69571C1.35527 10.2714 1.7794 10.524 2.036 10.524H3.23834L3.2383 11.6443Z" fill="#005496"/>
<path d="M5.07066 10.132L3.52826 10.0907V10.4524L5.07066 10.4111L6.76536 10.3668C6.80142 10.305 6.80399 10.2895 6.79712 10.1813L5.07066 10.132ZM5.07066 9.73146L3.52826 9.69016V10.0518L5.07066 10.0105L6.79932 9.96416C6.7973 9.90173 6.79271 9.83941 6.78556 9.77736L5.07066 9.73146ZM5.29992 7.73926H3.52826V8.04892L5.07066 8.00762L6.22159 7.97679C6.22592 7.92456 6.24036 7.82086 6.25789 7.77359C6.25789 7.77359 5.65509 7.73926 5.29992 7.73926ZM3.52826 8.88902V9.25062L4.84816 9.21529V8.92436L3.52826 8.88902ZM3.52826 10.8529L4.78249 10.8193V10.5249L3.52826 10.4913V10.8529ZM5.68402 9.34729C5.67622 9.35416 5.66966 9.36229 5.66089 9.36806C5.58362 9.41919 5.43032 9.44479 5.20106 9.44479H4.84819V9.32492L3.52829 9.28956V9.65119L5.07069 9.60989L6.75106 9.56479C6.73766 9.50077 6.72168 9.43732 6.70316 9.37459L5.68402 9.34729ZM3.52826 11.2535L4.78249 11.2199V10.9255L3.52826 10.8919V11.2535ZM5.07066 8.12919L3.52826 8.08789V8.44949L5.07066 8.40819L6.27566 8.37592C6.25409 8.30452 6.23736 8.23182 6.22776 8.16016L5.07066 8.12919ZM3.52826 11.6444H4.78249V11.326L3.52826 11.2925V11.6444ZM5.07066 8.52976L3.52826 8.48846V8.85006L4.84816 8.81472V8.74589H5.20102C5.38716 8.74589 5.52089 8.76246 5.60622 8.79442L6.43749 8.77212C6.40343 8.70388 6.37193 8.63439 6.34306 8.56379L5.07066 8.52976ZM5.75446 8.94869C5.76862 8.99069 5.77699 9.03906 5.77699 9.09649C5.77699 9.13079 5.77392 9.16186 5.76852 9.19069L6.63196 9.16759C6.60527 9.10001 6.57488 9.03396 6.54092 8.96972L5.75446 8.94869Z" fill="#005496"/>
<path d="M7.43009 8.99725C7.22923 8.97415 7.13599 8.73998 6.89813 8.76058C6.76949 8.77168 6.70136 8.80858 6.70136 8.80858C6.63729 8.33732 7.12916 8.14735 7.34966 8.06522C7.43683 8.03278 7.47869 8.00685 7.41436 7.94028C7.34616 7.86985 7.21889 7.69818 7.10993 7.69372C6.97733 7.68808 6.91599 7.76528 6.83406 7.69025C6.75243 7.61522 6.82189 7.52902 6.80696 7.46518C6.79496 7.41415 6.63999 7.35118 6.63999 7.28808C6.63999 7.22482 6.66639 7.17932 6.70753 7.10835C6.77443 6.99245 6.45743 6.92145 6.45743 6.85655C6.45743 6.79185 6.58196 6.75948 6.63483 6.69815C6.67756 6.64842 6.67226 6.62652 6.67226 6.55822C6.67226 6.16965 7.12573 6.10822 7.28826 6.10822C7.89569 6.10822 8.07923 6.52998 8.07923 6.77545C8.07923 6.91632 7.94399 7.20958 7.94399 7.34248C7.94399 7.40552 8.06266 7.46208 8.03706 7.57875C8.02403 7.63768 7.93403 7.89792 7.84469 8.07642C7.79993 8.16612 7.82583 8.25745 7.83246 8.27522C7.86773 8.37032 7.98043 8.47445 8.15879 8.39218C8.34026 8.30828 9.21346 7.91362 9.46299 7.79158C9.36993 7.68005 9.30843 7.60625 9.19413 7.46295C9.09626 7.34012 9.10559 7.26042 9.19673 7.14432C9.10559 6.95122 8.16896 4.97219 8.07239 4.76862C7.97563 4.56519 7.98239 4.41285 8.19119 4.34012C8.39196 4.27032 8.50756 4.39172 8.57493 4.59875C8.64189 4.80559 9.36416 6.97102 9.39603 7.06562C9.50486 7.04088 9.73573 7.05938 9.76759 7.31952C9.77663 7.39405 9.77179 7.48608 9.77566 7.55312C9.77826 7.60095 9.82976 7.61655 9.90833 7.62475C10.0597 7.64072 10.0529 8.02088 9.96403 8.07805C9.88966 8.12588 9.80946 8.20855 9.90926 8.35265C9.94693 8.40745 9.96239 8.59625 9.92443 8.72325C9.86226 8.93208 9.75793 9.07335 9.61046 9.22092C9.44496 9.38642 9.09013 9.09052 9.20539 8.92922C9.29649 8.80218 9.45946 8.54652 9.48166 8.41955C9.50356 8.29542 9.50419 8.13822 9.30909 8.32578C9.19733 8.43325 8.74619 8.81702 8.42139 8.96528C8.34249 9.00125 8.02389 9.17578 7.71493 9.08195C7.63046 9.05625 7.56053 9.02592 7.50216 9.02365C7.47383 9.08628 7.43809 9.17292 7.43126 9.22355C7.41796 9.32175 7.36779 9.29135 7.35323 9.28615C7.30733 9.26988 7.38546 9.10022 7.43009 8.99725Z" fill="#ED1C24"/>
<path d="M12.5947 10.0534L13.7054 10.0237V9.71864L12.5947 9.68894V10.0534ZM12.5947 8.85171L13.7054 8.82201V8.51691L12.5947 8.48721V8.85171ZM12.5947 9.25227L13.7054 9.22257V8.91751L12.5947 8.88777V9.25227ZM12.5947 11.2912V11.6034H15.9998V11.3824L14.1908 11.334L12.5947 11.2912ZM12.5947 10.454L13.7054 10.4243V10.1192L12.5947 10.0895V10.454ZM13.7054 10.5668V10.5198L12.5947 10.4901V10.8546L14.1908 10.8118L15.9998 10.7634V10.5813L15.4592 10.5668H13.7054ZM12.5947 9.65287L13.7054 9.62314V9.31807L12.5947 9.28834V9.65287ZM12.5947 8.45117L13.7054 8.42148V8.11634L12.5947 8.08664V8.45117ZM13.7054 7.69824H12.5947V8.05061L13.7054 8.02088V7.69824ZM12.5947 10.8906V11.2551L14.1908 11.2124L15.9998 11.1639V10.9819L14.1908 10.9334L12.5947 10.8906Z" fill="#0DB14B"/>
<path d="M15.4594 10.5664L16 10.5809V10.5664H15.4594Z" fill="white"/>
<path d="M12.0971 9.89466C11.9981 9.74612 11.8452 9.63472 11.6387 9.56059C11.7957 9.47566 11.9137 9.36752 11.9924 9.23582C12.0711 9.10412 12.1104 8.94996 12.1104 8.77312C12.1104 8.54879 12.0581 8.35782 11.9525 8.20052C11.8478 8.04316 11.696 7.92746 11.4979 7.85326C11.3848 7.81266 11.2496 7.78336 11.0924 7.76566C10.9353 7.74806 10.7749 7.73926 10.4304 7.73926H10.0086C10.0445 7.86086 10.023 8.04032 9.96395 8.07832C9.88959 8.12616 9.80939 8.20882 9.90919 8.35292C9.94686 8.40772 9.96232 8.59652 9.92435 8.72352C9.86219 8.93236 9.75785 9.07362 9.61039 9.22119C9.44812 9.38342 9.10519 9.10262 9.20015 8.93952C9.08329 8.92912 8.85496 8.96642 8.67402 9.07366C8.68946 8.99119 8.70492 8.95259 8.73842 8.87786C8.71266 8.87529 8.71006 8.87269 8.67916 8.86756C8.67916 8.86756 8.58382 9.08652 8.56839 9.15609C8.52329 9.35859 8.52719 9.59916 8.52459 9.76402C8.39322 9.83616 7.99136 9.95466 7.81876 9.99069L7.85222 10.0757C8.06346 10.0294 8.45502 9.90312 8.53486 9.86706C8.66366 10.0294 8.93416 10.1504 8.90839 10.6785C8.88989 11.0567 8.92562 11.4191 8.95122 11.6444H10.5577C10.9252 11.6444 11.0977 11.6313 11.2566 11.6048C11.416 11.5782 11.5571 11.5331 11.681 11.4695C11.8649 11.3776 12.0048 11.2463 12.1012 11.0759C12.1973 10.9052 12.2458 10.7041 12.2458 10.4726C12.2458 10.2358 12.1962 10.0431 12.0971 9.89466ZM10.7183 10.5095C10.6524 10.5412 10.5003 10.5569 10.262 10.5569H9.96155V10.1108H10.4087C10.5584 10.1108 10.6639 10.1278 10.7252 10.1618C10.7862 10.1958 10.817 10.2532 10.817 10.334C10.817 10.4195 10.7838 10.4779 10.7183 10.5095ZM10.7252 9.13352C10.6639 9.16752 10.5584 9.18449 10.4087 9.18449H9.96155V8.73822H10.262C10.5003 8.73822 10.6524 8.75419 10.7183 8.78576C10.7838 8.81739 10.817 8.87592 10.817 8.96142C10.817 9.04216 10.7862 9.09959 10.7252 9.13352Z" fill="#0DB14B"/>
<path d="M9.2053 8.92969C9.20307 8.93292 9.2021 8.93645 9.20013 8.93972C9.2021 8.93642 9.20307 8.93289 9.2053 8.92969Z" fill="white"/>
</g>
<defs>
<clipPath id="clip0_912_5215">
<rect width="16" height="16" fill="white"/>
</clipPath>
</defs>
</svg>
