<svg width="16" height="16" viewBox="0 0 16 16" fill="none" xmlns="http://www.w3.org/2000/svg">
<path d="M6.34161 2.28205C7.15262 2.05538 7.9629 1.82628 8.77391 1.59961C8.43365 3.81707 8.09412 6.03452 7.75387 8.25174C7.27732 6.26337 6.81236 4.27187 6.34161 2.28205Z" fill="black"/>
<path d="M9.35246 1.67188C9.82273 1.97056 10.2923 2.2707 10.7618 2.57084C10.119 4.95335 9.47619 7.33586 8.83338 9.71837C8.81235 9.77637 8.85005 9.83195 8.8631 9.88729C9.17267 10.8621 9.48416 11.8365 9.79204 12.8118C8.60453 12.8116 7.41726 12.8118 6.22975 12.8118C6.5456 11.8288 6.8687 10.8476 7.18044 9.86361C7.08401 9.45038 6.97188 9.04028 6.86966 8.62825C6.4412 6.94462 6.0125 5.26099 5.58428 3.57735C5.57196 3.53724 5.59516 3.49809 5.60386 3.45991C5.69327 3.17523 5.77398 2.8879 5.86654 2.60443C6.37668 4.66965 6.8861 6.7351 7.39599 8.80031C7.53857 9.37111 7.67487 9.9436 7.82131 10.5132C8.32976 7.56568 8.84256 4.6189 9.35246 1.67188Z" fill="black"/>
<path d="M6.0623 13.3301C7.36074 13.3303 8.65941 13.3301 9.95784 13.3303C10.0714 13.6863 10.1843 14.0427 10.2979 14.3987C8.77057 14.3997 7.24353 14.3989 5.71649 14.3992C5.83128 14.0427 5.94631 13.6863 6.0623 13.3301Z" fill="black"/>
<path d="M2.36057 6.32093C3.21869 5.46015 4.07972 4.60202 4.93979 3.74316C5.05216 4.1187 5.15897 4.49593 5.27352 4.8705C4.64931 5.50123 4.01883 6.12567 3.39172 6.75326C3.39051 8.02463 3.39172 9.29599 3.391 10.5674C4.1167 11.2931 4.84288 12.018 5.56858 12.7435C5.44026 13.1031 5.31146 13.4627 5.18265 13.8223C4.23994 12.8807 3.29796 11.9388 2.35501 10.9975C2.35404 9.56447 2.35501 8.1312 2.35452 6.69792C2.35887 6.5725 2.34607 6.44539 2.36057 6.32093Z" fill="#FF6900"/>
<path d="M11.061 3.74219C11.755 4.43454 12.4481 5.12762 13.1417 5.82045C13.3074 5.99251 13.4872 6.15394 13.6448 6.33204C13.6479 7.88711 13.6458 9.44243 13.646 10.9975C12.7031 11.9388 11.7611 12.881 10.8181 13.8222C10.6898 13.4624 10.5603 13.1028 10.4324 12.743C11.1584 12.0183 11.8843 11.293 12.6098 10.5676C12.6083 9.29501 12.612 8.02244 12.6081 6.75011C11.9795 6.12591 11.3541 5.49904 10.7277 4.87267C10.8399 4.49616 10.9498 4.11893 11.061 3.74219Z" fill="#FF6900"/>
</svg>
