<svg width="16" height="16" viewBox="0 0 16 16" fill="none" xmlns="http://www.w3.org/2000/svg">
<path d="M14.0958 8.03527C13.811 6.96677 12.7036 5.97968 11.8556 5.48424C11.7582 5.42676 11.6583 5.37378 11.556 5.32549C10.9972 5.0628 10.5128 4.90638 10.0908 4.83486C9.85497 4.79502 9.51451 4.75752 9.30023 4.84707C8.9602 4.98837 9.08449 5.44499 9.1675 5.74461C9.20937 5.89725 9.24978 6.00962 9.3703 6.21358C9.49096 6.41813 9.8006 6.6625 10.3466 6.89437C10.2338 6.95732 9.96895 7.03466 9.78519 7.08263C9.99453 7.39897 10.2386 7.68971 10.5124 7.92914C11.0693 8.41615 11.2776 8.42996 11.2776 8.42996C11.2776 8.42996 11.3475 8.10243 11.3176 7.77316C11.3046 7.62866 11.2398 7.51439 11.1623 7.44999C10.9076 7.23891 10.7218 7.01896 10.5423 6.74347C10.1837 6.19367 9.749 5.26909 10.5067 5.15948C11.3062 5.80145 11.7725 6.93202 11.7922 7.7608C11.8303 9.33898 10.8517 10.7202 9.9265 11.3973C7.03631 13.5141 4.22754 12.3878 4.22754 12.3878C4.22754 12.3878 5.16637 13.7357 6.89152 14.1833C8.87006 14.697 11.5159 14.067 12.141 11.8657C12.2989 12.1498 12.1791 12.9169 12.1791 12.9169C12.1791 12.9169 13.3304 12.0511 13.8829 10.7945C14.2425 9.97398 14.3686 9.05885 14.0958 8.03527Z" fill="#002561"/>
<path d="M4.43905 5.46909C4.38003 5.96234 4.34994 6.59341 4.53776 7.42655C4.59155 6.9631 4.78228 6.41097 5.07128 5.967C5.72489 4.96057 6.91696 4.25841 8.08605 4.10911C9.62019 3.91373 11.1894 4.27891 12.4435 5.18532C13.3012 5.80534 13.9218 6.72091 13.9218 6.72091C13.9218 6.72091 14.0811 5.8004 13.6447 4.82276C13.0477 3.48604 11.7743 2.37029 10.4559 2.31912C10.0384 2.30269 9.5539 2.40387 9.32857 2.45054C9.33816 2.23539 10.1921 1.84927 10.1921 1.84927C10.1921 1.84927 8.00566 0.997379 6.27644 2.17665C5.64101 2.61001 4.72762 3.48124 4.45926 5.33782C4.45155 5.37954 4.44472 5.42242 4.43905 5.46909Z" fill="#002561"/>
<path d="M8.75073 10.6686C9.25256 9.82717 9.26651 8.8773 8.97678 7.92292C8.77108 7.29766 8.41419 7.17555 7.73064 6.90966C7.86685 6.82752 8.1624 6.73303 8.35269 6.67779C7.81335 6.06576 7.00871 5.6199 6.24869 5.74434C5.95315 5.79289 5.67257 5.87997 5.44913 6.25635C5.90459 6.18424 6.58625 6.40812 6.94881 6.69843C8.32536 7.80109 8.22345 9.79519 6.93486 10.7318C6.58756 10.9841 6.00752 11.2094 5.5759 11.2213C4.94061 11.2395 4.4116 11.1425 3.96821 10.9733C4.04351 10.9861 4.95326 11.1344 5.92276 10.8329C5.4519 10.4741 5.07901 9.9551 4.92579 9.72832C4.47513 9.05916 2.97312 6.55465 4.69711 3.18066C4.09992 3.3163 3.52307 3.56881 3.00045 4.17793C2.31414 4.97836 2.12922 5.95193 2.18505 6.59303C2.24465 7.27716 2.49033 7.75341 2.53976 7.86855C2.23258 7.80792 1.81202 7.12118 1.81202 7.12118C1.81202 7.12118 1.73526 7.62126 1.73526 7.845C1.73526 7.845 1.47707 11.1358 4.70438 12.0531C6.21511 12.4824 7.97254 11.9722 8.75073 10.6686Z" fill="#002561"/>
</svg>
