<svg width="16" height="16" viewBox="0 0 16 16" fill="none" xmlns="http://www.w3.org/2000/svg">
<path d="M11.0193 1.87667C10.4756 2.02718 9.04575 2.41436 7.84167 2.74046C6.6376 3.06384 5.63966 3.34522 5.62003 3.36213C5.6004 3.38176 5.45534 3.75803 5.29665 4.20411L5.00654 5.01228L5.77872 5.02645L6.55362 5.04063L6.44783 5.40273C6.38948 5.60068 6.21389 6.21635 6.05738 6.76821C5.56114 8.5187 4.0784 13.7276 4.02278 13.9174C3.90281 14.3215 3.88918 14.3913 3.90554 14.3967C3.91644 14.4022 5.12051 14.3995 6.58416 14.3913L9.24315 14.3771L9.35167 13.9867C9.61343 13.0389 9.66087 12.8687 9.67232 12.8355C9.68323 12.8104 9.31296 12.8022 7.87167 12.8022C6.87373 12.8022 6.05738 12.7968 6.05738 12.7913C6.05738 12.7858 6.09664 12.6517 6.14081 12.493C6.27442 12.0333 6.29678 11.9493 6.43365 11.4645C6.50345 11.211 6.58689 10.9236 6.6147 10.8232C6.69813 10.5391 6.76521 10.2992 6.96043 9.61098C7.06077 9.25707 7.3727 8.15333 7.65736 7.15812C8.399 4.54657 8.45462 4.34589 8.45462 4.31263C8.45462 4.28482 9.63633 3.96689 9.73122 3.96689C9.75085 3.96689 9.76176 3.9778 9.75358 3.98925C9.7454 4.00343 9.70068 4.15067 9.65596 4.31808C9.51636 4.83068 9.01794 6.64552 8.95904 6.85165C8.85598 7.21974 8.61876 8.07808 8.32374 9.15127C7.82204 10.9906 7.67426 11.5343 7.67426 11.5567C7.67426 11.5676 8.05326 11.5736 8.51624 11.5709L9.35822 11.5627L9.37785 11.4929C9.38875 11.4536 9.48637 11.097 9.59816 10.6984C9.70668 10.2997 9.891 9.63389 10.0077 9.22108C10.1222 8.80554 10.2335 8.40418 10.2531 8.32893C10.3114 8.10862 10.8273 6.25507 11.1311 5.16551C11.2063 4.89776 11.3372 4.42115 11.4239 4.1065C11.6077 3.44011 11.7527 2.91933 11.9398 2.23931C12.129 1.56202 12.123 1.59801 12.0619 1.60074C12.0314 1.60346 11.563 1.72616 11.0193 1.87667Z" fill="#085DFE"/>
</svg>
