<svg width="16" height="16" viewBox="0 0 16 16" fill="none" xmlns="http://www.w3.org/2000/svg">
<path d="M5.0768 3.05976C5.43456 3.23035 5.77033 3.44366 6.07677 3.69502C6.05211 3.54555 5.93626 2.84377 5.8619 2.41367C6.18439 2.63787 6.96127 3.17411 7.20902 3.34787C7.30805 3.0336 7.67202 2.00075 7.67202 2.00075C7.67202 2.00075 8.31662 3.03472 8.41602 3.20662C8.55652 3.07433 9.31696 2.21487 9.51539 2C9.55687 2.48765 9.59012 3.1984 9.60619 3.2978C9.84632 2.9817 10.1239 2.69587 10.4328 2.44655C10.2179 2.86806 10.1185 3.44652 10.0692 3.91773C9.57479 3.77524 9.06282 3.70291 8.5483 3.70287C7.56874 3.70148 6.60574 3.95547 5.75428 4.43977C5.61378 3.98537 5.39069 3.42335 5.0768 3.05976ZM12.8299 11.9369L12.3838 11.4411C12.2597 12.7717 11.599 13.9126 10.3999 14.7059L10.2097 13.987C9.18468 14.7227 7.44071 15.1936 5.93627 14.3505C6.12647 13.3999 6.28342 12.4328 5.93627 11.2759C5.10146 12.5573 4.3668 13.0696 4.3668 13.0696C3.80628 12.1189 3.85449 10.2262 4.01965 9.66421L3.08545 9.95344C3.08545 9.31818 3.54844 7.96956 4.20948 7.20912L3.63925 7.11832C4.03732 6.30784 4.62741 5.60691 5.35818 5.07652C5.13397 5.44011 5.13397 6.28314 5.77147 6.60562C5.49868 6.13441 5.47253 5.54773 5.74681 5.23347C6.03604 4.9192 6.50725 5.03504 6.8047 5.27495C6.7139 5.01038 6.44111 4.67967 6.0607 4.65501C6.8047 4.26638 7.67239 4.05973 8.56437 4.05973C8.73813 4.05973 8.9033 4.07617 9.06024 4.0844C9.32481 4.18342 9.70484 4.55561 9.88683 4.79439C9.88756 4.58767 9.83941 4.3837 9.74632 4.19912C10.7216 4.43865 11.1928 4.83437 11.383 5.0257C11.4245 5.44721 11.5482 5.69534 11.722 6.10041C11.4077 5.75326 10.6144 5.1748 10.2272 5.04252C10.2272 5.04252 10.1858 5.40611 10.0621 5.57987C9.30164 5.03429 8.93805 4.89379 8.93805 4.89379C8.09502 4.97637 7.57411 5.30708 7.27666 5.55521L7.52479 5.77007C7.02891 5.91955 6.6982 6.35675 6.6982 6.35675C6.6982 6.37319 7.14438 6.43149 7.14438 6.43149C7.14438 6.43149 7.09468 6.9524 7.75609 7.28274C8.31662 7.55552 9.11181 7.21659 9.87225 7.52227C9.37638 6.95203 9.03745 6.68746 9.03745 6.68746C8.9258 6.66434 8.81244 6.65047 8.69852 6.64598C8.52476 6.64598 8.26056 6.68746 7.98852 6.57125C7.84802 6.52155 7.68958 6.42177 7.57523 6.34704C7.57523 6.34704 7.92238 5.98345 8.4347 5.90908C8.4347 5.90908 8.89769 6.03314 9.26128 6.30593C9.50081 6.0664 9.75716 6.08172 9.75716 6.08172C9.75716 6.08172 9.50903 6.32125 9.5834 6.59404C9.85162 6.84091 10.1055 7.10292 10.3438 7.37877C10.7407 7.15456 11.6166 7.20501 11.7986 7.42025C11.5744 7.12131 11.2381 6.8829 10.9884 6.67625C10.9638 6.56041 10.6742 6.18038 10.6413 6.1389C10.8217 6.20676 10.9893 6.30454 11.1372 6.42813C11.226 6.30759 11.3549 6.22266 11.5008 6.1886C11.6745 6.33807 11.7156 6.56228 11.6992 6.60189C11.6556 6.66071 11.5991 6.70878 11.534 6.74239L11.9555 7.20538L11.997 6.86646C12.9787 8.26701 13.516 9.89552 12.8299 11.9369ZM10.9783 8.91984V8.20087C10.7359 8.1145 10.5095 7.9882 10.3087 7.82719C9.61441 7.92622 8.77961 8.62911 8.77961 8.62911C8.77961 8.62911 9.06884 9.16646 9.37488 9.75314C9.92046 9.81256 10.7302 9.13508 10.9783 8.91984ZM11.6726 10.2259C11.6248 10.0128 11.5217 9.81613 11.3737 9.65561L10.8393 9.67131C10.8393 9.67131 10.1036 10.2912 9.66561 10.3066L10.0393 11.0009C10.2874 10.9512 10.7089 10.7527 10.8905 10.5547C10.9639 10.8181 10.9946 11.0917 10.9813 11.3648C11.2261 11.2098 11.565 10.8297 11.6726 10.2259ZM11.8969 7.8455C11.7381 7.97583 11.5722 8.09722 11.3999 8.20909V8.92806C11.5983 9.14292 11.7885 9.3249 11.9372 9.64702C12.21 9.16796 12.1439 8.449 11.8957 7.8455H11.8969Z" fill="#37003C"/>
</svg>
