<svg width="24" height="24" viewBox="0 0 24 24" fill="none" xmlns="http://www.w3.org/2000/svg">
<path d="M5.18381 8.76944C5.27777 8.68375 5.32019 8.5835 5.32001 8.45729C5.3195 8.02912 5.3257 7.60103 5.322 7.17294C5.32122 7.08751 5.31544 6.97691 5.26458 6.92156C5.05821 6.69709 4.88399 6.43572 4.58676 6.26503C4.18531 6.44011 3.78075 6.61666 3.36998 6.79579C3.22645 7.40267 3.26214 7.95929 3.34533 8.51695C3.36447 8.64539 3.4211 8.74125 3.54153 8.78866C3.9229 8.93892 4.29444 9.11615 4.69132 9.2365C4.86296 9.07314 5.02054 8.91823 5.18372 8.76944H5.18381Z" fill="#F1F7F6"/>
<path d="M7.70934 8.60031C7.9271 8.80263 8.11011 9.05219 8.37803 9.22305C8.79138 9.05392 9.2162 8.93392 9.60049 8.72832C9.75282 8.08532 9.8073 7.46448 9.61274 6.81872C9.29654 6.67011 8.97931 6.51804 8.65914 6.37236C8.56751 6.33063 8.46751 6.30744 8.35131 6.26917C8.11985 6.49933 7.8908 6.72407 7.70934 6.97846V8.60031Z" fill="#F1F7F6"/>
<path d="M7.04522 9.00969C6.81057 9.02254 6.5748 9.01297 6.33947 9.01504C5.86086 9.01923 5.45331 9.19196 5.11683 9.53321C5.09657 9.55381 5.08261 9.58062 5.05045 9.62614C5.17588 10.0281 5.3307 10.4339 5.51483 10.8097C6.28542 11.0058 6.69825 11.0151 7.36866 10.8433C7.44685 10.8233 7.55176 10.7717 7.57805 10.7077C7.72692 10.344 7.87761 9.97889 7.95459 9.57881C7.80485 9.44442 7.66072 9.3202 7.52253 9.1896C7.38728 9.06167 7.23608 8.99917 7.04513 9.00961L7.04522 9.00969Z" fill="#F1F7F6"/>
<path d="M5.63164 6.4839C5.69086 6.53813 5.78749 6.57692 5.86784 6.57856C6.36704 6.58873 6.8666 6.59373 7.3484 6.58563C7.55804 6.3527 7.74468 6.14529 7.95191 5.91513C7.82993 5.54548 7.71399 5.21222 7.61123 4.8749C7.56304 4.71663 7.46865 4.62913 7.31279 4.58474C6.7591 4.42698 6.2055 4.4369 5.65422 4.58577C5.57931 4.60603 5.48716 4.67378 5.46026 4.74206C5.31027 5.12265 5.15303 5.5023 5.06544 5.92073C5.25613 6.11262 5.43707 6.30581 5.63172 6.4839H5.63164Z" fill="#F1F7F6"/>
<path d="M21.6648 7.8293C21.0762 7.81981 20.4873 7.82619 19.8467 7.82619C19.8398 8.04507 19.8311 8.20497 19.8304 8.36488C19.8135 12.1296 19.7973 15.8944 19.7814 19.6591C19.7806 19.851 19.7738 20.0435 19.7853 20.2347C19.7967 20.4257 19.8102 20.6196 19.8533 20.8052C19.9626 21.2756 20.3533 21.6198 20.809 21.67C21.2771 21.7216 21.7502 21.4471 21.9456 20.9905C22.0081 20.8441 22.0369 20.6801 22.0606 20.5212C22.08 20.3909 22.0707 20.256 22.0711 20.1232C22.0735 19.0897 22.0751 18.0563 22.0769 17.0228C22.0819 14.2325 22.0871 11.4421 22.0912 8.65169C22.0915 8.50428 22.0947 8.35514 22.0746 8.20989C22.0406 7.96352 21.9088 7.83318 21.6648 7.8293Z" fill="#F1F7F6"/>
<path d="M18.7642 20.2373C18.7776 16.9862 18.7819 13.7351 18.7913 10.484C18.7977 8.3117 18.8081 6.13935 18.8149 3.96708C18.8154 3.7901 18.8146 3.61149 18.793 3.43632C18.7104 2.76677 18.1894 2.19274 17.5291 2.05826C17.3143 2.01447 17.0894 2.00593 16.8691 2.00559C13.9726 2.0011 11.0761 2.0005 8.17967 2.00007C6.45067 1.99981 4.72167 2.00007 2.99266 2.00429C2.78672 2.00481 2.57983 2.02352 2.37501 2.0474C1.7558 2.11981 1.06496 2.73074 1.01479 3.53511C1.00471 3.69718 1.00083 3.85993 1.00065 4.02234C0.999534 5.07153 1.00014 6.12072 1.0004 7.17C1.00117 11.4703 1.00195 15.7707 1.00341 20.071C1.00341 20.2039 1.01014 20.3368 1.01514 20.4697C1.04453 21.2539 1.73184 21.931 2.49233 21.9861C2.65423 21.9978 2.81707 22 2.97948 22C6.28972 21.999 9.59997 21.9986 12.9101 21.9947C14.8903 21.9923 16.8705 21.9842 18.8508 21.9787C18.967 21.9784 19.0831 21.9787 19.2102 21.9787C19.2219 21.8976 19.2312 21.8779 19.225 21.8694C18.8715 21.3816 18.7618 20.83 18.7642 20.2374V20.2373ZM12.2663 4.8599C12.3802 4.83662 12.5007 4.84007 12.6182 4.83973C13.2076 4.83792 13.797 4.83895 14.3863 4.83895V4.83611C14.9462 4.83611 15.5061 4.83542 16.066 4.83671C16.1837 4.83697 16.3035 4.83162 16.4185 4.85128C16.665 4.89343 16.8414 5.09757 16.8568 5.33764C16.874 5.60453 16.7188 5.83134 16.4546 5.89694C16.3274 5.92849 16.1923 5.9397 16.0607 5.93995C14.9115 5.94211 13.7623 5.94056 12.6131 5.9372C12.4958 5.93685 12.3764 5.92858 12.262 5.90427C12.0074 5.85004 11.8481 5.6535 11.8421 5.40583C11.8359 5.14308 12.0074 4.913 12.2664 4.86007L12.2663 4.8599ZM2.56776 7.72326C2.5663 5.23808 4.68193 3.69261 6.48799 3.75131C8.50431 3.68743 10.4618 5.41531 10.4818 7.71223C10.5004 9.8557 8.77637 11.7067 6.52299 11.7083C3.8935 11.7102 2.56888 9.55735 2.56776 7.72335V7.72326ZM3.56248 13.1758C3.6767 13.1521 3.79755 13.1552 3.9154 13.155C4.80184 13.1534 5.68819 13.1541 6.57463 13.1541V13.1559C7.44624 13.1559 8.31794 13.1557 9.18955 13.1563C9.29291 13.1563 9.39739 13.1521 9.49928 13.1657C9.7529 13.1995 9.9578 13.4286 9.96858 13.6787C9.97901 13.9223 9.78169 14.1707 9.52747 14.2153C9.41213 14.2356 9.29196 14.233 9.17395 14.2331C7.40116 14.2345 5.62828 14.235 3.85548 14.2347C3.76704 14.2347 3.6773 14.2351 3.59041 14.2213C3.34076 14.1813 3.16033 13.9791 3.15102 13.7386C3.14119 13.4852 3.32352 13.2253 3.56256 13.1758H3.56248ZM16.7559 18.0134C16.7043 18.0844 16.64 18.1475 16.5753 18.2075C15.8487 18.8804 15.1215 19.5527 14.3925 20.223C14.295 20.3126 14.1947 20.405 14.0807 20.4697C13.7797 20.6407 13.4702 20.4729 13.4443 20.126C13.43 19.9348 13.4409 19.7419 13.4376 19.5498C13.4351 19.4046 13.4282 19.2594 13.4227 19.0953C13.3013 19.0764 13.2028 19.0497 13.1037 19.0478C12.7638 19.0412 12.4238 19.0427 12.0838 19.0423C9.39351 19.0398 6.70325 19.0378 4.01289 19.0349C3.86523 19.0347 3.71644 19.0382 3.57006 19.0226C3.33688 18.9978 3.19774 18.8569 3.16344 18.6254C3.15266 18.5528 3.15326 18.478 3.15318 18.4042C3.15231 17.9608 3.15206 17.5174 3.15344 17.0739C3.15369 16.9853 3.15344 16.8953 3.16887 16.8087C3.21016 16.5771 3.35455 16.4443 3.58739 16.4256C3.71971 16.415 3.85324 16.4187 3.98626 16.4185C6.94263 16.415 9.89893 16.4121 12.8553 16.4078C13.0448 16.4076 13.2378 16.4247 13.4499 16.3504C13.4499 16.0887 13.4489 15.8389 13.4504 15.5891C13.4512 15.4561 13.4431 15.3213 13.4622 15.1907C13.5087 14.8716 13.8187 14.7319 14.0966 14.9025C14.1839 14.9562 14.2629 15.0259 14.3377 15.0968C15.0886 15.8086 15.8382 16.5218 16.5869 17.236C16.6507 17.2969 16.7129 17.3623 16.7625 17.4347C16.889 17.619 16.8866 17.8336 16.7561 18.0134H16.7559ZM16.4886 11.955C16.3917 11.9836 16.2858 11.9923 16.1839 11.9925C14.9611 11.9958 13.7383 11.9966 12.5154 11.9951C12.4136 11.995 12.3071 11.9885 12.2109 11.9587C11.9564 11.88 11.8139 11.64 11.8478 11.3732C11.8799 11.1213 12.0508 10.9556 12.3173 10.9272C12.4195 10.9164 12.5233 10.9176 12.6263 10.9175C13.2009 10.9166 13.7755 10.9171 14.3501 10.9171V10.9064C14.9099 10.9064 15.4698 10.9051 16.0296 10.9073C16.1619 10.9078 16.296 10.9094 16.4261 10.9301C16.672 10.9692 16.8399 11.1672 16.8579 11.4186C16.8756 11.6676 16.7338 11.8829 16.4886 11.955ZM16.5099 8.91573C16.3721 8.959 16.2206 8.97297 16.075 8.97452C15.4988 8.9809 14.9224 8.97711 14.3461 8.97711V8.97943C13.7846 8.97943 13.2231 8.98038 12.6616 8.97874C12.5437 8.9784 12.4235 8.9815 12.3083 8.9609C12.0182 8.90883 11.8355 8.68194 11.8427 8.40109C11.8501 8.11489 12.0379 7.91886 12.3458 7.88628C12.4629 7.87386 12.5819 7.87524 12.7 7.87472C13.8377 7.87041 14.9755 7.86671 16.1132 7.86386C16.2165 7.8636 16.3216 7.8599 16.4226 7.87662C16.6686 7.9174 16.8455 8.11868 16.8645 8.36307C16.8835 8.6097 16.7478 8.8409 16.5098 8.91573H16.5099Z" fill="#F1F7F6"/>
</svg>
