<svg width="24" height="24" viewBox="0 0 24 24" fill="none" xmlns="http://www.w3.org/2000/svg">
<path d="M4 21C3.45 21 2.97917 20.8042 2.5875 20.4125C2.19583 20.0208 2 19.55 2 19V7C2 6.45 2.19583 5.97917 2.5875 5.5875C2.97917 5.19583 3.45 5 4 5H7V3H9V5H15V3H17V5H20C20.55 5 21.0208 5.19583 21.4125 5.5875C21.8042 5.97917 22 6.45 22 7V19C22 19.55 21.8042 20.0208 21.4125 20.4125C21.0208 20.8042 20.55 21 20 21H4ZM11.25 19H12.75V17.5H11.25V19ZM15.5 16H18C18.2833 16 18.5208 15.9042 18.7125 15.7125C18.9042 15.5208 19 15.2833 19 15V11C19 10.7167 18.9042 10.4792 18.7125 10.2875C18.5208 10.0958 18.2833 10 18 10H15.5C15.2167 10 14.9792 10.0958 14.7875 10.2875C14.5958 10.4792 14.5 10.7167 14.5 11V15C14.5 15.2833 14.5958 15.5208 14.7875 15.7125C14.9792 15.9042 15.2167 16 15.5 16ZM5 16H9.5V14.5H6.5V13.5H8.5C8.78333 13.5 9.02083 13.4042 9.2125 13.2125C9.40417 13.0208 9.5 12.7833 9.5 12.5V11C9.5 10.7167 9.40417 10.4792 9.2125 10.2875C9.02083 10.0958 8.78333 10 8.5 10H5V11.5H8V12.5H6C5.71667 12.5 5.47917 12.5958 5.2875 12.7875C5.09583 12.9792 5 13.2167 5 13.5V16ZM11.25 15.5H12.75V14H11.25V15.5ZM16 14.5V11.5H17.5V14.5H16ZM11.25 12H12.75V10.5H11.25V12ZM11.25 8.5H12.75V7H11.25V8.5Z" fill="#F1F7F6"/>
</svg>
