<svg width="24" height="24" viewBox="0 0 24 24" fill="none" xmlns="http://www.w3.org/2000/svg">
<path fill-rule="evenodd" clip-rule="evenodd" d="M6.10548 22L6 8.60382L17.2945 2L17.4 15.3962L6.10548 22ZM6.47212 21.3446L6.37358 8.82641L16.9279 2.65536L17.0264 15.1736L6.47212 21.3446ZM6.6197 17.3599L7.30095 16.1422L10.4234 18.0026L9.74215 19.2203L16.7214 15.1396C15.6521 14.5025 14.5762 13.865 13.5098 13.2297C12.7626 14.4534 11.3843 14.961 10.3786 14.3618C9.37282 13.7625 9.10979 12.277 9.76308 10.9973C8.69665 10.3619 7.62374 9.71903 6.55455 9.08198L6.6197 17.3599ZM9.43346 19.4007L10.1477 18.1241L7.33682 16.4494L6.62262 17.726L6.64867 21.0291L9.43346 19.4007ZM6.67853 8.86036C7.74762 9.49734 8.82517 10.1349 9.89054 10.7697C10.6379 9.54655 12.0159 9.03912 13.0213 9.63818C14.0268 10.2372 14.29 11.7224 13.6372 13.002C14.7025 13.6367 15.7764 14.281 16.8455 14.918L16.7803 6.64013L16.099 7.85784L12.9766 5.99742L13.6578 4.7797L6.67853 8.86036ZM16.7773 6.27395L16.0631 7.55055L13.2522 5.87579L13.9664 4.5992L16.7513 2.97093L16.7773 6.27395ZM10.043 10.8605C10.7309 9.74329 11.9926 9.28113 12.914 9.83009C13.8353 10.3791 14.0783 11.7378 13.4848 12.9112L12.0004 12.0268C12.031 11.8853 11.9864 11.7454 11.8784 11.6811C11.7704 11.6167 11.6307 11.6468 11.5273 11.7449L10.043 10.8605ZM13.3575 13.1387C12.6697 14.2565 11.4075 14.7189 10.486 14.1699C9.56458 13.6209 9.32146 12.2616 9.91567 11.088L11.3998 11.9723C11.3689 12.1141 11.4134 12.2544 11.5216 12.3189C11.6298 12.3834 11.7698 12.353 11.8734 12.2544L13.3575 13.1387Z" fill="#F1F7F6"/>
</svg>
