<svg width="40" height="40" viewBox="0 0 40 40" fill="none" xmlns="http://www.w3.org/2000/svg">
<path fill-rule="evenodd" clip-rule="evenodd" d="M10.509 36.6667L10.3333 14.3397L29.1575 3.33337L29.3333 25.6603L10.509 36.6667ZM11.1201 35.5744L10.9559 14.7107L28.5464 4.42564L28.7106 25.2894L11.1201 35.5744ZM11.3661 28.9332L12.5015 26.9036L17.7056 30.0043L16.5702 32.0339L28.2022 25.2327C26.42 24.1708 24.6268 23.1084 22.8496 22.0495C21.6042 24.089 19.3071 24.935 17.6309 23.9363C15.9546 22.9376 15.5162 20.4616 16.6051 18.3288C14.8277 17.2698 13.0395 16.1984 11.2575 15.1367L11.3661 28.9332ZM16.0557 32.3346L17.246 30.2069L12.5613 27.4157L11.371 29.5433L11.4144 35.0485L16.0557 32.3346ZM11.4641 14.7673C13.246 15.8289 15.0419 16.8916 16.8175 17.9495C18.0631 15.911 20.3598 15.0652 22.0355 16.0637C23.7112 17.0621 24.1499 19.5374 23.0619 21.6701C24.8373 22.7279 26.6272 23.8018 28.409 24.8634L28.3004 11.0669L27.165 13.0964L21.9609 9.99574L23.0963 7.96621L11.4641 14.7673ZM28.2954 10.4566L27.105 12.5843L22.4203 9.79303L23.6106 7.66537L28.2521 4.95159L28.2954 10.4566ZM17.0715 18.1008C18.2181 16.2389 20.3209 15.4686 21.8565 16.3835C23.3921 17.2985 23.7972 19.563 22.8079 21.5187L20.334 20.0447C20.3849 19.8089 20.3106 19.5757 20.1306 19.4685C19.9506 19.3613 19.7178 19.4114 19.5454 19.5748L17.0715 18.1008ZM22.5958 21.8979C21.4493 23.7609 19.3458 24.5316 17.81 23.6166C16.2742 22.7015 15.869 20.436 16.8594 18.48L19.3329 19.9538C19.2814 20.1902 19.3556 20.4241 19.5359 20.5316C19.7162 20.639 19.9496 20.5883 20.1222 20.4241L22.5958 21.8979Z" fill="url(#paint0_linear_1110_2565)"/>
<defs>
<linearGradient id="paint0_linear_1110_2565" x1="10.3333" y1="3.33337" x2="29.3333" y2="36.6667" gradientUnits="userSpaceOnUse">
<stop stop-color="#A3FF4C"/>
<stop offset="1" stop-color="#62F4FF"/>
</linearGradient>
</defs>
</svg>
