<svg width="24" height="24" viewBox="0 0 24 24" fill="none" xmlns="http://www.w3.org/2000/svg">
<path fill-rule="evenodd" clip-rule="evenodd" d="M6.30543 22L6.19995 8.60382L17.4945 2L17.6 15.3962L6.30543 22ZM6.67207 21.3446L6.57353 8.82641L17.1278 2.65536L17.2264 15.1736L6.67207 21.3446ZM6.81965 17.3599L7.5009 16.1422L10.6234 18.0026L9.9421 19.2203L16.9213 15.1396C15.852 14.5025 14.7761 13.865 13.7098 13.2297C12.9625 14.4534 11.5843 14.961 10.5785 14.3618C9.57277 13.7625 9.30974 12.277 9.96303 10.9973C8.8966 10.3619 7.82369 9.71903 6.7545 9.08198L6.81965 17.3599ZM9.63341 19.4007L10.3476 18.1241L7.53677 16.4494L6.82257 17.726L6.84862 21.0291L9.63341 19.4007ZM6.87849 8.86036C7.94757 9.49734 9.02512 10.1349 10.0905 10.7697C10.8378 9.54655 12.2159 9.03912 13.2213 9.63818C14.2267 10.2372 14.49 11.7224 13.8371 13.002C14.9024 13.6367 15.9763 14.281 17.0454 14.918L16.9803 6.64013L16.299 7.85784L13.1765 5.99742L13.8578 4.7797L6.87849 8.86036ZM16.9772 6.27395L16.263 7.55055L13.4522 5.87579L14.1664 4.5992L16.9513 2.97093L16.9772 6.27395ZM10.2429 10.8605C10.9308 9.74329 12.1926 9.28113 13.1139 9.83009C14.0353 10.3791 14.2783 11.7378 13.6847 12.9112L12.2004 12.0268C12.231 11.8853 12.1864 11.7454 12.0784 11.6811C11.9704 11.6167 11.8307 11.6468 11.7272 11.7449L10.2429 10.8605ZM13.5575 13.1387C12.8696 14.2565 11.6075 14.7189 10.686 14.1699C9.76453 13.6209 9.52141 12.2616 10.1156 11.088L11.5997 11.9723C11.5689 12.1141 11.6133 12.2545 11.7215 12.3189C11.8297 12.3834 11.9697 12.353 12.0733 12.2544L13.5575 13.1387Z" fill="white"/>
</svg>
