<svg width="16" height="16" viewBox="0 0 16 16" fill="none" xmlns="http://www.w3.org/2000/svg">
<g clip-path="url(#clip0_1367_10138)">
<path d="M10.544 8.22626H5.35878C3.92681 8.22626 2.76611 9.38702 2.76611 10.8189V13.4115C2.76611 14.8434 3.92681 16.0042 5.35878 16.0042H10.544C11.9759 16.0042 13.1366 14.8434 13.1366 13.4115C13.1366 11.9796 11.9759 10.8189 10.544 10.8189H13.1366C13.1366 9.38702 11.9759 8.22626 10.544 8.22626ZM10.544 0.00415052H5.35878C3.92681 0.00415052 2.76611 1.16491 2.76611 2.59676H5.35878C3.92681 2.59676 2.76611 3.75746 2.76611 5.18937V7.78204H13.1366V5.18937H10.544C11.9759 5.18937 13.1366 4.02861 13.1366 2.59676C13.1366 1.16491 11.9759 0.00415052 10.544 0.00415052Z" fill="white"/>
<path d="M5.82422 12.9758V14.488H6.29144V13.9419H6.62775L6.74735 13.6114H6.29144V13.3053H6.85771L6.97689 12.9758H5.82422Z" fill="black"/>
<path d="M7.11963 12.9758L7.11969 14.488H7.58685V12.9758H7.11963Z" fill="black"/>
<path d="M7.9082 12.9758V14.488H8.37543V13.9419H8.71173L8.83134 13.6114H8.37543V13.3053H8.94169L9.06087 12.9758H7.9082Z" fill="black"/>
<path d="M9.60169 13.3646L9.7884 13.9945H9.42113L9.60169 13.3646ZM9.3662 12.9759L8.81934 14.4883H9.27932L9.33772 14.2851H9.86572L9.92674 14.4883H10.3986L9.85191 12.9759H9.3662Z" fill="black"/>
<path d="M12.8608 15.7264H12.8169V16.0042H12.8608V15.8935H13.0836V15.8375H12.8608V15.7264Z" fill="white"/>
<path d="M13.0836 15.326H12.8412C12.8336 15.326 12.8277 15.328 12.8234 15.3321C12.819 15.3361 12.8169 15.342 12.8169 15.3495V15.4114L13.028 15.5094L12.8169 15.6076V15.6692C12.8169 15.6766 12.819 15.6823 12.8234 15.6867C12.8277 15.6909 12.8336 15.6931 12.8412 15.6931H13.0836V15.6386H12.8609L13.0836 15.5366V15.4829L12.8609 15.3805H13.0836V15.326Z" fill="white"/>
</g>
<defs>
<clipPath id="clip0_1367_10138">
<rect width="16" height="16" fill="white"/>
</clipPath>
</defs>
</svg>
