<svg width="16" height="16" viewBox="0 0 16 16" fill="none" xmlns="http://www.w3.org/2000/svg">
<path d="M12.6717 8.30818C12.6796 8.33696 12.6542 8.35671 12.6022 8.39452L12.5706 8.41201L12.5814 8.43289C12.5887 8.44643 12.5763 8.46674 12.5543 8.47747L12.5069 8.50117C12.4854 8.51245 12.4617 8.51019 12.455 8.49665L12.4448 8.47747L12.385 8.50681L12.3946 8.52712C12.4014 8.54067 12.3884 8.56098 12.3658 8.57114L12.3178 8.59371C12.2958 8.60387 12.2727 8.60104 12.2659 8.58694L12.2575 8.56888C12.0729 8.65578 11.8664 8.74776 11.6537 8.84651L11.6655 8.87359C11.6729 8.88714 11.6593 8.90689 11.6379 8.91704L11.5894 8.93962C11.5673 8.94977 11.5436 8.94639 11.538 8.93284L11.525 8.90576L11.4567 8.93905L11.4697 8.9667C11.4759 8.98081 11.4635 8.99999 11.4409 9.01072L11.393 9.03272C11.3704 9.04288 11.3478 9.04006 11.3411 9.02652L11.3287 8.99999C11.2322 9.03836 11.1266 9.05642 11.0499 8.9114C11.0172 8.84482 11.0155 8.69189 10.9901 8.61064C10.9849 8.59771 10.9765 8.58634 10.9656 8.57764C10.9547 8.56893 10.9418 8.5632 10.928 8.56098C9.99017 8.38097 9.67248 8.58129 9.07151 8.43289C8.88248 8.38662 8.77978 8.21282 8.54673 8.20999C8.03887 8.19476 7.88934 8.2021 7.3386 8.18122C7.3149 8.26078 7.31207 8.27827 7.31207 8.27827L5.37658 8.26924L5.67226 8.41427L5.76706 9.26803C5.76706 9.26803 5.68863 9.2906 5.66606 9.29342C5.68468 9.46271 5.70273 9.69406 5.71233 9.90172C5.72079 10.0879 5.73038 10.282 5.72869 10.4056C5.72927 10.486 5.70988 10.5653 5.67226 10.6364C5.6354 10.6984 5.586 10.752 5.52724 10.7939C5.50975 10.8068 5.4347 10.8576 5.34836 10.9067C5.26203 10.9558 5.1582 11.0122 5.10572 11.0371C5.11362 11.0598 5.12286 11.082 5.13337 11.1036C3.95627 11.6719 2.4976 11.866 2.02529 12.77C1.96886 12.8749 1.7787 12.8202 1.77305 12.7073C1.77305 12.6554 1.77305 12.5714 1.77305 12.5245H1.75612C1.74089 12.5245 1.72904 12.5036 1.73073 12.4788V12.4258C1.73073 12.4015 1.7454 12.3823 1.76007 12.3829H1.78039C1.78638 12.3307 1.79637 12.279 1.8103 12.2283L1.79224 12.2221C1.77813 12.217 1.77362 12.1938 1.78152 12.1707L1.79901 12.1211C1.80747 12.0979 1.82497 12.0838 1.8402 12.0883L1.8577 12.0945C1.94177 11.8987 2.10372 11.8124 2.17934 11.6267L2.16749 11.6222C2.15225 11.6166 2.14774 11.594 2.1562 11.5709L2.1737 11.5207C2.18216 11.4975 2.20022 11.4834 2.21489 11.4885L2.22787 11.493C2.23915 11.4659 2.25213 11.4366 2.2668 11.4067L2.251 11.3959C2.23746 11.3875 2.23746 11.3643 2.251 11.3435L2.27978 11.2989C2.2922 11.2786 2.31307 11.2684 2.32605 11.2769L2.33282 11.2808H2.3396C2.34355 11.2808 2.34524 11.2808 2.34919 11.2763C2.3565 11.2682 2.36422 11.2605 2.37232 11.2532C2.40832 11.2266 2.45174 11.212 2.49649 11.2114C2.54123 11.2108 2.58504 11.2242 2.62174 11.2498C2.69566 11.2944 2.98457 11.4591 3.26277 11.2092C3.72153 10.7972 4.25816 10.238 4.66163 10.2188C4.55216 9.98298 4.36199 9.48866 4.34055 9.3064L4.20512 9.27762C4.13459 9.12583 3.96304 8.42442 3.91451 7.89738C3.91451 7.89738 3.85809 7.32915 3.91451 7.12939C3.88348 7.126 3.82649 7.17284 3.81069 7.1734C3.73676 6.99227 3.97659 5.46136 4.21415 5.01558L4.57811 4.87056C4.54031 4.86604 4.27735 4.85419 3.58554 4.79776C3.20013 5.13916 2.75378 5.50763 2.5275 5.70852C2.48913 5.73673 2.4248 5.95568 2.4248 5.95568C2.4248 5.95568 2.31195 6.05612 2.20417 6.13004C2.06422 6.22823 1.7217 6.30384 1.64722 6.18647C1.63029 6.15769 1.63311 6.14528 1.64722 6.13004C1.70026 6.07361 1.90058 5.97881 1.9683 5.85185C1.85882 5.90828 1.73694 5.96471 1.64157 5.95511C1.59982 5.95511 1.57838 5.85072 1.63198 5.8321C1.77757 5.77059 1.89268 5.74407 1.97845 5.62331C2.06422 5.50256 2.16128 5.42976 2.29332 5.42694C2.29332 5.42694 2.93661 4.58672 3.31581 4.18551C3.42077 4.07604 3.61544 4.11216 3.61544 4.11216L3.64817 3.98463C3.64817 3.98463 4.94603 3.82945 5.5532 4.02977C5.53909 3.66242 5.70386 3.17432 6.27887 3.17432C6.57455 3.17432 7.00962 3.43558 7.06887 3.75271C7.08692 3.85033 7.0305 3.91522 7.00059 4.0388C6.94924 4.22558 7.0209 4.4338 7.00059 4.49869C6.98366 4.5523 6.92328 4.54779 6.8708 4.62058C6.82486 4.69235 6.78503 4.76785 6.75174 4.84629L6.67443 5.02743L6.26928 4.99809C6.12143 5.31803 5.81785 5.96978 5.71063 6.61589C6.02889 6.64298 7.4712 6.85176 7.4712 6.85176L7.50619 6.96913C7.50619 6.96913 8.11392 7.04192 8.61106 7.27892C8.72391 7.30601 9.00154 7.26425 9.18494 7.34833C9.19735 7.341 9.22782 7.30996 9.24136 7.3015C9.88973 7.50125 10.4264 7.84095 11.051 7.99218C11.051 7.99218 11.3433 8.06328 11.4415 8.08247C11.6072 8.11464 11.7747 8.13613 11.9432 8.14679C12.1435 8.16259 12.2546 8.15977 12.4008 8.16824C12.5046 8.17445 12.631 8.15695 12.6722 8.30818M13.6005 6.33657C13.4423 6.33657 13.2877 6.38346 13.1562 6.47132C13.0247 6.55918 12.9223 6.68406 12.8617 6.83017C12.8012 6.97628 12.7854 7.13705 12.8162 7.29215C12.8471 7.44726 12.9232 7.58973 13.0351 7.70156C13.1469 7.81338 13.2894 7.88954 13.4445 7.92039C13.5996 7.95124 13.7604 7.93541 13.9065 7.87489C14.0526 7.81437 14.1774 7.71188 14.2653 7.58039C14.3532 7.4489 14.4001 7.2943 14.4001 7.13616C14.4001 7.03101 14.3793 6.9269 14.339 6.82978C14.2987 6.73266 14.2397 6.64444 14.1653 6.57016C14.0908 6.49589 14.0025 6.43703 13.9053 6.39695C13.8081 6.35686 13.7039 6.33635 13.5988 6.33657H13.6005Z" fill="white"/>
</svg>
