<svg width="16" height="16" viewBox="0 0 16 16" fill="none" xmlns="http://www.w3.org/2000/svg">
<path d="M14.0958 8.03478C13.811 6.96628 12.7036 5.97919 11.8556 5.48375C11.7582 5.42627 11.6583 5.3733 11.556 5.325C10.9972 5.06231 10.5128 4.90589 10.0908 4.83437C9.85497 4.79453 9.51451 4.75703 9.30023 4.84658C8.9602 4.98788 9.08449 5.4445 9.1675 5.74412C9.20937 5.89676 9.24978 6.00914 9.3703 6.2131C9.49096 6.41764 9.8006 6.66201 10.3466 6.89388C10.2338 6.95683 9.96895 7.03417 9.78519 7.08214C9.99453 7.39848 10.2386 7.68923 10.5124 7.92866C11.0693 8.41566 11.2776 8.42947 11.2776 8.42947C11.2776 8.42947 11.3475 8.10194 11.3176 7.77267C11.3046 7.62817 11.2398 7.5139 11.1623 7.4495C10.9076 7.23842 10.7218 7.01847 10.5423 6.74298C10.1837 6.19318 9.749 5.2686 10.5067 5.15899C11.3062 5.80096 11.7725 6.93153 11.7922 7.76031C11.8303 9.3385 10.8517 10.7197 9.9265 11.3968C7.03631 13.5136 4.22754 12.3873 4.22754 12.3873C4.22754 12.3873 5.16637 13.7352 6.89152 14.1828C8.87006 14.6966 11.5159 14.0665 12.141 11.8652C12.2989 12.1493 12.1791 12.9164 12.1791 12.9164C12.1791 12.9164 13.3304 12.0506 13.8829 10.794C14.2425 9.97349 14.3686 9.05836 14.0958 8.03478Z" fill="#F9F9F9"/>
<path d="M4.43911 5.4686C4.38009 5.96185 4.35 6.59292 4.53782 7.42606C4.59161 6.96261 4.78234 6.41048 5.07135 5.96651C5.72495 4.96008 6.91702 4.25792 8.08612 4.10862C9.62025 3.91324 11.1894 4.27842 12.4436 5.18483C13.3013 5.80485 13.9219 6.72042 13.9219 6.72042C13.9219 6.72042 14.0812 5.79991 13.6448 4.82227C13.0477 3.48555 11.7744 2.3698 10.456 2.31863C10.0385 2.30221 9.55396 2.40339 9.32863 2.45005C9.33822 2.2349 10.1922 1.84878 10.1922 1.84878C10.1922 1.84878 8.00572 0.996891 6.2765 2.17617C5.64107 2.60953 4.72768 3.48075 4.45932 5.33733C4.45161 5.37905 4.44478 5.42194 4.43911 5.4686Z" fill="#F9F9F9"/>
<path d="M8.75085 10.6681C9.25268 9.82668 9.26664 8.87681 8.97691 7.92243C8.7712 7.29717 8.41431 7.17506 7.73076 6.90917C7.86697 6.82703 8.16252 6.73254 8.35281 6.6773C7.81348 6.06527 7.00883 5.61941 6.24881 5.74385C5.95327 5.7924 5.6727 5.87948 5.44926 6.25586C5.90471 6.18375 6.58637 6.40763 6.94894 6.69794C8.32548 7.8006 8.22358 9.7947 6.93498 10.7313C6.58768 10.9836 6.00764 11.2089 5.57602 11.2208C4.94074 11.239 4.41172 11.142 3.96833 10.9728C4.04363 10.9856 4.95338 11.1339 5.92288 10.8324C5.45202 10.4736 5.07913 9.95461 4.92591 9.72783C4.47525 9.05867 2.97324 6.55417 4.69723 3.18018C4.10004 3.31581 3.52319 3.56832 3.00057 4.17744C2.31426 4.97787 2.12934 5.95144 2.18517 6.59254C2.24477 7.27668 2.49045 7.75292 2.53988 7.86806C2.23271 7.80744 1.81214 7.12069 1.81214 7.12069C1.81214 7.12069 1.73538 7.62078 1.73538 7.84451C1.73538 7.84451 1.4772 11.1353 4.7045 12.0527C6.21523 12.4819 7.97266 11.9717 8.75085 10.6681Z" fill="#F9F9F9"/>
</svg>
