<svg width="16" height="16" viewBox="0 0 16 16" fill="none" xmlns="http://www.w3.org/2000/svg">
<g clip-path="url(#clip0_654_20895)">
<path d="M17.4638 4.28201C17.4654 4.13982 17.4387 3.99872 17.3852 3.86697C17.3317 3.73522 17.2525 3.61546 17.1521 3.51469C17.0518 3.41392 16.9324 3.33417 16.8008 3.28009C16.6693 3.22601 16.5284 3.1987 16.3862 3.19975H11.7328L14.4025 7.66134L14.6489 7.69254L14.8049 7.89683V8.08708L14.9733 8.12138L15.1292 8.33347V8.51749L15.3039 8.54869L15.4801 8.74051V9.16468C15.6899 9.35409 15.9263 9.51172 16.1819 9.63252C16.4174 9.72295 16.4438 10.1003 16.5858 10.3015C16.7636 10.5947 17.0068 10.7117 16.9554 10.8754C16.8368 11.3136 16.3877 12.0528 15.9698 12.0871H14.3168V12.7951H16.3877C16.5302 12.7945 16.6712 12.7657 16.8026 12.7105C16.934 12.6552 17.0532 12.5746 17.1533 12.4731C17.2534 12.3717 17.3325 12.2515 17.3861 12.1194C17.4396 11.9873 17.4665 11.846 17.4653 11.7035V4.28198" fill="white"/>
<path d="M10.1437 3.19973L13.495 7.56457L13.3484 8.09957C13.3484 8.09957 12.7464 7.67695 12.1226 7.70191H10.5928C10.2481 7.70185 10.3781 6.92881 10.3792 6.92223C10.3817 6.92262 10.5725 6.95149 10.5818 6.9066C10.6411 6.20018 10.5819 5.17715 9.80214 4.66098C8.49067 3.77677 6.31368 3.94205 6.26058 6.06441L5.1098 6.8691H6.51011L6.56152 7.09066L6.18261 7.89988C6.18261 7.89988 6.13903 8.04035 6.21386 8.04035H6.68168C6.82199 8.20728 6.875 8.75279 6.76433 8.77316C5.95495 8.99305 5.27965 10.0988 5.27965 12.098H6.08121C6.13893 12.1931 6.32764 12.5159 6.49293 12.7997H-0.262542C-0.551515 12.7993 -0.828658 12.6844 -1.03301 12.48C-1.1335 12.3794 -1.21289 12.2597 -1.26645 12.128C-1.32001 11.9962 -1.34668 11.8551 -1.34489 11.7129V4.28191C-1.3463 4.13932 -1.31949 3.99784 -1.26598 3.86566C-1.21245 3.73345 -1.13326 3.61306 -1.03301 3.5116C-0.827395 3.31013 -0.550406 3.19804 -0.262542 3.19973H10.1437ZM1.41949 10.001C0.969307 9.54702 0.204948 9.84152 0.157614 10.4605L0.155426 10.5214C0.154401 10.6183 0.17263 10.7144 0.20902 10.8041C0.245402 10.8938 0.299306 10.9754 0.367458 11.0441C0.435622 11.1128 0.516812 11.1674 0.606207 11.2046C0.695616 11.2417 0.79158 11.2607 0.888395 11.2605C1.54833 11.2661 1.88421 10.4696 1.41949 10.001Z" fill="white"/>
</g>
<defs>
<clipPath id="clip0_654_20895">
<rect width="16" height="16" fill="white"/>
</clipPath>
</defs>
</svg>
