<svg width="16" height="16" viewBox="0 0 16 16" fill="none" xmlns="http://www.w3.org/2000/svg">
<path d="M12.1991 7.00199C12.8297 7.89149 12.9986 10.1098 12.5482 10.943C12.5482 10.943 12.2554 10.639 12.0527 10.4363C11.9626 12.0578 11.0844 13.3414 10.3975 13.7243C10.3975 13.7243 10.2849 13.2852 10.1948 13.0262C8.8661 14.1973 6.91812 14.0621 6.16368 13.5779C6.42264 12.3506 6.29881 10.7179 5.96096 10.2336C5.91594 10.3913 4.95885 11.7988 4.42957 12.1479C4.03549 11.3371 4.058 9.49047 4.30574 8.85987C4.30574 8.85987 3.70893 9.02879 3.33736 9.14147C3.42746 8.56711 3.85528 7.26095 4.63229 6.58533C4.63229 6.58533 4.23821 6.50651 4.00169 6.50651C4.31018 5.95657 4.72589 5.47252 5.21644 5.07412C5.17046 5.49072 5.31181 5.94467 5.71466 6.13938C5.08227 4.87469 6.02199 4.20091 6.74886 4.83329C6.67435 4.64692 6.55154 4.46801 6.39664 4.34773C7.28087 3.94982 8.28428 3.78329 9.29624 3.91841C9.48925 3.97424 9.78495 4.40575 9.805 4.43777C9.81054 4.30121 9.8026 4.11737 9.78912 4.00825C10.2605 4.11771 10.7297 4.29478 11.1857 4.54724C9.60323 3.28651 7.65422 3.39208 6.03608 4.19954C5.90383 4.18914 5.76152 4.22315 5.61415 4.31914C5.51878 4.38126 5.43777 4.47212 5.37373 4.58097C4.49778 5.15616 3.76592 5.93564 3.31464 6.79044C3.31464 6.79044 3.4588 6.81932 3.83954 6.87699C3.25115 7.72489 2.92076 8.88238 2.88696 9.69319C2.88696 9.69319 3.37724 9.57291 3.78262 9.43779C3.60247 10.5976 3.84405 12.1929 4.29445 12.756C4.58727 12.587 5.47677 11.7763 5.80333 11.2133C6.00598 11.8889 5.81461 13.1163 5.6682 13.7694C6.87303 14.5801 8.98994 14.5012 9.92452 13.6906C9.92452 13.6906 10.0822 14.0959 10.1385 14.3999C10.8254 13.9833 12.1203 12.9135 12.323 11.3258C12.323 11.3258 12.5369 11.5398 12.6945 11.7087C13.2012 10.4701 13.4603 8.19553 12.1991 7.00199Z" fill="white"/>
<path d="M5.74477 4.04688C6.82461 3.24872 8.78094 3.16525 9.97038 3.51999C10.0016 3.02438 10.2364 2.16882 10.3043 2.06975C10.0694 2.21582 9.53736 2.8105 9.49043 2.91484C9.47996 2.51316 9.41216 1.6002 9.41216 1.6002C9.38609 1.61587 8.34272 2.78964 8.34272 2.78964L7.5967 1.6002L7.14809 2.95657L5.85431 2.02801L6.02125 3.27478C5.78131 3.05571 5.20742 2.70097 5.05615 2.64356C5.31176 2.90444 5.68737 3.80693 5.74477 4.04688Z" fill="white"/>
<path d="M9.93256 5.09868C9.64014 4.84718 8.86217 4.43798 8.86217 4.43798C8.15452 4.40267 7.44674 4.94071 7.23622 5.1279C7.32982 5.21561 7.45263 5.3092 7.45263 5.3092C7.04903 5.44371 6.7508 5.78299 6.64551 5.88829C6.8093 5.95842 7.10172 5.95842 7.10172 5.95842C7.40583 7.49083 8.90903 6.6194 9.76877 7.02881C9.44707 6.6779 8.91485 6.1924 8.91485 6.1924C8.31243 6.23332 7.94551 6.20308 7.51113 5.85319C7.91472 5.54908 8.29485 5.45541 8.37674 5.45541C8.45864 5.45541 8.97916 5.73031 9.13125 5.84149C9.25994 5.7245 9.49386 5.6543 9.62256 5.6192C9.45295 5.80051 9.41204 6.05167 9.45295 6.13959C9.70445 6.37371 10.0262 6.72469 10.2016 6.91181C10.5818 6.73051 11.2369 6.69541 11.6054 6.91181C11.3071 6.5492 10.8333 6.1924 10.8333 6.1924C10.7807 6.0345 10.4824 5.66019 10.4824 5.66019C10.8216 5.82398 10.9912 5.97012 10.9912 5.97012C11.1257 5.79469 11.3363 5.73031 11.3363 5.73031C11.5001 5.9292 11.5118 6.08677 11.5176 6.13959C11.5235 6.1924 11.3714 6.25672 11.3714 6.25672L11.7984 6.74802C12.1493 5.7128 10.8976 5.00509 10.1314 4.57816C10.108 4.7828 9.93256 5.09868 9.93256 5.09868Z" fill="white"/>
<path d="M11.7397 7.36799C11.6019 7.47137 11.4482 7.60875 11.2471 7.66917V8.45234C11.4793 8.64501 11.6941 8.9888 11.8132 9.24756C12.0124 8.56975 11.9886 7.87839 11.7397 7.36799Z" fill="white"/>
<path d="M10.7689 10.0117C10.8092 10.3117 10.8404 10.645 10.8508 10.8013C11.0175 10.6491 11.168 10.4801 11.2999 10.2969C11.473 10.0239 11.5191 9.73628 11.5206 9.7031C11.5243 9.62257 11.4448 9.42362 11.2471 9.11314H10.7C10.7 9.11314 10.0642 9.76283 9.54761 9.78356C9.72734 10.1053 9.87964 10.3721 9.93834 10.4679C10.2631 10.4014 10.7338 10.0819 10.7689 10.0117Z" fill="white"/>
<path d="M10.8232 8.41327V7.66971C10.6484 7.6223 10.4458 7.51481 10.2064 7.3164C9.76664 7.33248 8.84238 7.93551 8.66895 8.11675C8.70815 8.23709 8.96034 8.7152 9.23195 9.21239C9.74679 9.2156 10.5902 8.74845 10.8232 8.41327Z" fill="white"/>
</svg>
