<svg width="16" height="16" viewBox="0 0 16 16" fill="none" xmlns="http://www.w3.org/2000/svg">
<path d="M11.7386 7.99977C11.7386 5.94038 10.0594 4.22949 7.96829 4.22949C5.90891 4.22949 4.22974 5.90866 4.22974 7.99977C4.22974 10.0592 5.90891 11.7383 8.00002 11.7383C8.82377 11.7383 9.58415 11.4849 10.1861 11.0413L9.14055 9.99578C8.79205 10.1859 8.41183 10.3126 7.99995 10.3126C6.73266 10.3126 5.6871 9.29879 5.6871 7.99977C5.6871 6.73248 6.70094 5.68693 7.99995 5.68693C9.04551 5.68693 9.93258 6.41564 10.2178 7.36609H6.54258L7.71484 8.57007H11.6752C11.7386 8.37993 11.7386 8.18985 11.7386 7.99977Z" fill="white"/>
<path d="M11.0098 11.8653C10.1861 12.5307 9.14053 12.9109 8 12.9109C7.35451 12.913 6.71498 12.7874 6.11822 12.5414C5.52146 12.2953 4.97925 11.9337 4.52282 11.4772C4.06639 11.0208 3.70474 10.4786 3.4587 9.88185C3.21266 9.28509 3.08708 8.64555 3.08919 8.00006C3.08919 6.85947 3.46941 5.81398 4.13474 4.99022L3.05753 3.91301C2.13874 5.02188 1.6001 6.44766 1.6001 8.00013C1.6001 11.517 4.45158 14.4001 8 14.4001C9.55247 14.4001 10.9782 13.8615 12.0871 12.9427L11.0098 11.8653ZM4.9585 4.13475C5.78226 3.46941 6.82781 3.08919 7.96834 3.08919C8.61383 3.08708 9.25337 3.21266 9.85013 3.4587C10.4469 3.70474 10.9891 4.06639 11.4455 4.52282C11.902 4.97925 12.2636 5.52145 12.5097 6.11821C12.7557 6.71497 12.8813 7.35451 12.8792 8C12.8792 9.14059 12.499 10.1861 11.8337 11.0098L12.8792 12.0554C13.798 10.9465 14.3366 9.52081 14.3366 7.96827C14.3683 4.45152 11.5168 1.6001 8 1.6001C6.44753 1.6001 5.02182 2.13874 3.91294 3.05753L4.9585 4.13475Z" fill="white"/>
</svg>
