<svg width="16" height="16" viewBox="0 0 16 16" fill="none" xmlns="http://www.w3.org/2000/svg">
<path d="M1.92709 8.12787C1.97166 8.15912 3.64183 9.34538 3.68167 9.37364C3.72152 9.40191 3.7686 9.43269 3.80323 9.35242C4.23891 8.3431 4.75428 7.47232 5.2489 6.73381C5.74353 5.99539 6.6721 4.88815 7.71952 4.09764C7.79207 4.04284 7.79149 4.06059 7.79149 3.95292C7.79149 3.84526 7.82449 1.76671 7.82449 1.68191C7.82449 1.61756 7.78696 1.56614 7.73081 1.62721C6.9593 2.46721 6.61653 2.95769 6.09933 3.80474C5.58222 4.65169 4.99903 5.79511 4.97472 5.84103C4.95041 5.88695 4.9261 5.90808 4.82895 5.96095C4.7317 6.01391 4.18508 6.30334 3.49779 6.77626C2.81041 7.24908 2.03292 7.91784 1.96867 7.96907C1.90451 8.0202 1.83158 8.06082 1.92709 8.12787Z" fill="#EC252C"/>
<path d="M14.0194 3.26199C12.6825 3.24415 11.0563 3.44915 9.37349 4.25028C8.84606 4.5014 8.31304 4.81128 7.78166 5.19101C8.18473 4.98021 8.75538 4.69561 9.15469 4.55311C9.83464 4.31058 10.5923 4.19519 10.7419 4.17754C10.8915 4.15988 10.7904 4.22452 10.7166 4.26948C10.6428 4.31444 9.71617 4.96593 9.10124 5.52934C8.48631 6.09275 7.98802 6.55931 7.18853 7.60297C7.14541 7.65931 7.10595 7.70735 7.15747 7.84155C7.81311 9.54944 8.4018 10.5031 9.11291 11.4626C9.19106 11.5681 9.15372 11.5712 9.08079 11.5331C9.00795 11.4949 8.97978 11.4821 8.46296 11.1692C7.94624 10.8561 6.73394 10.0541 5.99765 9.30488C5.90195 9.20754 5.87098 9.20406 5.7665 9.29899C5.32734 9.69811 4.64353 10.3593 4.16559 11.0401C4.08099 11.1606 4.08398 11.0635 4.08793 10.9814C4.09179 10.8992 4.10732 10.5745 4.13839 10.2888C4.18489 9.87003 4.24673 9.55427 4.28802 9.37087C4.12397 9.72782 3.9828 10.0948 3.86537 10.4697C3.72914 10.9051 3.49731 11.7672 3.49731 12.979C3.49731 13.3829 3.49789 13.6142 3.5196 13.7054C3.53465 13.7689 3.57768 13.7531 3.63595 13.6514C3.68901 13.5587 3.92151 13.1602 4.26024 12.6822C4.68231 12.0867 5.26396 11.3606 5.77151 10.9343C5.83075 10.8847 5.87358 10.8231 5.97035 10.9236C6.08071 11.0383 6.58441 11.492 8.02921 12.3999C9.47402 13.3078 11.2312 14.0119 12.5727 14.3693C12.9359 14.466 12.8302 14.311 12.7292 14.2156C11.808 13.3471 10.543 11.6106 9.96565 10.6609C9.03023 9.12216 8.74264 8.22861 8.70367 8.13561C8.66469 8.0426 8.68447 7.98646 8.74361 7.90773C8.80805 7.82197 9.29467 7.17057 10.0854 6.38777C10.8761 5.60498 12.1823 4.56479 13.1089 3.97504C13.6923 3.60371 13.8372 3.48003 14.007 3.37815C14.0905 3.32798 14.1186 3.31959 14.1186 3.29238C14.1186 3.26084 14.0711 3.26267 14.0194 3.26199Z" fill="white"/>
</svg>
