<svg width="16" height="16" viewBox="0 0 16 16" fill="none" xmlns="http://www.w3.org/2000/svg">
<path d="M6.87746 6.59633L7.01222 7.01106L6.65941 6.7548L6.30663 7.01106L6.44131 6.59633L6.08859 6.33998H6.52474L6.65941 5.92514L6.79414 6.33998H7.23024L6.87746 6.59633ZM4.8472 6.59633L5.19998 6.33998H4.76394L4.62915 5.92514L4.49445 6.33998H4.05824L4.4111 6.59633L4.27632 7.01106L4.62915 6.7548L4.98184 7.01106L4.8472 6.59633ZM5.77908 7.69051L5.6443 7.27572L5.50957 7.69051H5.07344L5.42619 7.94686L5.29149 8.36156L5.6443 8.1053L5.99702 8.36156L5.86234 7.94686L6.21509 7.69051H5.77908ZM4.4594 4.97223L4.05938 4.06123H4.0467V5.277C4.04697 5.28124 4.04633 5.28549 4.04483 5.28947C4.04334 5.29344 4.04101 5.29706 4.03802 5.30007C4.03502 5.30309 4.03142 5.30543 4.02745 5.30695C4.02349 5.30848 4.01924 5.30914 4.015 5.3089H3.65628C3.65202 5.30915 3.64776 5.3085 3.64377 5.30699C3.63978 5.30548 3.63616 5.30314 3.63314 5.30012C3.63012 5.29711 3.62777 5.29349 3.62625 5.2895C3.62473 5.28552 3.62407 5.28126 3.62432 5.277V3.18196C3.62407 3.1777 3.62473 3.17344 3.62625 3.16946C3.62778 3.16548 3.63013 3.16187 3.63315 3.15887C3.63618 3.15587 3.63981 3.15355 3.6438 3.15206C3.64779 3.15057 3.65206 3.14994 3.65631 3.15022H4.03399C4.04476 3.1491 4.0556 3.15161 4.06478 3.15736C4.07396 3.1631 4.08096 3.17175 4.08466 3.18193L4.63078 4.41358H4.64363L5.17998 3.18193C5.18373 3.17174 5.19076 3.16308 5.19998 3.15734C5.20919 3.15159 5.22005 3.14908 5.23085 3.1502H5.60222C5.60645 3.14993 5.61069 3.15057 5.61465 3.15207C5.61862 3.15357 5.62222 3.1559 5.62521 3.1589C5.6282 3.1619 5.63052 3.1655 5.63202 3.16947C5.63351 3.17343 5.63414 3.17767 5.63387 3.1819V5.27703C5.63415 5.28127 5.63352 5.28552 5.63203 5.2895C5.63055 5.29347 5.62823 5.29709 5.62524 5.30011C5.62224 5.30313 5.61865 5.30547 5.61468 5.30699C5.61071 5.30851 5.60647 5.30917 5.60222 5.30893H5.24348C5.23924 5.30916 5.235 5.3085 5.23103 5.30697C5.22707 5.30545 5.22347 5.3031 5.22048 5.30009C5.21749 5.29707 5.21518 5.29346 5.21368 5.28948C5.21219 5.28551 5.21156 5.28126 5.21183 5.27703V4.06126H5.19909L4.79913 4.97221C4.79492 4.98476 4.78672 4.99559 4.7758 5.00307C4.76487 5.01054 4.7518 5.01425 4.73858 5.01362H4.51959C4.50642 5.01416 4.49344 5.01042 4.48259 5.00295C4.47173 4.99548 4.4636 4.98472 4.4594 4.97223ZM5.9562 5.30893H7.36254C7.36679 5.30917 7.37103 5.3085 7.37501 5.30698C7.37898 5.30546 7.38258 5.30312 7.38559 5.3001C7.38859 5.29709 7.39092 5.29348 7.39243 5.2895C7.39393 5.28552 7.39458 5.28127 7.39433 5.27703V4.92468C7.39457 4.92044 7.39391 4.9162 7.3924 4.91224C7.39089 4.90828 7.38855 4.90468 7.38555 4.90168C7.38255 4.89869 7.37894 4.89636 7.37498 4.89485C7.37101 4.89335 7.36677 4.8927 7.36254 4.89294H6.41017C6.40758 4.89332 6.40494 4.89308 6.40245 4.89225C6.39997 4.89143 6.39771 4.89003 6.39586 4.88818C6.39401 4.88633 6.39261 4.88407 6.39179 4.88158C6.39096 4.8791 6.39072 4.87646 6.39109 4.87386V3.18193C6.39136 3.17769 6.39073 3.17345 6.38923 3.16948C6.38773 3.16551 6.3854 3.16191 6.38241 3.15891C6.37941 3.1559 6.3758 3.15358 6.37183 3.15207C6.36787 3.15057 6.36363 3.14993 6.35939 3.1502H5.9562C5.95197 3.14994 5.94773 3.15058 5.94377 3.15208C5.9398 3.15358 5.9362 3.15591 5.93321 3.15891C5.93021 3.1619 5.92788 3.1655 5.92638 3.16947C5.92488 3.17343 5.92424 3.17767 5.9245 3.1819V5.27703C5.92424 5.28127 5.92488 5.28551 5.92637 5.28949C5.92787 5.29346 5.9302 5.29708 5.93319 5.30009C5.93618 5.3031 5.93978 5.30545 5.94375 5.30697C5.94772 5.3085 5.95196 5.30916 5.9562 5.30893ZM8.56548 4.01042L8.45129 3.99456C8.20368 3.95972 8.11479 3.88037 8.11479 3.75652C8.11479 3.61991 8.21313 3.52162 8.40365 3.52162C8.58148 3.52162 8.74006 3.57869 8.90521 3.68672C8.90875 3.68904 8.91271 3.69063 8.91688 3.69139C8.92104 3.69216 8.92531 3.69209 8.92945 3.69118C8.93358 3.69027 8.93749 3.68855 8.94095 3.68611C8.94441 3.68367 8.94735 3.68056 8.94959 3.67698L9.14328 3.38815C9.1591 3.36587 9.15596 3.35333 9.13705 3.34059C8.95596 3.20089 8.68927 3.11523 8.40365 3.11523C7.93693 3.11523 7.63863 3.3787 7.63863 3.77549C7.63863 4.15643 7.88295 4.36274 8.32116 4.42309L8.43541 4.43888C8.69253 4.47384 8.76868 4.55328 8.76868 4.68027C8.76868 4.83251 8.64174 4.93739 8.41633 4.93739C8.18783 4.93739 7.99426 4.82945 7.8513 4.71517C7.8481 4.71199 7.84426 4.70953 7.84003 4.70795C7.8358 4.70636 7.83129 4.7057 7.82679 4.706C7.82228 4.70629 7.81789 4.70755 7.81391 4.70967C7.80993 4.71179 7.80645 4.71474 7.80369 4.71831L7.56239 4.99451C7.55586 5.00219 7.55254 5.01209 7.55312 5.02215C7.55371 5.03221 7.55815 5.04166 7.56553 5.04852C7.7338 5.21047 8.0607 5.34369 8.39736 5.34369C8.95596 5.34369 9.24502 5.05484 9.24502 4.66447C9.24502 4.27388 9.00997 4.07077 8.56548 4.01042Z" fill="white"/>
<path d="M13.6113 2.33142V2.0835H2.55415L2.55412 2.33142L2.55372 6.53367C2.5512 8.19747 3.09408 9.81625 4.09924 11.1421C4.11487 11.1627 4.13083 11.183 4.1466 11.2034L2.69533 12.6547L3.04597 13.0053L4.4637 11.5875C4.86808 12.0461 5.32586 12.4546 5.82728 12.8044C6.49438 13.2705 7.23201 13.6264 8.01198 13.8586L8.0827 13.8797L8.15345 13.8586C8.93345 13.6265 9.67109 13.2706 10.3382 12.8044C10.9978 12.3443 11.5809 11.7834 12.0662 11.1421C13.0713 9.81625 13.6142 8.19748 13.6117 6.53367L13.6113 2.33142ZM4.49458 10.8428C3.55463 9.6031 3.04705 8.08942 3.0496 6.53367L3.04994 2.57934H12.7707L4.50006 10.8499L4.49458 10.8428ZM12.7335 8.84601C12.488 9.56401 12.1293 10.2381 11.6709 10.8428C11.2169 11.4427 10.6715 11.9675 10.0544 12.3978C9.45109 12.8194 8.78593 13.1446 8.08273 13.3619C7.37952 13.1446 6.71435 12.8194 6.111 12.3978C5.63347 12.0646 5.19831 11.6745 4.81514 11.2361L13.1156 2.93569L13.1158 6.53367C13.1168 7.32026 12.9876 8.10159 12.7335 8.84601Z" fill="white"/>
</svg>
