<svg width="24" height="24" viewBox="0 0 24 24" fill="none" xmlns="http://www.w3.org/2000/svg">
<path d="M20.9019 10.801C20.4326 7.23613 17.9243 4.43187 14.7072 3.40243C14.7054 3.40151 14.7036 3.40059 14.7017 3.39968L14.7011 3.40059C13.4801 3.01066 12.1574 2.8752 10.8046 3.05277C5.88468 3.70082 2.40917 8.23018 3.05692 13.1501C3.60825 17.3371 6.97117 20.4758 10.9928 20.9197V20.9224C10.9947 20.9227 11.0178 20.9252 11.0554 20.927C11.358 20.9581 11.6641 20.9758 11.9731 20.9758C12.3628 20.9758 12.757 20.9505 13.1539 20.8983C18.0735 20.2506 21.5493 15.7209 20.9019 10.8013V10.801ZM10.8894 3.69808C11.2577 3.64956 11.6229 3.62607 11.9847 3.62607C12.8366 3.62607 13.6653 3.75879 14.45 4.00319C14.9431 4.25002 15.3303 4.64178 15.5878 5.13423C15.4489 5.21295 15.3876 5.38228 15.4483 5.53484C15.5075 5.68404 15.6665 5.76336 15.8194 5.73102C15.8483 5.8369 15.8724 5.94551 15.8914 6.05749C15.783 6.06786 15.7144 6.08617 15.7065 6.08831C15.5347 6.13621 15.4355 6.31256 15.4813 6.48464C15.5268 6.65673 15.7046 6.75924 15.8773 6.71592C15.881 6.715 15.9054 6.7092 15.9448 6.70432C15.9432 6.8404 15.9335 6.97587 15.9176 7.10981C15.747 7.08449 15.6299 7.09242 15.6183 7.09334C15.4395 7.10859 15.3065 7.26603 15.3214 7.44482C15.3367 7.62392 15.4926 7.7536 15.6729 7.7417C15.6744 7.74109 15.7187 7.73956 15.7849 7.74658C15.7388 7.89974 15.6836 8.04833 15.6192 8.19021C15.4709 8.11454 15.3626 8.08525 15.3516 8.0825C15.1786 8.03735 15.0044 8.142 14.9586 8.31439C14.9126 8.48677 15.0157 8.66435 15.1875 8.71195C15.1924 8.71347 15.2326 8.72628 15.2894 8.75191C15.1957 8.87853 15.0929 8.99478 14.9821 9.09913C14.8381 8.96305 14.7197 8.89623 14.7084 8.89013C14.5531 8.8047 14.3579 8.86084 14.27 9.01644C14.1824 9.17174 14.2377 9.36946 14.392 9.45855C14.3954 9.46038 14.418 9.47441 14.4497 9.49791C14.3255 9.57602 14.2014 9.64619 14.0763 9.70874C13.9527 9.54276 13.8407 9.44878 13.8306 9.44085C13.6897 9.32918 13.485 9.35329 13.3739 9.49455C13.2625 9.63551 13.2863 9.83994 13.4276 9.9513C13.4279 9.9513 13.4334 9.95618 13.441 9.9632C13.2918 10.0081 13.1414 10.0428 12.9898 10.0694C12.8991 9.85885 12.7902 9.7304 12.7811 9.72003C12.6645 9.58547 12.4619 9.57144 12.3258 9.68677C12.1943 9.79844 12.1776 9.99249 12.2795 10.1292C12.1382 10.1292 11.9957 10.1231 11.8517 10.1106C11.8139 9.91438 11.7516 9.78563 11.7461 9.77434C11.6665 9.61476 11.474 9.55039 11.3135 9.6291C11.1716 9.69806 11.1036 9.85794 11.1423 10.0053C11.0041 9.97662 10.8641 9.94306 10.7231 9.90553C10.7289 9.68402 10.6871 9.52781 10.6834 9.51469C10.6349 9.34169 10.4549 9.241 10.2822 9.28921C10.1092 9.33803 10.0085 9.51743 10.057 9.69043C10.057 9.69074 10.0586 9.69714 10.0601 9.70416C9.90816 9.6529 9.75408 9.59737 9.59847 9.53879C9.62624 9.34535 9.61037 9.20714 9.60884 9.19463C9.58627 9.01644 9.42303 8.89104 9.24515 8.91271C9.06697 8.93529 8.94065 9.09791 8.96323 9.2764C8.96323 9.2764 8.96354 9.2825 8.96384 9.28647C8.8 9.21812 8.63371 9.14703 8.46499 9.0735C8.4894 8.92033 8.48238 8.81233 8.48146 8.80165C8.46712 8.62255 8.31182 8.48982 8.1315 8.50294C7.97315 8.51545 7.8508 8.63994 7.83433 8.79219C7.827 8.78883 7.81968 8.78548 7.81236 8.78212C7.61739 8.69364 7.42884 8.62163 7.24516 8.56153C7.22899 8.41568 7.19329 8.31225 7.18444 8.28937C7.11945 8.124 6.93486 8.04467 6.76827 8.106C6.64531 8.15207 6.56751 8.26648 6.55927 8.39036C6.34631 8.35436 6.1431 8.33605 5.95027 8.33269C5.91671 8.2137 5.87461 8.13346 5.86393 8.11484C5.77514 7.95893 5.57651 7.90462 5.4203 7.99311C5.28208 8.07182 5.22411 8.23628 5.27384 8.38121C4.89368 8.44406 4.56813 8.5597 4.30024 8.68906C4.5724 8.05657 4.92449 7.45337 5.35439 6.89288C6.71213 5.12385 8.67734 3.98915 10.8882 3.69777L10.8894 3.69808ZM3.70192 13.0649C3.55089 11.919 3.63815 10.7785 3.94418 9.69867C4.09277 9.56137 4.55653 9.18395 5.29703 9.04146C5.32419 9.12842 5.38613 9.20439 5.47613 9.24375C5.51854 9.26236 5.56278 9.27121 5.60641 9.27121C5.73181 9.27121 5.85111 9.19829 5.90481 9.07625C5.91793 9.04604 5.92495 9.01675 5.93502 8.98715C6.11137 8.9899 6.2984 9.00668 6.49581 9.04177C6.44913 9.18151 6.5013 9.33986 6.63189 9.42102C6.68528 9.45397 6.74478 9.46984 6.80336 9.46984C6.91198 9.46984 7.01816 9.41553 7.07979 9.31637C7.10206 9.28067 7.11671 9.24528 7.1341 9.20988C7.26743 9.25657 7.40443 9.31118 7.54539 9.37495C7.56278 9.38288 7.58017 9.39081 7.59756 9.39875C7.59756 9.39875 7.59726 9.39936 7.59695 9.39936C7.46209 9.51804 7.44836 9.72338 7.56705 9.85855C7.63143 9.93177 7.72113 9.9693 7.81175 9.9693C7.88803 9.9693 7.9643 9.94276 8.02624 9.88875C8.10282 9.82163 8.16537 9.75023 8.21846 9.67762C8.39024 9.75359 8.56323 9.82895 8.73745 9.90218C8.73104 9.90889 8.72647 9.91621 8.71975 9.92262C8.59039 10.0474 8.58673 10.2531 8.71121 10.3827C8.77498 10.4489 8.8601 10.4822 8.94554 10.4822C9.03097 10.4822 9.10816 10.452 9.17132 10.3913C9.25003 10.3153 9.3138 10.2357 9.3675 10.1548C9.55087 10.2244 9.73516 10.2906 9.92036 10.3519C9.917 10.3565 9.91517 10.3611 9.91151 10.3656C9.80198 10.5078 9.82852 10.7122 9.9707 10.8218C10.0299 10.8672 10.0998 10.8892 10.169 10.8892C10.2664 10.8892 10.3628 10.8456 10.4268 10.7623C10.4827 10.69 10.5284 10.6161 10.566 10.5429C10.7698 10.596 10.9745 10.6412 11.1795 10.6778C11.1698 10.7037 11.1619 10.7296 11.1484 10.7559C11.0676 10.9164 11.1323 11.1119 11.2927 11.1928C11.3397 11.2166 11.3895 11.2276 11.4389 11.2276C11.5579 11.2276 11.6726 11.1623 11.7297 11.0488C11.7788 10.9514 11.8123 10.8553 11.8361 10.7617C11.9756 10.772 12.115 10.7794 12.2544 10.7794C12.3204 10.7794 12.3863 10.7748 12.4522 10.7724C12.4497 10.7882 12.4497 10.8032 12.4461 10.8196C12.4076 10.9951 12.519 11.1684 12.6944 11.2068C12.7176 11.212 12.7411 11.2141 12.764 11.2141C12.9138 11.2141 13.048 11.1104 13.0816 10.9585C13.1011 10.8697 13.1109 10.7842 13.1139 10.7022C13.3281 10.6643 13.542 10.6134 13.7553 10.5426C13.7657 10.5951 13.773 10.6503 13.7754 10.7092C13.7834 10.884 13.9274 11.0204 14.1004 11.0204C14.1052 11.0204 14.1098 11.0204 14.1147 11.0204C14.2944 11.0125 14.4335 10.8605 14.4256 10.6811C14.4192 10.5377 14.393 10.4105 14.3597 10.2912C14.5162 10.2137 14.6724 10.1295 14.8277 10.0303C14.8406 10.0691 14.854 10.1078 14.8631 10.1508C14.8958 10.3037 15.0306 10.4087 15.1811 10.4087C15.2036 10.4087 15.2262 10.4062 15.2491 10.4016C15.4248 10.3641 15.5371 10.1914 15.4999 10.0157C15.4694 9.87197 15.4239 9.74383 15.3696 9.62941C15.5155 9.49882 15.6491 9.35023 15.7721 9.18944C15.787 9.21446 15.8032 9.23704 15.8169 9.2645C15.874 9.37861 15.989 9.44482 16.1083 9.44482C16.1571 9.44482 16.2065 9.43383 16.2532 9.41065C16.414 9.3304 16.4793 9.13513 16.3994 8.97434C16.3249 8.82484 16.2358 8.70005 16.1425 8.59448C16.2349 8.40989 16.3161 8.21645 16.3817 8.01477C16.3951 8.02667 16.4085 8.03552 16.4216 8.04833C16.4851 8.11027 16.5669 8.14108 16.6489 8.14108C16.731 8.14108 16.8177 8.10844 16.8814 8.04314C17.0071 7.91469 17.0047 7.70874 16.8763 7.58304C16.7679 7.47717 16.655 7.39418 16.5431 7.32858C16.5669 7.17602 16.5821 7.02164 16.5898 6.86634C16.6401 6.89471 16.6944 6.91119 16.749 6.91119C16.8543 6.91119 16.9574 6.86023 17.02 6.76626C17.1194 6.61645 17.0788 6.41477 16.9293 6.31531C16.8061 6.23354 16.6828 6.17648 16.5641 6.1359C16.5498 6.0163 16.5312 5.89822 16.5071 5.7835C16.6111 5.77038 16.7075 5.70997 16.7579 5.60898C16.8381 5.44819 16.7728 5.25292 16.612 5.17267C16.4964 5.1147 16.3841 5.08144 16.2788 5.06192C16.2291 4.94689 16.1745 4.83553 16.1138 4.72843C18.3014 5.97999 19.9032 8.20028 20.2572 10.8859C20.3627 11.688 20.3478 12.4782 20.2306 13.2404C20.0814 13.1308 19.9121 13.0378 19.7275 12.9621C19.7064 12.7791 19.6561 12.6534 19.6451 12.628C19.574 12.4657 19.3864 12.3922 19.2219 12.4614C19.0953 12.5148 19.0215 12.6405 19.0248 12.7711C18.7984 12.7376 18.5611 12.7275 18.3191 12.7406C18.2102 12.5395 18.0988 12.4239 18.0891 12.4141C17.9621 12.2863 17.7565 12.2857 17.629 12.412C17.5084 12.5313 17.5051 12.7193 17.6107 12.8474C17.4224 12.8947 17.2103 12.9627 16.9821 13.061C16.7997 12.8697 16.6331 12.7781 16.6197 12.7711C16.4628 12.6875 16.2685 12.7467 16.183 12.9035C16.0976 13.0601 16.1556 13.2569 16.3115 13.3441C16.3148 13.346 16.3377 13.3597 16.3698 13.3829C16.212 13.4814 16.0512 13.5958 15.8892 13.7267C15.6735 13.5745 15.4926 13.5168 15.4785 13.5125C15.308 13.461 15.1289 13.5565 15.0755 13.7267C15.0218 13.8967 15.117 14.0788 15.2863 14.134C15.2915 14.1359 15.3348 14.1517 15.3949 14.1835C15.2552 14.3296 15.1164 14.491 14.9803 14.6683C14.7753 14.5783 14.6197 14.5551 14.6062 14.5533C14.4265 14.5273 14.2642 14.6543 14.2404 14.8321C14.2166 15.0103 14.3414 15.1739 14.5193 15.198C14.5205 15.198 14.5519 15.2038 14.6004 15.2184C14.5007 15.3789 14.4033 15.5504 14.3088 15.7325C14.0891 15.6678 13.928 15.6651 13.9142 15.6651H13.9139C13.7358 15.6651 13.5924 15.8085 13.5902 15.9867C13.5881 16.1649 13.7318 16.3116 13.91 16.3159C13.9155 16.3159 13.9609 16.3186 14.0271 16.3315C13.9396 16.5371 13.8557 16.7546 13.7757 16.9844C13.5396 16.9417 13.3705 16.9594 13.3562 16.9612C13.1792 16.9819 13.0535 17.1415 13.0728 17.3188C13.0917 17.4964 13.2512 17.6254 13.4294 17.6077C13.4352 17.6074 13.4926 17.6028 13.5783 17.6117C13.5149 17.8347 13.4544 18.066 13.3989 18.3101C13.3953 18.3256 13.391 18.3403 13.3873 18.3555C13.1643 18.3443 13.0102 18.3815 12.9974 18.3845C12.8247 18.4282 12.7213 18.6024 12.7631 18.7754C12.8049 18.9487 12.9815 19.0555 13.1536 19.0158C13.1542 19.0158 13.1582 19.0149 13.1597 19.0146C13.1085 19.122 13.0532 19.2196 12.9946 19.3096C12.9373 19.3112 12.8961 19.3169 12.8845 19.3194C12.7081 19.353 12.5922 19.5232 12.6261 19.6999C12.6285 19.7124 12.6331 19.7237 12.6368 19.7356C12.0586 20.2652 11.3709 20.2896 11.1435 20.2811C7.37788 19.9018 4.21725 16.9768 3.70253 13.0653L3.70192 13.0649ZM13.0691 20.253C13.056 20.2549 13.0429 20.2555 13.0297 20.2573C13.1033 20.1938 13.1756 20.1249 13.2454 20.0492C13.2924 20.0736 13.3425 20.0901 13.3934 20.0901C13.4892 20.0901 13.5844 20.0477 13.6485 19.9665C13.7522 19.8356 13.7376 19.6504 13.6216 19.5354C13.69 19.4173 13.7519 19.2861 13.8102 19.1476C13.8273 19.158 13.8441 19.1659 13.8612 19.1778C13.9179 19.2175 13.9829 19.2367 14.0476 19.2367C14.1501 19.2367 14.2508 19.1885 14.3142 19.0979C14.4174 18.9508 14.3817 18.7479 14.2343 18.6448C14.1614 18.5935 14.0879 18.5511 14.0152 18.5157C14.0204 18.4941 14.0274 18.4755 14.0323 18.4535C14.0784 18.2506 14.1281 18.0584 14.18 17.8713C14.191 17.8805 14.202 17.8872 14.2129 17.8973C14.2755 17.9543 14.3539 17.9827 14.4326 17.9827C14.5205 17.9827 14.6084 17.947 14.6724 17.8771C14.7939 17.7447 14.7847 17.5391 14.652 17.4176C14.5635 17.3368 14.4729 17.2712 14.3826 17.216C14.4518 17.0149 14.5245 16.8239 14.6001 16.6433C14.6178 16.6613 14.6364 16.6765 14.6538 16.6967C14.7182 16.7714 14.8091 16.8099 14.9007 16.8099C14.9757 16.8099 15.0511 16.7839 15.1127 16.7311C15.2488 16.614 15.2644 16.4086 15.1469 16.2726C15.0636 16.1758 14.976 16.0962 14.8872 16.0279C14.9684 15.872 15.0517 15.7252 15.1365 15.587C15.1591 15.6151 15.182 15.6413 15.203 15.6736C15.2656 15.7691 15.3696 15.821 15.4755 15.821C15.5368 15.821 15.5985 15.8039 15.6531 15.7679C15.8035 15.6697 15.8459 15.468 15.7477 15.3176C15.6763 15.2083 15.5981 15.1159 15.5173 15.0353C15.6274 14.8938 15.7391 14.7647 15.8514 14.6466C15.8633 14.6692 15.8767 14.6897 15.8877 14.7141C15.9414 14.8355 16.0604 14.9075 16.1852 14.9075C16.2291 14.9075 16.274 14.8987 16.317 14.8794C16.4811 14.8065 16.5553 14.6146 16.4824 14.4501C16.4409 14.3568 16.3936 14.2723 16.3429 14.1954C16.4814 14.0861 16.6184 13.9919 16.7524 13.9101C16.7658 13.9485 16.7795 13.9867 16.789 14.0294C16.8232 14.1804 16.9574 14.2826 17.106 14.2826C17.1298 14.2826 17.1539 14.2802 17.1783 14.2747C17.3534 14.235 17.4633 14.0605 17.4236 13.8854C17.4017 13.789 17.3733 13.6993 17.3397 13.6166C17.5362 13.5391 17.7165 13.4875 17.8724 13.4537C17.8801 13.5205 17.8843 13.5906 17.8782 13.6666C17.8642 13.8457 17.9984 14.0019 18.1775 14.016C18.1861 14.0169 18.1946 14.0169 18.2029 14.0169C18.371 14.0169 18.5135 13.8872 18.5266 13.7167C18.5357 13.5986 18.5318 13.4881 18.5199 13.3841C18.6953 13.3838 18.861 13.3987 19.0157 13.4271C19.0142 13.4302 19.0135 13.4332 19.012 13.4363C18.9348 13.5986 19.0035 13.7926 19.1658 13.8698C19.211 13.8912 19.2585 13.9013 19.3055 13.9013C19.427 13.9013 19.5435 13.8329 19.5994 13.716C19.6131 13.6877 19.6204 13.6602 19.6317 13.6321C19.8227 13.7319 19.974 13.8552 20.0781 13.9885C19.2711 17.219 16.5635 19.7929 13.0676 20.2533L13.0691 20.253Z" fill="#00DF81"/>
</svg>
