<svg width="24" height="24" viewBox="0 0 24 24" fill="none" xmlns="http://www.w3.org/2000/svg">
<path d="M2.84521 11.85C2.84521 9.44591 3.78139 7.18591 5.48127 5.48603C7.18115 3.78615 9.44114 2.84998 11.8449 2.84998C14.2487 2.84998 16.509 3.78615 18.2089 5.48603C19.9087 7.18591 20.8449 9.44591 20.8449 11.85C20.8449 14.254 19.9087 16.514 18.2089 18.2139C16.509 19.9138 14.249 20.85 11.8449 20.85C9.44084 20.85 7.18084 19.9138 5.48096 18.2139C3.78139 16.5137 2.84521 14.2537 2.84521 11.85ZM20.5207 11.85C20.5207 7.06626 16.6289 3.17414 11.8449 3.17414C7.06119 3.17414 3.16938 7.06595 3.16938 11.8497C3.16938 16.6334 7.06149 20.5255 11.8452 20.5255C16.6289 20.5255 20.5207 16.6337 20.521 11.85H20.5207Z" fill="#0A0F0E"/>
<path d="M10.5684 9.5677C10.5684 9.35586 10.674 9.14616 10.8376 9.03383L13.6477 7.10197C13.8674 6.95087 14.2053 6.95973 14.4169 7.12211L17.1213 9.19744C17.2742 9.31496 17.3731 9.52557 17.3731 9.73436C17.3731 9.80517 17.3621 9.87263 17.3398 9.9352L16.2043 13.1466C16.1161 13.3963 15.8396 13.592 15.5746 13.5923L12.423 13.5947C12.1581 13.5947 11.8815 13.3994 11.7936 13.1494L10.6011 9.76152C10.5797 9.70109 10.569 9.63576 10.569 9.568L10.5684 9.5677ZM17.0486 9.73436C17.0486 9.626 16.9974 9.51092 16.9235 9.45445L14.2191 7.37913C14.1196 7.30251 13.9343 7.29793 13.8308 7.36905L11.0211 9.30092C10.9454 9.35311 10.8923 9.46269 10.8923 9.5677C10.8923 9.59883 10.8968 9.62783 10.906 9.65377L12.0986 13.0416C12.1407 13.1616 12.2951 13.2706 12.4221 13.2706L15.5737 13.2681C15.701 13.2681 15.8558 13.1585 15.8982 13.0386L17.0337 9.82715C17.0435 9.79968 17.0483 9.76854 17.0483 9.73466L17.0486 9.73436Z" fill="#0A0F0E"/>
<path d="M4.97335 17.5375L5.72302 15.4088C5.8152 15.1469 6.10182 14.9796 6.37531 15.0278L9.53272 15.5867C9.78179 15.6307 10.0452 15.8511 10.1328 16.0882L11.1575 18.8644C11.2057 18.9953 11.199 19.1364 11.1389 19.2609C11.0785 19.3854 10.9719 19.4779 10.8391 19.521L8.65698 20.2294L8.55686 19.9211L10.739 19.2127C10.7873 19.1971 10.8257 19.1638 10.8471 19.1196C10.8688 19.075 10.8709 19.0243 10.8532 18.977L9.82849 16.2009C9.78057 16.0708 9.61269 15.9304 9.47594 15.9063L6.31854 15.3474C6.20285 15.327 6.06733 15.406 6.02856 15.5168L5.27889 17.6456L4.97304 17.5378L4.97335 17.5375Z" fill="#0A0F0E"/>
<path d="M3.0073 10.8177L3.16175 10.5326L4.59302 11.3088C4.70107 11.3674 4.86865 11.339 4.95137 11.2483L7.20801 8.77255C7.30569 8.66541 7.37101 8.4377 7.34476 8.29485L6.92139 5.99395C6.91223 5.9445 6.88507 5.90299 6.84447 5.87673C6.80387 5.85048 6.75503 5.84255 6.70619 5.85445L5.20655 6.21677L5.13055 5.90176L6.63019 5.53944C6.76633 5.50648 6.90521 5.52968 7.0212 5.60507C7.13719 5.68016 7.21503 5.79768 7.24037 5.93534L7.66373 8.23624C7.7083 8.47799 7.61337 8.80948 7.44793 8.9911L5.19098 11.4669C5.00784 11.6677 4.67727 11.7236 4.43857 11.5942L3.0073 10.818V10.8177Z" fill="#0A0F0E"/>
<path d="M9.80224 4.06391L9.88038 3.74921L13.2783 4.5932C13.4493 4.63563 13.7408 4.64875 13.915 4.62128L16.5322 4.21135L16.5822 4.53154L13.9651 4.94148C13.7487 4.97536 13.4126 4.9604 13.2002 4.9076L9.80255 4.06361L9.80224 4.06391Z" fill="#0A0F0E"/>
<path d="M14.5045 19.3C14.5045 19.147 14.5551 18.9932 14.6537 18.88L16.8069 16.4136C16.9565 16.2424 17.2446 16.0589 17.4632 15.9957L19.8999 15.2937L19.9896 15.6053L17.5529 16.3074C17.3942 16.3532 17.1597 16.5024 17.0511 16.627L14.8979 19.0933C14.8158 19.1873 14.8042 19.361 14.8732 19.4651L15.2181 19.9858L14.948 20.165L14.6028 19.6443C14.5365 19.5442 14.5042 19.4224 14.5042 19.3003L14.5045 19.3Z" fill="#0A0F0E"/>
<path d="M18.6246 6.31109L18.9485 6.29675L19.0577 8.76583C19.0651 8.93371 19.1499 9.20538 19.239 9.34762L20.8202 11.871L20.5455 12.0432L18.9643 9.51977C18.845 9.32961 18.7439 9.00483 18.7339 8.78018L18.6246 6.31109Z" fill="#0A0F0E"/>
<path d="M19.0151 8.93799L17.1217 9.42518L17.2025 9.73912L19.0959 9.25193L19.0151 8.93799Z" fill="#0A0F0E"/>
<path d="M16.0079 13.198L15.7108 13.3278L17.0887 16.4802L17.3858 16.3504L16.0079 13.198Z" fill="#0A0F0E"/>
<path d="M13.7231 4.69576L13.4054 4.76056L13.8977 7.17354L14.2153 7.10874L13.7231 4.69576Z" fill="#0A0F0E"/>
<path d="M7.16039 8.34989L7.08307 8.6647L11.0442 9.63766L11.1216 9.32285L7.16039 8.34989Z" fill="#0A0F0E"/>
<path d="M12.0607 13.1896L9.62133 15.8239L9.85918 16.0441L12.2985 13.4099L12.0607 13.1896Z" fill="#0A0F0E"/>
<path d="M14.5405 19.0942H11.1294V19.4184H14.5405V19.0942Z" fill="#0A0F0E"/>
<path d="M6.6717 5.67711L9.68686 3.85635L9.99516 3.1134L10.2943 3.23763L9.9454 4.07857L6.83928 5.95457L6.6717 5.67711Z" fill="#0A0F0E"/>
<path d="M4.86222 11.202L4.55461 11.3042L5.96451 15.545L6.27212 15.4428L4.86222 11.202Z" fill="#0A0F0E"/>
<path d="M3.06621 10.6663L4.78807 11.6L7.51142 8.6123L6.96351 5.63468L5.14672 6.07361C4.04633 7.34067 3.30124 8.92364 3.06621 10.6663Z" fill="#0A0F0E"/>
<path d="M14.0594 7.05252L10.6816 9.37478L12.1034 13.4128L15.9452 13.4094L17.3108 9.54786L14.0594 7.05252Z" fill="#0A0F0E"/>
<path d="M14.6525 19.2511L15.1784 20.0448C17.3041 19.2011 19.0263 17.554 19.9689 15.4805L17.2638 16.2598L14.6525 19.2511Z" fill="#0A0F0E"/>
<path d="M20.623 11.7175C20.623 11.7029 20.6236 11.6882 20.6236 11.6732C20.6236 9.63882 19.931 7.76342 18.7693 6.26927L18.888 8.94836L20.623 11.7175Z" fill="#0A0F0E"/>
<path d="M11.0687 19.245L9.80621 15.8245L5.96935 15.1453L5.11101 17.5827C6.03955 18.6657 7.22541 19.5222 8.57335 20.0551L11.069 19.2447L11.0687 19.245Z" fill="#0A0F0E"/>
<path d="M9.84345 3.78706L13.5646 4.71133L16.4785 4.25499C15.1265 3.41131 13.5307 2.92293 11.8226 2.92293C11.2454 2.92293 10.6813 2.97909 10.1347 3.08562L9.84345 3.78706Z" fill="#0A0F0E"/>
</svg>
