<svg width="24" height="24" viewBox="0 0 24 24" fill="none" xmlns="http://www.w3.org/2000/svg">
<path d="M2.84515 11.8496C2.84515 9.44554 3.78132 7.18554 5.48121 5.48566C7.18109 3.78578 9.44108 2.84961 11.8448 2.84961C14.2486 2.84961 16.5089 3.78578 18.2088 5.48566C19.9087 7.18554 20.8448 9.44554 20.8448 11.8496C20.8448 14.2537 19.9087 16.5137 18.2088 18.2136C16.5089 19.9134 14.2489 20.8496 11.8448 20.8496C9.44078 20.8496 7.18078 19.9134 5.4809 18.2136C3.78132 16.5134 2.84515 14.2534 2.84515 11.8496ZM20.5207 11.8496C20.5207 7.06589 16.6289 3.17377 11.8448 3.17377C7.06113 3.17377 3.16932 7.06558 3.16932 11.8493C3.16932 16.633 7.06143 20.5251 11.8452 20.5251C16.6289 20.5251 20.5207 16.6333 20.521 11.8496H20.5207Z" fill="#00DF81"/>
<path d="M10.5683 9.56733C10.5683 9.35549 10.6739 9.14579 10.8376 9.03347L13.6476 7.1016C13.8674 6.95051 14.2053 6.95936 14.4168 7.12175L17.1212 9.19707C17.2742 9.31459 17.373 9.52521 17.373 9.73399C17.373 9.80481 17.3621 9.87226 17.3398 9.93484L16.2043 13.1463C16.1161 13.396 15.8395 13.5916 15.5746 13.5919L12.423 13.5944C12.158 13.5944 11.8815 13.399 11.7936 13.149L10.601 9.76116C10.5796 9.70072 10.5689 9.6354 10.5689 9.56764L10.5683 9.56733ZM17.0486 9.73399C17.0486 9.62563 16.9973 9.51056 16.9234 9.45409L14.219 7.37876C14.1195 7.30214 13.9342 7.29757 13.8307 7.36869L11.021 9.30055C10.9453 9.35275 10.8922 9.46233 10.8922 9.56733C10.8922 9.59846 10.8968 9.62746 10.9059 9.65341L12.0985 13.0413C12.1406 13.1612 12.2951 13.2702 12.4221 13.2702L15.5737 13.2678C15.7009 13.2678 15.8557 13.1582 15.8981 13.0382L17.0336 9.82678C17.0434 9.79931 17.0483 9.76818 17.0483 9.7343L17.0486 9.73399Z" fill="#00DF81"/>
<path d="M4.97329 17.5371L5.72296 15.4084C5.81514 15.1465 6.10176 14.9792 6.37525 15.0275L9.53266 15.5864C9.78173 15.6303 10.0452 15.8507 10.1328 16.0879L11.1574 18.864C11.2057 18.995 11.199 19.136 11.1388 19.2605C11.0784 19.3851 10.9719 19.4776 10.8391 19.5206L8.65692 20.2291L8.5568 19.9208L10.739 19.2123C10.7872 19.1967 10.8257 19.1635 10.847 19.1192C10.8687 19.0746 10.8708 19.024 10.8531 18.9767L9.82843 16.2005C9.78051 16.0705 9.61263 15.9301 9.47588 15.9059L6.31848 15.347C6.20279 15.3266 6.06727 15.4057 6.0285 15.5165L5.27883 17.6452L4.97298 17.5375L4.97329 17.5371Z" fill="#00DF81"/>
<path d="M3.00724 10.8173L3.16169 10.5322L4.59296 11.3084C4.70101 11.367 4.86859 11.3386 4.95131 11.248L7.20795 8.77218C7.30562 8.66504 7.37095 8.43733 7.3447 8.29448L6.92133 5.99358C6.91217 5.94413 6.885 5.90262 6.84441 5.87637C6.80381 5.85012 6.75497 5.84218 6.70613 5.85409L5.20649 6.21641L5.13049 5.9014L6.63013 5.53908C6.76627 5.50611 6.90515 5.52931 7.02114 5.60471C7.13713 5.67979 7.21497 5.79731 7.2403 5.93497L7.66367 8.23587C7.70824 8.47762 7.61331 8.80911 7.44787 8.99073L5.19092 11.4665C5.00778 11.6674 4.6772 11.7232 4.43851 11.5938L3.00724 10.8176V10.8173Z" fill="#00DF81"/>
<path d="M9.80218 4.06355L9.88032 3.74885L13.2783 4.59283C13.4492 4.63526 13.7407 4.64839 13.915 4.62092L16.5321 4.21098L16.5822 4.53118L13.965 4.94111C13.7486 4.975 13.4126 4.96004 13.2001 4.90723L9.80249 4.06324L9.80218 4.06355Z" fill="#00DF81"/>
<path d="M14.5044 19.2996C14.5044 19.1467 14.5551 18.9928 14.6537 18.8796L16.8068 16.4133C16.9564 16.242 17.2445 16.0586 17.4631 15.9954L19.8998 15.2933L19.9896 15.605L17.5528 16.307C17.3941 16.3528 17.1597 16.5021 17.051 16.6266L14.8979 19.093C14.8157 19.187 14.8041 19.3606 14.8731 19.4647L15.2181 19.9855L14.9479 20.1647L14.6027 19.6439C14.5365 19.5438 14.5041 19.422 14.5041 19.2999L14.5044 19.2996Z" fill="#00DF81"/>
<path d="M18.6245 6.31073L18.9484 6.29638L19.0577 8.76546C19.065 8.93335 19.1499 9.20501 19.239 9.34725L20.8201 11.8707L20.5454 12.0428L18.9643 9.51941C18.8449 9.32924 18.7439 9.00447 18.7338 8.77981L18.6245 6.31073Z" fill="#00DF81"/>
<path d="M19.015 8.93762L17.1216 9.42482L17.2024 9.73876L19.0958 9.25156L19.015 8.93762Z" fill="#00DF81"/>
<path d="M16.0078 13.1976L15.7108 13.3275L17.0887 16.4798L17.3857 16.35L16.0078 13.1976Z" fill="#00DF81"/>
<path d="M13.723 4.6954L13.4054 4.76019L13.8976 7.17317L14.2152 7.10838L13.723 4.6954Z" fill="#00DF81"/>
<path d="M7.16033 8.34953L7.083 8.66433L11.0442 9.63729L11.1215 9.32249L7.16033 8.34953Z" fill="#00DF81"/>
<path d="M12.0606 13.1892L9.62127 15.8235L9.85911 16.0437L12.2985 13.4095L12.0606 13.1892Z" fill="#00DF81"/>
<path d="M14.5404 19.0939H11.1294V19.418H14.5404V19.0939Z" fill="#00DF81"/>
<path d="M6.67164 5.67674L9.6868 3.85599L9.99509 3.11303L10.2942 3.23726L9.94534 4.0782L6.83922 5.9542L6.67164 5.67674Z" fill="#00DF81"/>
<path d="M4.86216 11.2016L4.55455 11.3039L5.96445 15.5447L6.27206 15.4424L4.86216 11.2016Z" fill="#00DF81"/>
<path d="M3.06615 10.6659L4.78801 11.5996L7.51136 8.61193L6.96345 5.63431L5.14666 6.07325C4.04627 7.3403 3.30118 8.92327 3.06615 10.6659Z" fill="#00DF81"/>
<path d="M14.0594 7.05215L10.6816 9.37442L12.1034 13.4124L15.9451 13.4091L17.3108 9.54749L14.0594 7.05215Z" fill="#00DF81"/>
<path d="M14.6524 19.2508L15.1784 20.0444C17.3041 19.2007 19.0262 17.5536 19.9688 15.4801L17.2638 16.2594L14.6524 19.2508Z" fill="#00DF81"/>
<path d="M20.6229 11.7171C20.6229 11.7025 20.6236 11.6878 20.6236 11.6729C20.6236 9.63845 19.931 7.76306 18.7692 6.26891L18.888 8.948L20.6229 11.7171Z" fill="#00DF81"/>
<path d="M11.0686 19.2447L9.80615 15.8241L5.96928 15.145L5.11095 17.5823C6.03949 18.6653 7.22535 19.5218 8.57329 20.0548L11.0689 19.2444L11.0686 19.2447Z" fill="#00DF81"/>
<path d="M9.84339 3.7867L13.5646 4.71096L16.4784 4.25463C15.1265 3.41095 13.5307 2.92256 11.8226 2.92256C11.2454 2.92256 10.6813 2.97873 10.1346 3.08525L9.84339 3.7867Z" fill="#00DF81"/>
</svg>
