<svg width="16" height="16" viewBox="0 0 16 16" fill="none" xmlns="http://www.w3.org/2000/svg">
<path d="M12.5714 9.33676C12.5561 9.3681 12.5259 9.38972 12.4911 9.39373C11.6997 9.48555 10.8587 9.37549 10.5345 9.3246C9.99318 8.78383 9.40723 8.18233 8.97527 7.65667C8.93095 7.60283 8.92882 7.52583 8.96956 7.46912C9.5856 6.61027 10.1497 5.9288 10.3882 5.65898C11.0696 5.51047 11.7491 5.379 12.208 5.36025C12.2426 5.35886 12.2756 5.37482 12.2959 5.40294C12.8874 6.22563 13.3104 7.0139 13.4462 7.30196C13.1746 8.03163 12.8479 8.76873 12.5714 9.33676ZM11.8163 10.7287C11.38 11.4591 11.0486 11.8994 10.9423 12.0333C10.7982 12.2368 10.4307 12.767 9.85987 13.3033C9.82346 13.3375 9.77595 13.3572 9.72587 13.3594C9.01099 13.3891 8.34631 13.339 8.08746 13.2825C7.86829 13.1919 7.35817 12.9625 6.75523 12.6291C6.70264 12.6001 6.67168 12.5434 6.67563 12.4837C6.70709 12.0163 6.85538 11.3505 6.98656 10.6465C7.31091 10.077 7.64717 9.42714 7.99583 8.89339C8.03256 8.83723 8.10131 8.8111 8.16618 8.82884C9.21018 9.11382 10.1161 9.33024 10.4839 9.41297C10.9875 9.99692 11.4755 10.4075 11.8038 10.662C11.8242 10.6779 11.8295 10.7065 11.8163 10.7287ZM5.49983 11.7437C5.44693 11.7765 5.37955 11.7747 5.32872 11.7387C4.87414 11.417 4.33174 11.0058 3.87997 10.5836C3.61347 10.1282 3.40796 9.54541 3.2645 9.04908C3.25522 9.01711 3.26236 8.98252 3.28342 8.95676C3.79034 8.33357 4.39874 7.8405 4.65308 7.65279C5.22688 7.9003 5.88547 8.11867 6.46159 8.31026C6.5205 8.32981 6.56212 8.38265 6.56701 8.44438C6.64824 9.46926 6.83601 10.2981 6.88616 10.6148C6.67105 10.8446 6.10897 11.3656 5.49983 11.7437ZM2.97487 7.71101C2.89966 7.22721 2.85021 6.7191 2.84475 6.48639C2.83228 5.94906 2.91765 5.47317 3.0168 5.03256C3.0331 4.96043 3.07051 4.89505 3.1251 4.84508C3.4131 4.5813 3.93387 4.11591 4.26254 3.90513C4.57235 3.7065 5.43339 3.42854 5.78845 3.32543C5.85727 3.30536 5.9306 3.33596 5.96601 3.39817C6.00869 3.47317 6.05332 3.54761 6.10064 3.6209C6.38017 4.05604 6.68823 4.43067 6.81796 4.59294C6.64598 5.27573 6.5729 6.04131 6.53962 6.68713C6.53649 6.74771 6.49788 6.80078 6.44128 6.82285C5.54295 7.17325 4.86398 7.44742 4.63584 7.55271C4.01861 7.57875 3.43071 7.68395 3.03391 7.75329C3.00577 7.75824 2.97926 7.73905 2.97487 7.71101ZM7.50345 3.02186C7.52802 2.98374 7.56826 2.95833 7.61326 2.95237C8.53704 2.83035 9.38222 2.81238 9.70707 2.82136C10.2982 3.21445 10.8759 3.73311 11.337 4.22499C11.3692 4.25946 11.3741 4.31137 11.3485 4.35118C11.0196 4.86566 10.5411 5.35964 10.3309 5.57474C9.55151 5.7592 8.72519 6.02771 8.05449 6.24782C7.98925 6.2692 7.91755 6.24495 7.87856 6.1884C7.36964 5.4492 7.04623 4.81549 6.91944 4.58039C7.05707 3.96412 7.24955 3.41521 7.50345 3.02186ZM13.6742 9.08994C13.6577 9.0974 13.6387 9.08574 13.6377 9.06769C13.599 8.30888 13.5292 7.57156 13.4926 7.30193C13.4956 6.64659 13.3869 5.96655 13.2785 5.46515C13.2746 5.44702 13.2906 5.43083 13.3089 5.43447C13.929 5.56105 14.128 5.79323 14.128 5.79323C13.7997 5.05735 13.3267 4.5028 12.8126 4.08368C12.373 3.1636 11.8671 2.73803 11.8671 2.73803C11.9081 2.94154 11.8799 3.17171 11.8073 3.40923C11.8028 3.42433 11.7855 3.43154 11.7712 3.42465C10.9287 3.01282 10.0588 2.82472 9.7223 2.77765C9.21945 2.5333 8.67022 2.37162 8.2236 2.24907C8.21169 2.24582 8.20843 2.2304 8.21802 2.22242C8.8108 1.73064 9.35608 1.60545 9.35608 1.60545C8.39075 1.56679 7.55986 1.74133 6.8651 2.00822C5.82706 1.92509 5.16583 2.10552 5.16583 2.10552C5.16583 2.10552 5.45245 2.4484 5.56388 2.63929C5.5773 2.66238 5.57028 2.69197 5.54828 2.70715C4.89538 3.15957 4.42694 3.65657 4.24224 3.86346C4.03647 3.89127 3.6801 3.94046 3.36885 4.01716C3.35644 4.02025 3.34591 4.00778 3.35092 3.99601C3.66261 3.25406 4.00238 2.84334 4.00238 2.84334C4.00238 2.84334 1.99901 4.26489 1.61925 6.81937C1.61925 6.81937 1.78422 6.36656 2.34203 5.68024C2.34937 5.67125 2.36359 5.67303 2.36836 5.68365C2.52642 6.03334 2.70712 6.34387 2.79794 6.4864C2.49114 6.97988 2.27936 7.51798 2.14893 7.95834C2.14442 7.97363 2.13288 7.98592 2.11784 7.99156C1.65385 8.16755 1.53564 8.33546 1.53564 8.33546C1.60778 8.58165 1.74943 8.82164 1.92837 9.04783C1.94391 9.06739 1.95181 9.09183 1.95075 9.11678C1.90148 10.207 2.25347 10.9245 2.25347 10.9245C2.33294 10.5438 2.48857 10.1739 2.68512 9.82683C2.69295 9.81298 2.71138 9.80953 2.72379 9.81937C3.1817 10.1828 3.65603 10.5005 3.84425 10.6133C3.94133 10.861 4.2193 11.5037 4.59072 12.1631C4.59849 12.1771 4.59216 12.1947 4.57718 12.2001C4.13243 12.362 3.67615 12.4353 3.25779 12.3335C3.25779 12.3335 3.76233 12.9615 5.3187 13.2293C5.75047 13.7391 6.27594 14.1613 6.8896 14.308C6.8896 14.308 6.70972 14.1104 6.66529 13.3742C6.66435 13.3593 6.67632 13.3466 6.6913 13.3468C7.07556 13.3526 7.59684 13.3609 8.07399 13.3263C8.24309 13.4595 8.61212 13.7519 8.97207 13.9382C8.98999 13.9475 8.99112 13.9727 8.97389 13.9832C8.34117 14.3653 7.92018 14.3986 7.92018 14.3986C10.7862 14.4596 12.5069 12.5926 12.5069 12.5926C12.0349 12.9028 11.4897 13.0956 10.947 13.2105C10.9287 13.2144 10.9127 13.1982 10.9165 13.1799C11.0173 12.693 10.989 12.2222 10.982 12.0563C11.6619 11.8878 12.2551 11.5843 12.6943 11.2741C12.7031 11.2678 12.7149 11.2678 12.7239 11.274C12.9067 11.401 13.0632 11.5435 13.2193 11.7808C13.2193 11.7808 13.5166 11.3606 13.6189 10.3871C14.3551 9.42715 14.4645 8.44458 14.4645 8.44458C14.2798 8.73308 14.0009 8.94096 13.6742 9.08994Z" fill="white"/>
</svg>
