<svg width="16" height="16" viewBox="0 0 16 16" fill="none" xmlns="http://www.w3.org/2000/svg">
<g clip-path="url(#clip0_654_20896)">
<path d="M3.23836 11.6438H2.01493C1.3891 11.6438 0.896933 11.4678 0.538033 11.1161C0.179333 10.7642 0 10.3074 0 9.69519C0 9.08476 0.177567 8.60306 0.532733 8.25039C0.888066 7.89749 1.37237 7.72119 1.9856 7.72119H3.23836V8.74822H2.00157C1.74197 8.74822 1.35533 9.05086 1.35533 9.69522C1.35533 10.271 1.77947 10.5235 2.03607 10.5235H3.2384L3.23836 11.6438Z" fill="white"/>
<path d="M5.07072 10.1315L3.52832 10.0902V10.4519L5.07072 10.4106L6.76542 10.3663C6.80148 10.3045 6.80405 10.289 6.79718 10.1808L5.07072 10.1315ZM5.07072 9.73097L3.52832 9.68967V10.0513L5.07072 10.01L6.79939 9.96367C6.79736 9.90124 6.79277 9.83892 6.78562 9.77687L5.07072 9.73097ZM5.29999 7.73877H3.52832V8.04844L5.07072 8.00714L6.22165 7.9763C6.22599 7.92407 6.24042 7.82037 6.25795 7.7731C6.25795 7.7731 5.65515 7.73877 5.29999 7.73877ZM3.52832 8.88854V9.25014L4.84822 9.2148V8.92387L3.52832 8.88854ZM3.52832 10.8524L4.78255 10.8188V10.5244L3.52832 10.4908V10.8524ZM5.68409 9.3468C5.67629 9.35367 5.66972 9.3618 5.66095 9.36757C5.58369 9.4187 5.43039 9.4443 5.20112 9.4443H4.84825V9.32444L3.52835 9.28907V9.6507L5.07075 9.6094L6.75112 9.5643C6.73772 9.50028 6.72174 9.43683 6.70322 9.3741L5.68409 9.3468ZM3.52832 11.253L4.78255 11.2194V10.925L3.52832 10.8914V11.253ZM5.07072 8.1287L3.52832 8.0874V8.449L5.07072 8.4077L6.27572 8.37544C6.25415 8.30404 6.23742 8.23134 6.22782 8.15967L5.07072 8.1287ZM3.52832 11.6439H4.78255V11.3255L3.52832 11.292V11.6439ZM5.07072 8.52927L3.52832 8.48797V8.84957L4.84822 8.81424V8.7454H5.20109C5.38722 8.7454 5.52095 8.76197 5.60629 8.79394L6.43755 8.77164C6.40349 8.70339 6.37199 8.6339 6.34312 8.5633L5.07072 8.52927ZM5.75452 8.9482C5.76869 8.9902 5.77705 9.03857 5.77705 9.096C5.77705 9.1303 5.77399 9.16137 5.76859 9.1902L6.63202 9.1671C6.60533 9.09952 6.57494 9.03347 6.54099 8.96924L5.75452 8.9482Z" fill="white"/>
<path d="M7.43019 8.99676C7.22932 8.97366 7.13609 8.7395 6.89822 8.7601C6.76959 8.77119 6.70145 8.80809 6.70145 8.80809C6.63739 8.33683 7.12925 8.14686 7.34975 8.06473C7.43692 8.0323 7.47879 8.00636 7.41445 7.9398C7.34625 7.86936 7.21899 7.6977 7.11002 7.69323C6.97742 7.6876 6.91609 7.7648 6.83415 7.68976C6.75252 7.61473 6.82199 7.52853 6.80705 7.4647C6.79505 7.41366 6.64009 7.3507 6.64009 7.2876C6.64009 7.22433 6.66649 7.17883 6.70762 7.10786C6.77452 6.99196 6.45752 6.92096 6.45752 6.85606C6.45752 6.79136 6.58205 6.759 6.63492 6.69766C6.67765 6.64793 6.67235 6.62603 6.67235 6.55773C6.67235 6.16916 7.12582 6.10773 7.28835 6.10773C7.89579 6.10773 8.07932 6.5295 8.07932 6.77496C8.07932 6.91583 7.94409 7.2091 7.94409 7.342C7.94409 7.40503 8.06275 7.4616 8.03715 7.57826C8.02412 7.6372 7.93412 7.89743 7.84479 8.07593C7.80002 8.16563 7.82592 8.25696 7.83255 8.27473C7.86782 8.36983 7.98052 8.47396 8.15889 8.3917C8.34035 8.3078 9.21355 7.91313 9.46308 7.7911C9.37002 7.67956 9.30852 7.60576 9.19422 7.46246C9.09635 7.33963 9.10569 7.25993 9.19682 7.14383C9.10569 6.95073 8.16905 4.9717 8.07249 4.76813C7.97572 4.5647 7.98249 4.41236 8.19129 4.33963C8.39205 4.26983 8.50765 4.39123 8.57502 4.59826C8.64198 4.8051 9.36425 6.97053 9.39612 7.06513C9.50495 7.0404 9.73582 7.0589 9.76768 7.31903C9.77672 7.39356 9.77188 7.4856 9.77575 7.55263C9.77835 7.60046 9.82985 7.61606 9.90842 7.62426C10.0598 7.64023 10.053 8.0204 9.96412 8.07756C9.88975 8.1254 9.80955 8.20806 9.90935 8.35216C9.94702 8.40696 9.96248 8.59576 9.92452 8.72276C9.86235 8.93159 9.75802 9.07286 9.61055 9.22043C9.44505 9.38593 9.09022 9.09003 9.20548 8.92873C9.29658 8.80169 9.45955 8.54603 9.48175 8.41906C9.50365 8.29493 9.50428 8.13773 9.30918 8.32529C9.19742 8.43276 8.74629 8.81653 8.42149 8.96479C8.34259 9.00076 8.02399 9.17529 7.71502 9.08146C7.63055 9.05576 7.56062 9.02543 7.50225 9.02316C7.47392 9.08579 7.43819 9.17243 7.43135 9.22306C7.41805 9.32126 7.36789 9.29086 7.35332 9.28566C7.30742 9.26939 7.38555 9.09973 7.43019 8.99676Z" fill="white"/>
<path d="M12.5947 10.0525L13.7054 10.0228V9.71766L12.5947 9.68796V10.0525ZM12.5947 8.85073L13.7054 8.82103V8.51593L12.5947 8.48623V8.85073ZM12.5947 9.2513L13.7054 9.2216V8.91653L12.5947 8.8868V9.2513ZM12.5947 11.2902V11.6024H15.9999V11.3814L14.1909 11.333L12.5947 11.2902ZM12.5947 10.453L13.7054 10.4233V10.1182L12.5947 10.0885V10.453ZM13.7054 10.5658V10.5188L12.5947 10.4891V10.8536L14.1909 10.8109L15.9999 10.7624V10.5803L15.4592 10.5658H13.7054ZM12.5947 9.6519L13.7054 9.62216V9.3171L12.5947 9.28736V9.6519ZM12.5947 8.4502L13.7054 8.4205V8.11537L12.5947 8.08567V8.4502ZM13.7054 7.69727H12.5947V8.04963L13.7054 8.0199V7.69727ZM12.5947 10.8897V11.2542L14.1909 11.2114L15.9999 11.163V10.9809L14.1909 10.9324L12.5947 10.8897Z" fill="white"/>
<path d="M15.4595 10.5659L16.0001 10.5804V10.5659H15.4595Z" fill="white"/>
<path d="M12.0972 9.89417C11.9981 9.74564 11.8453 9.63424 11.6388 9.5601C11.7957 9.47517 11.9138 9.36704 11.9925 9.23534C12.0712 9.10364 12.1105 8.94947 12.1105 8.77264C12.1105 8.5483 12.0582 8.35734 11.9525 8.20004C11.8479 8.04267 11.6961 7.92697 11.4979 7.85277C11.3848 7.81217 11.2496 7.78287 11.0925 7.76517C10.9354 7.74757 10.775 7.73877 10.4304 7.73877H10.0086C10.0445 7.86037 10.0231 8.03984 9.96405 8.07784C9.88968 8.12567 9.80948 8.20834 9.90928 8.35244C9.94695 8.40724 9.96241 8.59604 9.92445 8.72304C9.86228 8.93187 9.75795 9.07314 9.61048 9.2207C9.44821 9.38294 9.10528 9.10214 9.20025 8.93904C9.08338 8.92864 8.85505 8.96594 8.67411 9.07317C8.68955 8.9907 8.70501 8.9521 8.73851 8.87737C8.71275 8.8748 8.71015 8.8722 8.67925 8.86707C8.67925 8.86707 8.58391 9.08604 8.56848 9.1556C8.52338 9.3581 8.52728 9.59867 8.52468 9.76354C8.39331 9.83567 7.99145 9.95417 7.81885 9.9902L7.85231 10.0752C8.06355 10.0289 8.45511 9.90264 8.53495 9.86657C8.66375 10.0289 8.93425 10.1499 8.90848 10.678C8.88998 11.0562 8.92571 11.4186 8.95131 11.6439H10.5578C10.9253 11.6439 11.0977 11.6308 11.2567 11.6043C11.4161 11.5777 11.5571 11.5326 11.6811 11.469C11.865 11.3771 12.0049 11.2458 12.1013 11.0754C12.1974 10.9047 12.2458 10.7036 12.2458 10.4721C12.2459 10.2353 12.1963 10.0426 12.0972 9.89417ZM10.7184 10.509C10.6525 10.5407 10.5004 10.5564 10.2621 10.5564H9.96165V10.1103H10.4087C10.5585 10.1103 10.6639 10.1273 10.7252 10.1613C10.7863 10.1953 10.817 10.2527 10.817 10.3335C10.817 10.419 10.7839 10.4774 10.7184 10.509ZM10.7252 9.13304C10.6639 9.16704 10.5585 9.184 10.4087 9.184H9.96165V8.73774H10.2621C10.5004 8.73774 10.6525 8.7537 10.7184 8.78527C10.7839 8.8169 10.817 8.87544 10.817 8.96094C10.817 9.04167 10.7863 9.0991 10.7252 9.13304Z" fill="white"/>
<path d="M9.20536 8.92871C9.20313 8.93194 9.20216 8.93548 9.2002 8.93874C9.20216 8.93544 9.20313 8.93191 9.20536 8.92871Z" fill="white"/>
</g>
<defs>
<clipPath id="clip0_654_20896">
<rect width="16" height="16" fill="white"/>
</clipPath>
</defs>
</svg>
