<svg width="16" height="16" viewBox="0 0 16 16" fill="none" xmlns="http://www.w3.org/2000/svg">
<path d="M6.3418 2.28254C7.1528 2.05587 7.96308 1.82677 8.77409 1.6001C8.43383 3.81756 8.0943 6.03501 7.75405 8.25223C7.2775 6.26386 6.81255 4.27236 6.3418 2.28254Z" fill="white"/>
<path d="M9.35252 1.67236C9.82279 1.97105 10.2923 2.27119 10.7619 2.57133C10.1191 4.95384 9.47625 7.33635 8.83344 9.71886C8.81242 9.77686 8.85011 9.83244 8.86316 9.88778C9.17273 10.8626 9.48423 11.837 9.7921 12.8123C8.60459 12.8121 7.41732 12.8123 6.22981 12.8123C6.54566 11.8293 6.86876 10.8481 7.1805 9.8641C7.08408 9.45086 6.97195 9.04077 6.86972 8.62874C6.44126 6.94511 6.01256 5.26147 5.58434 3.57784C5.57202 3.53772 5.59522 3.49858 5.60392 3.46039C5.69333 3.17572 5.77404 2.88839 5.8666 2.60492C6.37674 4.67014 6.88616 6.73559 7.39606 8.8008C7.53863 9.3716 7.67493 9.94409 7.82137 10.5137C8.32982 7.56617 8.84262 4.61939 9.35252 1.67236Z" fill="white"/>
<path d="M6.06237 13.3311C7.3608 13.3313 8.65947 13.3311 9.9579 13.3313C10.0715 13.6873 10.1843 14.0437 10.2979 14.3997C8.77063 14.4006 7.24359 14.3999 5.71655 14.4002C5.83134 14.0437 5.94637 13.6873 6.06237 13.3311Z" fill="white"/>
<path d="M2.36066 6.32093C3.21879 5.46015 4.07981 4.60202 4.93988 3.74316C5.05225 4.1187 5.15906 4.49593 5.27361 4.8705C4.6494 5.50123 4.01892 6.12567 3.39181 6.75326C3.39061 8.02463 3.39181 9.29599 3.39109 10.5674C4.11679 11.2931 4.84297 12.018 5.56867 12.7435C5.44035 13.1031 5.31155 13.4627 5.18274 13.8223C4.24003 12.8807 3.29805 11.9388 2.3551 10.9975C2.35413 9.56447 2.3551 8.1312 2.35462 6.69792C2.35897 6.5725 2.34616 6.44539 2.36066 6.32093Z" fill="#FF6900"/>
<path d="M11.0612 3.74268C11.7552 4.43503 12.4483 5.1281 13.1418 5.82094C13.3076 5.993 13.4874 6.15443 13.645 6.33253C13.6481 7.8876 13.6459 9.44291 13.6462 10.998C12.7032 11.9392 11.7613 12.8815 10.8183 13.8227C10.69 13.4629 10.5605 13.1033 10.4326 12.7435C11.1586 12.0188 11.8845 11.2935 12.61 10.5681C12.6085 9.2955 12.6121 8.02293 12.6083 6.7506C11.9797 6.12639 11.3543 5.49953 10.7279 4.87315C10.8401 4.49665 10.95 4.11942 11.0612 3.74268Z" fill="#FF6900"/>
</svg>
