<svg width="16" height="16" viewBox="0 0 16 16" fill="none" xmlns="http://www.w3.org/2000/svg">
<path fill-rule="evenodd" clip-rule="evenodd" d="M6.73749 1.57422V7.49409C6.73023 7.50137 6.72264 7.50864 6.71536 7.51592L2.31934 7.51561V8.72908C2.31934 11.847 4.84892 14.3742 7.97015 14.3742C11.0911 14.3742 13.6213 11.847 13.6213 8.72908V1.57422H6.73749ZM7.96969 6.98242C7.00874 6.98242 6.22974 7.76059 6.22974 8.72082C6.22974 9.68077 7.00874 10.4596 7.96969 10.4596C8.93066 10.4596 9.70998 9.68077 9.70998 8.72082C9.70998 7.76059 8.93066 6.98242 7.96969 6.98242Z" fill="#FFFFFE"/>
<path fill-rule="evenodd" clip-rule="evenodd" d="M10.4317 9.44189C9.47072 9.44189 8.69141 10.2198 8.69141 11.18C8.69141 12.14 9.47072 12.9188 10.4317 12.9188C11.393 12.9188 12.1722 12.14 12.1722 11.18C12.1722 10.2198 11.3929 9.44189 10.4317 9.44189Z" fill="#D8232A"/>
</svg>
