<svg width="16" height="16" viewBox="0 0 16 16" fill="none" xmlns="http://www.w3.org/2000/svg">
<path d="M11.0193 1.87716C10.4756 2.02767 9.04575 2.41485 7.84167 2.74095C6.6376 3.06433 5.63966 3.34571 5.62003 3.36262C5.6004 3.38225 5.45534 3.75852 5.29665 4.2046L5.00654 5.01276L5.77872 5.02694L6.55362 5.04112L6.44783 5.40322C6.38948 5.60117 6.21389 6.21684 6.05738 6.7687C5.56114 8.51919 4.0784 13.7281 4.02278 13.9179C3.90281 14.322 3.88918 14.3918 3.90554 14.3972C3.91644 14.4027 5.12051 14.3999 6.58416 14.3918L9.24315 14.3776L9.35167 13.9871C9.61343 13.0394 9.66087 12.8692 9.67232 12.836C9.68323 12.8109 9.31296 12.8027 7.87167 12.8027C6.87373 12.8027 6.05738 12.7972 6.05738 12.7918C6.05738 12.7863 6.09664 12.6522 6.14081 12.4935C6.27442 12.0338 6.29678 11.9498 6.43365 11.465C6.50345 11.2114 6.58689 10.9241 6.6147 10.8237C6.69813 10.5396 6.76521 10.2997 6.96043 9.61147C7.06077 9.25756 7.3727 8.15382 7.65736 7.15861C8.399 4.54706 8.45462 4.34638 8.45462 4.31312C8.45462 4.2853 9.63633 3.96738 9.73122 3.96738C9.75085 3.96738 9.76176 3.97829 9.75358 3.98974C9.7454 4.00392 9.70068 4.15115 9.65596 4.31857C9.51636 4.83117 9.01794 6.64601 8.95904 6.85214C8.85598 7.22023 8.61876 8.07857 8.32374 9.15176C7.82204 10.9911 7.67426 11.5348 7.67426 11.5572C7.67426 11.5681 8.05326 11.5741 8.51624 11.5714L9.35822 11.5632L9.37785 11.4934C9.38875 11.4541 9.48637 11.0975 9.59816 10.6988C9.70668 10.3002 9.891 9.63437 10.0077 9.22156C10.1222 8.80603 10.2335 8.40467 10.2531 8.32942C10.3114 8.10911 10.8273 6.25555 11.1311 5.166C11.2063 4.89825 11.3372 4.42163 11.4239 4.10698C11.6077 3.4406 11.7527 2.91982 11.9398 2.2398C12.129 1.56251 12.123 1.5985 12.0619 1.60123C12.0314 1.60395 11.563 1.72665 11.0193 1.87716Z" fill="white"/>
</svg>
