<svg width="16" height="16" viewBox="0 0 16 16" fill="none" xmlns="http://www.w3.org/2000/svg">
<path d="M5.90171 10.0919C4.7465 10.0835 3.52169 11.0557 3.16469 12.2662C2.8098 13.4729 3.45584 14.4587 4.61151 14.4672C5.76295 14.4778 6.9927 13.5056 7.34477 12.2967C7.70248 11.0893 7.05644 10.1018 5.90171 10.0919ZM4.50592 11.3612C4.59387 11.1665 4.73898 10.987 4.91913 10.8327C5.08093 10.9266 5.1322 11.1314 5.02496 11.3727C4.91913 11.6102 4.69429 11.8118 4.45606 11.9179C4.40408 11.7584 4.41655 11.5688 4.50592 11.3612ZM4.54637 12.082C4.84551 11.9324 5.12279 11.669 5.25825 11.3727C5.40218 11.0634 5.35868 10.7953 5.18417 10.6509C5.42053 10.5096 5.69051 10.4256 5.94333 10.4287C6.18815 10.4332 6.37747 10.5096 6.49436 10.6418C6.19991 10.7923 5.93298 11.0489 5.79399 11.3435C5.64936 11.6613 5.69922 11.94 5.89583 12.0844C5.65006 12.2295 5.3742 12.3195 5.11197 12.3195C4.85657 12.3144 4.65831 12.2264 4.54637 12.082ZM6.54939 11.3802C6.46684 11.5688 6.32715 11.7455 6.15758 11.8913C5.98002 11.8064 5.92005 11.594 6.03294 11.3435C6.1343 11.1107 6.35678 10.9059 6.59125 10.8038C6.65499 10.9618 6.64628 11.1641 6.54939 11.3802Z" fill="white"/>
<path d="M5.08105 9.70215L7.75363 1.66724H12.9142L7.46342 9.70215H6.6203L10.1158 3.73306C10.2748 3.47342 10.183 3.08161 9.76113 2.99671C9.10121 2.86172 8.69341 3.18768 8.51397 3.58489L5.91265 9.70215H5.08105Z" fill="white"/>
</svg>
