<svg width="40" height="40" viewBox="0 0 40 40" fill="none" xmlns="http://www.w3.org/2000/svg">
<path d="M20 0C8.976 0 0 8.968 0 20C0 31.024 8.976 40 20 40C31.032 40 40 31.024 40 20C40 8.968 31.032 0 20 0Z" fill="#212121"/>
<path d="M20 2C10.0784 2 2 10.0712 2 20C2 29.9216 10.0784 38 20 38C29.9288 38 38 29.9216 38 20C38 10.0712 29.9288 2 20 2Z" fill="white"/>
<path d="M20 2.80005C10.5194 2.80005 2.80005 10.5125 2.80005 20C2.80005 29.4807 10.5194 37.2 20 37.2C29.4876 37.2 37.2 29.4807 37.2 20C37.2 10.5125 29.4876 2.80005 20 2.80005Z" fill="#121212"/>
<g opacity="0.5">
<path fill-rule="evenodd" clip-rule="evenodd" d="M13.3565 31.6667L13.2334 16.0378L26.4103 8.33337L26.5334 23.9623L13.3565 31.6667ZM13.7842 30.9021L13.6692 16.2975L25.9826 9.09796L26.0976 23.7026L13.7842 30.9021ZM13.9564 26.2532L14.7512 24.8326L18.394 27.0031L17.5992 28.4237L25.7417 23.6629C24.4941 22.9196 23.2389 22.1759 21.9949 21.4346C21.1231 22.8623 19.5151 23.4545 18.3417 22.7554C17.1684 22.0563 16.8615 20.3232 17.6237 18.8302C16.3795 18.0889 15.1278 17.3389 13.8804 16.5957L13.9564 26.2532ZM17.2391 28.6342L18.0723 27.1449L14.793 25.191L13.9598 26.6804L13.9902 30.534L17.2391 28.6342ZM14.025 16.3371C15.2723 17.0803 16.5294 17.8241 17.7724 18.5647C18.6443 17.1377 20.252 16.5457 21.4249 17.2446C22.5979 17.9435 22.9051 19.6762 22.1435 21.1691C23.3863 21.9095 24.6392 22.6612 25.8864 23.4044L25.8104 13.7469L25.0156 15.1675L21.3728 12.997L22.1676 11.5764L14.025 16.3371ZM25.8069 13.3196L24.9737 14.809L21.6943 12.8551L22.5276 11.3658L25.7766 9.46613L25.8069 13.3196ZM17.9502 18.6706C18.7528 17.3672 20.2248 16.828 21.2997 17.4685C22.3746 18.1089 22.6581 19.6941 21.9656 21.0631L20.2339 20.0313C20.2696 19.8662 20.2175 19.703 20.0916 19.628C19.9656 19.5529 19.8026 19.588 19.6819 19.7024L17.9502 18.6706ZM21.8171 21.3285C21.0147 22.6326 19.5422 23.1721 18.4671 22.5316C17.3921 21.8911 17.1084 20.3052 17.8017 18.936L19.5332 19.9677C19.4971 20.1332 19.549 20.2969 19.6752 20.3721C19.8015 20.4473 19.9648 20.4118 20.0857 20.2969L21.8171 21.3285Z" fill="white"/>
</g>
</svg>
