<svg width="16" height="16" viewBox="0 0 16 16" fill="none" xmlns="http://www.w3.org/2000/svg">
<path d="M13.1734 15.7219H13.1292V15.9999H13.1734V15.8895H13.3981V15.833H13.1734V15.7219Z" fill="black"/>
<path d="M13.3982 15.3214H13.1542C13.1468 15.3214 13.1409 15.3237 13.1364 15.3273C13.1322 15.3315 13.1299 15.3374 13.1299 15.3448V15.4065L13.3426 15.5046L13.1299 15.6027V15.6641C13.1299 15.6716 13.1322 15.6774 13.1364 15.6816C13.1406 15.6859 13.1464 15.6881 13.1542 15.6881H13.3982V15.6336H13.1741L13.3982 15.5316V15.4777L13.1734 15.3754H13.3982V15.3208V15.3214Z" fill="black"/>
<path fill-rule="evenodd" clip-rule="evenodd" d="M9.0393 8.22182H10.8386C12.2819 8.22182 13.4514 9.38227 13.4514 10.8142H10.8386C12.2819 10.8142 13.4514 11.9747 13.4514 13.4066C13.4514 14.8386 12.2819 15.999 10.8386 15.999H5.61286C4.16954 15.999 3 14.8386 3 13.4066V10.8142C3 9.38227 4.16954 8.22182 5.61286 8.22182H7.11562C7.11692 8.23287 7.11757 8.24423 7.11854 8.25528C7.11952 8.26762 7.12017 8.27996 7.12179 8.29198C7.12309 8.30172 7.12537 8.31146 7.12796 8.32153C7.12894 8.32575 7.13024 8.32998 7.13121 8.33452C7.13348 8.34492 7.13608 8.35531 7.13836 8.36538C7.14258 8.38422 7.14713 8.40273 7.15102 8.42156C7.15232 8.42806 7.15167 8.43521 7.15102 8.4417C7.14615 8.47061 7.15167 8.49756 7.16304 8.52387C7.17506 8.55083 7.18123 8.57843 7.17408 8.60831C7.16726 8.63592 7.16759 8.66385 7.17246 8.69211C7.17473 8.7051 7.17246 8.71939 7.17051 8.73271C7.16694 8.75349 7.16272 8.77428 7.15882 8.79506C7.1546 8.81715 7.15037 8.83891 7.14648 8.86099C7.13803 8.91003 7.13836 8.9594 7.15102 9.00779C7.15524 9.02468 7.16466 9.04092 7.17441 9.05554C7.18707 9.07437 7.19909 9.09224 7.19097 9.1166C7.18935 9.12114 7.19032 9.12666 7.19097 9.13186C7.19097 9.13284 7.19097 9.13348 7.19097 9.13446C7.19357 9.15427 7.19649 9.17408 7.19909 9.19422C7.20039 9.20396 7.20169 9.21338 7.20299 9.22312C7.20818 9.25982 7.1887 9.28711 7.16954 9.31439C7.16856 9.31569 7.16791 9.31699 7.16694 9.31796C7.16466 9.32121 7.16207 9.32446 7.15979 9.32803C7.1533 9.33712 7.14648 9.34589 7.14128 9.35563C7.13738 9.36278 7.13576 9.37252 7.13673 9.38032C7.13933 9.39883 7.13608 9.41572 7.13056 9.43326C7.12407 9.45307 7.12212 9.47288 7.12634 9.49367C7.13251 9.52452 7.12439 9.55343 7.10523 9.57778C7.08996 9.5976 7.08184 9.61903 7.07827 9.64307C7.07308 9.67977 7.06138 9.71452 7.04969 9.74894C7.04677 9.75771 7.04385 9.76648 7.04092 9.77525C7.03345 9.79799 7.02663 9.82072 7.01981 9.84313C7.01786 9.84995 7.01591 9.85645 7.01364 9.86294C7.00812 9.8808 7.0026 9.89834 6.99805 9.91653C6.98928 9.95128 6.98181 9.98603 6.97467 10.0211C6.97012 10.0438 6.96395 10.065 6.95128 10.0851C6.94186 10.0997 6.93537 10.1159 6.92887 10.1322C6.92595 10.1397 6.9227 10.1471 6.91945 10.1546C6.91491 10.1647 6.91036 10.1744 6.90516 10.1842C6.89899 10.1952 6.8925 10.2062 6.88568 10.217C6.8847 10.2183 6.88405 10.2199 6.88308 10.2215C6.88016 10.2267 6.87691 10.2322 6.87236 10.2355C6.85905 10.2452 6.85352 10.2595 6.84898 10.2741C6.82657 10.3465 6.80448 10.419 6.7824 10.4917C6.76713 10.5414 6.75219 10.5911 6.73758 10.6411C6.73433 10.6522 6.72848 10.66 6.72069 10.6684C6.70347 10.6869 6.68821 10.7077 6.67457 10.7291C6.64339 10.7795 6.61384 10.8305 6.58396 10.8815L6.57908 10.8896C6.57421 10.8977 6.56999 10.9065 6.56577 10.9149C6.56057 10.9253 6.55537 10.9357 6.5492 10.9458C6.54498 10.9523 6.53979 10.9581 6.53426 10.9639C6.52972 10.9688 6.52517 10.9737 6.52127 10.9792C6.47028 11.052 6.42514 11.1283 6.38779 11.2088V11.2095C6.38422 11.2163 6.38064 11.2244 6.38194 11.2306C6.38551 11.2459 6.37967 11.2572 6.3735 11.2692C6.3722 11.2722 6.37057 11.2751 6.36928 11.278C6.35271 11.3134 6.33842 11.3501 6.32543 11.3871C6.2975 11.4648 6.27022 11.543 6.24423 11.6213C6.23936 11.6366 6.23644 11.6525 6.23384 11.6687C6.23222 11.6778 6.23059 11.6872 6.22865 11.696C6.22735 11.7022 6.22475 11.7093 6.2202 11.7132C6.18318 11.7476 6.17343 11.7931 6.16824 11.8405C6.16759 11.8457 6.16954 11.8509 6.17116 11.8561C6.17148 11.8574 6.17213 11.8587 6.17246 11.86C6.17311 11.8623 6.17441 11.8646 6.17538 11.8665C6.17701 11.8698 6.17863 11.873 6.17863 11.8766C6.17863 11.9058 6.19747 11.9139 6.22182 11.9162C6.2241 11.9162 6.22637 11.9169 6.22865 11.9172C6.23124 11.9178 6.23417 11.9182 6.23677 11.9182C6.24943 11.9188 6.26242 11.9191 6.27509 11.9198C6.30984 11.9214 6.34492 11.9227 6.37967 11.9237C6.4404 11.925 6.50081 11.9263 6.56155 11.9272C6.5963 11.9279 6.63105 11.9285 6.6658 11.9292C6.70575 11.9298 6.74602 11.9308 6.78597 11.9318C6.82592 11.9328 6.86587 11.9334 6.90614 11.9344C6.95388 11.9354 7.00162 11.936 7.04904 11.937C7.09678 11.938 7.14453 11.9386 7.19195 11.9396H7.19487C7.20396 11.9396 7.21338 11.9396 7.2189 11.9497H7.26989C7.27314 11.949 7.27606 11.9484 7.27931 11.9477C7.28613 11.9464 7.29295 11.9448 7.29977 11.9448C7.39916 11.9445 7.49886 11.9445 7.59825 11.9448C7.60507 11.9448 7.61189 11.9464 7.61871 11.9477C7.62196 11.9484 7.62488 11.949 7.62813 11.9497H7.63819C7.65866 11.9422 7.67912 11.9422 7.69958 11.9497H9.27509C9.27801 11.949 9.28093 11.9484 9.28386 11.9477C9.29003 11.9461 9.2962 11.9448 9.30237 11.9448C9.35758 11.9445 9.4128 11.9445 9.46801 11.9448C9.47418 11.9448 9.48035 11.9464 9.48652 11.9477C9.48944 11.9484 9.49237 11.949 9.49529 11.9497H9.5872C9.60572 11.9354 9.63527 11.9354 9.65378 11.9497H9.74082C9.747 11.9389 9.75674 11.9393 9.76648 11.9396C9.76778 11.9396 9.76908 11.9396 9.77038 11.9396C9.78467 11.9396 9.79896 11.9396 9.81293 11.9396C9.84053 11.9396 9.86814 11.9399 9.89542 11.9389C9.9253 11.9376 9.95518 11.9347 9.98506 11.9315C9.99318 11.9305 10.0016 11.9298 10.0097 11.9289C10.0162 11.9282 10.024 11.9269 10.0292 11.9234C10.0309 11.9221 10.0325 11.9211 10.0341 11.9198C10.0425 11.9139 10.052 11.9074 10.0542 11.8993C10.0702 11.8451 10.0786 11.7895 10.0406 11.7405C10.0231 11.7178 10.0143 11.6931 10.0049 11.6668L10.0039 11.6645C9.97954 11.5963 9.95356 11.5284 9.92725 11.4609C9.91978 11.442 9.91263 11.4229 9.90516 11.404C9.89834 11.3868 9.8912 11.3696 9.88405 11.3524C9.87983 11.342 9.87528 11.3316 9.87106 11.3212C9.86651 11.3098 9.85904 11.2998 9.8519 11.29C9.84703 11.2835 9.84216 11.277 9.83826 11.2702C9.83339 11.2621 9.83241 11.252 9.83111 11.2416C9.83014 11.2316 9.82884 11.2215 9.82429 11.2121C9.78532 11.1312 9.74212 11.0529 9.69373 10.9776C9.69178 10.9747 9.68983 10.9717 9.68789 10.9685C9.68074 10.9575 9.67327 10.9461 9.66742 10.9341C9.62618 10.8487 9.58136 10.7655 9.53004 10.6859C9.52939 10.685 9.52907 10.6843 9.52842 10.6833C9.52679 10.6804 9.52485 10.6775 9.52225 10.6759C9.50373 10.6648 9.49821 10.6466 9.49269 10.6278C9.49204 10.6252 9.49107 10.6226 9.49042 10.62C9.46086 10.5255 9.43033 10.4313 9.3998 10.3374C9.39201 10.3134 9.38292 10.2894 9.37317 10.2657C9.36992 10.2582 9.36473 10.2507 9.35856 10.2452C9.31861 10.2095 9.28613 10.1676 9.25365 10.1254C9.24359 10.112 9.23319 10.0987 9.2228 10.0857C9.22183 10.0844 9.22053 10.0828 9.21955 10.0815C9.21695 10.0779 9.21436 10.0744 9.21111 10.0721C9.17441 10.0484 9.15492 10.0114 9.13608 9.97499C9.13381 9.97077 9.13186 9.96687 9.12959 9.96265C9.10068 9.90874 9.07535 9.85287 9.05002 9.79701C9.04514 9.78597 9.03995 9.77525 9.03508 9.76421C9.02988 9.75317 9.02858 9.73888 9.03053 9.72686C9.0354 9.69471 9.03735 9.66255 9.0393 9.63007C9.03962 9.62423 9.03995 9.61838 9.04027 9.61221C9.04222 9.57876 9.04027 9.54661 9.03605 9.51348C9.03345 9.49562 9.03638 9.47678 9.0393 9.45827C9.03995 9.45307 9.04092 9.44787 9.04157 9.44268C9.04579 9.41182 9.04709 9.38162 9.02955 9.35336C9.02501 9.34622 9.02468 9.33615 9.02403 9.32738V9.3264C9.02371 9.31926 9.02371 9.31179 9.02403 9.30464C9.02403 9.29587 9.02403 9.28678 9.02338 9.27801C9.02241 9.26632 9.02079 9.25333 9.01494 9.24391C8.99838 9.21728 8.99448 9.18805 8.9935 9.15817C8.99253 9.12926 8.98441 9.10263 8.97597 9.07567L8.97467 9.07145C8.96297 9.03313 8.95258 8.99448 8.94316 8.9555C8.94056 8.94479 8.94251 8.93244 8.94446 8.92108V8.9201C8.94739 8.90321 8.95128 8.88665 8.9555 8.87009C8.96103 8.84865 8.96395 8.82787 8.94446 8.8113C8.94154 8.8087 8.93862 8.80351 8.93927 8.80026C8.94024 8.79376 8.94024 8.78727 8.94056 8.78077C8.94121 8.76421 8.94154 8.74797 8.95258 8.73368C8.96427 8.71874 8.9672 8.70185 8.96785 8.68334C8.9685 8.67002 8.96947 8.65671 8.97077 8.64339C8.97174 8.63365 8.97239 8.62423 8.97304 8.61448C8.97337 8.60831 8.97337 8.60247 8.97337 8.5963C8.97337 8.58883 8.97337 8.58136 8.97402 8.57421C8.97532 8.56122 8.97629 8.54823 8.98084 8.53686C8.98831 8.51738 8.99221 8.49821 8.99383 8.47743C8.99578 8.45372 9.0013 8.43033 9.00715 8.40727C9.00942 8.39786 9.01624 8.38876 9.02273 8.38129C9.04937 8.35076 9.05456 8.31634 9.04287 8.27866C9.04255 8.27736 9.0419 8.27574 9.04157 8.27444C9.0406 8.27087 9.03962 8.26762 9.038 8.26405C9.03085 8.24943 9.03248 8.23579 9.03897 8.22247L9.0393 8.22182ZM9.19584 7.77752H13.4518V5.18512H10.8389C12.2822 5.18512 13.4518 4.02468 13.4518 2.59272C13.4518 1.16077 12.2822 0 10.8392 0H5.61286C4.16954 0 3 1.16044 3 2.5924H5.61286C4.16954 2.5924 3 3.75317 3 5.18512V7.77752H7.10068C7.10068 7.76648 7.10068 7.75511 7.10036 7.74407C7.09906 7.71841 7.09126 7.69178 7.08152 7.66775C7.06658 7.6304 7.0682 7.59467 7.08055 7.55797C7.08282 7.5518 7.08672 7.54498 7.09191 7.54173C7.1075 7.53232 7.10848 7.51835 7.10523 7.50373C7.09516 7.45859 7.08314 7.41442 7.05424 7.37675C7.04644 7.36635 7.03995 7.35498 7.03345 7.34362C7.0315 7.34005 7.02955 7.3368 7.02761 7.33322C7.02501 7.32868 7.02241 7.32413 7.01981 7.31958C7.0013 7.28711 6.98279 7.25495 6.9581 7.22637L6.9568 7.22475C6.93245 7.19617 6.90776 7.16726 6.90322 7.12731C6.90257 7.12082 6.89867 7.11465 6.8951 7.10848C6.8938 7.1062 6.8925 7.10425 6.8912 7.10198C6.87626 7.07405 6.86002 7.04774 6.83046 7.0315C6.81487 7.02273 6.80676 7.00682 6.81325 6.98766C6.8191 6.97012 6.81552 6.95388 6.80708 6.93829C6.80058 6.92692 6.79409 6.91556 6.78759 6.90451C6.77947 6.89087 6.77135 6.87691 6.76388 6.86294C6.75901 6.85417 6.75544 6.8441 6.75447 6.83436C6.75382 6.82494 6.75479 6.8152 6.75609 6.80546C6.75641 6.80221 6.75674 6.79929 6.75706 6.79604C6.75999 6.76518 6.76258 6.73498 6.74375 6.70737C6.73725 6.69763 6.73303 6.68594 6.73011 6.67457C6.71744 6.62423 6.7051 6.57421 6.69276 6.52387C6.68756 6.50308 6.68269 6.4823 6.67749 6.46151C6.67652 6.45794 6.67587 6.45437 6.67489 6.4508C6.6723 6.4404 6.67002 6.43001 6.66677 6.41962C6.66385 6.41052 6.66093 6.40143 6.65768 6.39234C6.65313 6.37869 6.64826 6.36538 6.64469 6.35141C6.64436 6.34979 6.64404 6.34849 6.64339 6.34719C6.6356 6.31828 6.6278 6.28905 6.63365 6.25853C6.63462 6.25365 6.63365 6.24813 6.63235 6.24261C6.63235 6.24131 6.6317 6.23969 6.6317 6.23839C6.62975 6.2267 6.62748 6.215 6.62488 6.20331C6.62325 6.19649 6.62163 6.18967 6.62033 6.18285C6.61319 6.1507 6.60572 6.11854 6.59792 6.08639C6.5937 6.0695 6.58915 6.05261 6.58461 6.03573C6.58006 6.01884 6.57551 6.00195 6.57129 5.98506C6.56902 5.97629 6.56869 5.9659 6.57064 5.95713C6.57649 5.93309 6.57259 5.91004 6.56804 5.88633C6.56642 5.87821 6.56609 5.86944 6.56544 5.86099C6.56544 5.8558 6.56479 5.8506 6.56447 5.84573C6.56349 5.83566 6.56284 5.82559 6.5622 5.81552C6.56025 5.78499 6.5583 5.75447 6.54693 5.72524C6.54076 5.70932 6.54076 5.69243 6.54271 5.67489C6.54401 5.66223 6.54271 5.64956 6.54141 5.63657C6.54076 5.63072 6.54011 5.62488 6.53979 5.61936C6.53946 5.61449 6.53914 5.60994 6.53881 5.60507C6.53816 5.59565 6.53751 5.58623 6.53686 5.57681C6.53686 5.57421 6.53686 5.57129 6.53719 5.56837C6.53751 5.56414 6.53816 5.56025 6.53719 5.55635C6.53491 5.5479 6.53297 5.53914 6.53102 5.53037C6.52485 5.50406 6.519 5.47775 6.50893 5.45307C6.49464 5.41702 6.49367 5.38064 6.50244 5.34524C6.51153 5.30887 6.50536 5.27866 6.48587 5.24813C6.47548 5.23189 6.46671 5.21403 6.45892 5.19617C6.44885 5.17213 6.43943 5.14713 6.43131 5.12212C6.41345 5.06885 6.39623 5.01559 6.37902 4.962L6.3735 4.94479C6.3683 4.92855 6.3631 4.91198 6.35791 4.89575C6.34946 4.86911 6.34102 4.84248 6.33225 4.81617C6.32998 4.80903 6.3264 4.80221 6.32283 4.79539C6.32056 4.79084 6.31828 4.78629 6.31601 4.78142C6.31504 4.77882 6.31374 4.77655 6.31244 4.77395C6.30887 4.76616 6.30497 4.75869 6.30464 4.75057C6.30335 4.72751 6.29523 4.70737 6.28581 4.68724C6.28126 4.67749 6.27639 4.66775 6.27152 4.65833C6.26242 4.64047 6.25365 4.62293 6.24683 4.60409C6.23806 4.57941 6.23092 4.55408 6.2241 4.52842C6.22085 4.51608 6.21728 4.50373 6.21371 4.49139C6.21176 4.48522 6.21046 4.47905 6.20883 4.47256C6.20494 4.45697 6.20104 4.4417 6.19357 4.42806C6.17246 4.39039 6.17376 4.35109 6.17798 4.31114C6.17928 4.29847 6.1783 4.28776 6.17148 4.27704C6.16044 4.26047 6.15849 4.24229 6.16336 4.22312C6.16401 4.22118 6.16434 4.2189 6.16499 4.21695C6.16759 4.20656 6.17051 4.19649 6.17246 4.1861C6.17441 4.17376 6.17603 4.16109 6.17636 4.14842C6.17636 4.13316 6.17636 4.1179 6.17636 4.10296C6.17636 4.07892 6.17636 4.05489 6.17701 4.03118C6.17798 4.01039 6.17993 3.98928 6.1822 3.9685C6.1835 3.95453 6.18512 3.94089 6.1861 3.92692C6.18967 3.88048 6.22702 3.85222 6.27282 3.86197C6.27411 3.86197 6.27541 3.86262 6.27671 3.86294C6.28029 3.86392 6.28418 3.86457 6.28776 3.86489C6.30042 3.86554 6.30724 3.85937 6.30789 3.84735C6.30789 3.84346 6.30757 3.83956 6.30692 3.83566C6.30659 3.83371 6.30627 3.83176 6.30594 3.82949C6.30464 3.8178 6.30302 3.80578 6.30172 3.79409C6.29652 3.75447 6.29165 3.71484 6.2936 3.67457C6.29555 3.64047 6.29717 3.60604 6.29847 3.57161V3.56999C6.29912 3.557 6.29652 3.54563 6.28776 3.53459C6.28191 3.52744 6.27866 3.51608 6.27899 3.50666C6.27996 3.47938 6.28191 3.45209 6.28581 3.42514C6.30367 3.30237 6.33615 3.18318 6.37447 3.06528C6.41474 2.94284 6.46411 2.82429 6.52387 2.70965C6.57356 2.61513 6.62553 2.52225 6.69308 2.4391C6.71452 2.4128 6.73758 2.38746 6.76291 2.36473C6.76518 2.36278 6.76746 2.36051 6.76973 2.35856C6.78012 2.34946 6.79019 2.34037 6.79929 2.32998C6.8113 2.31569 6.82429 2.30172 6.83728 2.28808C6.84248 2.28256 6.84768 2.27704 6.85287 2.27152C6.85482 2.26924 6.8571 2.26697 6.85937 2.26502C6.86262 2.26177 6.86587 2.25853 6.86879 2.25495C6.87496 2.24748 6.88113 2.24001 6.8873 2.23254C6.89964 2.2176 6.91166 2.20266 6.92498 2.18902C6.94739 2.16564 6.97109 2.14355 6.9961 2.12309C7.0026 2.11757 7.00942 2.11205 7.01591 2.10653C7.05391 2.07502 7.09191 2.04352 7.13219 2.01526C7.2254 1.95031 7.32511 1.89639 7.42871 1.85028C7.51705 1.81098 7.60766 1.77882 7.70055 1.75349C7.80286 1.72524 7.90809 1.71452 8.01332 1.70737C8.01429 1.70737 8.01494 1.70737 8.01591 1.70737C8.02468 1.70705 8.0328 1.7064 8.03767 1.6973H8.03735H8.05261C8.05521 1.69795 8.05781 1.6986 8.06041 1.69925C8.06593 1.70055 8.07145 1.70218 8.0773 1.70218C8.12569 1.7025 8.17408 1.7025 8.22247 1.70218C8.228 1.70218 8.23352 1.70088 8.23936 1.69925C8.24196 1.6986 8.24456 1.69795 8.24716 1.6973H8.26242C8.26729 1.70607 8.27509 1.70672 8.28353 1.70737C8.28451 1.70737 8.28581 1.70737 8.28678 1.70737C8.29133 1.7077 8.29555 1.70802 8.3001 1.70835C8.31764 1.70965 8.3355 1.71095 8.35271 1.71387C8.3644 1.71582 8.3761 1.71777 8.38779 1.71971C8.45339 1.73043 8.519 1.74115 8.58428 1.75414C8.73238 1.78337 8.87301 1.83534 9.00682 1.90419C9.08152 1.94284 9.1533 1.98766 9.22377 2.03378C9.28841 2.07632 9.34784 2.12601 9.4037 2.18025C9.45891 2.23384 9.50731 2.29295 9.55375 2.35401C9.56544 2.3696 9.57843 2.38681 9.58233 2.405C9.58655 2.42481 9.59792 2.43228 9.61319 2.43715C9.62878 2.44203 9.63982 2.45177 9.64956 2.46411C9.6684 2.48782 9.68691 2.51185 9.70542 2.53589C9.72134 2.55635 9.73725 2.57681 9.75317 2.59727C9.76421 2.61124 9.77363 2.6252 9.76064 2.64177C9.76518 2.64794 9.76973 2.65378 9.77395 2.65963C9.78337 2.67197 9.79246 2.68399 9.80058 2.69633C9.81195 2.71322 9.82267 2.73076 9.83241 2.74894C9.83858 2.76064 9.84475 2.772 9.85093 2.7837C9.87204 2.82332 9.89282 2.86294 9.91133 2.90354C9.9292 2.94316 9.94446 2.98409 9.9594 3.02501C9.9633 3.03508 9.96687 3.04547 9.97077 3.05554C9.98019 3.0812 9.98928 3.10685 9.99578 3.13348C10.0075 3.18155 10.0185 3.22994 10.0292 3.27834C10.0344 3.30075 10.0393 3.32283 10.0445 3.34524C10.0464 3.35369 10.049 3.36181 10.052 3.3696C10.0594 3.38974 10.0689 3.39266 10.0861 3.37999C10.089 3.37772 10.0919 3.3748 10.0945 3.3722C10.0958 3.37057 10.0974 3.36928 10.0991 3.36765C10.1062 3.36083 10.1137 3.35401 10.1208 3.34687C10.1367 3.3316 10.153 3.31601 10.1699 3.30172C10.19 3.28483 10.2137 3.28841 10.2286 3.31049C10.2348 3.31958 10.2381 3.33095 10.241 3.34167C10.2413 3.34297 10.2416 3.34427 10.242 3.34557C10.2439 3.35304 10.2449 3.36083 10.2459 3.3683C10.2459 3.3709 10.2465 3.37317 10.2468 3.37577C10.2478 3.38389 10.2491 3.39169 10.2504 3.3998C10.2533 3.41864 10.2563 3.43748 10.2572 3.45664C10.2582 3.4771 10.2608 3.49497 10.2741 3.5112C10.2868 3.52647 10.2946 3.54433 10.2936 3.56512C10.2936 3.56837 10.2936 3.57161 10.293 3.57519C10.292 3.59565 10.2907 3.61578 10.3014 3.63495C10.303 3.63754 10.3033 3.64177 10.3027 3.64501C10.2981 3.66125 10.3037 3.67489 10.3105 3.68886C10.3124 3.69276 10.3128 3.69698 10.3131 3.70153C10.3131 3.70477 10.3137 3.70835 10.3144 3.71127C10.3173 3.72166 10.3202 3.73173 10.3235 3.7418C10.3254 3.74765 10.3271 3.75349 10.329 3.75934V3.78499C10.3238 3.79864 10.3183 3.81195 10.3131 3.82559C10.3004 3.85807 10.2878 3.89055 10.2751 3.9227C10.2517 3.98181 10.239 4.0432 10.2316 4.1062C10.2247 4.16466 10.216 4.2228 10.2066 4.28061C10.2007 4.31601 10.1932 4.35109 10.1848 4.38584C10.178 4.41312 10.1692 4.43975 10.1598 4.46639C10.1543 4.4823 10.1478 4.49789 10.1413 4.51348C10.1358 4.52712 10.1302 4.54076 10.125 4.5544C10.1101 4.59467 10.0932 4.63332 10.0624 4.6645C10.0474 4.67977 10.0419 4.69925 10.0451 4.72101C10.0471 4.73335 10.0474 4.7457 10.0477 4.75804C10.0477 4.75999 10.0477 4.76226 10.0477 4.76421C10.0477 4.7707 10.0477 4.77753 10.0477 4.78402C10.0477 4.79636 10.0474 4.80838 10.0494 4.8204C10.063 4.90289 10.0442 4.98149 10.0198 5.05911C10.0123 5.08347 10.0032 5.10718 9.99448 5.13089C9.98409 5.15882 9.97369 5.18707 9.96525 5.21565C9.9555 5.24943 9.93959 5.27964 9.92368 5.31017C9.92108 5.31504 9.91848 5.31991 9.91621 5.32478C9.90062 5.35498 9.88665 5.38584 9.87951 5.41962C9.87204 5.45534 9.86262 5.49107 9.84963 5.52517C9.84865 5.52777 9.84768 5.53037 9.8467 5.53329C9.83339 5.56804 9.82007 5.60247 9.81552 5.63982C9.81487 5.64501 9.81358 5.64989 9.81195 5.65508C9.81163 5.65671 9.81098 5.65833 9.81065 5.65995C9.80546 5.67944 9.79669 5.69633 9.78142 5.70997C9.7759 5.71517 9.77135 5.72166 9.76811 5.72816C9.75609 5.75447 9.74407 5.78077 9.73303 5.80773C9.73141 5.81163 9.72978 5.8152 9.72816 5.8191C9.72166 5.83436 9.71484 5.85028 9.71484 5.86554C9.71484 5.8912 9.70705 5.91198 9.69406 5.93245C9.68951 5.93959 9.68561 5.94739 9.68334 5.9555C9.67132 5.99545 9.65995 6.03573 9.64891 6.076C9.64761 6.08055 9.64696 6.08509 9.64664 6.08996C9.64631 6.09289 9.64599 6.09581 9.64534 6.09873C9.64436 6.10425 9.64371 6.10978 9.64307 6.1153C9.64144 6.12829 9.63982 6.14128 9.63527 6.15297C9.6239 6.1822 9.61773 6.21241 9.61871 6.24294C9.62001 6.30107 9.60669 6.35563 9.5885 6.4102C9.57519 6.45015 9.56804 6.49237 9.57096 6.53589C9.57291 6.56479 9.57031 6.59532 9.54336 6.61416C9.52582 6.6265 9.5229 6.64144 9.53167 6.65833C9.54336 6.68074 9.54011 6.70315 9.53361 6.72524C9.53102 6.73498 9.52712 6.7444 9.52355 6.75382C9.5216 6.75869 9.51965 6.76356 9.51803 6.76876C9.5164 6.7733 9.51445 6.77817 9.5125 6.78272C9.50796 6.79311 9.50373 6.80383 9.50244 6.81455C9.49919 6.84768 9.48685 6.87756 9.47483 6.90744C9.47158 6.91523 9.46866 6.92303 9.46541 6.9305C9.46086 6.94251 9.45697 6.95485 9.45404 6.96687C9.44917 6.98668 9.4443 7.0065 9.43943 7.02631C9.43391 7.04937 9.42806 7.07275 9.42254 7.09581C9.41897 7.1101 9.41507 7.12407 9.41117 7.13803C9.4076 7.15102 9.40403 7.16401 9.40078 7.177C9.39883 7.1848 9.39721 7.19292 9.39558 7.20071C9.39298 7.21273 9.39071 7.22507 9.38681 7.23677C9.38194 7.25235 9.37512 7.26729 9.36863 7.28223C9.367 7.28581 9.36538 7.28938 9.36375 7.29295C9.35986 7.30172 9.35596 7.31049 9.35174 7.31893C9.34459 7.3342 9.33712 7.34946 9.3316 7.36505C9.32575 7.38227 9.31958 7.3998 9.31374 7.41702C9.28905 7.48912 9.2647 7.56155 9.23319 7.63105C9.2228 7.65411 9.21273 7.67814 9.20721 7.70315C9.20299 7.72134 9.20104 7.74017 9.19877 7.75901C9.19812 7.76453 9.19747 7.77038 9.19682 7.7759L9.19584 7.77752ZM6.08152 14.4836V12.9717H7.24359L7.12309 13.3014H6.55213V13.6077H7.01169L6.8912 13.9376H6.55213V14.4839H6.0812L6.08152 14.4836ZM7.85872 12.9717H7.38779V14.4836H7.85872V12.9717ZM8.1822 14.4836V12.9717H9.34427L9.22377 13.3014H8.65281V13.6077H9.11237L8.99188 13.9376H8.65281V14.4839H8.18188L8.1822 14.4836ZM9.88925 13.3599L10.0773 13.9896H9.70705L9.8886 13.3599H9.88925ZM9.65183 12.9711L9.10101 14.4829H9.56479L9.62325 14.2796H10.1552L10.2166 14.4829H10.6924L10.1416 12.9711H9.65183Z" fill="black"/>
</svg>
