<svg width="16" height="16" viewBox="0 0 16 16" fill="none" xmlns="http://www.w3.org/2000/svg">
<rect width="16" height="16" fill="#D20515"/>
<path d="M12.6716 8.30769C12.6795 8.33647 12.6541 8.35622 12.6022 8.39403L12.5706 8.41152L12.5813 8.4324C12.5886 8.44594 12.5762 8.46626 12.5542 8.47698L12.5068 8.50068C12.4853 8.51196 12.4616 8.50971 12.4549 8.49616L12.4447 8.47698L12.3849 8.50632L12.3945 8.52663C12.4013 8.54018 12.3883 8.56049 12.3657 8.57065L12.3178 8.59322C12.2957 8.60338 12.2726 8.60056 12.2658 8.58645L12.2574 8.56839C12.0729 8.65529 11.8663 8.74727 11.6536 8.84602L11.6654 8.87311C11.6728 8.88665 11.6592 8.9064 11.6378 8.91655L11.5893 8.93913C11.5673 8.94928 11.5436 8.9459 11.5379 8.93236L11.5249 8.90527L11.4567 8.93856L11.4696 8.96621C11.4758 8.98032 11.4634 8.99951 11.4409 9.01023L11.3929 9.03223C11.3703 9.04239 11.3477 9.03957 11.341 9.02603L11.3286 8.99951C11.2321 9.03788 11.1265 9.05593 11.0498 8.91091C11.0171 8.84433 11.0154 8.69141 10.99 8.61015C10.9848 8.59722 10.9764 8.58585 10.9655 8.57715C10.9546 8.56845 10.9417 8.56271 10.9279 8.56049C9.99008 8.38048 9.67239 8.58081 9.07142 8.4324C8.88239 8.38613 8.77969 8.21233 8.54664 8.20951C8.03878 8.19427 7.88925 8.20161 7.3385 8.18073C7.3148 8.26029 7.31198 8.27778 7.31198 8.27778L5.37649 8.26876L5.67217 8.41378L5.76697 9.26754C5.76697 9.26754 5.68854 9.29011 5.66596 9.29293C5.68459 9.46222 5.70264 9.69358 5.71223 9.90123C5.7207 10.0874 5.73029 10.2816 5.7286 10.4051C5.72918 10.4856 5.70979 10.5649 5.67217 10.6359C5.6353 10.6979 5.58591 10.7515 5.52715 10.7934C5.50966 10.8063 5.43461 10.8571 5.34827 10.9062C5.26194 10.9553 5.15811 11.0117 5.10563 11.0366C5.11353 11.0593 5.12276 11.0815 5.13328 11.1032C3.95618 11.6714 2.4975 11.8655 2.0252 12.7695C1.96877 12.8745 1.7786 12.8197 1.77296 12.7069C1.77296 12.6549 1.77296 12.5709 1.77296 12.524H1.75603C1.7408 12.524 1.72895 12.5032 1.73064 12.4783V12.4253C1.73064 12.401 1.74531 12.3818 1.75998 12.3824H1.7803C1.78628 12.3302 1.79628 12.2785 1.8102 12.2278L1.79215 12.2216C1.77804 12.2165 1.77353 12.1934 1.78143 12.1702L1.79892 12.1206C1.80738 12.0974 1.82488 12.0833 1.84011 12.0878L1.8576 12.094C1.94168 11.8982 2.10363 11.8119 2.17925 11.6263L2.1674 11.6217C2.15216 11.6161 2.14765 11.5935 2.15611 11.5704L2.1736 11.5202C2.18207 11.497 2.20013 11.4829 2.2148 11.488L2.22778 11.4925C2.23906 11.4654 2.25204 11.4361 2.26671 11.4062L2.25091 11.3955C2.23737 11.387 2.23737 11.3639 2.25091 11.343L2.27969 11.2984C2.2921 11.2781 2.31298 11.2679 2.32596 11.2764L2.33273 11.2803H2.3395C2.34345 11.2803 2.34515 11.2803 2.3491 11.2758C2.35641 11.2677 2.36413 11.26 2.37223 11.2527C2.40823 11.2261 2.45165 11.2115 2.49639 11.2109C2.54114 11.2103 2.58494 11.2237 2.62165 11.2493C2.69557 11.2939 2.98448 11.4587 3.26267 11.2087C3.72144 10.7968 4.25807 10.2375 4.66154 10.2184C4.55207 9.98249 4.3619 9.48818 4.34046 9.30591L4.20503 9.27713C4.13449 9.12534 3.96295 8.42393 3.91442 7.89689C3.91442 7.89689 3.85799 7.32866 3.91442 7.1289C3.88339 7.12552 3.82639 7.17235 3.81059 7.17291C3.73667 6.99178 3.97649 5.46087 4.21406 5.01509L4.57802 4.87007C4.54022 4.86555 4.27726 4.8537 3.58545 4.79728C3.20004 5.13867 2.75369 5.50715 2.52741 5.70803C2.48904 5.73625 2.42471 5.95519 2.42471 5.95519C2.42471 5.95519 2.31185 6.05563 2.20408 6.12955C2.06413 6.22774 1.72161 6.30335 1.64713 6.18598C1.6302 6.1572 1.63302 6.14479 1.64713 6.12955C1.70017 6.07312 1.90049 5.97832 1.9682 5.85136C1.85873 5.90779 1.73685 5.96422 1.64148 5.95462C1.59973 5.95462 1.57828 5.85023 1.63189 5.83161C1.77748 5.7701 1.89259 5.74358 1.97836 5.62282C2.06413 5.50207 2.16119 5.42927 2.29323 5.42645C2.29323 5.42645 2.93652 4.58623 3.31572 4.18503C3.42067 4.07556 3.61535 4.11167 3.61535 4.11167L3.64808 3.98414C3.64808 3.98414 4.94594 3.82896 5.55311 4.02928C5.539 3.66193 5.70377 3.17383 6.27878 3.17383C6.57446 3.17383 7.00953 3.43509 7.06878 3.75222C7.08683 3.84984 7.0304 3.91473 7.0005 4.03831C6.94915 4.22509 7.02081 4.43331 7.0005 4.4982C6.98357 4.55181 6.92319 4.5473 6.87071 4.62009C6.82477 4.69186 6.78494 4.76736 6.75165 4.8458L6.67434 5.02694L6.26918 4.9976C6.12134 5.31755 5.81776 5.9693 5.71054 6.6154C6.0288 6.64249 7.47111 6.85127 7.47111 6.85127L7.5061 6.96864C7.5061 6.96864 8.11383 7.04144 8.61097 7.27844C8.72382 7.30552 9.00145 7.26377 9.18484 7.34784C9.19726 7.34051 9.22773 7.30947 9.24127 7.30101C9.88964 7.50076 10.4263 7.84046 11.0509 7.99169C11.0509 7.99169 11.3432 8.06279 11.4414 8.08198C11.6071 8.11415 11.7746 8.13564 11.9431 8.14631C12.1434 8.16211 12.2546 8.15929 12.4007 8.16775C12.5045 8.17396 12.6309 8.15646 12.6721 8.30769M13.6004 6.33608C13.4422 6.33608 13.2876 6.38298 13.1561 6.47084C13.0247 6.5587 12.9222 6.68358 12.8616 6.82968C12.8011 6.97579 12.7853 7.13656 12.8161 7.29167C12.847 7.44677 12.9232 7.58924 13.035 7.70107C13.1468 7.81289 13.2893 7.88905 13.4444 7.9199C13.5995 7.95075 13.7603 7.93492 13.9064 7.8744C14.0525 7.81388 14.1773 7.71139 14.2652 7.5799C14.3531 7.44841 14.4 7.29382 14.4 7.13567C14.4 7.03053 14.3792 6.92641 14.3389 6.82929C14.2987 6.73217 14.2396 6.64395 14.1652 6.56968C14.0907 6.49541 14.0024 6.43654 13.9052 6.39646C13.808 6.35638 13.7038 6.33586 13.5987 6.33608H13.6004Z" fill="white"/>
</svg>
