<svg width="16" height="16" viewBox="0 0 16 16" fill="none" xmlns="http://www.w3.org/2000/svg">
<path d="M12.5713 9.33627C12.556 9.36761 12.5257 9.38923 12.491 9.39324C11.6995 9.48506 10.8586 9.37501 10.5343 9.32411C9.99306 8.78335 9.40711 8.18185 8.97514 7.65618C8.93083 7.60234 8.9287 7.52534 8.96944 7.46863C9.58548 6.60979 10.1496 5.92831 10.3881 5.65849C11.0695 5.50998 11.749 5.37851 12.2078 5.35977C12.2425 5.35837 12.2755 5.37433 12.2958 5.40245C12.8872 6.22514 13.3103 7.01341 13.4461 7.30147C13.1745 8.03114 12.8478 8.76824 12.5713 9.33627ZM11.8162 10.7282C11.3799 11.4586 11.0485 11.899 10.9422 12.0328C10.7981 12.2363 10.4306 12.7665 9.85975 13.3028C9.82334 13.337 9.77583 13.3567 9.72575 13.3589C9.01087 13.3886 8.34619 13.3385 8.08734 13.282C7.86816 13.1914 7.35804 12.962 6.7551 12.6286C6.70252 12.5996 6.67156 12.543 6.6755 12.4832C6.70697 12.0158 6.85526 11.35 6.98644 10.646C7.31079 10.0765 7.64704 9.42665 7.99571 8.8929C8.03244 8.83675 8.10119 8.81061 8.16606 8.82835C9.21005 9.11333 10.116 9.32975 10.4838 9.41249C10.9874 9.99644 11.4753 10.407 11.8036 10.6616C11.8241 10.6774 11.8293 10.706 11.8162 10.7282ZM5.49971 11.7432C5.44681 11.776 5.37943 11.7742 5.3286 11.7383C4.87401 11.4165 4.33162 11.0053 3.87985 10.5831C3.61335 10.1277 3.40784 9.54492 3.26437 9.04859C3.2551 9.01662 3.26224 8.98203 3.2833 8.95627C3.79022 8.33308 4.39862 7.84001 4.65296 7.6523C5.22675 7.89982 5.88535 8.11818 6.46147 8.30977C6.52038 8.32932 6.562 8.38216 6.56689 8.44389C6.64812 9.46877 6.83589 10.2976 6.88603 10.6143C6.67093 10.8441 6.10885 11.3652 5.49971 11.7432ZM2.97475 7.71052C2.89954 7.22672 2.85009 6.71862 2.84463 6.4859C2.83216 5.94857 2.91752 5.47268 3.01668 5.03207C3.03297 4.95994 3.07039 4.89456 3.12498 4.84459C3.41298 4.58081 3.93375 4.11542 4.26242 3.90465C4.57223 3.70601 5.43327 3.42805 5.78833 3.32494C5.85715 3.30487 5.93048 3.33547 5.96589 3.39769C6.00857 3.47268 6.0532 3.54712 6.10052 3.62041C6.38005 4.05556 6.6881 4.43018 6.81784 4.59245C6.64586 5.27524 6.57278 6.04083 6.5395 6.68664C6.53636 6.74722 6.49776 6.80029 6.44116 6.82236C5.54283 7.17276 4.86386 7.44693 4.63572 7.55222C4.01849 7.57826 3.43059 7.68346 3.03379 7.7528C3.00565 7.75776 2.97914 7.73856 2.97475 7.71052ZM7.50333 3.02137C7.5279 2.98325 7.56813 2.95785 7.61314 2.95188C8.53691 2.82986 9.3821 2.81189 9.70695 2.82087C10.2981 3.21396 10.8758 3.73262 11.3368 4.2245C11.3691 4.25897 11.3739 4.31088 11.3484 4.3507C11.0194 4.86517 10.541 5.35915 10.3308 5.57425C9.55138 5.75871 8.72507 6.02722 8.05437 6.24733C7.98913 6.26871 7.91743 6.24447 7.87844 6.18791C7.36951 5.44872 7.04611 4.815 6.91931 4.5799C7.05695 3.96363 7.24943 3.41472 7.50333 3.02137ZM13.6741 9.08945C13.6575 9.09691 13.6385 9.08526 13.6376 9.0672C13.5989 8.30839 13.529 7.57107 13.4925 7.30144C13.4955 6.6461 13.3868 5.96607 13.2783 5.46466C13.2745 5.44653 13.2905 5.43034 13.3087 5.43398C13.9289 5.56057 14.1279 5.79274 14.1279 5.79274C13.7996 5.05687 13.3266 4.50231 12.8125 4.0832C12.3729 3.16311 11.867 2.73755 11.867 2.73755C11.9079 2.94105 11.8797 3.17122 11.8072 3.40874C11.8026 3.42385 11.7853 3.43105 11.7711 3.42416C10.9286 3.01233 10.0587 2.82423 9.72218 2.77716C9.21933 2.53282 8.6701 2.37114 8.22347 2.24858C8.21156 2.24533 8.20831 2.22991 8.21789 2.22193C8.81068 1.73015 9.35596 1.60496 9.35596 1.60496C8.39063 1.5663 7.55974 1.74084 6.86497 2.00773C5.82694 1.9246 5.16571 2.10503 5.16571 2.10503C5.16571 2.10503 5.45232 2.44791 5.56376 2.6388C5.57717 2.66189 5.57015 2.69148 5.54815 2.70666C4.89526 3.15908 4.42682 3.65608 4.24212 3.86297C4.03635 3.89078 3.67998 3.93997 3.36873 4.01667C3.35632 4.01977 3.34579 4.00729 3.3508 3.99552C3.66249 3.25357 4.00226 2.84285 4.00226 2.84285C4.00226 2.84285 1.99888 4.2644 1.61913 6.81888C1.61913 6.81888 1.7841 6.36607 2.34191 5.67975C2.34924 5.67076 2.36347 5.67254 2.36823 5.68316C2.5263 6.03285 2.707 6.34339 2.79781 6.48591C2.49102 6.9794 2.27923 7.51749 2.14881 7.95785C2.14429 7.97315 2.13276 7.98543 2.11772 7.99107C1.65373 8.16706 1.53552 8.33497 1.53552 8.33497C1.60766 8.58116 1.74931 8.82115 1.92825 9.04735C1.94379 9.0669 1.95169 9.09134 1.95062 9.11629C1.90136 10.2065 2.25335 10.924 2.25335 10.924C2.33282 10.5433 2.48845 10.1734 2.685 9.82634C2.69283 9.81249 2.71126 9.80905 2.72367 9.81889C3.18158 10.1823 3.65591 10.5 3.84412 10.6128C3.94121 10.8605 4.21918 11.5032 4.59059 12.1626C4.59836 12.1766 4.59204 12.1942 4.57706 12.1996C4.13231 12.3615 3.67603 12.4348 3.25767 12.333C3.25767 12.333 3.76221 12.961 5.31857 13.2288C5.75035 13.7386 6.27582 14.1608 6.88948 14.3075C6.88948 14.3075 6.7096 14.1099 6.66516 13.3737C6.66422 13.3588 6.67619 13.3461 6.69117 13.3463C7.07544 13.3521 7.59671 13.3604 8.07387 13.3259C8.24296 13.459 8.612 13.7514 8.97195 13.9378C8.98987 13.947 8.991 13.9722 8.97377 13.9827C8.34105 14.3648 7.92006 14.3981 7.92006 14.3981C10.786 14.4591 12.5068 12.5921 12.5068 12.5921C12.0347 12.9023 11.4896 13.0951 10.9469 13.21C10.9286 13.2139 10.9126 13.1977 10.9164 13.1794C11.0172 12.6925 10.9889 12.2217 10.9818 12.0558C11.6618 11.8873 12.255 11.5838 12.6941 11.2736C12.703 11.2673 12.7148 11.2673 12.7238 11.2735C12.9066 11.4005 13.0631 11.543 13.2192 11.7803C13.2192 11.7803 13.5165 11.3601 13.6188 10.3866C14.355 9.42666 14.4644 8.44409 14.4644 8.44409C14.2797 8.73259 14.0008 8.94047 13.6741 9.08945Z" fill="#00004B"/>
</svg>
