<svg width="16" height="16" viewBox="0 0 16 16" fill="none" xmlns="http://www.w3.org/2000/svg">
<path d="M11.7384 7.99977C11.7384 5.94038 10.0593 4.22949 7.96814 4.22949C5.90875 4.22949 4.22958 5.90866 4.22958 7.99977C4.22958 10.0592 5.90875 11.7383 7.99986 11.7383C8.82362 11.7383 9.58399 11.4849 10.1859 11.0413L9.14039 9.99578C8.7919 10.1859 8.41168 10.3126 7.9998 10.3126C6.73251 10.3126 5.68695 9.29879 5.68695 7.99977C5.68695 6.73248 6.70078 5.68693 7.9998 5.68693C9.04535 5.68693 9.93242 6.41564 10.2176 7.36609H6.54243L7.71468 8.57007H11.675C11.7384 8.37993 11.7384 8.18985 11.7384 7.99977Z" fill="#002F63"/>
<path d="M11.0097 11.8648C10.186 12.5302 9.14043 12.9104 7.99991 12.9104C7.35442 12.9125 6.71488 12.7869 6.11812 12.5409C5.52136 12.2948 4.97916 11.9332 4.52273 11.4768C4.0663 11.0203 3.70465 10.4781 3.45861 9.88136C3.21256 9.2846 3.08698 8.64506 3.0891 7.99958C3.0891 6.85898 3.46932 5.81349 4.13465 4.98974L3.05744 3.91252C2.13865 5.02139 1.60001 6.44717 1.60001 7.99964C1.60001 11.5165 4.45149 14.3996 7.99991 14.3996C9.55238 14.3996 10.9781 13.861 12.087 12.9422L11.0097 11.8648ZM4.95841 4.13426C5.78216 3.46892 6.82772 3.0887 7.96825 3.0887C8.61374 3.08659 9.25328 3.21217 9.85004 3.45821C10.4468 3.70425 10.989 4.0659 11.4454 4.52233C11.9019 4.97876 12.2635 5.52096 12.5096 6.11772C12.7556 6.71448 12.8812 7.35402 12.8791 7.99951C12.8791 9.1401 12.4989 10.1856 11.8336 11.0093L12.8791 12.0549C13.7979 10.946 14.3365 9.52032 14.3365 7.96779C14.3682 4.45103 11.5167 1.59961 7.99991 1.59961C6.44743 1.59961 5.02172 2.13825 3.91285 3.05704L4.95841 4.13426Z" fill="#002F63"/>
</svg>
