<svg width="16" height="16" viewBox="0 0 16 16" fill="none" xmlns="http://www.w3.org/2000/svg">
<path fill-rule="evenodd" clip-rule="evenodd" d="M6.73749 1.57422V7.49409C6.73023 7.50136 6.72264 7.50864 6.71536 7.51592L2.31934 7.51561V8.72908C2.31934 11.847 4.84892 14.3742 7.97015 14.3742C11.0911 14.3742 13.6213 11.847 13.6213 8.72908V1.57422H6.73749Z" fill="#1A1919"/>
<path fill-rule="evenodd" clip-rule="evenodd" d="M10.4317 9.44238C9.47078 9.44238 8.69147 10.2203 8.69147 11.1805C8.69147 12.1405 9.47078 12.9193 10.4317 12.9193C11.393 12.9193 12.1723 12.1405 12.1723 11.1805C12.1723 10.2203 11.393 9.44238 10.4317 9.44238Z" fill="#D8232A"/>
<path fill-rule="evenodd" clip-rule="evenodd" d="M7.96975 6.98242C7.0088 6.98242 6.2298 7.76059 6.2298 8.72082C6.2298 9.68077 7.0088 10.4596 7.96975 10.4596C8.93072 10.4596 9.71004 9.68077 9.71004 8.72082C9.71004 7.76059 8.93072 6.98242 7.96975 6.98242Z" fill="#FFFFFE"/>
</svg>
