<svg width="16" height="16" viewBox="0 0 16 16" fill="none" xmlns="http://www.w3.org/2000/svg">
<path d="M1.92721 8.12738C1.97178 8.15863 3.64195 9.34489 3.68179 9.37315C3.72164 9.40142 3.76872 9.4322 3.80335 9.35193C4.23903 8.34261 4.7544 7.47183 5.24903 6.73332C5.74365 5.9949 6.67222 4.88766 7.71965 4.09715C7.79219 4.04235 7.79162 4.0601 7.79162 3.95244C7.79162 3.84477 7.82461 1.76622 7.82461 1.68142C7.82461 1.61707 7.78708 1.56565 7.73093 1.62672C6.95943 2.46673 6.61665 2.9572 6.09945 3.80425C5.58235 4.6512 4.99916 5.79462 4.97484 5.84054C4.95053 5.88646 4.92622 5.90759 4.82907 5.96046C4.73182 6.01342 4.1852 6.30285 3.49791 6.77577C2.81053 7.24859 2.03304 7.91735 1.96879 7.96858C1.90463 8.01971 1.8317 8.06033 1.92721 8.12738Z" fill="#EC252C"/>
<path d="M14.0196 3.26151C12.6827 3.24366 11.0565 3.44867 9.37367 4.24979C8.84625 4.50092 8.31322 4.81079 7.78184 5.19052C8.18491 4.97972 8.75556 4.69512 9.15487 4.55263C9.83482 4.31009 10.5924 4.19471 10.7421 4.17705C10.8917 4.1594 10.7906 4.22403 10.7168 4.26899C10.643 4.31395 9.71635 4.96544 9.10142 5.52885C8.48649 6.09227 7.9882 6.55882 7.18871 7.60248C7.14559 7.65882 7.10613 7.70687 7.15765 7.84106C7.81329 9.54895 8.40198 10.5026 9.1131 11.4621C9.19124 11.5676 9.1539 11.5707 9.08097 11.5326C9.00813 11.4944 8.97996 11.4816 8.46315 11.1687C7.94643 10.8556 6.73413 10.0536 5.99783 9.30439C5.90213 9.20705 5.87116 9.20357 5.76668 9.29851C5.32753 9.69762 4.64371 10.3589 4.16578 11.0396C4.08117 11.1601 4.08416 11.063 4.08812 10.9809C4.09197 10.8987 4.10751 10.574 4.13857 10.2883C4.18507 9.86954 4.24691 9.55378 4.2882 9.37038C4.12416 9.72733 3.98299 10.0944 3.86555 10.4692C3.72933 10.9046 3.4975 11.7667 3.4975 12.9785C3.4975 13.3824 3.49808 13.6137 3.51978 13.7049C3.53483 13.7684 3.57786 13.7526 3.63613 13.6509C3.68919 13.5582 3.9217 13.1597 4.26042 12.6817C4.6825 12.0862 5.26414 11.3601 5.7717 10.9338C5.83093 10.8842 5.87377 10.8226 5.97053 10.9231C6.0809 11.0378 6.58459 11.4915 8.0294 12.3994C9.4742 13.3073 11.2314 14.0114 12.5729 14.3688C12.9361 14.4655 12.8304 14.3106 12.7294 14.2151C11.8082 13.3466 10.5431 11.6101 9.96583 10.6604C9.03042 9.12167 8.74283 8.22812 8.70385 8.13512C8.66487 8.04212 8.68465 7.98597 8.74379 7.90724C8.80824 7.82148 9.29485 7.17008 10.0856 6.38729C10.8763 5.60449 12.1824 4.5643 13.1091 3.97455C13.6925 3.60322 13.8374 3.47954 14.0072 3.37766C14.0907 3.32749 14.1188 3.3191 14.1188 3.29189C14.1188 3.26035 14.0713 3.26218 14.0196 3.26151Z" fill="#001C48"/>
</svg>
