<svg width="16" height="16" viewBox="0 0 16 16" fill="none" xmlns="http://www.w3.org/2000/svg">
<g clip-path="url(#clip0_912_5216)">
<path d="M17.4636 4.2825C17.4653 4.14031 17.4386 3.99921 17.385 3.86746C17.3315 3.73571 17.2523 3.61595 17.152 3.51518C17.0516 3.41441 16.9322 3.33465 16.8007 3.28058C16.6692 3.2265 16.5282 3.19919 16.386 3.20023H11.7326L14.4024 7.66183L14.6488 7.69303L14.8047 7.89732V8.08757L14.9731 8.12187L15.1291 8.33396V8.51798L15.3038 8.54918L15.48 8.741V9.16517C15.6897 9.35458 15.9262 9.51221 16.1817 9.63301C16.4172 9.72344 16.4437 10.1008 16.5856 10.302C16.7634 10.5952 17.0067 10.7121 16.9552 10.8759C16.8367 11.3141 16.3876 12.0533 15.9696 12.0876H14.3166V12.7956H16.3876C16.5301 12.7949 16.6711 12.7662 16.8025 12.7109C16.9338 12.6557 17.053 12.575 17.1531 12.4736C17.2533 12.3722 17.3324 12.252 17.3859 12.1199C17.4395 11.9878 17.4664 11.8465 17.4652 11.704V4.28247" fill="#BF0D3E"/>
<path d="M10.1436 3.20021L13.4948 7.56506L13.3482 8.10006C13.3482 8.10006 12.7463 7.67744 12.1225 7.7024H10.5926C10.2479 7.70234 10.3779 6.9293 10.379 6.92271C10.3816 6.9231 10.5723 6.95197 10.5817 6.90709C10.6409 6.20066 10.5817 5.17763 9.80199 4.66146C8.49051 3.77726 6.31352 3.94254 6.26043 6.0649L5.10965 6.86959H6.50996L6.56137 7.09115L6.18246 7.90037C6.18246 7.90037 6.13888 8.04084 6.21371 8.04084H6.68152C6.82183 8.20777 6.87485 8.75328 6.76418 8.77365C5.9548 8.99354 5.27949 10.0993 5.27949 12.0985H6.08106C6.13878 12.1936 6.32749 12.5164 6.49277 12.8002H-0.262695C-0.551667 12.7998 -0.82881 12.6848 -1.03316 12.4805C-1.13365 12.3799 -1.21305 12.2602 -1.2666 12.1285C-1.32017 11.9967 -1.34683 11.8556 -1.34504 11.7133V4.2824C-1.34645 4.13981 -1.31965 3.99833 -1.26613 3.86615C-1.2126 3.73394 -1.13342 3.61355 -1.03316 3.51209C-0.827547 3.31062 -0.550558 3.19853 -0.262695 3.20021H10.1436ZM1.41934 10.0015C0.969154 9.5475 0.204795 9.84201 0.157461 10.461L0.155274 10.5219C0.154248 10.6188 0.172477 10.7149 0.208867 10.8046C0.245249 10.8943 0.299154 10.9758 0.367305 11.0446C0.435469 11.1133 0.516659 11.1679 0.606055 11.2051C0.695463 11.2422 0.791428 11.2612 0.888242 11.261C1.54817 11.2666 1.88406 10.4701 1.41934 10.0015Z" fill="#041E42"/>
</g>
<defs>
<clipPath id="clip0_912_5216">
<rect width="16" height="16" fill="white"/>
</clipPath>
</defs>
</svg>
