<svg width="16" height="16" viewBox="0 0 16 16" fill="none" xmlns="http://www.w3.org/2000/svg">
<path d="M14.1072 2.34329V1.59961H2.05838V2.34329L2.05795 6.5394C2.0554 8.18815 2.55631 9.79837 3.49368 11.1547L1.9942 12.6542L3.04605 13.7061L4.45105 12.301C4.788 12.6367 5.15363 12.9423 5.54377 13.2143C6.2544 13.7104 7.04 14.0893 7.87065 14.3365L8.08278 14.3996L8.29498 14.3365C9.97512 13.838 11.449 12.8095 12.4966 11.4045C13.5442 9.99957 14.1093 8.29348 14.1076 6.54094L14.1072 2.34329Z" fill="white"/>
<path d="M13.3635 2.33105H2.80217L2.80177 6.53327C2.79919 8.24402 3.39237 9.90228 4.47942 11.2233L13.3635 2.33917L13.3635 2.33105Z" fill="url(#paint0_linear_912_5226)"/>
<path d="M8.08284 13.6202C11.1369 12.7114 13.3639 9.88223 13.3639 6.53298L13.3635 2.33887L4.47943 11.223C5.41484 12.3633 6.66965 13.1981 8.08284 13.6203" fill="white"/>
<path d="M6.79921 6.527L6.93397 6.94173L6.58117 6.68546L6.22839 6.94173L6.36306 6.527L6.01034 6.27065H6.44649L6.58117 5.8558L6.7159 6.27065H7.15199L6.79921 6.527ZM4.76895 6.527L5.12173 6.27065H4.68569L4.5509 5.8558L4.4162 6.27065H3.98L4.33286 6.527L4.19807 6.94173L4.5509 6.68546L4.9036 6.94173L4.76895 6.527ZM5.70084 7.62117L5.56605 7.20639L5.43132 7.62117H4.9952L5.34795 7.87752L5.21324 8.29223L5.56605 8.03596L5.91877 8.29223L5.7841 7.87752L6.13684 7.62117H5.70084ZM4.38116 4.9029L3.98114 3.99189H3.96846V5.20766C3.96872 5.2119 3.96808 5.21615 3.96659 5.22013C3.96509 5.22411 3.96277 5.22772 3.95977 5.23074C3.95678 5.23375 3.95318 5.2361 3.94921 5.23762C3.94524 5.23914 3.94099 5.2398 3.93675 5.23957H3.57803C3.57377 5.23982 3.56951 5.23917 3.56552 5.23765C3.56153 5.23614 3.55791 5.2338 3.55489 5.23079C3.55187 5.22777 3.54953 5.22415 3.54801 5.22017C3.54649 5.21618 3.54583 5.21192 3.54607 5.20766V3.11262C3.54582 3.10837 3.54648 3.10411 3.54801 3.10013C3.54953 3.09615 3.55188 3.09254 3.55491 3.08954C3.55793 3.08654 3.56156 3.08421 3.56555 3.08272C3.56955 3.08123 3.57381 3.08061 3.57806 3.08089H3.95575C3.96652 3.07976 3.97736 3.08227 3.98654 3.08802C3.99572 3.09376 4.00272 3.10241 4.00642 3.11259L4.55253 4.34424H4.56539L5.10174 3.11259C5.10548 3.1024 5.11252 3.09375 5.12173 3.088C5.13094 3.08225 5.14181 3.07974 5.15261 3.08086H5.52398C5.52821 3.08059 5.53244 3.08123 5.53641 3.08273C5.54037 3.08424 5.54397 3.08656 5.54696 3.08956C5.54996 3.09256 5.55228 3.09616 5.55377 3.10013C5.55526 3.1041 5.5559 3.10833 5.55562 3.11256V5.20769C5.5559 5.21193 5.55528 5.21618 5.55379 5.22016C5.5523 5.22414 5.54998 5.22776 5.54699 5.23077C5.544 5.23379 5.5404 5.23614 5.53643 5.23766C5.53246 5.23918 5.52822 5.23984 5.52398 5.23959H5.16523C5.16099 5.23983 5.15675 5.23916 5.15279 5.23764C5.14882 5.23611 5.14523 5.23377 5.14224 5.23075C5.13925 5.22774 5.13693 5.22412 5.13544 5.22015C5.13395 5.21617 5.13331 5.21193 5.13358 5.20769V3.99192H5.12084L4.72088 4.90287C4.71667 4.91542 4.70848 4.92626 4.69755 4.93373C4.68662 4.94121 4.67355 4.94491 4.66033 4.94428H4.44134C4.42818 4.94483 4.41519 4.94108 4.40434 4.93362C4.39349 4.92615 4.38535 4.91539 4.38116 4.9029ZM5.87795 5.23959H7.28429C7.28854 5.23983 7.29279 5.23917 7.29676 5.23765C7.30073 5.23613 7.30434 5.23378 7.30734 5.23077C7.31034 5.22776 7.31267 5.22414 7.31418 5.22016C7.31569 5.21619 7.31633 5.21194 7.31608 5.20769V4.85534C7.31632 4.85111 7.31567 4.84687 7.31415 4.8429C7.31264 4.83894 7.3103 4.83534 7.3073 4.83235C7.3043 4.82935 7.3007 4.82702 7.29673 4.82552C7.29277 4.82401 7.28853 4.82336 7.28429 4.82361H6.33193C6.32934 4.82398 6.32669 4.82374 6.32421 4.82292C6.32172 4.82209 6.31946 4.8207 6.31761 4.81884C6.31576 4.81699 6.31437 4.81473 6.31354 4.81225C6.31271 4.80976 6.31247 4.80712 6.31285 4.80453V3.11259C6.31312 3.10836 6.31248 3.10412 6.31098 3.10015C6.30948 3.09618 6.30716 3.09257 6.30416 3.08957C6.30116 3.08657 6.29756 3.08424 6.29359 3.08274C6.28962 3.08124 6.28538 3.0806 6.28114 3.08086H5.87795C5.87372 3.0806 5.86948 3.08124 5.86552 3.08275C5.86156 3.08425 5.85796 3.08657 5.85496 3.08957C5.85196 3.09257 5.84964 3.09617 5.84813 3.10013C5.84663 3.1041 5.84599 3.10833 5.84625 3.11256V5.20769C5.84599 5.21193 5.84663 5.21618 5.84813 5.22015C5.84963 5.22413 5.85195 5.22774 5.85494 5.23076C5.85794 5.23377 5.86154 5.23611 5.8655 5.23764C5.86947 5.23916 5.87371 5.23983 5.87795 5.23959ZM8.48724 3.94108L8.37304 3.92523C8.12543 3.89038 8.03655 3.81103 8.03655 3.68719C8.03655 3.55057 8.13489 3.45229 8.3254 3.45229C8.50323 3.45229 8.66181 3.50936 8.82696 3.61738C8.8305 3.6197 8.83447 3.62129 8.83863 3.62206C8.84279 3.62282 8.84707 3.62275 8.8512 3.62184C8.85534 3.62094 8.85925 3.61921 8.86271 3.61677C8.86617 3.61433 8.8691 3.61123 8.87135 3.60764L9.06503 3.31881C9.08085 3.29654 9.07771 3.284 9.0588 3.27126C8.87772 3.13156 8.61103 3.0459 8.3254 3.0459C7.85869 3.0459 7.56038 3.30936 7.56038 3.70615C7.56038 4.08709 7.8047 4.2934 8.24291 4.35375L8.35716 4.36955C8.61428 4.40451 8.69043 4.48394 8.69043 4.61093C8.69043 4.76317 8.5635 4.86805 8.33808 4.86805C8.10958 4.86805 7.91601 4.76011 7.77306 4.64583C7.76985 4.64265 7.76601 4.64019 7.76178 4.63861C7.75756 4.63703 7.75304 4.63636 7.74854 4.63666C7.74404 4.63696 7.73965 4.63821 7.73567 4.64033C7.73168 4.64246 7.7282 4.6454 7.72544 4.64898L7.48414 4.92518C7.47761 4.93285 7.47429 4.94275 7.47488 4.95281C7.47546 4.96288 7.47991 4.97232 7.48729 4.97919C7.65555 5.14114 7.98245 5.27435 8.31912 5.27435C8.87772 5.27435 9.16677 4.9855 9.16677 4.59514C9.16677 4.20454 8.93176 4.0014 8.48726 3.94105" fill="white"/>
<path d="M13.6114 2.33093V2.08301H2.55427L2.55424 2.33093L2.55384 6.53318C2.55132 8.19698 3.0942 9.81576 4.09937 11.1416C4.11499 11.1622 4.13096 11.1825 4.14672 11.2029L2.69546 12.6542L3.04609 13.0048L4.46382 11.587C4.8682 12.0456 5.32598 12.4541 5.8274 12.8039C6.4945 13.27 7.23213 13.626 8.0121 13.8581L8.08282 13.8792L8.15357 13.8581C8.93357 13.626 9.67122 13.2701 10.3383 12.8039C10.9979 12.3439 11.581 11.7829 12.0663 11.1416C13.0715 9.81576 13.6143 8.19699 13.6118 6.53318L13.6114 2.33093ZM4.4947 10.8423C3.55475 9.60261 3.04717 8.08893 3.04972 6.53318L3.05006 2.57886H12.7708L4.50019 10.8495L4.4947 10.8423ZM12.7336 8.84553C12.4881 9.56353 12.1294 10.2376 11.671 10.8423C11.2171 11.4422 10.6716 11.967 10.0546 12.3973C9.45122 12.8189 8.78605 13.1441 8.08285 13.3614C7.37965 13.1441 6.71447 12.8189 6.11112 12.3973C5.63359 12.0642 5.19843 11.674 4.81526 11.2356L13.1157 2.9352L13.116 6.53318C13.1169 7.31977 12.9877 8.1011 12.7336 8.84553Z" fill="url(#paint1_radial_912_5226)"/>
<defs>
<linearGradient id="paint0_linear_912_5226" x1="2.80177" y1="6.77714" x2="13.3635" y2="6.77714" gradientUnits="userSpaceOnUse">
<stop stop-color="#E2231A"/>
<stop offset="0.16" stop-color="#DB231B"/>
<stop offset="0.394" stop-color="#C7231F"/>
<stop offset="0.674" stop-color="#A72325"/>
<stop offset="0.986" stop-color="#7B232E"/>
<stop offset="1" stop-color="#79232E"/>
</linearGradient>
<radialGradient id="paint1_radial_912_5226" cx="0" cy="0" r="1" gradientUnits="userSpaceOnUse" gradientTransform="translate(8.08285 7.98111) scale(5.71652 5.71653)">
<stop stop-color="#009ADD"/>
<stop offset="1" stop-color="#001F5B"/>
</radialGradient>
</defs>
</svg>
