<svg width="16" height="16" viewBox="0 0 16 16" fill="none" xmlns="http://www.w3.org/2000/svg">
<path d="M5.90183 10.0924C4.74663 10.0839 3.52181 11.0562 3.16481 12.2666C2.80992 13.4733 3.45596 14.4592 4.61163 14.4677C5.76307 14.4783 6.99283 13.506 7.34489 12.2972C7.7026 11.0898 7.05656 10.1023 5.90183 10.0924ZM4.50604 11.3617C4.59399 11.1669 4.7391 10.9875 4.91925 10.8332C5.08105 10.9271 5.13232 11.1319 5.02508 11.3732C4.91925 11.6107 4.69442 11.8123 4.45618 11.9183C4.4042 11.7589 4.41667 11.5693 4.50604 11.3617ZM4.54649 12.0825C4.84564 11.9329 5.12291 11.6695 5.25838 11.3732C5.40231 11.0639 5.3588 10.7958 5.1843 10.6514C5.42065 10.5101 5.69064 10.4261 5.94345 10.4292C6.18828 10.4337 6.3776 10.5101 6.49448 10.6423C6.20004 10.7928 5.93311 11.0494 5.79412 11.344C5.64948 11.6618 5.69934 11.9404 5.89595 12.0848C5.65019 12.23 5.37432 12.32 5.1121 12.32C4.85669 12.3149 4.65843 12.2269 4.54649 12.0825ZM6.54951 11.3807C6.46696 11.5693 6.32727 11.746 6.1577 11.8918C5.98014 11.8069 5.92017 11.5945 6.03306 11.344C6.13442 11.1112 6.3569 10.9064 6.59137 10.8043C6.65511 10.9623 6.64641 11.1646 6.54951 11.3807Z" fill="#D70C19"/>
<path d="M5.08124 9.70215L7.75382 1.66724H12.9144L7.46361 9.70215H6.62049L10.116 3.73306C10.2749 3.47342 10.1832 3.08161 9.76131 2.99671C9.1014 2.86172 8.6936 3.18768 8.51415 3.58489L5.91283 9.70215H5.08124Z" fill="#0091DB"/>
</svg>
