<svg width="16" height="16" viewBox="0 0 16 16" fill="none" xmlns="http://www.w3.org/2000/svg">
<path d="M2.48248 10.9023H5.85842L7.99724 14.3992L2.48248 10.9023Z" fill="#1A1659"/>
<path d="M13.5175 10.9023H10.1361L7.99725 14.3992L13.5175 10.9023Z" fill="#1A1659"/>
<path d="M5.8584 10.9026H7.99722H10.136L7.99722 5.25586L5.8584 10.9026Z" fill="#1A1659"/>
<path d="M7.99722 14.3992L10.136 10.9023H5.8584L7.99722 14.3992Z" fill="url(#paint0_linear_912_5229)"/>
<path d="M7.99724 5.25596L8.92095 7.69169H7.75532L6.96357 9.79202H9.7182L10.1361 10.9027H13.5175L9.52026 1.59961C8.50308 1.59961 7.4914 1.59961 6.47422 1.59961L2.48248 10.9027H5.86392L7.99724 5.25596Z" fill="url(#paint1_linear_912_5229)"/>
<defs>
<linearGradient id="paint0_linear_912_5229" x1="5.86061" y1="12.6486" x2="10.1362" y2="12.6486" gradientUnits="userSpaceOnUse">
<stop stop-color="#31ECFF"/>
<stop offset="0.049371" stop-color="#2DE2FF"/>
<stop offset="0.2964" stop-color="#1BB2FF"/>
<stop offset="0.5147" stop-color="#0E90FF"/>
<stop offset="0.694" stop-color="#067BFF"/>
<stop offset="0.8118" stop-color="#0373FF"/>
</linearGradient>
<linearGradient id="paint1_linear_912_5229" x1="11.167" y1="2.2002" x2="7.35472" y2="12.6744" gradientUnits="userSpaceOnUse">
<stop stop-color="#31ECFF"/>
<stop offset="0.0488274" stop-color="#2DE2FF"/>
<stop offset="0.2932" stop-color="#1BB2FF"/>
<stop offset="0.5091" stop-color="#0E90FF"/>
<stop offset="0.6863" stop-color="#067BFF"/>
<stop offset="0.8028" stop-color="#0373FF"/>
</linearGradient>
</defs>
</svg>
