<svg width="186" height="40" viewBox="0 0 186 40" fill="none" xmlns="http://www.w3.org/2000/svg">
<path fill-rule="evenodd" clip-rule="evenodd" d="M13.7833 0C13.7833 0 13.7833 17.6274 13.7992 18.0981C13.4388 18.0883 0.394043 18.0872 0.394043 18.0872V22.2981C0.394043 27.0265 2.22889 31.4717 5.56006 34.8158C8.89234 38.1586 13.3221 40 18.034 40C22.7457 40 27.1756 38.1586 30.5069 34.8148C33.839 31.4718 35.6739 27.0265 35.6739 22.2981V0.000245942L13.7833 0ZM18.0334 16.9807C15.1207 16.9807 12.7594 19.3502 12.7594 22.2732C12.7594 25.196 15.1207 27.5657 18.0334 27.5657C20.9459 27.5657 23.3073 25.196 23.3073 22.2732C23.3073 19.3502 20.9459 16.9807 18.0334 16.9807Z" fill="#FEFEFE"/>
<path fill-rule="evenodd" clip-rule="evenodd" d="M41.0517 25.9872L38.6787 28.8022C42.4117 33.2572 49.8897 30.7562 49.8897 24.2522V13.0802H52.4927V9.70623H43.6127V13.0792H46.2297V24.1272C46.2597 27.3852 42.9187 28.3162 41.0517 25.9872ZM52.2547 29.7632H55.7647V26.3802H52.2547V29.7632ZM84.4876 20.6672V26.3812H91.9356V22.9202H95.4016V29.7622H78.4216V26.3812H81.0236V13.0782H78.4216V9.70623H95.4016V15.7202H91.9356V13.0782H84.4876V17.4312H90.2046V20.6672H84.4876ZM136.543 15.4872C135.099 13.9082 133.534 12.8012 131.263 12.8012C127.279 12.8012 124.153 15.6312 124.153 19.7022C124.153 23.7752 127.189 26.6642 131.173 26.6642C134.164 26.6642 136.431 24.9612 137.349 22.3672H130.999V18.8602H141.406C141.413 19.1752 141.417 19.3392 141.417 19.5042C141.414 26.1202 136.551 30.2892 131.105 30.2892C124.765 30.2892 120.643 25.4792 120.643 19.5042C120.643 13.6832 125.409 9.11523 131.105 9.11523C133.215 9.11523 134.984 9.66523 136.543 10.7982V9.70623H140.074V16.8222H136.543V15.4872ZM114.852 9.70623V13.0792H112.613L117.947 26.3812H120.112V29.7632H111.901V26.3802H114.119L109.339 13.8202L104.558 26.3802H106.776V29.7622H98.5646V26.3802H100.729L106.064 13.0782H103.825V9.70623H114.852ZM154.464 30.3722C150.382 30.3722 146.302 27.2482 146.302 21.7862V13.0782H143.639V9.70623H152.332V13.0782H149.677V21.6042C149.677 24.4472 151.722 26.7512 154.464 26.7512C157.206 26.7512 159.252 24.4472 159.252 21.6042V13.0782H156.596V9.70623H165.29V13.0782H162.628V21.7862C162.628 27.3402 158.546 30.3722 154.464 30.3722ZM174.48 20.6672V26.3812H181.927V22.9202H185.393V29.7622H168.412V26.3812H171.014V13.0782H168.412V9.70623H185.393V15.7202H181.927V13.0782H174.48V17.4312H180.196V20.6672H174.48ZM67.9937 9.70623H59.2057V13.0792H61.8077V26.3802H59.2057V29.7622H75.2906V22.9182H71.8247V26.3802H65.2737V13.0792H67.9937V9.70623Z" fill="white"/>
<path fill-rule="evenodd" clip-rule="evenodd" d="M25.4927 24.4668C22.5801 24.4668 20.2188 26.8365 20.2188 29.7593C20.2188 32.6821 22.5801 35.0518 25.4927 35.0518C28.4053 35.0518 30.7668 32.6821 30.7668 29.7593C30.7668 26.8365 28.4053 24.4668 25.4927 24.4668Z" fill="#EC1D24"/>
<path fill-rule="evenodd" clip-rule="evenodd" d="M38.7152 38.3699L39.3402 36.5769L39.5472 35.9479C39.5472 35.9479 39.4902 36.3479 39.4902 36.6309V38.3699H40.3962V34.4839H39.2182C39.2182 34.4839 38.3522 37.0029 38.3282 37.1429C38.3032 37.0029 37.4382 34.4839 37.4382 34.4839H36.2612V38.3699H37.1662V36.6299C37.1662 36.3469 37.1082 35.9479 37.1082 35.9479L37.3162 36.5769L37.9402 38.3699H38.7152ZM35.3902 34.4839V35.2979H34.2742V38.3689H33.3172V35.2979H32.2022L32.1992 34.4839H35.3902Z" fill="white"/>
</svg>
