<svg width="24" height="24" viewBox="0 0 24 24" fill="none" xmlns="http://www.w3.org/2000/svg">
<path d="M20.9019 10.8008C20.4327 7.23589 17.9244 4.43162 14.7073 3.40218C14.7055 3.40127 14.7036 3.40035 14.7018 3.39944L14.7012 3.40035C13.4802 3.01042 12.1575 2.87495 10.8046 3.05253C5.88475 3.70058 2.40925 8.22993 3.05699 13.1498C3.60833 17.3368 6.97125 20.4755 10.9929 20.9194V20.9222C10.9947 20.9225 11.0179 20.9249 11.0554 20.9268C11.3581 20.9579 11.6641 20.9756 11.9732 20.9756C12.3628 20.9756 12.757 20.9503 13.154 20.8981C18.0736 20.2503 21.5494 15.7207 20.9019 10.8011V10.8008ZM10.8895 3.69783C11.2577 3.64932 11.6229 3.62583 11.9848 3.62583C12.8367 3.62583 13.6654 3.75855 14.4501 4.00294C14.9432 4.24978 15.3303 4.64154 15.5878 5.13398C15.449 5.2127 15.3877 5.38204 15.4484 5.53459C15.5076 5.68379 15.6666 5.76312 15.8194 5.73078C15.8484 5.83665 15.8725 5.94527 15.8914 6.05725C15.7831 6.06762 15.7145 6.08593 15.7065 6.08806C15.5348 6.13596 15.4356 6.31232 15.4814 6.4844C15.5268 6.65648 15.7047 6.759 15.8774 6.71567C15.8811 6.71476 15.9055 6.70896 15.9448 6.70408C15.9433 6.84016 15.9335 6.97563 15.9177 7.10957C15.7471 7.08425 15.63 7.09218 15.6184 7.09309C15.4396 7.10835 15.3065 7.26579 15.3215 7.44458C15.3367 7.62368 15.4927 7.75335 15.673 7.74145C15.6745 7.74084 15.7187 7.73932 15.785 7.74633C15.7389 7.8995 15.6837 8.04809 15.6193 8.18996C15.471 8.1143 15.3627 8.08501 15.3517 8.08226C15.1787 8.0371 15.0045 8.14176 14.9587 8.31414C14.9126 8.48653 15.0158 8.6641 15.1875 8.7117C15.1924 8.71323 15.2327 8.72604 15.2895 8.75167C15.1958 8.87829 15.093 8.99454 14.9822 9.09889C14.8382 8.96281 14.7198 8.89599 14.7085 8.88988C14.5532 8.80445 14.358 8.86059 14.2701 9.0162C14.1825 9.1715 14.2377 9.36921 14.3921 9.4583C14.3955 9.46013 14.4181 9.47417 14.4498 9.49766C14.3256 9.57577 14.2014 9.64595 14.0763 9.70849C13.9528 9.54251 13.8408 9.44854 13.8307 9.44061C13.6898 9.32894 13.485 9.35304 13.374 9.49431C13.2626 9.63527 13.2864 9.83969 13.4277 9.95106C13.428 9.95106 13.4335 9.95594 13.4411 9.96296C13.2919 10.0078 13.1415 10.0426 12.9898 10.0691C12.8992 9.85861 12.7903 9.73016 12.7811 9.71978C12.6646 9.58523 12.462 9.57119 12.3259 9.68653C12.1944 9.7982 12.1776 9.99225 12.2795 10.1289C12.1383 10.1289 11.9958 10.1228 11.8518 10.1103C11.8139 9.91414 11.7517 9.78538 11.7462 9.77409C11.6666 9.61452 11.4741 9.55014 11.3136 9.62886C11.1717 9.69782 11.1037 9.85769 11.1424 10.0051C11.0042 9.97638 10.8641 9.94282 10.7232 9.90529C10.729 9.68378 10.6872 9.52756 10.6835 9.51444C10.635 9.34145 10.455 9.24076 10.2823 9.28897C10.1093 9.33779 10.0086 9.51719 10.0571 9.69019C10.0571 9.69049 10.0587 9.6969 10.0602 9.70392C9.90823 9.65266 9.75415 9.59713 9.59855 9.53855C9.62631 9.34511 9.61045 9.20689 9.60892 9.19438C9.58634 9.0162 9.42311 8.8908 9.24523 8.91246C9.06705 8.93504 8.94073 9.09766 8.96331 9.27615C8.96331 9.27615 8.96361 9.28226 8.96392 9.28622C8.80007 9.21788 8.63379 9.14679 8.46506 9.07326C8.48947 8.92009 8.48245 8.81208 8.48154 8.8014C8.4672 8.6223 8.3119 8.48958 8.13158 8.5027C7.97323 8.51521 7.85088 8.6397 7.8344 8.79194C7.82708 8.78859 7.81976 8.78523 7.81243 8.78188C7.61747 8.69339 7.42891 8.62139 7.24524 8.56128C7.22906 8.41544 7.19337 8.31201 7.18452 8.28912C7.11953 8.12375 6.93494 8.04443 6.76835 8.10575C6.64539 8.15182 6.56759 8.26624 6.55935 8.39012C6.34638 8.35411 6.14318 8.33581 5.95035 8.33245C5.91679 8.21346 5.87468 8.13321 5.864 8.1146C5.77522 7.95869 5.57659 7.90438 5.42037 7.99286C5.28216 8.07158 5.22419 8.23603 5.27392 8.38096C4.89375 8.44381 4.5682 8.55945 4.30032 8.68882C4.57247 8.05632 4.92457 7.45312 5.35447 6.89264C6.71221 5.12361 8.67742 3.98891 10.8882 3.69753L10.8895 3.69783ZM3.702 13.0647C3.55097 11.9187 3.63823 10.7782 3.94425 9.69843C4.09284 9.56113 4.55661 9.18371 5.29711 9.04122C5.32426 9.12818 5.3862 9.20415 5.47621 9.24351C5.51862 9.26212 5.56286 9.27097 5.60649 9.27097C5.73189 9.27097 5.85119 9.19805 5.90489 9.076C5.91801 9.0458 5.92503 9.01651 5.93509 8.98691C6.11145 8.98966 6.29848 9.00644 6.49589 9.04152C6.4492 9.18126 6.50138 9.33962 6.63196 9.42078C6.68536 9.45373 6.74486 9.46959 6.80344 9.46959C6.91206 9.46959 7.01823 9.41528 7.07987 9.31612C7.10214 9.28043 7.11678 9.24503 7.13417 9.20964C7.26751 9.25632 7.4045 9.31094 7.54546 9.3747C7.56285 9.38264 7.58025 9.39057 7.59764 9.3985C7.59764 9.3985 7.59733 9.39911 7.59703 9.39911C7.46217 9.5178 7.44844 9.72314 7.56713 9.8583C7.6315 9.93153 7.72121 9.96906 7.81182 9.96906C7.8881 9.96906 7.96438 9.94251 8.02632 9.88851C8.1029 9.82138 8.16545 9.74999 8.21854 9.67737C8.39031 9.75335 8.56331 9.82871 8.73753 9.90193C8.73112 9.90865 8.72654 9.91597 8.71983 9.92238C8.59046 10.0472 8.5868 10.2528 8.71129 10.3825C8.77505 10.4487 8.86018 10.4819 8.94561 10.4819C9.03104 10.4819 9.10823 10.4517 9.17139 10.391C9.25011 10.3151 9.31388 10.2354 9.36758 10.1546C9.55095 10.2241 9.73524 10.2903 9.92044 10.3517C9.91708 10.3562 9.91525 10.3608 9.91159 10.3654C9.80205 10.5076 9.8286 10.712 9.97078 10.8215C10.03 10.867 10.0998 10.889 10.1691 10.889C10.2664 10.889 10.3628 10.8453 10.4269 10.762C10.4828 10.6897 10.5285 10.6159 10.566 10.5427C10.7699 10.5958 10.9746 10.6409 11.1796 10.6775C11.1699 10.7035 11.1619 10.7294 11.1485 10.7556C11.0676 10.9161 11.1323 11.1117 11.2928 11.1925C11.3398 11.2163 11.3895 11.2273 11.439 11.2273C11.558 11.2273 11.6727 11.162 11.7297 11.0485C11.7789 10.9512 11.8124 10.8551 11.8362 10.7614C11.9757 10.7718 12.1151 10.7791 12.2545 10.7791C12.3204 10.7791 12.3863 10.7745 12.4522 10.7721C12.4498 10.788 12.4498 10.8029 12.4461 10.8194C12.4077 10.9948 12.5191 11.1681 12.6945 11.2066C12.7177 11.2118 12.7412 11.2139 12.7641 11.2139C12.9139 11.2139 13.0481 11.1102 13.0817 10.9582C13.1012 10.8694 13.111 10.784 13.114 10.7019C13.3282 10.6641 13.5421 10.6131 13.7554 10.5424C13.7657 10.5948 13.7731 10.6501 13.7755 10.7089C13.7834 10.8838 13.9274 11.0202 14.1004 11.0202C14.1053 11.0202 14.1099 11.0202 14.1148 11.0202C14.2945 11.0122 14.4336 10.8603 14.4257 10.6809C14.4193 10.5375 14.393 10.4102 14.3598 10.2909C14.5163 10.2135 14.6725 10.1292 14.8278 10.0301C14.8406 10.0688 14.8541 10.1076 14.8632 10.1506C14.8959 10.3035 15.0307 10.4084 15.1811 10.4084C15.2037 10.4084 15.2263 10.406 15.2492 10.4014C15.4249 10.3639 15.5372 10.1912 15.5 10.0154C15.4695 9.87173 15.424 9.74358 15.3697 9.62917C15.5155 9.49858 15.6492 9.34999 15.7721 9.1892C15.7871 9.21422 15.8033 9.23679 15.817 9.26425C15.874 9.37837 15.9891 9.44457 16.1084 9.44457C16.1572 9.44457 16.2066 9.43359 16.2533 9.4104C16.4141 9.33016 16.4794 9.13489 16.3994 8.9741C16.325 8.82459 16.2359 8.6998 16.1425 8.59423C16.235 8.40964 16.3161 8.2162 16.3817 8.01452C16.3952 8.02642 16.4086 8.03527 16.4217 8.04809C16.4852 8.11002 16.5669 8.14084 16.649 8.14084C16.7311 8.14084 16.8177 8.10819 16.8815 8.0429C17.0072 7.91445 17.0048 7.7085 16.8763 7.58279C16.768 7.47692 16.6551 7.39393 16.5431 7.32833C16.5669 7.17578 16.5822 7.02139 16.5898 6.86609C16.6402 6.89447 16.6945 6.91094 16.7491 6.91094C16.8544 6.91094 16.9575 6.85999 17.02 6.76602C17.1195 6.61621 17.0789 6.41453 16.9294 6.31506C16.8062 6.23329 16.6829 6.17624 16.5642 6.13566C16.5499 6.01606 16.5312 5.89798 16.5071 5.78326C16.6112 5.77014 16.7076 5.70973 16.7579 5.60873C16.8382 5.44794 16.7729 5.25267 16.6121 5.17243C16.4965 5.11446 16.3842 5.0812 16.2789 5.06167C16.2292 4.94665 16.1746 4.83528 16.1139 4.72819C18.3015 5.97975 19.9033 8.20003 20.2572 10.8856C20.3628 11.6877 20.3479 12.478 20.2307 13.2401C20.0815 13.1306 19.9122 13.0375 19.7276 12.9619C19.7065 12.7788 19.6562 12.6531 19.6452 12.6278C19.5741 12.4655 19.3865 12.3919 19.222 12.4612C19.0954 12.5146 19.0216 12.6403 19.0249 12.7709C18.7985 12.7373 18.5611 12.7273 18.3192 12.7404C18.2103 12.5393 18.0989 12.4237 18.0891 12.4139C17.9622 12.2861 17.7566 12.2854 17.629 12.4118C17.5085 12.5311 17.5052 12.719 17.6107 12.8472C17.4225 12.8945 17.2104 12.9625 16.9822 13.0607C16.7997 12.8694 16.6332 12.7779 16.6197 12.7709C16.4629 12.6873 16.2685 12.7465 16.1831 12.9033C16.0977 13.0598 16.1557 13.2566 16.3116 13.3439C16.3149 13.3457 16.3378 13.3594 16.3698 13.3826C16.2121 13.4812 16.0513 13.5956 15.8893 13.7265C15.6736 13.5742 15.4927 13.5166 15.4786 13.5123C15.3081 13.4607 15.129 13.5562 15.0756 13.7265C15.0219 13.8964 15.1171 14.0786 15.2864 14.1338C15.2916 14.1356 15.3349 14.1515 15.395 14.1832C15.2553 14.3294 15.1165 14.4908 14.9804 14.6681C14.7753 14.578 14.6197 14.5549 14.6063 14.553C14.4266 14.5271 14.2643 14.654 14.2405 14.8319C14.2167 15.0101 14.3415 15.1736 14.5194 15.1977C14.5206 15.1977 14.552 15.2035 14.6005 15.2182C14.5007 15.3787 14.4034 15.5501 14.3088 15.7323C14.0892 15.6676 13.9281 15.6648 13.9143 15.6648H13.914C13.7358 15.6648 13.5924 15.8082 13.5903 15.9864C13.5882 16.1646 13.7319 16.3114 13.9101 16.3156C13.9155 16.3156 13.961 16.3184 14.0272 16.3312C13.9396 16.5368 13.8557 16.7544 13.7758 16.9841C13.5396 16.9414 13.3706 16.9591 13.3563 16.961C13.1793 16.9817 13.0536 17.1413 13.0728 17.3185C13.0917 17.4961 13.2513 17.6252 13.4295 17.6075C13.4353 17.6072 13.4927 17.6026 13.5784 17.6114C13.5149 17.8345 13.4545 18.0658 13.399 18.3098C13.3953 18.3254 13.3911 18.34 13.3874 18.3553C13.1644 18.344 13.0103 18.3812 12.9975 18.3843C12.8248 18.4279 12.7213 18.6021 12.7631 18.7751C12.8049 18.9484 12.9816 19.0552 13.1537 19.0156C13.1543 19.0156 13.1583 19.0146 13.1598 19.0143C13.1085 19.1217 13.0533 19.2194 12.9947 19.3094C12.9374 19.3109 12.8962 19.3167 12.8846 19.3191C12.7082 19.3527 12.5923 19.523 12.6262 19.6996C12.6286 19.7121 12.6332 19.7234 12.6368 19.7353C12.0586 20.265 11.3709 20.2894 11.1436 20.2809C7.37796 19.9016 4.21733 16.9765 3.70261 13.065L3.702 13.0647ZM13.0692 20.2528C13.0561 20.2546 13.0429 20.2552 13.0298 20.2571C13.1033 20.1936 13.1757 20.1246 13.2455 20.049C13.2925 20.0734 13.3425 20.0899 13.3935 20.0899C13.4893 20.0899 13.5845 20.0474 13.6486 19.9663C13.7523 19.8354 13.7377 19.6502 13.6217 19.5352C13.6901 19.4171 13.752 19.2859 13.8103 19.1474C13.8274 19.1577 13.8441 19.1657 13.8612 19.1776C13.918 19.2172 13.983 19.2365 14.0477 19.2365C14.1502 19.2365 14.2509 19.1883 14.3143 19.0976C14.4174 18.9506 14.3818 18.7477 14.2344 18.6445C14.1615 18.5933 14.0879 18.5509 14.0153 18.5155C14.0205 18.4938 14.0275 18.4752 14.0324 18.4532C14.0785 18.2503 14.1282 18.0581 14.1801 17.8711C14.1911 17.8802 14.202 17.887 14.213 17.897C14.2756 17.9541 14.354 17.9825 14.4327 17.9825C14.5206 17.9825 14.6084 17.9468 14.6725 17.8769C14.794 17.7445 14.7848 17.5388 14.6521 17.4174C14.5636 17.3365 14.473 17.2709 14.3827 17.2157C14.4519 17.0147 14.5245 16.8237 14.6002 16.643C14.6179 16.661 14.6365 16.6763 14.6539 16.6964C14.7183 16.7712 14.8092 16.8096 14.9007 16.8096C14.9758 16.8096 15.0512 16.7837 15.1128 16.7309C15.2489 16.6137 15.2644 16.4084 15.147 16.2723C15.0637 16.1756 14.9761 16.096 14.8873 16.0276C14.9685 15.8717 15.0518 15.725 15.1366 15.5867C15.1592 15.6148 15.1821 15.641 15.2031 15.6734C15.2657 15.7689 15.3697 15.8208 15.4756 15.8208C15.5369 15.8208 15.5985 15.8037 15.6531 15.7677C15.8036 15.6694 15.846 15.4677 15.7477 15.3173C15.6763 15.2081 15.5982 15.1156 15.5174 15.0351C15.6275 14.8935 15.7392 14.7645 15.8515 14.6464C15.8634 14.669 15.8768 14.6894 15.8878 14.7138C15.9415 14.8353 16.0605 14.9073 16.1853 14.9073C16.2292 14.9073 16.274 14.8984 16.3171 14.8792C16.4812 14.8063 16.5554 14.6144 16.4824 14.4499C16.4409 14.3565 16.3936 14.272 16.343 14.1951C16.4815 14.0859 16.6185 13.9916 16.7525 13.9099C16.7659 13.9483 16.7796 13.9864 16.7891 14.0292C16.8232 14.1802 16.9575 14.2824 17.1061 14.2824C17.1299 14.2824 17.154 14.28 17.1784 14.2745C17.3535 14.2348 17.4634 14.0603 17.4237 13.8851C17.4017 13.7887 17.3734 13.699 17.3398 13.6163C17.5363 13.5388 17.7166 13.4873 17.8725 13.4534C17.8801 13.5202 17.8844 13.5904 17.8783 13.6664C17.8643 13.8455 17.9985 14.0017 18.1776 14.0157C18.1862 14.0166 18.1947 14.0166 18.2029 14.0166C18.3711 14.0166 18.5135 13.887 18.5267 13.7164C18.5358 13.5983 18.5319 13.4879 18.52 13.3838C18.6954 13.3835 18.8611 13.3985 19.0158 13.4269C19.0142 13.4299 19.0136 13.433 19.0121 13.436C18.9349 13.5983 19.0036 13.7924 19.1659 13.8696C19.211 13.8909 19.2586 13.901 19.3056 13.901C19.427 13.901 19.5436 13.8327 19.5994 13.7158C19.6132 13.6874 19.6205 13.66 19.6318 13.6319C19.8228 13.7317 19.9741 13.8549 20.0781 13.9883C19.2711 17.2188 16.5636 19.7927 13.0676 20.2531L13.0692 20.2528Z" fill="#00DF81"/>
</svg>
