<svg width="422" height="40" viewBox="0 0 422 40" fill="none" xmlns="http://www.w3.org/2000/svg">
<g clip-path="url(#clip0_796_52051)">
<path d="M0 0.213379H49.4619V39.7868H0V0.213379Z" fill="#D20515"/>
<path d="M93.3378 28.793C93.3378 35.6568 90.1192 39.302 81.4328 39.302H61.4619V0.717402H80.7154C89.6733 0.717402 92.7755 4.26563 92.7755 10.7998C92.7755 15.7828 90.8948 18.0514 85.5821 19.3699L84.5933 19.6413L85.4852 19.8158C91.4571 21.1343 93.3378 23.364 93.3378 28.793ZM70.6524 16.8299H78.7377C81.9563 16.8299 83.3911 15.4532 83.3911 12.1183C83.3911 8.62821 82.0533 7.25158 78.7377 7.25158H70.6524V16.8299ZM83.9728 27.8429C83.9728 24.2947 82.538 22.8017 79.2612 22.8017H70.633V32.7678H79.2612C82.7125 32.7678 83.9728 31.333 83.9728 27.8429ZM99.6199 26.7378V0.717402H109.256V26.4663C109.256 30.7319 111.195 32.3413 116.392 32.3413C121.588 32.3413 123.546 30.7319 123.546 26.4663V0.717402H133.163V26.7378C133.163 35.8119 127.909 39.9612 116.392 39.9612C104.874 39.9612 99.6199 35.8119 99.6199 26.7378ZM178.321 0.717402V39.302H166.59L150.206 11.4009V39.302H141.249V0.717402H152.979L169.363 28.6185V0.717402H178.321ZM186.251 0.717402H203.469C216.983 0.717402 220.512 6.24333 220.512 19.9709C220.512 33.3107 216.634 39.2826 203.469 39.2826H186.251V0.717402ZM203.197 31.9341C208.84 31.9341 210.662 29.0063 210.662 19.9709C210.662 11.0131 208.84 8.06592 203.197 8.06592H195.888V31.9147L203.197 31.9341ZM227.531 0.717402H254.54V8.08531H237.148V16.2288H251.593V23.4804H237.148V31.9535H254.908V39.3214H227.511V0.717402H227.531ZM260.628 37.809V30.286C264.777 31.7014 269.14 32.3994 273.522 32.3994C277.943 32.3994 279.882 31.2361 279.882 28.2501C279.882 25.652 279.048 24.8764 275.5 24.159L269.082 22.8211C262.393 21.4445 260.163 18.73 260.163 12.1377C260.163 3.66457 265.146 0.0193892 275.17 0.0193892C279.707 0.0193892 283.973 0.794959 287.463 2.13282V9.65584C283.701 8.31798 279.727 7.61997 275.732 7.60058C270.963 7.60058 269.373 8.88027 269.373 11.8662C269.373 14.348 270.478 15.0848 273.58 15.7441L279.843 17.0819C287.094 18.6331 289.092 21.0761 289.092 27.9787C289.092 36.2191 283.992 40 273.6 40C269.159 40 264.797 39.2632 260.628 37.809ZM295.839 0.717402H305.475V31.9341H322.034V39.302H295.858L295.839 0.717402ZM328.045 0.717402H337.681V39.302H328.045V0.717402ZM377.545 16.985V37.9641C373.939 39.1857 369.189 39.9612 364.205 39.9612C350.808 39.9612 344.506 34.0281 344.506 19.9709C344.506 6.03005 350.808 0 364.205 0C368.975 0 373.512 0.77557 376.944 2.15221V9.61706C373.183 8.33737 368.975 7.5618 364.981 7.5618C356.896 7.5618 354.356 10.8192 354.356 19.9515C354.356 29.4716 357.012 32.6321 364.651 32.6321C366.338 32.6321 368.025 32.5158 369.693 32.3025V23.6743H362.557V16.985H377.545ZM408.995 31.2167H393.89L391.176 39.302H381.598L395.383 0.717402H407.676L421.404 39.302H411.709L408.995 31.2167ZM401.53 6.80562L395.946 24.2365H407.075L401.53 6.80562Z" fill="#191917"/>
<path d="M40.3448 21.0567C40.364 21.1536 40.2872 21.2312 40.1146 21.3475L39.9995 21.4057L40.0379 21.4832C40.057 21.522 40.0187 21.5996 39.9419 21.6383L39.7885 21.7159C39.7117 21.7547 39.635 21.7547 39.6158 21.6965L39.5774 21.6383L39.3664 21.7353L39.4048 21.8128C39.424 21.8516 39.3856 21.9292 39.3088 21.968L39.1362 22.0455C39.0594 22.0843 38.9827 22.0649 38.9635 22.0261L38.9443 21.968C38.3113 22.2588 37.6206 22.5884 36.8916 22.918L36.93 23.015C36.9492 23.0538 36.9108 23.1313 36.8341 23.1701L36.6614 23.2476C36.5847 23.2864 36.5079 23.267 36.4887 23.2283L36.4504 23.1313L36.2202 23.2476L36.2585 23.3446C36.2777 23.3834 36.2393 23.4609 36.1626 23.4997L35.99 23.5773C35.9132 23.616 35.8365 23.5967 35.8173 23.5579L35.7789 23.4609C35.4528 23.5967 35.0883 23.6548 34.8389 23.1507C34.7238 22.918 34.7238 22.3945 34.6279 22.1231C34.5895 22.0261 34.5128 21.968 34.4168 21.9486C31.2322 21.3281 30.1579 22.0261 28.1052 21.5026C27.4529 21.3475 27.1076 20.7464 26.321 20.7464C24.5944 20.6883 24.0956 20.727 22.2156 20.6495C22.1388 20.9209 22.1197 20.9791 22.1197 20.9791L15.5394 20.9209L16.537 21.4251L16.8631 24.3528C16.8631 24.3528 16.5946 24.4304 16.5178 24.4304C16.5754 25.0121 16.6329 25.807 16.6713 26.5244C16.6905 27.1643 16.7288 27.8235 16.7288 28.2501C16.7288 28.5215 16.6713 28.793 16.537 29.045C16.4027 29.2583 16.2492 29.4328 16.0382 29.5879C15.9807 29.6267 15.7313 29.8012 15.4243 29.9757C15.1174 30.1502 14.772 30.3441 14.5994 30.4217C14.6186 30.4992 14.6569 30.5768 14.6953 30.6543C10.6858 32.6127 5.7362 33.2719 4.12472 36.3742C3.93287 36.7426 3.2806 36.5487 3.26142 36.1609V35.5404H3.20387C3.14631 35.5404 3.10794 35.4629 3.12713 35.3853V35.2108C3.12713 35.1333 3.18468 35.0557 3.22305 35.0557H3.29979C3.31897 34.8812 3.35734 34.7067 3.39571 34.5322L3.33816 34.5128C3.29979 34.4934 3.2806 34.4158 3.29979 34.3383L3.35734 34.1638C3.39571 34.0862 3.45326 34.0281 3.49163 34.0475L3.54919 34.0668C3.83695 33.3882 4.3933 33.0974 4.64269 32.4575L4.60433 32.4381C4.54677 32.4188 4.54677 32.3412 4.56596 32.2636L4.62351 32.0891C4.66188 32.0116 4.71943 31.9534 4.7578 31.9728L4.79617 31.9922C4.83454 31.8952 4.87291 31.7983 4.93046 31.7014L4.87291 31.6626C4.83454 31.6432 4.83454 31.5462 4.87291 31.4881L4.96883 31.333C5.0072 31.2554 5.08393 31.236 5.1223 31.2554L5.14149 31.2748H5.16067C5.17986 31.2748 5.17986 31.2748 5.19904 31.2554L5.27578 31.1778C5.52517 30.984 5.87049 30.984 6.11989 31.1585C6.36929 31.3136 7.34769 31.8759 8.30691 31.0227C9.86084 29.6073 11.6834 27.6878 13.0646 27.6102C12.7001 26.7959 12.0479 25.109 11.9711 24.4692L11.5107 24.3722C11.2805 23.8487 10.6858 21.4444 10.5131 19.6219C10.5131 19.6219 10.3213 17.6635 10.5131 16.9849C10.398 16.9655 10.2062 17.14 10.1678 17.14C9.91839 16.5196 10.7241 11.2651 11.5491 9.73335L12.7769 9.22923C12.6426 9.20984 11.7601 9.17106 9.40042 8.97717C8.15343 10.1793 6.61868 11.4396 5.85131 12.1182C5.71702 12.2152 5.50599 12.9714 5.50599 12.9714C5.50599 12.9714 5.1223 13.3204 4.7578 13.5724C4.27819 13.902 3.10794 14.1735 2.85855 13.7663C2.80099 13.6694 2.82018 13.6306 2.85855 13.5724C3.03121 13.3785 3.72184 13.0489 3.95206 12.6223C3.58755 12.8162 3.1655 13.0101 2.83936 12.9714C2.70507 12.9714 2.62834 12.6223 2.80099 12.5448C3.29979 12.3315 3.68348 12.2346 3.97124 11.8274C4.25901 11.4202 4.58514 11.1682 5.04557 11.1488C5.04557 11.1488 7.23258 8.25977 8.51794 6.88313C8.88244 6.51473 9.53471 6.63107 9.53471 6.63107L9.64981 6.18512C9.64981 6.18512 14.0622 5.64222 16.1341 6.34023C16.0958 5.07993 16.6521 3.39307 18.6089 3.39307C19.6065 3.39307 21.0837 4.28497 21.2947 5.37077C21.3523 5.70039 21.1604 5.93306 21.0645 6.35962C20.8919 6.99946 21.1413 7.71687 21.0645 7.94954C21.007 8.12404 20.7959 8.12404 20.6233 8.3761C20.4698 8.62816 20.3355 8.88022 20.2204 9.15167L19.9518 9.77213L18.5897 9.69457C18.0909 10.7998 17.055 13.0295 16.6905 15.2593C17.7648 15.3562 22.676 16.0736 22.676 16.0736L22.7911 16.4808C22.7911 16.4808 24.863 16.7329 26.5512 17.5472C26.9349 17.6442 27.875 17.489 28.508 17.7799C28.5464 17.7605 28.6615 17.6442 28.6999 17.6248C30.9061 18.3034 32.7286 19.4861 34.8581 19.9903C34.8581 19.9903 35.8557 20.2423 36.1818 20.3005C36.7381 20.4168 37.3137 20.4944 37.8892 20.5138C38.5607 20.5719 38.9443 20.5525 39.4431 20.5913C39.7693 20.5913 40.2105 20.5332 40.3448 21.0567ZM43.5102 14.2898C42.0138 14.2898 40.786 15.5113 40.786 17.0431C40.786 18.5748 41.9947 19.7964 43.5102 19.7964C45.0066 19.7964 46.2344 18.5748 46.2344 17.0431C46.2152 15.5113 45.0066 14.2898 43.5102 14.2898Z" fill="white"/>
</g>
<defs>
<clipPath id="clip0_796_52051">
<rect width="421.404" height="40" fill="white"/>
</clipPath>
</defs>
</svg>
