<svg width="182" height="80" viewBox="0 0 182 80" fill="none" xmlns="http://www.w3.org/2000/svg">
<g clip-path="url(#clip0_796_52049)">
<path d="M90.5072 19.1428C82.4568 19.1428 75.153 22.7373 70.6978 28.052L72.111 29.7932C76.157 24.7691 83.0401 21.3146 90.5072 21.3146C97.9752 21.3146 104.858 24.7691 108.904 29.7932L110.317 28.052C105.861 22.7373 98.5581 19.1428 90.5072 19.1428ZM71.6763 20.2712C71.1468 20.701 70.5311 20.9107 69.9877 20.8463C69.2989 20.7675 68.8807 20.4859 68.1952 19.6416L64.2473 14.7985L62.1187 16.5249L66.4183 21.8035C67.332 22.9212 68.3737 23.5196 69.6014 23.6321C69.7468 23.6456 69.8904 23.653 70.0324 23.6543C71.2228 23.6645 72.3282 23.2459 73.3995 22.381C74.5927 21.4082 75.2478 20.279 75.4013 18.9286C75.5409 17.705 75.1669 16.5651 74.2557 15.4446L69.9569 10.1676L67.8282 11.894L71.7744 16.7396V16.7404C72.4624 17.5814 72.6524 18.0481 72.5888 18.7381C72.5412 19.2812 72.2087 19.8402 71.6763 20.2712ZM86.2355 5.01342L79.3397 6.41023C79.0249 6.47385 78.7757 6.63106 78.621 6.86584C78.4646 7.10022 78.4166 7.3896 78.4802 7.7036L79.8544 14.4603C80.0782 15.5591 80.5719 16.3505 81.3223 16.8126C81.8185 17.118 82.4137 17.2707 83.0996 17.2703C83.4489 17.2699 83.822 17.2297 84.2169 17.1496L88.5267 16.277L88.0083 13.7264L83.8154 14.576C82.9572 14.7492 82.6784 14.6544 82.4827 13.6931L82.3353 12.9682L87.1849 11.986L86.6723 9.4645L81.8222 10.4463L81.454 8.63741L86.7544 7.56363L86.2355 5.01342ZM99.6446 8.70021L103.777 9.76824L104.43 7.25373L100.181 6.15533C97.8517 5.55318 96.2566 6.42336 95.6902 8.60498L93.9551 15.2865C93.8751 15.5968 93.9075 15.8879 94.05 16.13C94.1924 16.3718 94.4317 16.5417 94.7424 16.6222L96.3198 17.0298L97.4379 12.7084L102.22 13.9447L102.866 11.4594L98.0824 10.2222L98.2683 9.50801C98.5142 8.56065 98.7974 8.48102 99.6446 8.70021ZM121.086 14.8026L122.545 13.0052C121.82 12.2819 121.066 11.58 120.281 10.9036C112.118 3.87191 101.544 0 90.5072 0C79.4711 0 68.8975 3.87191 60.7338 10.9036C59.9485 11.58 59.1941 12.2815 58.4696 13.0048L59.9284 14.8022C60.6652 14.0584 61.4352 13.3372 62.2393 12.644C69.9848 5.97308 80.0236 2.29942 90.5072 2.29942C100.991 2.29942 111.03 5.97308 118.775 12.644C119.58 13.3372 120.349 14.0584 121.086 14.8026ZM109.95 23.7228L110.423 22.0937L108.387 20.5758L110.027 19.4039L110.976 20.1156L112.055 16.4876L105.797 20.5249L103.232 19.0768L113.047 12.7388C113.426 12.4941 113.943 12.2786 114.598 12.7815L115.018 13.1041C115.679 13.6122 115.585 14.1943 115.455 14.5879L112.197 25.7755L109.95 23.7228ZM63.7605 76.7056H56.5224V71.159H60.836L62.6018 72.6617H62.6609V66.9993H62.6018L60.836 68.5021H56.5224V63.677H63.5003L65.5272 65.8443H65.5846L65.3531 61.0476H50.4705V61.1063L51.8328 62.7527V77.6595L50.4705 79.3055V79.3634H65.9902L66.3666 73.8459H66.3079L63.7605 76.7056ZM66.495 39.8393L71.6205 52.8974H74.4868L79.2355 39.6956L80.0453 51.1919L78.2499 52.8383V52.8974H86.0381V52.8383L84.5337 51.1919L83.4321 36.2851L84.6199 34.6387V34.5817H78.135L73.7336 46.8004L68.9849 34.5817H62.413V34.6387L63.7453 36.2851L62.9626 51.1919L61.3716 52.8383V52.8974H67.7687V52.8383L66.1774 51.1919L66.495 39.8393ZM44.944 76.6765H38.6618V62.7527L40.3708 61.1063V61.0476H32.6102V61.1063L33.9723 62.7527V77.6595L32.6102 79.2764V79.3634H47.1734L47.8692 73.6156H47.8101L44.9438 76.6765H44.944ZM30.9184 52.8383V52.8974H38.3023V52.8383L36.9401 51.1919V36.2851L38.3023 34.6387V34.5817H30.9184V34.6387L32.2506 36.2851V41.8321H25.6787V36.2851L27.0109 34.6387V34.5817H19.6274V34.6387L20.9886 36.2851V51.1919L19.6274 52.8383V52.8974H27.0109V52.8383L25.6787 51.1919V44.7501H32.2506V51.1919L30.9184 52.8383ZM146.234 76.7056H138.996V71.159H143.309L145.075 72.6617H145.134V66.9993H145.075L143.309 68.5021H138.996V63.677H145.974L148 65.8443H148.058L147.827 61.0476H132.944V61.1063L134.306 62.7527V77.6595L132.944 79.3055V79.3634H148.464L148.84 73.8459H148.781L146.234 76.7056ZM79.7884 72.0542L77.6178 64.7759L75.0692 72.0542H79.7884ZM86.2737 77.6595L87.7793 79.3055V79.3634H79.9341V79.3055L81.4397 77.6595L80.6003 74.7998H74.1149L73.1294 77.6595L74.5484 79.3055V79.3634H68.4107V79.3055L69.8588 77.6595L75.5043 62.7527L74.4326 61.1063V61.0476H80.6573L86.2737 77.6595ZM11.0601 50.4703C7.29544 50.4703 4.89249 46.6563 4.89249 43.3623C4.89249 39.3184 7.09262 36.6902 10.2486 36.6902C11.0881 36.6902 11.8997 36.7768 12.6237 36.9775L15.4605 40.4743H15.5189L15.3161 34.6962C14.5046 34.3789 12.7396 33.9446 10.5674 33.9446C3.85139 33.9446 0 38.5098 0 43.7675C0 48.968 3.70571 53.5312 10.0753 53.5312C11.7837 53.5312 14.3026 52.9545 16.0397 51.6545L16.3001 48.6212H16.2426C14.7665 49.7762 12.6513 50.4703 11.0601 50.4703ZM116.488 52.8383L115.156 51.1919V36.2851L116.488 34.6387V34.5817H109.105V34.6387L110.466 36.2851V51.1919L109.105 52.8383V52.8974H116.488V52.8383ZM100.292 70.7834L102.115 72.4314V75.8691C101.536 76.5328 100.523 77.0812 99.1627 77.0812C95.9196 77.0812 94.2113 73.1239 94.2113 69.8016C94.2113 66.1903 96.0362 63.1574 99.7993 63.1574C100.842 63.1574 101.942 63.2444 102.839 63.5609L105.735 66.6804H105.792L105.618 61.6547C103.939 60.7878 101.912 60.4138 99.8568 60.4138C93.6904 60.4138 89.3181 64.1979 89.3181 70.4374C89.3181 75.6651 92.677 80 97.9169 80C100.205 80 102.289 79.4791 104.229 78.0647L106.515 80H106.574V72.4314L108.021 70.7834V70.726H100.292V70.7834ZM95.4997 43.9994C96.0793 44.1726 96.7442 44.2588 97.4396 44.2588C99.9882 44.2588 101.088 42.8722 101.088 40.8207C101.088 38.3936 99.6692 37.239 97.0336 37.239H95.4997V43.9994ZM90.8102 51.1919V36.2851L89.4482 34.6387V34.5817H98.1349C103.404 34.5817 105.807 36.9775 105.807 40.62C105.807 44.4037 102.941 46.7433 99.0326 46.7433C97.7589 46.7433 96.4557 46.6563 95.4997 46.426V51.1919L97.4104 52.8383V52.8974H89.4482V52.8383L90.8102 51.1919ZM134.553 45.0674C134.553 41.8904 133.367 36.8343 129.312 36.8343C126.07 36.8343 125.143 40.0696 125.143 42.2647C125.143 45.4721 126.475 50.6431 130.385 50.6431C133.192 50.6431 134.553 47.9846 134.553 45.0674ZM129.689 53.5312C123.956 53.5312 120.251 48.8223 120.251 43.4797C120.251 37.961 124.506 33.9446 129.834 33.9446C135.711 33.9446 139.475 38.5389 139.475 43.7966C139.475 49.8054 134.93 53.5312 129.689 53.5312ZM123.566 61.1063L125.072 62.7527V73.1826C125.072 76.1864 123.596 76.9375 121.192 76.9375C118.76 76.9375 117.284 76.2434 117.284 73.1826V62.7527L118.789 61.1063V61.0476H111.232V61.1063L112.594 62.7527V73.1826C112.594 78.1788 115.141 80 120.584 80C125.535 80 128.054 78.2949 128.054 73.3262V62.7527L129.385 61.1063V61.0476H123.566V61.1063ZM158.534 63.3569C158.534 62.0549 157.544 61.0706 156.296 61.0706C155.034 61.0706 154.046 62.0549 154.046 63.3569C154.046 64.6856 155.034 65.6633 156.296 65.6633C157.544 65.6633 158.534 64.6856 158.534 63.3569ZM159.089 63.3569C159.089 64.9552 157.799 66.121 156.296 66.121C154.779 66.121 153.491 64.9552 153.491 63.3569C153.491 61.7778 154.779 60.6105 156.296 60.6105C157.799 60.6105 159.089 61.7778 159.089 63.3569ZM156.292 63.1664C156.699 63.1664 157.065 63.1443 157.065 62.6538C157.065 62.2585 156.707 62.1871 156.368 62.1871H155.71V63.1664H156.292ZM156.744 63.5551L157.643 64.9548H157.107L156.27 63.5777H155.71V64.9548H155.231V61.7778H156.443C157.196 61.7778 157.567 62.0549 157.567 62.6804C157.567 63.2493 157.209 63.4948 156.744 63.5551ZM155.54 34.6387L157.307 36.2851V45.9918L149.865 34.5817H143.177V34.6387L144.539 36.2851V51.1919L143.177 52.8383V52.8974H149.286V52.8383L147.492 51.1919V39.0582L156.785 52.8974H160.26V36.2851L161.62 34.6387V34.5817H155.54V34.6387ZM174.21 41.6306C170.88 40.7062 169.867 40.3015 169.867 38.7709C169.867 37.0087 172.155 36.6611 173.603 36.6611C174.819 36.6611 175.948 36.8047 176.961 37.1233L179.741 40.1283H179.798L179.567 34.956C177.829 34.2927 176.005 33.9446 173.921 33.9446C169.549 33.9446 165.351 35.4473 165.351 39.7818C165.351 42.5833 167.291 44.2588 171.489 45.4151C174.732 46.3103 176.325 46.8874 176.325 48.5346C176.325 50.4408 173.892 50.8447 172.27 50.8447C170.91 50.8447 169.694 50.6431 168.651 50.325L165.844 46.8587H165.785L165.988 52.347C167.9 53.2139 170.215 53.5312 172.386 53.5312C177.076 53.5312 181.014 51.5679 181.014 47.6102C181.014 43.8832 178.438 42.8148 174.21 41.6306ZM47.0973 45.5879H51.8164L49.6459 38.3074L47.0973 45.5879ZM46.5768 52.8974H40.4387V52.8383L41.8874 51.1919L47.533 36.2851L46.4612 34.6387V34.5817H52.6855L58.3023 51.1919L59.8079 52.8383V52.8974H51.9623V52.8383L53.4683 51.1919L52.6285 48.3322H46.1431L45.158 51.1919L46.577 52.8383V52.8974H46.5768Z" fill="#00004B"/>
</g>
<defs>
<clipPath id="clip0_796_52049">
<rect width="181.014" height="80" fill="white"/>
</clipPath>
</defs>
</svg>
