<svg width="151" height="41" viewBox="0 0 151 41" fill="none" xmlns="http://www.w3.org/2000/svg">
<g clip-path="url(#clip0_796_52043)">
<path d="M52.15 22.9825C52.4968 23.376 59.2869 30.9799 59.2869 30.9799H53.2439C53.2439 30.9799 48.4081 25.7172 47.5077 24.7301V30.9799H43.539C42.7053 30.9799 42.1517 30.3795 42.1517 29.5925V17.3397C42.1517 16.4526 41.4246 15.6855 40.9444 15.2853C40.791 15.1519 40.7376 14.9785 40.9444 14.9785H47.5077V21.2416C48.4081 20.2545 53.2439 14.9785 53.2439 14.9785H59.2869C59.2869 14.9785 52.5035 22.589 52.15 22.9825Z" fill="#001C48"/>
<path d="M106.657 22.9892C106.657 28.5453 110.593 31.4534 114.481 31.4534C116.829 31.4534 119.344 30.7264 121.038 29.5458L121.171 29.4591V22.2288H116.022V25.1769H117.963V27.1712C117.089 27.7382 116.029 28.0584 114.888 28.0584C112.534 28.0584 110.166 26.3308 110.166 23.0292C110.166 19.941 111.927 17.8599 114.568 17.8599C116.896 17.8599 118.817 19.0272 119.537 19.5341L119.79 19.7142L121.205 16.4659L120.964 16.3258C120.838 16.2525 117.789 14.5649 114.768 14.5649C110.739 14.5649 106.657 17.4597 106.657 22.9958" fill="#001C48"/>
<path d="M68.9118 27.7851V14.9854H64.096C63.8959 14.9854 63.9426 15.1521 64.096 15.2855C64.5696 15.6857 65.3033 16.4594 65.3033 17.3399V29.8928C65.3033 30.5665 65.6635 30.9733 66.3905 30.9733H76.4422V27.7717H68.9184L68.9118 27.7851Z" fill="#001C48"/>
<path d="M81.9653 27.7851V24.6435H88.0483V21.1484H81.9653V18.1936H88.8087V14.9854H77.1562C76.9561 14.9854 77.0095 15.1521 77.1562 15.2855C77.6298 15.6857 78.3568 16.4594 78.3568 17.3399V29.8928C78.3568 30.6599 78.6636 30.9733 79.444 30.9733H89.2623V27.7717H81.972L81.9653 27.7851Z" fill="#001C48"/>
<path d="M133.497 14.9854V23.9965C133.497 26.4711 133.044 28.0185 130.389 28.0185C127.735 28.0185 126.947 26.7312 126.947 24.0766V14.9854H122.165C121.958 14.9854 122.012 15.1521 122.165 15.2855C122.639 15.6857 123.366 16.4594 123.366 17.3399V24.6102C123.366 29.1858 125.4 31.4936 130.363 31.4936C135.325 31.4936 137.066 29.3592 137.066 24.6102V14.9854H133.491H133.497Z" fill="#001C48"/>
<path d="M96.7856 24.3499C97.0057 23.6495 98.5331 18.8671 98.6532 18.5203H99.1734C99.2935 18.8738 100.821 23.6495 101.048 24.3499H96.7856ZM101.415 14.9852H95.2048C95.0047 14.9852 95.0647 15.1519 95.2048 15.2853C95.6784 15.6855 95.8384 16.5927 95.545 17.4731L90.8359 30.9799H94.6645C94.6645 30.9799 95.605 28.0517 95.7184 27.6915H102.102C102.222 28.0517 103.155 30.9799 103.155 30.9799H106.997L101.408 14.9785L101.415 14.9852Z" fill="#001C48"/>
<path d="M143.349 27.7851V24.6435H149.439V21.1484H143.349V18.1936H150.193V14.9854H138.534C138.333 14.9854 138.38 15.1521 138.534 15.2855C139.007 15.6857 139.734 16.4594 139.734 17.3399V29.8928C139.734 30.6599 140.041 30.9733 140.821 30.9733H150.64V27.7717H143.349V27.7851Z" fill="#001C48"/>
<path d="M19.427 1.32506L19.3069 8.58869C19.3069 8.58869 19.3069 8.61537 19.2869 8.62871C17.1259 10.2495 11.1495 14.8852 6.47386 25.4571C6.46052 25.4971 6.40716 25.5105 6.37381 25.4838C5.59342 24.9369 1.0178 21.8286 0.577576 21.4351C0.424166 21.3017 0.444176 21.2017 0.624266 21.0282C4.23941 17.6265 9.85555 14.5783 10.1557 14.4249C10.1624 14.4249 10.169 14.4116 10.1757 14.4049C10.3558 14.0381 14.4979 5.6072 18.9601 1.15164C19.2269 0.884837 19.4137 0.938197 19.4137 1.32506" fill="#EE2529"/>
<path d="M38.7169 6.67412C37.2029 7.61459 26.8777 13.8644 21.9019 21.1547C21.8885 21.1814 21.8819 21.2081 21.8885 21.2414C24.4632 28.9653 31.5734 37.3761 33.9946 39.864C34.248 40.1242 34.4882 40.3576 34.7016 40.5711C34.775 40.6444 34.8017 40.7645 34.7616 40.8579C34.7083 40.9646 34.5949 41.0046 34.4748 40.9846C34.0946 40.9179 33.6011 40.7712 33.2075 40.6578C23.3026 37.803 15.9789 32.407 13.1375 30.0125C13.1241 29.9991 13.0975 29.9991 13.0841 30.0125C9.74246 32.7071 6.73429 37.6029 6.03394 38.8969C5.97391 39.0103 5.80049 38.9769 5.78715 38.8502C4.80666 31.053 8.32175 22.2019 15.0051 15.7053C21.3283 9.55556 29.8725 6.22056 38.6502 6.38731C38.817 6.38731 38.8704 6.59408 38.7236 6.68746" fill="#001C48"/>
</g>
<defs>
<clipPath id="clip0_796_52043">
<rect width="150.162" height="40" fill="white" transform="translate(0.484375 0.985352)"/>
</clipPath>
</defs>
</svg>
