<svg width="116" height="40" viewBox="0 0 116 40" fill="none" xmlns="http://www.w3.org/2000/svg">
<g clip-path="url(#clip0_796_52042)">
<path d="M94.5812 24.6019C95.3507 21.9192 96.1201 19.3197 96.8688 16.7202C97.3887 14.9317 97.867 13.1224 98.3869 11.3131C98.4493 11.0636 98.5325 10.7932 98.6157 10.4397H93.8533C94.4772 8.69282 95.0387 7.04992 95.6418 5.42781C95.6834 5.32383 95.8914 5.26144 96.0162 5.21985C98.7821 4.45039 101.548 3.68093 104.314 2.93227C107.87 1.97564 111.426 1.03981 114.962 0.103981C115.211 0.0415924 115.481 0.0415924 115.731 0C113.797 7.1331 111.884 14.183 109.95 21.2329C109.139 24.2276 108.307 27.2223 107.433 30.1961C107.371 30.4457 106.997 30.7368 106.768 30.7576C105.208 30.7992 103.669 30.7784 102.068 30.7784C104.231 22.8758 106.393 15.0565 108.577 7.11231C107.288 7.46584 106.102 7.77779 104.917 8.13132C104.709 8.19371 104.439 8.42247 104.376 8.63043C102.484 15.3476 100.612 22.0648 98.7197 28.782C98.179 30.7368 97.5759 32.6917 96.9728 34.7297H108.203C107.87 35.9151 107.412 36.9549 107.288 38.0571C107.121 39.4088 106.456 39.5752 105.25 39.5752C100.342 39.5128 95.4131 39.5544 90.3596 39.5544C91.7737 34.5425 93.1671 29.6346 94.5604 24.6227L94.5812 24.6019ZM51.6994 39.6168C49.599 39.0553 48.7255 37.454 48.2472 35.6655C47.9145 34.4801 47.8105 33.1908 47.8105 31.943C47.7689 23.5205 47.8105 15.0981 47.8105 6.67559V5.4902H53.6335V32.2757C53.6335 34.1058 54.2989 34.7297 56.1498 34.7713C57.6679 34.8129 59.1237 34.6049 60.4962 33.8147V5.511H66.2568V39.4712H60.5586V35.0832C60.4754 35.0624 60.413 35.0208 60.3298 35C59.7683 36.1022 59.0821 37.1628 58.6661 38.3066C58.271 39.388 57.4808 39.9079 56.5033 39.9079C54.9436 39.9287 53.3631 39.7624 51.741 39.596L51.6994 39.6168ZM43.0066 8.56804C44.1088 10.1901 43.8176 11.9786 43.8176 13.6839C43.8176 13.8919 43.5681 14.183 43.3601 14.3078C41.7796 15.1812 40.1991 16.0131 38.4522 16.9489C38.4522 15.6803 38.473 14.5158 38.4522 13.372C38.4522 12.7689 38.369 12.145 38.2027 11.5627C37.8907 10.4189 37.246 9.98219 36.0399 9.98219C35.5615 9.98219 35.0624 10.0238 34.5841 9.98219C32.6501 9.73263 31.6934 11.0844 31.6103 12.7897C31.4023 17.3233 31.2151 21.8568 31.2151 26.4112C31.2151 28.6156 31.5687 30.7992 31.8182 33.0036C31.9222 33.981 32.5045 34.6881 33.4611 34.8129C34.6049 34.9584 35.8111 35.0832 36.9341 34.8753C38.265 34.6465 38.6602 33.4403 38.8889 32.2341C38.9721 31.7974 39.0761 31.3607 39.0761 30.9448C39.0969 28.9899 39.0761 27.0351 39.0761 25.0179H33.981C34.4385 23.5205 34.8337 22.1272 35.312 20.7546C35.3744 20.5883 35.7695 20.4427 36.0191 20.4427C38.8681 20.4219 41.6964 20.4427 44.6703 20.4427C44.6703 22.252 44.6911 24.0196 44.6703 25.8081C44.6495 27.2223 44.6079 28.6156 44.4623 30.0089C44.2544 32.1094 44.2128 34.2722 43.1522 36.1854C41.8004 38.6394 39.6376 39.8664 36.8925 39.9495C35.1456 40.0119 33.3363 40.0951 31.6726 39.6584C28.5116 38.8473 26.7855 36.4766 26.1824 33.3363C25.101 27.7214 25.5586 22.0232 25.6209 16.3458C25.6209 14.1414 26.2032 11.8746 26.8479 9.73263C27.659 7.02912 30.2377 5.44861 33.0036 5.01189C34.8961 4.72074 36.7261 4.80393 38.5562 5.24065C40.511 5.69816 42.1123 6.63399 43.0274 8.58884L43.0066 8.56804ZM75.9478 24.2276C75.8854 27.6798 75.8854 31.0696 75.8854 34.5217H85.0981C84.6198 36.2478 84.1623 37.8699 83.7048 39.492H70.1249V5.4902C70.3328 5.4902 70.5824 5.42781 70.8527 5.42781C74.6584 5.42781 78.4641 5.46941 82.2907 5.40702C83.1017 5.40702 83.372 5.73976 83.5592 6.38444C83.9128 7.6946 84.2663 9.02556 84.6198 10.4189H75.9478V19.1533H82.8106C82.3322 20.8794 81.8955 22.4807 81.4172 24.1652C79.6495 24.1652 77.8403 24.1652 75.9686 24.2276H75.9478ZM5.57339 29.3435V34.5009H14.183C13.9127 35.6031 13.6839 36.5806 13.4344 37.558C12.9145 39.5336 12.8937 39.5336 10.8348 39.5336H0V5.4902H5.57339V29.3435ZM16.3874 11.8746V5.4902H21.94V39.4712H16.3874V11.8746Z" fill="#252525"/>
</g>
<defs>
<clipPath id="clip0_796_52042">
<rect width="115.731" height="40" fill="white"/>
</clipPath>
</defs>
</svg>
