<svg width="211" height="40" viewBox="0 0 211 40" fill="none" xmlns="http://www.w3.org/2000/svg">
<g clip-path="url(#clip0_796_52048)">
<path d="M3.51537 12.5265H5.65865C8.09284 12.6771 8.88218 14.0565 8.90835 15.5078C8.89449 17.8724 7.25671 18.654 5.2923 18.6381H3.51537V12.5265ZM3.51537 22.1478H5.01185C9.93534 22.1826 12.5616 19.897 12.5638 15.3929C12.5644 13.3732 11.6067 11.2919 10.2457 10.3447C8.89295 9.38834 7.87242 8.99786 4.74125 8.95621H0V28.6226H3.51537V22.1478Z" fill="#360D3A" stroke="#360D3A" stroke-opacity="0.133333" stroke-width="0.211299"/>
<path d="M17.0469 21.7577C17.1968 19.5866 18.9648 18.4262 21.1026 19.051V15.7346C19.0498 15.3125 17.9083 15.9789 17.0257 17.699L16.6458 15.7411H13.7861V28.6226H17.0469V21.7577Z" fill="#360D3A" stroke="#360D3A" stroke-opacity="0.133333" stroke-width="0.211299"/>
<path d="M27.7552 18.3698C29.3446 18.3418 30.4434 19.6203 30.7081 20.8682H24.7949C24.9725 19.5968 26.142 18.3984 27.7552 18.3698ZM28.1696 28.9937C30.983 28.7851 32.4441 27.3319 33.2116 26.5607L31.2656 24.4098C30.5856 25.1286 29.8341 25.9053 27.891 25.9749C26.1621 25.9802 24.8035 24.62 24.8013 23.2615H33.8313C33.9966 22.0445 33.8849 20.4569 33.352 19.1439C32.4229 16.8469 30.2045 15.3868 27.9051 15.3712C24.3091 15.423 21.5005 18.2084 21.3965 22.3116C21.4337 26.0137 23.9686 28.9452 28.1696 28.9937Z" fill="#360D3A" stroke="#360D3A" stroke-opacity="0.133333" stroke-width="0.211299"/>
<path d="M38.5848 20.609C38.6747 19.3761 39.553 18.7588 40.5658 18.668C41.4183 18.5915 42.4443 19.2501 42.6358 20.4531V28.6108H45.8372V21.0525C45.9061 19.6191 46.7721 18.7276 47.8804 18.6433C48.7532 18.5769 49.8685 19.3022 49.9569 20.9809V28.6108H53.2041V20.4935C53.2755 17.8607 51.8292 15.4941 49.0345 15.348C47.1231 15.428 46.2318 15.9327 45.2221 17.4383C44.4312 16.357 43.5849 15.3314 41.6528 15.348C40.2761 15.36 39.42 16.0011 38.5977 17.3417L38.2726 15.7001H35.3145V28.6108H38.5848V20.609Z" fill="#360D3A" stroke="#360D3A" stroke-opacity="0.133333" stroke-width="0.211299"/>
<path d="M58.3317 15.7363H54.9658V28.6112H58.3317V15.7363Z" fill="#360D3A" stroke="#360D3A" stroke-opacity="0.133333" stroke-width="0.211299"/>
<path d="M56.7136 13.9683C57.2924 13.9683 57.7846 13.7542 58.1895 13.3259C58.6044 12.8876 58.8113 12.3624 58.8113 11.751C58.8113 11.1393 58.6044 10.6193 58.1895 10.1914C57.7846 9.75274 57.2924 9.53375 56.7136 9.53375C56.1352 9.53375 55.6383 9.75274 55.2236 10.1914C54.8188 10.6193 54.6162 11.1393 54.6162 11.751C54.6162 12.3624 54.8188 12.8876 55.2236 13.3259C55.6383 13.7542 56.1352 13.9683 56.7136 13.9683Z" fill="#360D3A" stroke="#360D3A" stroke-opacity="0.133333" stroke-width="0.211299"/>
<path d="M76.9297 21.7577C77.08 19.5866 78.8476 18.4262 80.9854 19.051V15.7346C78.9326 15.3125 77.7911 15.9789 76.9088 17.699L76.5289 15.7411H73.6689V28.6226H76.9297V21.7577Z" fill="#360D3A" stroke="#360D3A" stroke-opacity="0.133333" stroke-width="0.211299"/>
<path d="M66.056 18.3698C67.6454 18.3418 68.7441 19.6203 69.0089 20.8682H63.0957C63.2733 19.5968 64.4428 18.3984 66.056 18.3698ZM66.4703 28.9937C69.2838 28.7851 70.7449 27.3319 71.5121 26.5607L69.5661 24.4098C68.8864 25.1286 68.1346 25.9053 66.1917 25.9749C64.4628 25.9802 63.104 24.62 63.1021 23.2615H72.1321C72.2971 22.0445 72.1856 20.4569 71.6524 19.1439C70.7236 16.8469 68.5053 15.3868 66.2056 15.3712C62.6099 15.423 59.8013 18.2084 59.6973 22.3116C59.7345 26.0137 62.2694 28.9452 66.4703 28.9937Z" fill="#360D3A" stroke="#360D3A" stroke-opacity="0.133333" stroke-width="0.211299"/>
<path d="M132.831 9.27664H129.117V28.23H140.686V24.7217H132.831V9.27664Z" fill="#360D3A" stroke="#360D3A" stroke-opacity="0.133333" stroke-width="0.211299"/>
<path d="M162.242 25.3031C161.439 25.3445 160.625 25.061 159.935 24.509C159.165 23.8368 158.852 22.8548 158.854 21.8658C158.968 19.783 160.236 18.5913 162.123 18.4619C164.12 18.5817 165.285 20.0421 165.261 22.0058C165.241 23.7312 164.041 25.1743 162.242 25.3031ZM165.231 17.09C164.181 15.7009 162.979 15.284 161.57 15.2734C160.098 15.2622 158.584 15.8418 157.496 16.8299C156.105 18.1912 155.307 19.9201 155.307 21.6686C155.307 23.4361 155.793 24.9373 156.764 26.1727C157.916 27.6813 159.489 28.506 161.029 28.5747C162.726 28.6502 164.1 28.1078 165.265 26.6531L165.635 28.2298H168.601V15.451H165.566L165.231 17.09Z" fill="#360D3A" stroke="#360D3A" stroke-opacity="0.133333" stroke-width="0.211299"/>
<path d="M193.419 21.72C193.415 22.6994 193.321 23.981 192.486 24.6544C192.076 25.0047 191.52 25.3056 190.55 25.2738C189.936 25.2536 189.229 24.9502 188.682 24.2588C188.143 23.5362 188.223 22.4801 188.223 21.6342V15.4754H184.74V22.5896C184.74 24.5735 185.519 26.0458 186.405 26.8978C187.465 27.9173 188.657 28.4774 190.542 28.5657C192.43 28.6546 193.942 28.0811 195.051 27.0644C196.19 25.8859 196.832 24.5301 196.832 22.8889V15.4754H193.419V21.72Z" fill="#360D3A" stroke="#360D3A" stroke-opacity="0.133333" stroke-width="0.211299"/>
<path d="M176.793 25.3034C175.99 25.3448 175.175 25.0613 174.485 24.5093C173.716 23.8372 173.402 22.8552 173.405 21.8661C173.519 19.7833 174.786 18.5916 176.674 18.4622C178.671 18.582 179.836 20.0424 179.811 22.0061C179.792 23.7315 178.592 25.1746 176.793 25.3034ZM183.152 15.4513H180.116L179.782 17.0904C178.732 15.7012 177.53 15.2844 176.12 15.2738C174.649 15.2625 173.134 15.8422 172.046 16.8302C170.656 18.1915 169.857 19.9204 169.857 21.6689C169.857 23.4364 170.343 24.9376 171.314 26.173C172.669 27.8939 174.725 28.9912 177.691 28.3839C178.359 28.1848 178.978 27.8043 179.63 27.1081C180.182 30.6585 177.593 31.5945 175.201 31.1873C174.448 31.0595 173.502 30.6424 172.287 29.5259L170.4 32.2692C172.021 33.7172 174.072 34.5607 176.061 34.5787C179.28 34.6083 183.281 32.8752 183.152 27.2443V15.4513Z" fill="#360D3A" stroke="#360D3A" stroke-opacity="0.133333" stroke-width="0.211299"/>
<path d="M201.511 20.5706C201.69 19.3163 202.866 18.1333 204.49 18.105C206.089 18.0771 207.195 19.3391 207.461 20.5706H201.511ZM210.12 18.8686C209.186 16.6021 206.954 15.1609 204.64 15.1455C201.022 15.1969 198.196 17.9457 198.092 21.9951C198.129 25.6485 200.68 28.5415 204.906 28.5894C207.738 28.3832 209.208 26.9494 209.979 26.1883L208.022 24.0657C207.338 24.7747 206.581 25.5416 204.626 25.6103C202.887 25.6154 201.519 24.2731 201.518 22.9321H210.603C210.769 21.7311 210.657 20.1644 210.12 18.8686Z" fill="#360D3A" stroke="#360D3A" stroke-opacity="0.133333" stroke-width="0.211299"/>
<path d="M144.889 20.5706C145.068 19.3163 146.244 18.1333 147.868 18.105C149.467 18.0771 150.572 19.3391 150.839 20.5706H144.889ZM148.018 15.1455C144.4 15.1969 141.574 17.9457 141.47 21.9951C141.507 25.6485 144.058 28.5415 148.284 28.5894C151.115 28.3832 152.585 26.9494 153.357 26.1883L151.399 24.0657C150.716 24.7747 149.959 25.5416 148.004 25.6103C146.265 25.6154 144.898 24.2731 144.895 22.9321H153.981C154.147 21.7311 154.035 20.1644 153.498 18.8686C152.564 16.6021 150.332 15.1609 148.018 15.1455Z" fill="#360D3A" stroke="#360D3A" stroke-opacity="0.133333" stroke-width="0.211299"/>
<path d="M96.1777 3.29602C97.9418 4.13163 99.1023 5.15294 99.288 5.2922C99.1952 4.82798 98.8702 2.6461 98.6381 1.29984C99.6594 1.99618 102.073 3.66741 102.863 4.22448C103.141 3.2496 104.302 0 104.302 0C104.302 0 106.298 3.2496 106.623 3.76025C107.041 3.34245 109.455 0.64992 110.058 0C110.197 1.53195 110.29 3.76025 110.337 4.03879C110.476 3.89952 111.404 2.59968 112.936 1.39269C112.24 2.69253 111.961 4.50302 111.776 5.98855C110.244 5.57074 108.665 5.33863 107.041 5.33863C103.884 5.33863 100.913 6.17424 98.3131 7.65977C97.8489 6.22066 97.1526 4.45659 96.1777 3.29602ZM120.41 31.0569L119.018 29.5249C118.646 33.703 116.557 37.2311 112.797 39.738L112.24 37.4632C109.037 39.7844 103.605 41.2235 98.8702 38.5774C99.4737 35.6063 99.9379 32.5888 98.8702 28.9679C96.2705 33.0066 93.9494 34.585 93.9494 34.585C92.1853 31.614 92.3246 25.7183 92.8817 23.9542L89.957 24.8362C89.957 22.84 91.3961 18.6156 93.4852 16.248L91.7211 15.9695C92.9745 13.4162 94.785 11.2808 97.1061 9.60953C96.4098 10.7237 96.4098 13.3698 98.406 14.3911C97.5704 12.9056 97.4775 11.0951 98.3131 10.1202C99.1952 9.1453 100.681 9.51668 101.609 10.2594C101.331 9.42384 100.495 8.40254 99.288 8.30969C101.609 7.1027 104.348 6.45278 107.133 6.45278C107.691 6.45278 108.201 6.4992 108.665 6.54562C109.501 6.87058 110.662 8.03115 111.265 8.77392C111.265 8.77392 111.312 7.93831 110.847 6.917C113.911 7.65977 115.35 8.91319 115.954 9.51668C116.093 10.8165 116.464 11.6057 117.022 12.8591C116.047 11.7914 113.54 9.98091 112.333 9.56311C112.333 9.56311 112.194 10.6773 111.822 11.2343C109.455 9.51668 108.294 9.09888 108.294 9.09888C105.648 9.37742 104.023 10.3987 103.095 11.1879L103.884 11.8378C102.352 12.3021 101.284 13.6947 101.284 13.6947C101.284 13.7412 102.677 13.9269 102.677 13.9269C102.677 13.9269 102.538 15.5517 104.58 16.573C106.344 17.4086 108.805 16.3873 111.172 17.3157C109.64 15.5517 108.573 14.716 108.573 14.716C108.573 14.716 107.969 14.5768 107.505 14.5768C106.948 14.5768 106.159 14.716 105.277 14.3447C104.859 14.2054 104.348 13.8804 103.977 13.6483C103.977 13.6483 105.044 12.5342 106.669 12.3021C106.669 12.3021 108.108 12.6734 109.269 13.5555C110.012 12.8127 110.801 12.8591 110.801 12.8591C110.801 12.8591 110.012 13.6019 110.244 14.4839C111.358 15.5052 112.611 16.9443 112.611 16.9443C113.865 16.248 116.604 16.3873 117.161 17.0836C116.464 16.1552 115.397 15.4124 114.608 14.7625C114.515 14.3911 113.633 13.2305 113.54 13.0912C113.54 13.0912 114.375 13.3698 115.072 13.9733C115.257 13.6483 115.675 13.3698 116.186 13.2305C116.743 13.6947 116.836 14.3911 116.789 14.5304C116.557 14.8553 116.279 14.9482 116.279 14.9482L117.579 16.3873L117.718 15.3195C120.875 19.5904 122.546 24.6505 120.41 31.0569ZM114.608 21.633V19.4048C114.608 19.4048 113.586 19.0798 112.519 18.2442C110.337 18.5691 107.737 20.751 107.737 20.751C107.737 20.751 108.619 22.4222 109.594 24.2791C111.312 24.4184 113.865 22.283 114.608 21.633ZM116.789 25.7183C116.789 25.7183 116.65 24.7898 115.861 23.9542L114.19 24.0006C114.19 24.0006 111.869 25.9504 110.522 25.9968C110.522 25.9968 111.312 27.4359 111.683 28.1787C112.472 28.0394 113.772 27.3895 114.329 26.786C114.329 26.786 114.7 27.9466 114.608 29.3392C115.397 28.7822 116.464 27.5752 116.789 25.7183ZM117.486 18.2442C116.65 18.9405 115.954 19.3583 115.954 19.3583V21.5866C116.557 22.2365 117.161 22.84 117.625 23.8149C118.461 22.3758 118.275 20.1475 117.486 18.2442Z" fill="#360D3A"/>
</g>
<defs>
<clipPath id="clip0_796_52048">
<rect width="210.674" height="40" fill="white"/>
</clipPath>
</defs>
</svg>
