<svg width="130" height="32" viewBox="0 0 130 32" fill="none" xmlns="http://www.w3.org/2000/svg">
<path fill-rule="evenodd" clip-rule="evenodd" d="M0.168762 32L0 10.5661L18.0712 0L18.24 21.4339L0.168762 32ZM0.755392 30.9514L0.597729 10.9223L17.4846 1.04858L17.6423 21.0777L0.755392 30.9514ZM0.99152 24.5758L2.08152 22.6275L7.07745 25.6041L5.98745 27.5525L17.1542 21.0233C15.4433 20.0039 13.7219 18.984 12.0157 17.9674C10.8201 19.9254 8.6149 20.7376 7.00571 19.7788C5.39652 18.82 4.97566 16.4431 6.02093 14.3956C4.31464 13.379 2.59799 12.3504 0.887276 11.3312L0.99152 24.5758ZM5.49353 27.8412L6.63625 25.7986L2.13891 23.119L0.996196 25.1616L1.03787 30.4465L5.49353 27.8412ZM1.08565 10.9766C2.7962 11.9957 4.52028 13.0159 6.22487 14.0315C7.42061 12.0745 9.62544 11.2626 11.2341 12.2211C12.8428 13.1796 13.264 15.5558 12.2195 17.6032C13.9239 18.6187 15.6422 19.6497 17.3527 20.6688L17.2485 7.4242L16.1585 9.37255L11.1625 6.39587L12.2526 4.44753L1.08565 10.9766ZM17.2436 6.83832L16.1009 8.88088L11.6036 6.20127L12.7463 4.15871L17.2021 1.55349L17.2436 6.83832ZM6.46872 14.1768C7.56942 12.3893 9.58817 11.6498 11.0623 12.5281C12.5365 13.4065 12.9253 15.5804 11.9756 17.4579L9.60072 16.0429C9.64961 15.8165 9.57824 15.5927 9.40547 15.4897C9.2327 15.3868 9.00919 15.4349 8.84365 15.5918L6.46872 14.1768ZM11.772 17.8219C10.6714 19.6104 8.652 20.3503 7.17766 19.4719C5.70332 18.5934 5.31434 16.4185 6.26507 14.5408L8.63966 15.9556C8.59024 16.1826 8.66142 16.4071 8.83453 16.5103C9.00764 16.6134 9.23168 16.5647 9.39741 16.4071L11.772 17.8219Z" fill="#F0EEE9"/>
<path d="M73.1655 6.71998H77.9591C78.2503 6.71998 78.5229 6.75358 78.7767 6.82078C79.0306 6.88798 79.2583 6.98131 79.4599 7.10078C79.6615 7.22025 79.8258 7.36211 79.9527 7.52638C80.0871 7.68318 80.1693 7.85118 80.1991 8.03038H80.3447L80.2439 4.47998H81.2743V13.44H80.2439L80.3447 11.7824H80.1991C80.1693 11.969 80.0871 12.1594 79.9527 12.3536C79.8258 12.5477 79.6615 12.7269 79.4599 12.8912C79.2583 13.048 79.0306 13.1786 78.7767 13.2832C78.5229 13.3877 78.2503 13.44 77.9591 13.44H73.1655C72.8221 13.44 72.4973 13.3765 72.1911 13.2496C71.885 13.1152 71.6162 12.936 71.3847 12.712C71.1607 12.4805 70.9815 12.2117 70.8471 11.9056C70.7202 11.5994 70.6567 11.2746 70.6567 10.9312V9.22878C70.6567 8.87785 70.7202 8.55305 70.8471 8.25438C70.9815 7.94825 71.1607 7.68318 71.3847 7.45918C71.6162 7.22771 71.885 7.04851 72.1911 6.92158C72.4973 6.78718 72.8221 6.71998 73.1655 6.71998ZM71.6871 9.57598V10.6064C71.6871 10.8752 71.7319 11.1216 71.8215 11.3456C71.9186 11.5696 72.0493 11.76 72.2135 11.9168C72.3778 12.0736 72.5757 12.1968 72.8071 12.2864C73.0386 12.3685 73.2925 12.4096 73.5687 12.4096H78.7767C78.9485 12.4096 79.1202 12.361 79.2919 12.264C79.4637 12.1669 79.6167 12.04 79.7511 11.8832C79.893 11.7264 80.0087 11.5472 80.0983 11.3456C80.1879 11.1365 80.2365 10.9274 80.2439 10.7184V9.30718C80.2365 9.02345 80.1879 8.78451 80.0983 8.59038C80.0162 8.38878 79.9005 8.22825 79.7511 8.10878C79.6093 7.98185 79.445 7.89225 79.2583 7.83998C79.0717 7.78025 78.8701 7.75038 78.6535 7.75038H73.5687C72.9938 7.75038 72.5346 7.91091 72.1911 8.23198C71.8551 8.55305 71.6871 9.00105 71.6871 9.57598Z" fill="#F0EEE9"/>
<path d="M68.5651 9.59837C68.5651 9.03837 68.3934 8.59037 68.0499 8.25437C67.7064 7.91837 67.2472 7.75037 66.6723 7.75037H63.3683C63.1144 7.75037 62.8643 7.77277 62.6179 7.81757C62.379 7.8549 62.155 7.92584 61.9459 8.03037C61.7368 8.12744 61.5539 8.26557 61.3971 8.44477C61.2403 8.6165 61.1208 8.83677 61.0387 9.10557V13.44H60.0083V6.71997H61.0387L60.9379 8.03037H61.0835C61.1358 7.82877 61.2291 7.64957 61.3635 7.49277C61.5054 7.3285 61.6771 7.19037 61.8787 7.07837C62.0803 6.9589 62.308 6.8693 62.5619 6.80957C62.8158 6.74984 63.0883 6.71997 63.3795 6.71997H67.0867C67.4376 6.71997 67.7624 6.78717 68.0611 6.92157C68.3672 7.0485 68.6323 7.22397 68.8563 7.44797C69.0878 7.67197 69.267 7.93704 69.3939 8.24317C69.5283 8.5493 69.5955 8.87784 69.5955 9.22877V13.44H68.5651V9.59837Z" fill="#F0EEE9"/>
<path d="M49.7129 10.4048C49.7278 10.6661 49.7763 10.9237 49.8585 11.1776C49.9481 11.4314 50.0638 11.6592 50.2057 11.8608C50.355 12.0624 50.5305 12.2266 50.7321 12.3536C50.9337 12.473 51.1502 12.5328 51.3817 12.5328H56.2313C56.7689 12.5328 57.2729 12.4917 57.7433 12.4096C58.2211 12.32 58.6169 12.1408 58.9305 11.872V12.824C58.6542 13.0405 58.3219 13.1973 57.9337 13.2944C57.5529 13.3914 57.1609 13.44 56.7577 13.44H50.9785C50.6126 13.44 50.2841 13.3504 49.9929 13.1712C49.7017 12.9845 49.4553 12.7493 49.2537 12.4656C49.0521 12.1818 48.8953 11.8682 48.7833 11.5248C48.6787 11.1738 48.6265 10.8341 48.6265 10.5056V9.41917C48.6265 8.99357 48.6787 8.6165 48.7833 8.28797C48.8953 7.95197 49.0409 7.66824 49.2201 7.43677C49.4067 7.2053 49.627 7.02984 49.8809 6.91037C50.1347 6.78344 50.4073 6.71997 50.6985 6.71997H56.8585C57.0601 6.71997 57.2803 6.75357 57.5193 6.82077C57.7582 6.88797 57.9822 6.9925 58.1913 7.13437C58.4003 7.27624 58.5758 7.45544 58.7177 7.67197C58.8595 7.8885 58.9305 8.1461 58.9305 8.44477V8.91517C58.9305 9.36317 58.7699 9.7253 58.4489 10.0016C58.1278 10.2704 57.6089 10.4048 56.8921 10.4048H49.7129ZM49.6905 9.51997H56.6009C56.6531 9.51997 56.7502 9.51624 56.8921 9.50877C57.0339 9.5013 57.1758 9.47144 57.3177 9.41917C57.467 9.3669 57.5977 9.28477 57.7097 9.17277C57.8291 9.0533 57.8889 8.8853 57.8889 8.66877C57.8889 8.35517 57.7657 8.1013 57.5193 7.90717C57.2803 7.71304 56.9705 7.61597 56.5897 7.61597H51.1465C51.027 7.61597 50.8851 7.6421 50.7209 7.69437C50.5641 7.73917 50.411 7.8325 50.2617 7.97437C50.1123 8.11624 49.9817 8.31037 49.8697 8.55677C49.7651 8.80317 49.7054 9.12424 49.6905 9.51997Z" fill="#F0EEE9"/>
<path d="M47.5654 7.75037H43.5334C43.3244 7.75037 43.1041 7.78024 42.8726 7.83997C42.6412 7.89224 42.4209 7.9781 42.2118 8.09757C42.0102 8.20957 41.831 8.35144 41.6742 8.52317C41.5174 8.68744 41.4017 8.88157 41.327 9.10557V13.44H40.2966V6.71997H41.327L41.2262 8.16477H41.3718C41.4241 7.9781 41.5137 7.7989 41.6406 7.62717C41.775 7.44797 41.9393 7.29117 42.1334 7.15677C42.335 7.02237 42.559 6.91784 42.8054 6.84317C43.0518 6.76104 43.3206 6.71997 43.6118 6.71997H47.5654V7.75037Z" fill="#F0EEE9"/>
<path d="M39.232 5.37598V6.40638H34.3488V13.44H33.3184V6.40638H28.48V5.37598H39.232Z" fill="#F0EEE9"/>
<path d="M129.034 27.52H125.818L123.53 24.192H116.698V27.52H114.058V16H125.642C126.143 16 126.607 16.0907 127.034 16.272C127.471 16.4533 127.85 16.6933 128.17 16.992C128.501 17.2907 128.757 17.6373 128.938 18.032C129.13 18.416 129.226 18.8107 129.226 19.216V20.896C129.226 21.2373 129.151 21.584 129.002 21.936C128.863 22.288 128.671 22.6133 128.426 22.912C128.191 23.2107 127.914 23.4667 127.594 23.68C127.285 23.8827 126.965 24.016 126.634 24.08L129.034 27.52ZM126.586 20.256V19.872C126.586 19.5307 126.447 19.2427 126.17 19.008C125.893 18.7627 125.525 18.64 125.066 18.64H116.698V21.552H125.066C125.599 21.552 125.983 21.4187 126.218 21.152C126.463 20.8747 126.586 20.576 126.586 20.256Z" fill="#F0EEE9"/>
<path d="M97.7361 16H112.216V18.64H100.376V20.448H111.832V23.072H100.376V24.88H112.216V27.52H97.7361V16Z" fill="#F0EEE9"/>
<path d="M93.2512 20.352C93.2512 20.128 93.2085 19.9147 93.1232 19.712C93.0485 19.4987 92.9312 19.3173 92.7712 19.168C92.6219 19.008 92.4352 18.88 92.2112 18.784C91.9978 18.688 91.7472 18.64 91.4592 18.64H84.7712C84.2272 18.64 83.7685 18.816 83.3952 19.168C83.0325 19.52 82.8512 19.9893 82.8512 20.576V22.992C82.8512 23.2693 82.8992 23.5253 82.9952 23.76C83.1018 23.984 83.2405 24.1813 83.4112 24.352C83.5819 24.5227 83.7845 24.656 84.0192 24.752C84.2539 24.8373 84.5045 24.88 84.7712 24.88H91.4592C91.6832 24.88 91.9018 24.8373 92.1152 24.752C92.3285 24.656 92.5205 24.528 92.6912 24.368C92.8618 24.208 92.9952 24.0213 93.0912 23.808C93.1979 23.584 93.2512 23.344 93.2512 23.088H95.8912V23.408C95.8912 23.9093 95.8005 24.4053 95.6192 24.896C95.4378 25.3867 95.1819 25.8293 94.8512 26.224C94.5312 26.608 94.1418 26.9227 93.6832 27.168C93.2245 27.4027 92.7178 27.52 92.1632 27.52H83.7952C83.3045 27.52 82.8405 27.4293 82.4032 27.248C81.9658 27.056 81.5819 26.8 81.2512 26.48C80.9312 26.1493 80.6752 25.7653 80.4832 25.328C80.3019 24.8907 80.2112 24.4267 80.2112 23.936V19.584C80.2112 19.0827 80.3019 18.6187 80.4832 18.192C80.6752 17.7547 80.9312 17.376 81.2512 17.056C81.5819 16.7253 81.9658 16.4693 82.4032 16.288C82.8405 16.096 83.3045 16 83.7952 16H92.1632C92.7178 16 93.2245 16.1227 93.6832 16.368C94.1418 16.6027 94.5312 16.912 94.8512 17.296C95.1819 17.68 95.4378 18.112 95.6192 18.592C95.8005 19.072 95.8912 19.552 95.8912 20.032V20.352H93.2512Z" fill="#F0EEE9"/>
<path d="M75.726 20.352C75.726 20.128 75.6834 19.9147 75.598 19.712C75.5234 19.4987 75.406 19.3173 75.246 19.168C75.0967 19.008 74.91 18.88 74.686 18.784C74.4727 18.688 74.222 18.64 73.934 18.64H67.246C66.702 18.64 66.2434 18.816 65.87 19.168C65.5074 19.52 65.326 19.9893 65.326 20.576V22.992C65.326 23.2693 65.374 23.5253 65.47 23.76C65.5767 23.984 65.7154 24.1813 65.886 24.352C66.0567 24.5227 66.2594 24.656 66.494 24.752C66.7287 24.8373 66.9794 24.88 67.246 24.88H73.934C74.158 24.88 74.3767 24.8373 74.59 24.752C74.8034 24.656 74.9954 24.528 75.166 24.368C75.3367 24.208 75.47 24.0213 75.566 23.808C75.6727 23.584 75.726 23.344 75.726 23.088H78.366V23.408C78.366 23.9093 78.2754 24.4053 78.094 24.896C77.9127 25.3867 77.6567 25.8293 77.326 26.224C77.006 26.608 76.6167 26.9227 76.158 27.168C75.6994 27.4027 75.1927 27.52 74.638 27.52H66.27C65.7794 27.52 65.3154 27.4293 64.878 27.248C64.4407 27.056 64.0567 26.8 63.726 26.48C63.406 26.1493 63.15 25.7653 62.958 25.328C62.7767 24.8907 62.686 24.4267 62.686 23.936V19.584C62.686 19.0827 62.7767 18.6187 62.958 18.192C63.15 17.7547 63.406 17.376 63.726 17.056C64.0567 16.7253 64.4407 16.4693 64.878 16.288C65.3154 16.096 65.7794 16 66.27 16H74.638C75.1927 16 75.6994 16.1227 76.158 16.368C76.6167 16.6027 77.006 16.912 77.326 17.296C77.6567 17.68 77.9127 18.112 78.094 18.592C78.2754 19.072 78.366 19.552 78.366 20.032V20.352H75.726Z" fill="#F0EEE9"/>
<path d="M57.2765 27.52H49.2445C48.7538 27.52 48.2898 27.4293 47.8525 27.248C47.4258 27.056 47.0472 26.8 46.7165 26.48C46.3965 26.1493 46.1405 25.7707 45.9485 25.344C45.7672 24.9067 45.6765 24.4427 45.6765 23.952V19.568C45.6765 19.0773 45.7672 18.6187 45.9485 18.192C46.1405 17.7547 46.3965 17.376 46.7165 17.056C47.0472 16.7253 47.4258 16.4693 47.8525 16.288C48.2898 16.096 48.7538 16 49.2445 16H57.2765C57.7672 16 58.2258 16.096 58.6525 16.288C59.0898 16.4693 59.4685 16.7253 59.7885 17.056C60.1192 17.376 60.3752 17.7547 60.5565 18.192C60.7485 18.6187 60.8445 19.0773 60.8445 19.568V23.952C60.8445 24.4427 60.7485 24.9067 60.5565 25.344C60.3752 25.7707 60.1192 26.1493 59.7885 26.48C59.4685 26.8 59.0898 27.056 58.6525 27.248C58.2258 27.4293 57.7672 27.52 57.2765 27.52ZM58.2045 22.992V20.544C58.2045 20.288 58.1565 20.048 58.0605 19.824C57.9752 19.5893 57.8472 19.3867 57.6765 19.216C57.5165 19.0347 57.3245 18.896 57.1005 18.8C56.8765 18.6933 56.6258 18.64 56.3485 18.64H50.2365C49.9698 18.64 49.7192 18.688 49.4845 18.784C49.2498 18.88 49.0418 19.0133 48.8605 19.184C48.6898 19.344 48.5565 19.5413 48.4605 19.776C48.3645 20 48.3165 20.2507 48.3165 20.528V23.008C48.3165 23.264 48.3592 23.5093 48.4445 23.744C48.5405 23.968 48.6738 24.1653 48.8445 24.336C49.0152 24.496 49.2125 24.6293 49.4365 24.736C49.6712 24.832 49.9272 24.88 50.2045 24.88H56.3005C56.5885 24.88 56.8445 24.832 57.0685 24.736C57.3032 24.6293 57.5058 24.4907 57.6765 24.32C57.8472 24.1493 57.9752 23.952 58.0605 23.728C58.1565 23.4933 58.2045 23.248 58.2045 22.992Z" fill="#F0EEE9"/>
<path d="M41.52 20.032C41.52 19.8613 41.4826 19.696 41.408 19.536C41.3333 19.3653 41.2213 19.216 41.072 19.088C40.9333 18.9493 40.752 18.8427 40.528 18.768C40.304 18.6827 40.0373 18.64 39.728 18.64H32.416C32.0426 18.64 31.7173 18.736 31.44 18.928C31.1733 19.1093 31.04 19.3867 31.04 19.76C31.04 20.0267 31.1626 20.2347 31.408 20.384C31.6533 20.5227 32.0053 20.592 32.464 20.592H40.528C41.04 20.592 41.5146 20.6667 41.952 20.816C42.3893 20.9653 42.7733 21.184 43.104 21.472C43.4346 21.7493 43.6906 22.096 43.872 22.512C44.064 22.928 44.16 23.4027 44.16 23.936C44.16 24.4267 44.064 24.8907 43.872 25.328C43.6906 25.7653 43.4346 26.1493 43.104 26.48C42.784 26.8 42.4053 27.056 41.968 27.248C41.5413 27.4293 41.0773 27.52 40.576 27.52H32.208C31.6533 27.52 31.1466 27.4027 30.688 27.168C30.24 26.9227 29.8506 26.608 29.52 26.224C29.1893 25.84 28.9333 25.408 28.752 24.928C28.5706 24.448 28.48 23.968 28.48 23.488H31.12C31.12 23.648 31.152 23.8133 31.216 23.984C31.2906 24.144 31.3973 24.2933 31.536 24.432C31.6853 24.56 31.872 24.6667 32.096 24.752C32.3306 24.8373 32.608 24.88 32.928 24.88H40.08C40.2826 24.88 40.4746 24.8533 40.656 24.8C40.8373 24.736 40.992 24.656 41.12 24.56C41.2586 24.464 41.3653 24.352 41.44 24.224C41.5253 24.0853 41.568 23.9413 41.568 23.792C41.568 23.4613 41.4346 23.248 41.168 23.152C40.9013 23.056 40.5386 23.008 40.08 23.008H32.192C31.7013 23.008 31.2266 22.9333 30.768 22.784C30.32 22.624 29.9253 22.4 29.584 22.112C29.2533 21.824 28.9866 21.4667 28.784 21.04C28.5813 20.6133 28.48 20.128 28.48 19.584C28.48 19.0827 28.5706 18.6187 28.752 18.192C28.944 17.7547 29.2 17.376 29.52 17.056C29.8506 16.7253 30.2346 16.4693 30.672 16.288C31.1093 16.096 31.5733 16 32.064 16H40.432C40.9866 16 41.4933 16.1227 41.952 16.368C42.4106 16.6027 42.8 16.912 43.12 17.296C43.4506 17.68 43.7066 18.112 43.888 18.592C44.0693 19.072 44.16 19.552 44.16 20.032H41.52Z" fill="#F0EEE9"/>
</svg>
