<svg width="48" height="40" viewBox="0 0 48 40" fill="none" xmlns="http://www.w3.org/2000/svg">
<path fill-rule="evenodd" clip-rule="evenodd" d="M17.0697 24.2424L16.9419 8.00462L30.6322 0L30.7601 16.2378L17.0697 24.2424ZM17.5142 23.448L17.3947 8.27443L30.1878 0.794378L30.3072 15.968L17.5142 23.448ZM17.693 18.618L18.5188 17.142L22.3036 19.397L21.4778 20.8731L29.9375 15.9267C28.6413 15.1545 27.3372 14.3818 26.0447 13.6117C25.139 15.095 23.4683 15.7103 22.2492 14.9839C21.0302 14.2576 20.7113 12.4569 21.5032 10.9058C20.2106 10.1356 18.9101 9.35639 17.6141 8.58421L17.693 18.618ZM21.1037 21.0918L21.9693 19.5444L18.5623 17.5144L17.6966 19.0618L17.7282 23.0655L21.1037 21.0918ZM17.7644 8.31558C19.0602 9.08768 20.3663 9.86049 21.6577 10.6299C22.5636 9.14733 24.2339 8.53226 25.4526 9.25839C26.6713 9.98451 26.9904 11.7847 26.1991 13.3358C27.4903 14.1051 28.792 14.8861 30.0879 15.6582L30.0089 5.62439L29.1832 7.10041L25.3984 4.84535L26.2241 3.36934L17.7644 8.31558ZM30.0052 5.18054L29.1395 6.72793L25.7325 4.69793L26.5982 3.15054L29.9738 1.17689L30.0052 5.18054ZM21.8424 10.74C22.6763 9.3858 24.2056 8.8256 25.3224 9.49101C26.4392 10.1564 26.7338 11.8033 26.0143 13.2257L24.2152 12.1537C24.2522 11.9822 24.1981 11.8126 24.0672 11.7346C23.9364 11.6567 23.767 11.6931 23.6416 11.812L21.8424 10.74ZM25.8601 13.5015C25.0263 14.8563 23.4964 15.4169 22.3795 14.7514C21.2626 14.0859 20.9679 12.4383 21.6882 11.0157L23.4871 12.0876C23.4496 12.2595 23.5036 12.4296 23.6347 12.5078C23.7659 12.5859 23.9356 12.549 24.0611 12.4296L25.8601 13.5015Z" fill="white"/>
<path d="M32.5101 30.1514H34.7798C34.9177 30.1514 35.0468 30.1673 35.167 30.1992C35.2872 30.231 35.395 30.2752 35.4904 30.3317C35.5859 30.3883 35.6637 30.4555 35.7238 30.5332C35.7874 30.6075 35.8263 30.687 35.8404 30.7719H35.9094L35.8617 29.0908H36.3495V33.3332H35.8617L35.9094 32.5484H35.8404C35.8263 32.6368 35.7874 32.7269 35.7238 32.8188C35.6637 32.9108 35.5859 32.9956 35.4904 33.0734C35.395 33.1476 35.2872 33.2095 35.167 33.259C35.0468 33.3085 34.9177 33.3332 34.7798 33.3332H32.5101C32.3475 33.3332 32.1937 33.3032 32.0488 33.2431C31.9038 33.1795 31.7766 33.0946 31.667 32.9885C31.5609 32.8789 31.4761 32.7517 31.4124 32.6067C31.3523 32.4618 31.3223 32.308 31.3223 32.1454V31.3393C31.3223 31.1731 31.3523 31.0194 31.4124 30.8779C31.4761 30.733 31.5609 30.6075 31.667 30.5014C31.7766 30.3918 31.9038 30.307 32.0488 30.2469C32.1937 30.1832 32.3475 30.1514 32.5101 30.1514ZM31.8101 31.5037V31.9916C31.8101 32.1188 31.8314 32.2355 31.8738 32.3416C31.9197 32.4476 31.9816 32.5378 32.0594 32.612C32.1372 32.6863 32.2309 32.7446 32.3404 32.787C32.45 32.8259 32.5702 32.8454 32.7011 32.8454H35.167C35.2483 32.8454 35.3296 32.8224 35.4109 32.7764C35.4922 32.7305 35.5647 32.6704 35.6283 32.5961C35.6955 32.5219 35.7503 32.437 35.7927 32.3416C35.8351 32.2426 35.8581 32.1436 35.8617 32.0446V31.3764C35.8581 31.2421 35.8351 31.1289 35.7927 31.037C35.7538 30.9416 35.699 30.8656 35.6283 30.809C35.5611 30.7489 35.4834 30.7065 35.395 30.6817C35.3066 30.6534 35.2111 30.6393 35.1086 30.6393H32.7011C32.4288 30.6393 32.2114 30.7153 32.0488 30.8673C31.8897 31.0194 31.8101 31.2315 31.8101 31.5037Z" fill="white"/>
<path d="M30.332 31.5142C30.332 31.2491 30.2507 31.037 30.0881 30.8779C29.9255 30.7188 29.708 30.6392 29.4358 30.6392H27.8714C27.7512 30.6392 27.6328 30.6499 27.5161 30.6711C27.403 30.6887 27.2969 30.7223 27.1979 30.7718C27.099 30.8178 27.0123 30.8832 26.9381 30.968C26.8638 31.0493 26.8073 31.1536 26.7684 31.2809V33.3332H26.2805V30.1514H26.7684L26.7207 30.7718H26.7896C26.8144 30.6764 26.8585 30.5915 26.9222 30.5173C26.9894 30.4395 27.0707 30.3741 27.1661 30.3211C27.2616 30.2645 27.3694 30.2221 27.4896 30.1938C27.6098 30.1655 27.7388 30.1514 27.8767 30.1514H29.632C29.7982 30.1514 29.952 30.1832 30.0934 30.2468C30.2383 30.3069 30.3638 30.39 30.4699 30.4961C30.5795 30.6021 30.6643 30.7276 30.7245 30.8726C30.7881 31.0175 30.8199 31.1731 30.8199 31.3392V33.3332H30.332V31.5142Z" fill="white"/>
<path d="M21.4058 31.8961C21.4128 32.0198 21.4358 32.1418 21.4747 32.262C21.5171 32.3822 21.5719 32.49 21.6391 32.5855C21.7098 32.6809 21.7929 32.7587 21.8883 32.8188C21.9838 32.8754 22.0863 32.9036 22.1959 32.9036H24.4921C24.7467 32.9036 24.9853 32.8842 25.208 32.8453C25.4343 32.8029 25.6217 32.718 25.7701 32.5908V33.0415C25.6393 33.144 25.482 33.2183 25.2982 33.2642C25.1179 33.3102 24.9323 33.3332 24.7414 33.3332H22.005C21.8318 33.3332 21.6762 33.2908 21.5383 33.2059C21.4004 33.1175 21.2838 33.0062 21.1883 32.8718C21.0929 32.7375 21.0186 32.589 20.9656 32.4264C20.9161 32.2602 20.8914 32.0993 20.8914 31.9438V31.4294C20.8914 31.2279 20.9161 31.0493 20.9656 30.8938C21.0186 30.7347 21.0876 30.6004 21.1724 30.4908C21.2608 30.3812 21.3651 30.2981 21.4853 30.2415C21.6055 30.1814 21.7345 30.1514 21.8724 30.1514H24.7891C24.8845 30.1514 24.9888 30.1673 25.102 30.1991C25.2151 30.2309 25.3212 30.2804 25.4201 30.3476C25.5191 30.4148 25.6022 30.4996 25.6694 30.6021C25.7366 30.7046 25.7701 30.8266 25.7701 30.968V31.1908C25.7701 31.4029 25.6941 31.5743 25.5421 31.7052C25.3901 31.8324 25.1444 31.8961 24.805 31.8961H21.4058ZM21.3951 31.4771H24.6671C24.6919 31.4771 24.7378 31.4754 24.805 31.4718C24.8722 31.4683 24.9393 31.4541 25.0065 31.4294C25.0772 31.4046 25.1391 31.3658 25.1921 31.3127C25.2487 31.2562 25.277 31.1766 25.277 31.0741C25.277 30.9256 25.2186 30.8054 25.102 30.7135C24.9888 30.6216 24.8421 30.5756 24.6618 30.5756H22.0845C22.028 30.5756 21.9608 30.588 21.883 30.6127C21.8088 30.6339 21.7363 30.6781 21.6656 30.7453C21.5949 30.8125 21.533 30.9044 21.48 31.0211C21.4305 31.1377 21.4022 31.2897 21.3951 31.4771Z" fill="white"/>
<path d="M20.3889 30.6392H18.4798C18.3808 30.6392 18.2766 30.6534 18.167 30.6817C18.0574 30.7064 17.9531 30.7471 17.8541 30.8036C17.7586 30.8567 17.6738 30.9238 17.5995 31.0052C17.5253 31.0829 17.4705 31.1749 17.4351 31.2809V33.3332H16.9473V30.1514H17.4351L17.3874 30.8355H17.4564C17.4811 30.7471 17.5235 30.6622 17.5836 30.5809C17.6473 30.4961 17.725 30.4218 17.817 30.3582C17.9124 30.2945 18.0185 30.2451 18.1351 30.2097C18.2518 30.1708 18.3791 30.1514 18.517 30.1514H20.3889V30.6392Z" fill="white"/>
<path d="M16.4432 29.5151V30.003H14.1311V33.3333H13.6432V30.003H11.3523V29.5151H16.4432Z" fill="white"/>
<path d="M47.6109 39.9999H46.0882L45.0049 38.4242H41.77V39.9999H40.52V34.5454H46.0049C46.2422 34.5454 46.4619 34.5883 46.664 34.6742C46.871 34.7601 47.0503 34.8737 47.2018 35.0151C47.3584 35.1565 47.4796 35.3207 47.5655 35.5075C47.6564 35.6893 47.7018 35.8762 47.7018 36.0681V36.8636C47.7018 37.0252 47.6665 37.1893 47.5958 37.356C47.5301 37.5227 47.4392 37.6767 47.323 37.8181C47.2119 37.9595 47.0806 38.0808 46.9291 38.1818C46.7826 38.2777 46.6311 38.3409 46.4746 38.3712L47.6109 39.9999ZM46.4518 36.5606V36.3787C46.4518 36.2171 46.3862 36.0808 46.2549 35.9697C46.1235 35.8535 45.9493 35.7954 45.7321 35.7954H41.77V37.1742H45.7321C45.9847 37.1742 46.1665 37.1111 46.2776 36.9848C46.3938 36.8535 46.4518 36.7121 46.4518 36.5606Z" fill="white"/>
<path d="M32.7917 34.5454H39.6478V35.7954H34.0417V36.6515H39.466V37.8939H34.0417V38.75H39.6478V39.9999H32.7917V34.5454Z" fill="white"/>
<path d="M30.6681 36.606C30.6681 36.5 30.6479 36.3989 30.6075 36.303C30.5722 36.202 30.5166 36.1161 30.4409 36.0454C30.3702 35.9697 30.2818 35.909 30.1757 35.8636C30.0747 35.8181 29.956 35.7954 29.8196 35.7954H26.653C26.3954 35.7954 26.1782 35.8787 26.0015 36.0454C25.8298 36.2121 25.7439 36.4343 25.7439 36.7121V37.856C25.7439 37.9873 25.7666 38.1085 25.8121 38.2196C25.8626 38.3257 25.9282 38.4191 26.009 38.5C26.0899 38.5808 26.1858 38.6439 26.2969 38.6893C26.408 38.7297 26.5267 38.75 26.653 38.75H29.8196C29.9257 38.75 30.0292 38.7297 30.1303 38.6893C30.2313 38.6439 30.3222 38.5833 30.403 38.5075C30.4838 38.4318 30.5469 38.3434 30.5924 38.2424C30.6429 38.1363 30.6681 38.0227 30.6681 37.9015H31.9181V38.053C31.9181 38.2904 31.8752 38.5252 31.7893 38.7575C31.7035 38.9899 31.5823 39.1994 31.4257 39.3863C31.2742 39.5681 31.0898 39.7171 30.8727 39.8333C30.6555 39.9444 30.4156 39.9999 30.153 39.9999H26.1909C25.9585 39.9999 25.7388 39.957 25.5318 39.8712C25.3247 39.7803 25.1429 39.659 24.9863 39.5075C24.8348 39.351 24.7136 39.1691 24.6227 38.9621C24.5368 38.755 24.4939 38.5353 24.4939 38.303V36.2424C24.4939 36.005 24.5368 35.7853 24.6227 35.5833C24.7136 35.3762 24.8348 35.1969 24.9863 35.0454C25.1429 34.8888 25.3247 34.7676 25.5318 34.6818C25.7388 34.5909 25.9585 34.5454 26.1909 34.5454H30.153C30.4156 34.5454 30.6555 34.6035 30.8727 34.7197C31.0898 34.8308 31.2742 34.9772 31.4257 35.159C31.5823 35.3409 31.7035 35.5454 31.7893 35.7727C31.8752 36 31.9181 36.2272 31.9181 36.4545V36.606H30.6681Z" fill="white"/>
<path d="M22.3703 36.606C22.3703 36.5 22.3501 36.3989 22.3097 36.303C22.2743 36.202 22.2188 36.1161 22.143 36.0454C22.0723 35.9697 21.9839 35.909 21.8779 35.8636C21.7768 35.8181 21.6582 35.7954 21.5218 35.7954H18.3551C18.0976 35.7954 17.8804 35.8787 17.7036 36.0454C17.5319 36.2121 17.446 36.4343 17.446 36.7121V37.856C17.446 37.9873 17.4688 38.1085 17.5142 38.2196C17.5647 38.3257 17.6304 38.4191 17.7112 38.5C17.792 38.5808 17.888 38.6439 17.9991 38.6893C18.1102 38.7297 18.2289 38.75 18.3551 38.75H21.5218C21.6279 38.75 21.7314 38.7297 21.8324 38.6893C21.9334 38.6439 22.0243 38.5833 22.1051 38.5075C22.1859 38.4318 22.2491 38.3434 22.2945 38.2424C22.345 38.1363 22.3703 38.0227 22.3703 37.9015H23.6203V38.053C23.6203 38.2904 23.5774 38.5252 23.4915 38.7575C23.4056 38.9899 23.2844 39.1994 23.1279 39.3863C22.9763 39.5681 22.792 39.7171 22.5748 39.8333C22.3577 39.9444 22.1178 39.9999 21.8551 39.9999H17.893C17.6607 39.9999 17.441 39.957 17.2339 39.8712C17.0269 39.7803 16.845 39.659 16.6885 39.5075C16.537 39.351 16.4157 39.1691 16.3248 38.9621C16.239 38.755 16.196 38.5353 16.196 38.303V36.2424C16.196 36.005 16.239 35.7853 16.3248 35.5833C16.4157 35.3762 16.537 35.1969 16.6885 35.0454C16.845 34.8888 17.0269 34.7676 17.2339 34.6818C17.441 34.5909 17.6607 34.5454 17.893 34.5454H21.8551C22.1178 34.5454 22.3577 34.6035 22.5748 34.7197C22.792 34.8308 22.9763 34.9772 23.1279 35.159C23.2844 35.3409 23.4056 35.5454 23.4915 35.7727C23.5774 36 23.6203 36.2272 23.6203 36.4545V36.606H22.3703Z" fill="white"/>
<path d="M13.6348 39.9999H9.83173C9.5994 39.9999 9.37971 39.957 9.17264 39.8712C8.97062 39.7803 8.79132 39.659 8.63476 39.5075C8.48324 39.351 8.36203 39.1717 8.27112 38.9696C8.18526 38.7626 8.14233 38.5429 8.14233 38.3106V36.2348C8.14233 36.0025 8.18526 35.7853 8.27112 35.5833C8.36203 35.3762 8.48324 35.1969 8.63476 35.0454C8.79132 34.8888 8.97062 34.7676 9.17264 34.6818C9.37971 34.5909 9.5994 34.5454 9.83173 34.5454H13.6348C13.8671 34.5454 14.0842 34.5909 14.2863 34.6818C14.4933 34.7676 14.6726 34.8888 14.8241 35.0454C14.9807 35.1969 15.1019 35.3762 15.1878 35.5833C15.2787 35.7853 15.3241 36.0025 15.3241 36.2348V38.3106C15.3241 38.5429 15.2787 38.7626 15.1878 38.9696C15.1019 39.1717 14.9807 39.351 14.8241 39.5075C14.6726 39.659 14.4933 39.7803 14.2863 39.8712C14.0842 39.957 13.8671 39.9999 13.6348 39.9999ZM14.0741 37.856V36.6969C14.0741 36.5757 14.0514 36.4621 14.006 36.356C13.9656 36.2449 13.905 36.1489 13.8241 36.0681C13.7484 35.9823 13.6575 35.9166 13.5514 35.8712C13.4454 35.8207 13.3267 35.7954 13.1954 35.7954H10.3014C10.1752 35.7954 10.0565 35.8181 9.94536 35.8636C9.83425 35.909 9.73577 35.9722 9.64991 36.053C9.5691 36.1287 9.50597 36.2222 9.46051 36.3333C9.41506 36.4393 9.39233 36.558 9.39233 36.6893V37.8636C9.39233 37.9848 9.41253 38.101 9.45294 38.2121C9.49839 38.3181 9.56152 38.4116 9.64233 38.4924C9.72314 38.5681 9.81657 38.6313 9.92264 38.6818C10.0337 38.7272 10.155 38.75 10.2863 38.75H13.1726C13.309 38.75 13.4302 38.7272 13.5363 38.6818C13.6474 38.6313 13.7433 38.5656 13.8241 38.4848C13.905 38.404 13.9656 38.3106 14.006 38.2045C14.0514 38.0934 14.0741 37.9772 14.0741 37.856Z" fill="white"/>
<path d="M6.17424 36.4545C6.17424 36.3737 6.15656 36.2954 6.1212 36.2197C6.08585 36.1388 6.03282 36.0681 5.96211 36.0075C5.89646 35.9419 5.8106 35.8914 5.70454 35.856C5.59848 35.8156 5.47222 35.7954 5.32575 35.7954H1.86363C1.68687 35.7954 1.53283 35.8409 1.40151 35.9318C1.27525 36.0176 1.21212 36.1489 1.21212 36.3257C1.21212 36.452 1.2702 36.5505 1.38636 36.6212C1.50252 36.6868 1.66919 36.7197 1.88636 36.7197H5.70454C5.94696 36.7197 6.17171 36.755 6.37878 36.8257C6.58585 36.8964 6.76767 37 6.92423 37.1363C7.0808 37.2676 7.20201 37.4318 7.28787 37.6287C7.37878 37.8257 7.42423 38.0505 7.42423 38.303C7.42423 38.5353 7.37878 38.755 7.28787 38.9621C7.20201 39.1691 7.0808 39.351 6.92423 39.5075C6.77272 39.659 6.59343 39.7803 6.38636 39.8712C6.18434 39.957 5.96464 39.9999 5.72727 39.9999H1.76515C1.50252 39.9999 1.26262 39.9444 1.04545 39.8333C0.833332 39.7171 0.648989 39.5681 0.492424 39.3863C0.335858 39.2045 0.214646 39 0.128788 38.7727C0.0429292 38.5454 0 38.3181 0 38.0909H1.25C1.25 38.1666 1.26515 38.2449 1.29545 38.3257C1.33081 38.4015 1.38131 38.4722 1.44697 38.5378C1.51768 38.5984 1.60606 38.6489 1.71212 38.6893C1.82323 38.7297 1.95454 38.75 2.10606 38.75H5.49242C5.58838 38.75 5.67929 38.7373 5.76514 38.7121C5.851 38.6818 5.92424 38.6439 5.98484 38.5984C6.0505 38.553 6.101 38.5 6.13636 38.4393C6.17676 38.3737 6.19696 38.3055 6.19696 38.2348C6.19696 38.0782 6.13383 37.9772 6.00757 37.9318C5.88131 37.8863 5.70959 37.8636 5.49242 37.8636H1.75757C1.52525 37.8636 1.3005 37.8282 1.08333 37.7575C0.871211 37.6818 0.684343 37.5757 0.522727 37.4393C0.366161 37.303 0.239899 37.1338 0.143939 36.9318C0.0479797 36.7298 0 36.5 0 36.2424C0 36.005 0.0429292 35.7853 0.128788 35.5833C0.219697 35.3762 0.340909 35.1969 0.492424 35.0454C0.648989 34.8888 0.830807 34.7676 1.03788 34.6818C1.24495 34.5909 1.46464 34.5454 1.69697 34.5454H5.65908C5.92171 34.5454 6.16161 34.6035 6.37878 34.7197C6.59595 34.8308 6.78029 34.9772 6.93181 35.159C7.08838 35.3409 7.20959 35.5454 7.29545 35.7727C7.3813 36 7.42423 36.2272 7.42423 36.4545H6.17424Z" fill="white"/>
</svg>
